<svg width="138" height="55" viewBox="0 0 138 55" fill="none" xmlns="http://www.w3.org/2000/svg">
<path d="M49.7651 36.8091V41.9765H49.193V36.8091H47.8877V36.2905H51.0704V36.8091H49.7651Z" fill="#F28424"/>
<path d="M57.4004 39.3302C57.0786 39.6521 56.6852 39.8309 56.2024 39.8487L57.8117 41.9765H57.0964L55.1653 39.4017H55.7733C56.0236 39.4017 56.2382 39.366 56.3812 39.3123C57.007 39.1156 57.311 38.7223 57.311 38.1143C57.311 37.6137 57.0964 37.2561 56.6852 37.0236C56.5243 36.9342 56.3455 36.8806 56.1488 36.8448C56.0057 36.8269 55.809 36.8091 55.5766 36.8091H54.5932V41.9765H54.021V36.2905H55.4693C55.5945 36.2905 55.7196 36.2905 55.809 36.2905C55.9342 36.2905 56.0594 36.3084 56.1667 36.3263C56.4527 36.362 56.6852 36.4157 56.864 36.5051C57.5434 36.8269 57.8832 37.3634 57.8832 38.1322C57.8832 38.615 57.7223 39.0084 57.4004 39.3302Z" fill="#F28424"/>
<path d="M64.9805 39.8309C64.9805 40.0454 64.9627 40.2421 64.9448 40.4388C64.909 40.6534 64.8554 40.85 64.7838 41.011C64.462 41.7262 63.8719 42.0659 63.0673 42.0659C62.2627 42.0659 61.6726 41.7083 61.3508 41.011C61.2793 40.85 61.2256 40.6534 61.1899 40.4388C61.1541 40.2421 61.1362 40.0454 61.1362 39.8309V36.2905H61.7084V39.8309C61.7084 40.0097 61.7263 40.1885 61.7442 40.3494C61.7799 40.564 61.8336 40.7249 61.9051 40.85C62.1554 41.3149 62.5488 41.5474 63.0852 41.5474C63.6216 41.5474 63.9971 41.3149 64.2653 40.85C64.3368 40.7249 64.3905 40.564 64.4262 40.3494C64.462 40.1885 64.462 40.0097 64.462 39.8309V36.2905H65.0342V39.8309H64.9805Z" fill="#F28424"/>
<path d="M68.4854 41.9765V36.2905H71.5966V36.8091H69.0575V38.8474H71.5071V39.366H69.0575V41.458H71.5966V41.9765H68.4854Z" fill="#F28424"/>
<path d="M83.0392 41.9765V39.3123H80.1068V41.9765H79.5347V36.2905H80.1068V38.7938H83.0392V36.2905H83.6114V41.9765H83.0392Z" fill="#F28424"/>
<path d="M91.5513 41.9765L90.7288 40.0633H88.0825L87.26 41.9765H86.6699L89.1017 36.2905H89.7454L92.195 41.9765H91.5513ZM89.4235 36.9342L88.3149 39.5448H90.5142L89.4235 36.9342Z" fill="#F28424"/>
<path d="M98.275 39.3659C98.0783 39.4911 97.8459 39.5984 97.5777 39.6341C97.4704 39.652 97.3452 39.6699 97.2022 39.6878C97.0949 39.6878 96.9698 39.7056 96.8267 39.7056H95.8075V41.9943H95.2354V36.3083H96.8267C96.9698 36.3083 97.0949 36.3084 97.2022 36.3262C97.3452 36.3441 97.4704 36.3441 97.5777 36.3799C97.8459 36.4335 98.0962 36.5229 98.275 36.6481C98.7399 36.9699 98.9724 37.4169 98.9724 38.007C98.9724 38.5792 98.7399 39.0441 98.275 39.3659ZM97.7565 36.952C97.6135 36.8805 97.4525 36.8448 97.2737 36.8269L97.0234 36.809H95.7897V39.1692H97.0234L97.2737 39.1513C97.4525 39.1335 97.6135 39.0977 97.7565 39.0262C98.2035 38.8116 98.4181 38.4719 98.4181 37.9891C98.4181 37.5063 98.1856 37.1666 97.7565 36.952Z" fill="#F28424"/>
<path d="M105.194 39.3659C104.998 39.4911 104.765 39.5984 104.497 39.6341C104.39 39.652 104.265 39.6699 104.122 39.6878C104.014 39.6878 103.889 39.7056 103.746 39.7056H102.727V41.9943H102.155V36.3083H103.746C103.889 36.3083 104.014 36.3084 104.122 36.3262C104.265 36.3441 104.39 36.3441 104.497 36.3799C104.765 36.4335 105.016 36.5229 105.194 36.6481C105.659 36.9699 105.892 37.4169 105.892 38.007C105.91 38.5792 105.677 39.0441 105.194 39.3659ZM104.676 36.952C104.533 36.8805 104.372 36.8448 104.193 36.8269L103.943 36.809H102.709V39.1692H103.943L104.193 39.1513C104.372 39.1335 104.533 39.0977 104.676 39.0262C105.123 38.8116 105.338 38.4719 105.338 37.9891C105.338 37.5063 105.123 37.1666 104.676 36.952Z" fill="#F28424"/>
<path d="M109.091 41.9765V36.2905H109.663V41.9765H109.091Z" fill="#F28424"/>
<path d="M117.155 41.9765L113.776 36.97H113.758V41.9765H113.186V36.2905H113.955L117.138 41.011H117.155V36.2905H117.728V41.9765H117.155Z" fill="#F28424"/>
<path d="M121.215 41.9765V36.2905H124.326V36.8091H121.787V38.8474H124.237V39.366H121.787V41.458H124.326V41.9765H121.215Z" fill="#F28424"/>
<path d="M130.316 41.6009C129.976 41.9227 129.583 42.0837 129.1 42.0837C128.599 42.0837 128.17 41.9227 127.848 41.6188C127.526 41.3148 127.348 40.9035 127.348 40.385H127.92C127.956 41.1718 128.349 41.5651 129.1 41.5651C129.422 41.5651 129.69 41.4578 129.905 41.2433C130.137 41.0287 130.244 40.7605 130.244 40.4387C130.244 40.0989 130.119 39.8128 129.851 39.6162C129.744 39.5268 129.601 39.4552 129.44 39.3837C129.315 39.3301 129.171 39.2764 128.975 39.2228C128.742 39.1513 128.546 39.0797 128.403 39.0261C128.206 38.9546 128.063 38.8652 127.938 38.7579C127.652 38.5254 127.509 38.1678 127.509 37.7208C127.509 37.2738 127.67 36.9162 127.973 36.6122C128.277 36.3261 128.653 36.1831 129.1 36.1831C129.547 36.1831 129.905 36.3261 130.209 36.6301C130.512 36.9341 130.673 37.2917 130.673 37.7387H130.101C130.101 37.4526 130.012 37.2202 129.815 37.0056C129.618 36.8089 129.386 36.7016 129.1 36.7016C128.814 36.7016 128.564 36.791 128.367 36.9877C128.17 37.1844 128.063 37.4169 128.063 37.7029C128.063 38.0248 128.224 38.293 128.528 38.4539C128.635 38.5076 128.778 38.5791 128.975 38.6327L129.422 38.7758C129.851 38.9009 130.191 39.0976 130.423 39.3658C130.691 39.6519 130.816 40.0095 130.816 40.4208C130.816 40.8857 130.656 41.279 130.316 41.6009Z" fill="#F28424"/>
<path d="M136.521 41.6009C136.181 41.9227 135.788 42.0837 135.305 42.0837C134.804 42.0837 134.375 41.9227 134.053 41.6188C133.732 41.3148 133.553 40.9035 133.553 40.385H134.125C134.161 41.1718 134.554 41.5651 135.305 41.5651C135.627 41.5651 135.895 41.4578 136.11 41.2433C136.342 41.0287 136.449 40.7605 136.449 40.4387C136.449 40.0989 136.324 39.8128 136.056 39.6162C135.949 39.5268 135.806 39.4552 135.645 39.3837C135.52 39.3301 135.377 39.2764 135.18 39.2228C134.947 39.1513 134.751 39.0797 134.608 39.0261C134.411 38.9546 134.268 38.8652 134.143 38.7579C133.857 38.5254 133.714 38.1678 133.714 37.7208C133.714 37.2738 133.875 36.9162 134.179 36.6122C134.483 36.3261 134.858 36.1831 135.305 36.1831C135.752 36.1831 136.11 36.3261 136.414 36.6301C136.718 36.9341 136.878 37.2917 136.878 37.7387H136.306C136.306 37.4526 136.217 37.2202 136.02 37.0056C135.824 36.8089 135.591 36.7016 135.305 36.7016C135.019 36.7016 134.769 36.791 134.572 36.9877C134.375 37.1844 134.268 37.4169 134.268 37.7029C134.268 38.0248 134.429 38.293 134.733 38.4539C134.84 38.5076 134.983 38.5791 135.18 38.6327L135.627 38.7758C136.056 38.9009 136.396 39.0976 136.628 39.3658C136.896 39.6519 137.022 40.0095 137.022 40.4208C137.022 40.8857 136.861 41.279 136.521 41.6009Z" fill="#F28424"/>
<path d="M73.9028 33.9128C73.5094 33.0367 69.0393 22.523 68.1632 20.3594C68.0201 20.0197 67.7698 19.8945 67.4122 19.8945H67.3943C66.1784 19.9124 64.9626 19.8945 63.7467 19.9124C63.6752 19.8945 63.6215 19.8945 63.55 19.8945C63.1924 19.8945 62.9599 20.1091 62.8169 20.4846C61.6189 23.3991 60.403 26.3136 59.1872 29.2281C59.0263 29.6215 59.0084 29.9791 59.2051 30.3367C59.2051 30.3367 59.2051 30.3367 59.1872 30.3367C59.7951 31.4632 60.3852 32.5897 60.9931 33.6982C61.2077 34.1095 61.5653 34.2525 62.0123 34.1631C62.5129 34.0201 68.0201 30.8016 68.2704 30.5155C67.3049 30.5155 64.8016 30.587 62.6381 30.5692C63.0494 29.3712 63.6036 28.2447 64.0864 27.0646C64.5334 25.956 65.0162 24.8653 65.499 23.7925C66.84 26.9573 68.8605 31.6599 69.7724 33.8413C69.8976 34.1274 70.0049 34.2883 70.3625 34.2704C71.4532 34.2525 72.5618 34.2525 73.6525 34.2704C73.9922 34.2704 74.028 34.1989 73.9028 33.9128Z" fill="#008345"/>
<path d="M57.0044 32.9293C56.3428 33.4836 55.6276 33.8591 54.823 34.0021C54.4833 34.0736 54.1078 34.1094 53.6608 34.1273C53.482 34.1273 53.2674 34.1451 53.0349 34.1451H47.8496V19.9302H52.2124C52.7667 19.9302 53.178 19.9481 53.4641 19.9659C53.929 19.9838 54.3223 20.0375 54.6621 20.1269C55.5203 20.3235 56.2177 20.7169 56.7541 21.3249C57.3084 21.9507 57.5945 22.7195 57.5945 23.6672C57.5945 24.9546 57.0402 25.9023 55.9495 26.5281C57.5051 27.0645 58.2918 28.1731 58.2918 29.836C58.3097 31.1591 57.8627 32.1783 57.0044 32.9293ZM53.7144 23.3275C53.482 23.1844 53.1601 23.1129 52.7131 23.1129H51.3184V25.3301H52.6952C53.6608 25.3301 54.1435 24.9546 54.1435 24.2036C54.1435 23.7924 54.0005 23.4884 53.7144 23.3275ZM54.3045 28.6022C54.0363 28.4592 53.6429 28.3698 53.1422 28.3698H51.3184V30.9624H53.1243C53.6429 30.9624 54.0362 30.873 54.3223 30.6763C54.6621 30.4439 54.8409 30.0863 54.8409 29.6035C54.823 29.1386 54.6442 28.7989 54.3045 28.6022Z" fill="#008345"/>
<path d="M79.5507 23.1129V34.1451H75.921V23.1129H73.1138L74.0614 19.9302H82.3401V23.1129H79.5507Z" fill="#008345"/>
<path d="M92.7126 23.1307V34.1451H89.0829V23.1307H85.2207L86.2935 19.948H95.502V23.1307H92.7126Z" fill="#008345"/>
<path d="M97.7896 34.1451V19.9302H105.675V23.1308H101.258V25.348H105.532V28.5307H101.258V30.9624H105.675V34.1451H97.7896Z" fill="#008345"/>
<path d="M122.304 28.8345C121.893 30.4974 121.017 31.8563 119.694 32.8755C118.37 33.8947 116.851 34.4132 115.134 34.4132C113.06 34.4132 111.29 33.698 109.841 32.2676C108.375 30.8372 107.642 29.0849 107.642 27.0107C107.642 24.9366 108.375 23.2022 109.824 21.7718C111.272 20.3592 113.024 19.6619 115.098 19.6619C117.798 19.6619 119.872 20.7705 121.356 23.0055C121.875 23.7744 122.197 24.5432 122.322 25.33H118.513C117.888 23.685 116.743 22.8625 115.08 22.8625C113.954 22.8625 113.042 23.2737 112.309 24.1141C111.612 24.9187 111.272 25.8843 111.272 27.0107C111.272 28.1551 111.612 29.1385 112.309 29.9431C113.042 30.8014 113.972 31.2305 115.098 31.2305C116.654 31.2305 117.78 30.4259 118.513 28.8345H122.304Z" fill="#008345"/>
<path d="M132.802 19.948V25.2943H129.386C128.975 25.2943 128.564 25.2585 128.153 25.2049V19.9659H124.523V23.7565V24.7578V34.1808H128.153V28.4949H132.051C132.301 28.4949 132.551 28.5306 132.802 28.5664V34.1808H136.431V30.2471V29.2458V19.9659H132.802V19.948Z" fill="#008345"/>
<path d="M18.5463 34.9318C18.5463 34.9318 18.5463 27.1895 18.5463 25.6161C18.5463 24.0426 19.0469 22.7016 20.4595 21.9506C21.872 21.1996 25.1978 21.1102 25.9488 24.7757C25.9488 24.7757 27.3613 24.0247 28.9527 24.8651C30.5262 25.6161 30.9553 26.9392 31.1162 28.0299C31.2056 29.1206 30.7765 30.5332 28.7918 31.6954C26.7892 32.8577 24.4647 34.1987 23.1237 34.9497C21.8005 35.7007 20.2092 36.7735 19.1363 37.2741C18.0456 37.7748 16.6331 38.4364 14.8987 37.0238C13.1464 35.7007 12.8245 32.6967 14.9881 31.1948C14.9881 31.1948 13.1642 29.9431 13.5755 27.5293C13.9152 25.1154 16.2397 24.275 17.992 24.6148L17.9026 26.1167C17.9026 26.1167 16.9907 25.777 15.9894 26.3671C14.9881 26.9571 14.7377 28.1909 15.149 29.1922C15.5602 30.1935 16.7225 30.3544 17.0622 30.855C17.4019 31.3557 17.0622 31.6954 16.4721 32.0173C15.8106 32.357 14.8987 33.0186 15.0596 34.5205C15.2205 36.0225 17.0622 36.9344 18.4747 36.094C19.8873 35.2536 27.0574 31.1769 28.2911 30.4259C29.5428 29.6749 29.7931 28.924 29.7931 28.3518C29.7931 27.7796 29.6322 26.9392 28.7918 26.3492C27.9514 25.7591 26.968 25.9379 26.3779 26.3492C25.7879 26.6889 25.466 26.9392 25.0548 26.6889C24.6435 26.4386 24.715 25.8485 24.715 25.4373C24.715 25.026 24.715 24.275 23.8746 23.5241C23.1237 22.7731 21.7111 22.7731 20.7992 23.685C20.2986 24.1856 20.2092 24.8472 20.2092 25.8485V34.0914L18.5463 34.9318Z" fill="#008345"/>
<path d="M20.7801 25.9558L27.4316 29.7822L25.9297 30.6226L20.7622 27.6187V25.9558H20.7801Z" fill="#008345"/>
<path d="M30.1145 31.606C30.1145 31.606 31.5271 32.9291 30.8655 35.1105C30.2754 37.2741 27.8616 38.3648 25.8768 37.5244C25.8768 37.5244 25.7159 39.2767 24.1246 40.1886C22.6226 41.1005 19.9584 41.1005 18.6353 38.2754L19.9584 37.5244C19.9584 37.5244 20.3697 39.3482 22.2829 39.2767C24.1961 39.2052 24.4464 37.5244 24.357 37.0237C24.357 36.5231 24.2676 35.933 24.6967 35.7006C25.108 35.4503 25.4477 35.7006 26.1987 36.1118C26.8603 36.5231 28.4516 36.5231 29.2026 35.3609C29.8642 34.1986 29.4529 33.0364 28.7914 32.4463L30.1145 31.606Z" fill="#008345"/>
<path d="M20.7817 28.5305L25.1982 31.1053L20.7817 33.6801V28.5305Z" fill="#F28424"/>
<path fill-rule="evenodd" clip-rule="evenodd" d="M15.542 42.37C7.6031 37.7747 8.80109 39.8667 8.80109 30.694C8.80109 28.7093 8.74745 27.261 8.72957 26.1345C6.22631 28.0656 1.36282 32.2318 0.00390625 36.3621C0.0754281 38.5793 0.468798 40.6177 1.61315 42.6024C2.86478 44.7481 4.58131 46.1606 6.67332 47.4123C8.13952 48.2884 9.67724 49.0752 11.1434 49.9155C12.6275 50.7738 14.0758 51.7036 15.5599 52.544C17.6877 53.742 19.7618 54.5287 22.2472 54.5287C24.7326 54.5287 26.8067 53.742 28.9345 52.544C30.4186 51.7036 31.8669 50.7738 33.351 49.9155C34.2986 49.3791 35.2463 48.8606 36.194 48.3242C31.0086 49.9155 22.4796 46.1964 20.8346 45.4454C20.7452 45.4097 20.6558 45.356 20.5486 45.3203C19.4936 44.7838 18.0274 43.8004 15.542 42.37Z" fill="#008345"/>
<path fill-rule="evenodd" clip-rule="evenodd" d="M35.8004 24.8296C35.8898 26.0455 35.7647 27.8156 35.7647 30.6944C35.7647 39.8671 36.9627 37.775 29.0237 42.3703C27.3072 43.3537 26.0735 44.1405 25.1079 44.6948C28.0403 45.8928 34.066 48.0205 38.3216 47.1265C40.2169 45.9464 41.7725 44.6054 42.9169 42.6028C44.1685 40.4571 44.5261 38.2578 44.544 35.8082C44.5619 34.1095 44.4725 32.393 44.4725 30.6765C44.4725 28.96 44.544 27.2434 44.544 25.5448C44.5261 23.1131 44.1685 20.9138 42.9169 18.7502C41.6652 16.6046 39.9487 15.192 37.8567 13.9404C36.3905 13.0642 34.8528 12.2775 33.3866 11.4371C32.4389 10.9007 31.527 10.3285 30.5972 9.75635C34.5846 13.4576 35.6216 22.7376 35.7825 24.5077C35.7825 24.6329 35.8004 24.7223 35.8004 24.8296Z" fill="#008345"/>
<path fill-rule="evenodd" clip-rule="evenodd" d="M28.4882 8.57608C26.5213 7.52113 24.5724 6.85955 22.2658 6.85955C19.7804 6.85955 17.7063 7.64629 15.5785 8.84429C14.0944 9.68467 12.6461 10.6145 11.162 11.4727C10.3753 11.9197 9.58855 12.3489 8.80181 12.7959V10.7217C8.80181 3.56955 9.32034 -0.471436 0.0403807 -0.471436V24.2036C0.00461982 24.6506 -0.0132606 25.0976 -0.0132606 25.5446C-0.0311411 27.2433 0.0582612 28.9598 0.0582612 30.6763C0.0582612 31.767 0.0225003 32.8577 0.00461982 33.9306C1.22049 28.6201 8.74817 23.095 10.1965 22.0579C10.268 22.0043 10.3574 21.9507 10.4468 21.897C11.466 21.2176 13.0574 20.4308 15.5427 19.0004C23.4817 14.4051 21.0857 14.4051 29.0246 19.0004C30.7411 19.9838 32.0285 20.6633 32.9941 21.2176C32.5828 18.1064 31.4027 11.8124 28.4882 8.57608Z" fill="#008345"/>
</svg>
