<svg width="540" height="411" viewBox="0 0 540 411" fill="none" xmlns="http://www.w3.org/2000/svg">
<path d="M78.9325 369.315C184.174 424.314 354.807 424.314 460.049 369.315C565.29 314.316 565.29 225.269 460.049 170.321C354.807 115.373 184.174 115.322 78.9325 170.321C-26.3089 225.32 -26.3089 314.355 78.9325 369.315Z" fill="#F6F8DD"/>
<path d="M137.069 116.537L162.432 101.905L137.069 87.2727L111.475 101.905L137.069 116.537Z" stroke="#EBEBEB" stroke-width="0.454005" stroke-linecap="round" stroke-linejoin="round"/>
<path d="M117.375 101.917L137.082 44.9863V113.288L117.375 101.917Z" fill="#F7CEB1"/>
<path d="M137.082 113.288L156.776 101.917L137.082 44.9863V113.288Z" fill="#F3BC95"/>
<path d="M106.075 134.392L131.439 119.759L106.075 105.127L80.4814 119.759L106.075 134.392Z" stroke="#EBEBEB" stroke-width="0.454005" stroke-linecap="round" stroke-linejoin="round"/>
<path d="M86.3813 119.772L106.076 35.2268V131.143L86.3813 119.772Z" fill="#F7CEB1"/>
<path d="M106.076 131.143L125.77 119.772L106.076 35.2268V131.143Z" fill="#F3BC95"/>
<path d="M75.0811 152.248L100.445 137.616L75.0811 122.983L49.4746 137.616L75.0811 152.248Z" stroke="#EBEBEB" stroke-width="0.454005" stroke-linecap="round" stroke-linejoin="round"/>
<path d="M55.3862 137.629L75.0806 87.2727V149L55.3862 137.629Z" fill="#F7CEB1"/>
<path d="M75.0806 149L94.7749 137.629L75.0806 87.2727V149Z" fill="#F3BC95"/>
<path d="M44.0875 170.103L69.4508 155.47L44.0875 140.838L18.481 155.47L44.0875 170.103Z" stroke="#EBEBEB" stroke-width="0.454005" stroke-linecap="round" stroke-linejoin="round"/>
<path d="M24.3804 155.483L44.0875 69.9912V166.854L24.3804 155.483Z" fill="#F7CEB1"/>
<path d="M44.0869 166.854L63.7813 155.483L44.0869 69.9912V166.854Z" fill="#F3BC95"/>
<path d="M382.117 97.082L517.379 175.13" stroke="#EBEBEB" stroke-width="0.454005" stroke-miterlimit="10" stroke-linecap="round"/>
<path d="M517.379 166.854C517.216 157.057 516.528 147.275 515.319 137.551C514.039 126.986 511.48 109.156 501.306 103.273C491.133 97.3889 487.294 108.031 485.822 113.262C483.903 120.054 473.934 115.756 472.552 104.564C471.17 93.3727 470.261 57.7128 458.309 50.8443C446.357 43.9758 442.505 60.5395 441.148 65.1697C438.474 74.2637 430.629 71.7568 428.07 65.7325C425.511 59.7081 418.524 58.2372 415.887 66.7173C413.251 75.1974 411.626 84.931 403.091 79.9299C395.592 75.5428 399.034 67.5487 391.727 63.7499C385.943 60.757 383.255 75.0311 383.255 89.4716L517.379 166.854Z" fill="#F7CEB1"/>
<path d="M507.552 92.4267C507.552 93.9872 506.144 94.4348 504.429 93.45L494.192 87.5152C493.35 87.0384 492.63 86.3735 492.089 85.5725C491.547 84.7715 491.198 83.856 491.069 82.8978C491.069 81.3502 492.477 80.8897 494.192 81.8874L504.429 87.8221C505.27 88.2961 505.99 88.9586 506.532 89.7576C507.074 90.5565 507.423 91.4702 507.552 92.4267Z" fill="#F3BC95"/>
<path d="M465.527 42.2489C465.527 43.8093 464.132 44.257 462.405 43.2721L452.167 37.3373C451.324 36.8629 450.603 36.1986 450.061 35.3971C449.519 34.5957 449.171 33.6791 449.045 32.72C449.045 31.1723 450.44 30.7119 452.167 31.7095L462.405 37.6443C463.247 38.1167 463.968 38.7788 464.51 39.578C465.052 40.3773 465.4 41.2917 465.527 42.2489Z" fill="#F3BC95"/>
<path d="M432.242 51.4841C432.242 53.0446 430.847 53.4922 429.132 52.5073L418.895 46.5725C418.051 46.0981 417.33 45.4338 416.788 44.6324C416.246 43.8309 415.898 42.9143 415.772 41.9552C415.772 40.4075 417.167 39.9471 418.895 40.9447L429.132 46.8795C429.972 47.3542 430.69 48.0171 431.229 48.8161C431.769 49.6151 432.116 50.5284 432.242 51.4841Z" fill="#F3BC95"/>
<path d="M400.685 54.5418C400.685 56.1023 399.291 56.5499 397.563 55.5523L387.325 49.6303C386.486 49.1528 385.768 48.4875 385.228 47.6864C384.689 46.8853 384.342 45.9703 384.216 45.0129C384.216 43.4653 385.611 43.0048 387.325 44.0025L397.563 49.9245C398.405 50.4005 399.125 51.0652 399.667 51.8663C400.209 52.6675 400.557 53.5833 400.685 54.5418Z" fill="#F3BC95"/>
<path d="M376.487 85.5579V1" stroke="#EBEBEB" stroke-width="0.454005" stroke-miterlimit="10" stroke-linecap="round"/>
<path d="M48.618 272.593C48.618 272.593 50.7167 253.817 44.8942 235.935C39.4171 219.026 28.4118 210.06 21.7446 207.374C9.13974 202.348 8.01362 216.225 17.4577 225.831C24.3808 232.891 41.0423 247.447 43.9088 272.133L48.618 272.593Z" fill="#A4D84F"/>
<path opacity="0.7" d="M48.618 272.593C48.618 272.593 50.7167 253.817 44.8942 235.935C39.4171 219.026 28.4118 210.06 21.7446 207.374C9.13974 202.348 8.01362 216.225 17.4577 225.831C24.3808 232.891 41.0423 247.447 43.9088 272.133L48.618 272.593Z" fill="white"/>
<path d="M18.3408 211.25C25.955 216.366 46.4171 231.139 47.1594 272.452" stroke="#FAFAFA" stroke-width="0.454005" stroke-miterlimit="10" stroke-linecap="round"/>
<path d="M43.2556 285.422C39.3397 266.492 31.3417 259.623 17.0476 252.307C10.9307 249.186 3.76446 245.707 1.17949 241.729C-1.40547 237.752 -0.100191 232.405 8.70405 232.52C24.7897 232.738 43.1148 252.115 45.559 273.347L43.2556 285.422Z" fill="#A4D84F"/>
<path opacity="0.8" d="M43.2556 285.422C39.3397 266.492 31.3417 259.623 17.0476 252.307C10.9307 249.186 3.76446 245.707 1.17949 241.729C-1.40547 237.752 -0.100191 232.405 8.70405 232.52C24.7897 232.738 43.1148 252.115 45.559 273.347L43.2556 285.422Z" fill="white"/>
<path d="M7.34766 236.64C19.4919 238.29 38.6744 252.436 44.7657 277.569" stroke="#FAFAFA" stroke-width="0.454005" stroke-miterlimit="10" stroke-linecap="round"/>
<path d="M491.901 263.729C496.828 254.264 500.654 227.711 494.32 215.433C487.985 203.154 478.567 204.139 477.108 208.116C475.828 211.787 478.989 218.349 483.084 226.164C487.179 233.979 490.634 250.721 486.757 258.524L491.901 263.729Z" fill="#A4D84F"/>
<path opacity="0.7" d="M491.901 263.729C496.828 254.264 500.654 227.711 494.32 215.433C487.985 203.154 478.567 204.139 477.108 208.116C475.828 211.787 478.989 218.349 483.084 226.164C487.179 233.979 490.634 250.721 486.757 258.524L491.901 263.729Z" fill="white"/>
<path d="M483.326 208.755C487.357 211.991 498.9 231.778 490.825 258.932" stroke="#FAFAFA" stroke-width="0.454005" stroke-miterlimit="10" stroke-linecap="round"/>
<path d="M490.34 273.757C487.371 267.822 480.871 257.999 485.298 251.258C489.726 244.518 494.358 250.478 497.916 246.078C501.474 241.678 497.404 234.567 500.475 230.73C506.413 223.183 510.713 231.945 515.371 230.794C518.736 229.962 522.486 222.505 532.173 223.413C541.86 224.322 541.374 231.996 537.062 235.603C532.749 239.21 527.63 242.804 530.957 248.214C533.901 253.011 535.424 261.874 525.352 265.315C515.729 268.602 520.49 272.772 518.954 277.479C517.418 282.186 508.333 286.65 498.671 283.017L490.34 273.757Z" fill="#A4D84F"/>
<path opacity="0.8" d="M490.34 273.757C487.371 267.822 480.871 257.999 485.298 251.258C489.726 244.518 494.358 250.478 497.916 246.078C501.474 241.678 497.404 234.567 500.475 230.73C506.413 223.183 510.713 231.945 515.371 230.794C518.736 229.962 522.486 222.505 532.173 223.413C541.86 224.322 541.374 231.996 537.062 235.603C532.749 239.21 527.63 242.804 530.957 248.214C533.901 253.011 535.424 261.874 525.352 265.315C515.729 268.602 520.49 272.772 518.954 277.479C517.418 282.186 508.333 286.65 498.671 283.017L490.34 273.757Z" fill="white"/>
<path d="M533.502 227.763C523.009 230.577 497.876 250.99 495.751 276.61" stroke="#FAFAFA" stroke-width="0.454005" stroke-miterlimit="10" stroke-linecap="round"/>
<path d="M525.94 254.661C520.757 253.484 507.589 253.318 502.662 255.711" stroke="#FAFAFA" stroke-width="0.454005" stroke-miterlimit="10" stroke-linecap="round"/>
<path d="M505.594 232.981C505.594 232.981 509.433 240.413 508.883 246.667" stroke="#FAFAFA" stroke-width="0.454005" stroke-miterlimit="10" stroke-linecap="round"/>
<path d="M362.448 160.396C360.733 154.46 357.667 149.001 353.49 144.446C348.554 139.066 342.781 134.518 336.394 130.977C328.977 126.778 321.091 123.468 312.899 121.116C303.874 118.513 294.616 116.799 285.257 116C275.59 115.117 265.863 115.117 256.196 116C246.841 116.799 237.587 118.513 228.567 121.116C220.37 123.466 212.479 126.776 205.059 130.977C198.672 134.548 192.903 139.127 187.976 144.535C183.803 149.093 180.737 154.551 179.018 160.485C177.489 165.974 177.489 171.777 179.018 177.266C180.724 183.202 183.791 188.659 187.976 193.203C192.907 198.617 198.68 203.199 205.072 206.774C212.483 210.972 220.366 214.278 228.554 216.623C237.579 219.238 246.836 220.968 256.196 221.79C265.863 222.66 275.59 222.66 285.257 221.79C294.622 220.965 303.884 219.23 312.911 216.61C321.1 214.265 328.983 210.959 336.394 206.761C342.788 203.19 348.562 198.607 353.49 193.19C357.669 188.642 360.736 183.187 362.448 177.253C363.979 171.738 363.979 165.911 362.448 160.396Z" fill="#37474F"/>
<path d="M177.866 160.421H363.587V169.886L177.866 169.361V160.421Z" fill="#37474F"/>
<path d="M256.194 107.519L270.706 160.395L228.566 112.686C237.584 110.065 246.838 108.334 256.194 107.519Z" fill="#008345"/>
<path d="M285.256 107.52L270.745 160.395L256.233 107.494C265.888 106.622 275.603 106.631 285.256 107.52Z" fill="#008345"/>
<path d="M312.898 112.686L270.745 160.394L285.257 107.493C294.618 108.317 303.876 110.057 312.898 112.686Z" fill="#008345"/>
<path d="M353.476 136.094C357.65 140.655 360.715 146.118 362.434 152.056L270.757 160.395L353.476 136.094Z" fill="#008345"/>
<path d="M362.446 152.069C363.963 157.556 363.963 163.351 362.446 168.838L270.757 160.396L362.446 152.069Z" fill="#008345"/>
<path d="M362.446 168.836C360.731 174.772 357.665 180.231 353.489 184.785L270.757 160.483L362.446 168.836Z" fill="#008345"/>
<path d="M353.49 184.786C348.56 190.198 342.787 194.777 336.393 198.344L270.732 160.394L353.49 184.786Z" fill="#008345"/>
<path d="M270.745 160.459L312.911 208.206C303.882 210.811 294.62 212.524 285.257 213.322L270.732 160.421L270.745 160.459Z" fill="#008345"/>
<path d="M270.732 160.472L285.256 213.373C275.589 214.256 265.861 214.256 256.194 213.373L270.732 160.472Z" fill="#008345"/>
<path d="M270.707 160.458L256.17 213.359C246.807 212.561 237.544 210.848 228.516 208.243L270.707 160.458Z" fill="#008345"/>
<path d="M270.706 160.458L228.476 208.205C220.289 205.85 212.407 202.54 204.994 198.343L270.706 160.458Z" fill="#008345"/>
<path d="M270.694 160.394L187.963 184.696C183.78 180.146 180.713 174.685 179.005 168.747L270.694 160.394Z" fill="#008345"/>
<path d="M270.693 160.396L179.017 168.838C177.487 163.353 177.487 157.554 179.017 152.069L270.693 160.396Z" fill="#008345"/>
<path d="M270.694 160.395L179.017 152.017C180.739 146.08 183.804 140.619 187.975 136.055L270.694 160.395Z" fill="#008345"/>
<path d="M205.059 122.562L270.694 160.396L187.976 136.094C192.905 130.694 198.674 126.124 205.059 122.562Z" fill="#008345"/>
<path d="M336.393 122.561L270.745 160.395L312.898 112.661C321.094 115.02 328.981 118.343 336.393 122.561Z" fill="#008345"/>
<path d="M336.392 122.562C342.78 126.121 348.549 130.691 353.476 136.094L270.757 160.396L336.392 122.562Z" fill="#008345"/>
<path d="M270.707 160.394L205.034 198.293C198.642 194.722 192.869 190.144 187.937 184.735L270.669 160.433L270.707 160.394Z" fill="#008345"/>
<path d="M228.566 112.686L270.706 160.395L205.059 122.509C212.478 118.316 220.369 115.019 228.566 112.686Z" fill="#008345"/>
<path d="M270.745 160.458L336.393 198.343C328.98 202.54 321.098 205.85 312.911 208.205L270.745 160.458Z" fill="#008345"/>
<path d="M214.567 107.033L266.714 137.116L264.155 94.5879C244.972 95.4065 228.682 99.4994 214.567 107.033Z" fill="#A4D84F"/>
<path opacity="0.2" d="M214.567 107.033L266.714 137.116L264.155 94.5879C244.972 95.4065 228.682 99.4994 214.567 107.033Z" fill="white"/>
<path d="M266.714 137.115V153.538L214.566 123.442V107.032L266.714 137.115Z" fill="#A4D84F"/>
<path opacity="0.1" d="M266.714 137.115V153.538L214.566 123.442V107.032L266.714 137.115Z" fill="#111111"/>
<path d="M334.32 111.254L274.469 138.242V154.652L334.32 127.664V111.254Z" fill="#A4D84F"/>
<path opacity="0.3" d="M334.32 111.254L274.469 138.242V154.652L334.32 127.664V111.254Z" fill="#111111"/>
<path d="M334.32 111.254C318.209 100.292 296.723 94.5111 271.82 94.4343L273.42 121.026L274.469 138.242L334.32 111.254Z" fill="#A4D84F"/>
<path opacity="0.1" d="M334.32 111.254C318.209 100.292 296.723 94.5111 271.82 94.4343L273.42 121.026L274.469 138.242L334.32 111.254Z" fill="#111111"/>
<path d="M271.807 94.4343V110.845L274.468 154.652V138.242L271.807 94.4343Z" fill="#263238"/>
<path d="M286.638 169.847L317.236 199.265C318.95 198.613 320.537 197.986 322.354 197.116C343.431 187.626 354.449 173.403 354.436 159.052V142.808C352.12 136.63 345.747 136.643 339.08 131.207L276.593 159.346L275.966 159.627L286.638 169.847Z" fill="#A4D84F"/>
<path opacity="0.6" d="M286.638 169.847L317.236 199.265C318.95 198.613 320.537 197.986 322.354 197.116C343.431 187.626 354.449 173.403 354.436 159.052V142.808C352.12 136.63 345.747 136.643 339.08 131.207L276.593 159.346L275.966 159.627L286.638 169.847Z" fill="white"/>
<path d="M286.639 153.437L317.236 182.855C318.951 182.203 320.538 181.576 322.355 180.694C357.636 164.77 364.7 135.607 339.106 114.746L276.619 142.885L275.992 143.166L286.639 153.437Z" fill="#A4D84F"/>
<path opacity="0.8" d="M286.639 153.437L317.236 182.855C318.951 182.203 320.538 181.576 322.355 180.694C357.636 164.77 364.7 135.607 339.106 114.746L276.619 142.885L275.992 143.166L286.639 153.437Z" fill="white"/>
<path d="M317.184 199.24V182.817L275.927 143.205V159.615L317.184 199.24Z" fill="#A4D84F"/>
<path opacity="0.6" d="M317.184 199.24V182.817L275.927 143.205V159.615L317.184 199.24Z" fill="white"/>
<path d="M209.141 126.577C200.349 132.115 190.585 135.607 187.028 142.335V158.758C187.028 167.315 191.008 175.987 199.262 183.917C210.779 194.955 229.014 202.757 250.679 205.865C270.729 208.824 291.185 207.334 310.594 201.504V185.093L283.657 175.629L267.84 160.395L209.141 126.577Z" fill="#A4D84F"/>
<path opacity="0.6" d="M209.141 126.577C200.349 132.115 190.585 135.607 187.028 142.335V158.758C187.028 167.315 191.008 175.987 199.262 183.917C210.779 194.955 229.014 202.757 250.679 205.865C270.729 208.824 291.185 207.334 310.594 201.504V185.093L283.657 175.629L267.84 160.395L209.141 126.577Z" fill="#111111"/>
<path d="M209.141 110.168C183.88 126.054 179.81 148.821 199.262 167.495C210.779 178.546 229.014 186.335 250.679 189.456C270.73 192.408 291.184 190.919 310.594 185.095L283.657 159.219L267.84 144.037L209.141 110.168Z" fill="#A4D84F"/>
<path opacity="0.3" d="M209.141 110.168C183.88 126.054 179.81 148.821 199.262 167.495C210.779 178.546 229.014 186.335 250.679 189.456C270.73 192.408 291.184 190.919 310.594 185.095L283.657 159.219L267.84 144.037L209.141 110.168Z" fill="#111111"/>
<path d="M502.254 289.131C500.538 283.195 497.472 277.736 493.296 273.181C488.37 267.77 482.601 263.191 476.212 259.623C468.795 255.424 460.909 252.114 452.717 249.761C443.692 247.158 434.434 245.444 425.076 244.645C415.409 243.763 405.681 243.763 396.014 244.645C386.66 245.446 377.406 247.159 368.386 249.761C360.193 252.114 352.307 255.424 344.891 259.623C338.497 263.19 332.723 267.769 327.794 273.181C323.621 277.738 320.556 283.196 318.836 289.131C317.307 294.62 317.307 300.422 318.836 305.912C320.542 311.848 323.609 317.304 327.794 321.849C332.725 327.262 338.498 331.845 344.891 335.419C352.304 339.613 360.186 342.918 368.373 345.268C377.403 347.865 386.665 349.579 396.027 350.384C405.695 351.254 415.421 351.254 425.089 350.384C434.451 349.58 443.712 347.866 452.742 345.268C460.934 342.924 468.817 339.614 476.225 335.406C482.623 331.84 488.401 327.262 493.334 321.849C497.51 317.298 500.576 311.843 502.292 305.912C503.803 300.418 503.789 294.617 502.254 289.131Z" fill="#37474F"/>
<path d="M317.67 289.119H503.391V298.584L317.67 298.06V289.119Z" fill="#37474F"/>
<path d="M396.001 236.217L410.525 289.118L368.373 241.384C377.391 238.765 386.645 237.034 396.001 236.217Z" fill="#008345"/>
<path d="M425.063 236.216L410.551 289.118L396.027 236.216C405.685 235.335 415.404 235.335 425.063 236.216Z" fill="#008345"/>
<path d="M452.704 241.384L410.551 289.118L425.063 236.217C434.423 237.033 443.681 238.763 452.704 241.384Z" fill="#008345"/>
<path d="M493.282 264.804C497.459 269.364 500.525 274.827 502.24 280.766L410.563 289.144L493.282 264.804Z" fill="#008345"/>
<path d="M502.252 280.766C503.775 286.252 503.775 292.049 502.252 297.535L410.576 289.144L502.252 280.766Z" fill="#008345"/>
<path d="M502.253 297.535C500.534 303.469 497.469 308.927 493.295 313.484L410.563 289.182L502.253 297.535Z" fill="#008345"/>
<path d="M493.307 313.485C488.367 318.891 482.591 323.468 476.198 327.043L410.537 289.144L493.307 313.485Z" fill="#008345"/>
<path d="M410.55 289.157L452.716 336.904C443.686 339.503 434.424 341.216 425.062 342.02L410.537 289.119L410.55 289.157Z" fill="#008345"/>
<path d="M410.538 289.17L425.063 342.02C415.395 342.896 405.668 342.896 396.001 342.02L410.538 289.17Z" fill="#008345"/>
<path d="M410.525 289.157L396 342.02C386.638 341.215 377.376 339.501 368.346 336.904L410.525 289.157Z" fill="#008345"/>
<path d="M410.524 289.157L368.295 336.904C360.109 334.545 352.228 331.235 344.812 327.043L410.524 289.157Z" fill="#008345"/>
<path d="M410.499 289.144L327.767 313.446C323.585 308.896 320.518 303.435 318.81 297.497L410.499 289.144Z" fill="#008345"/>
<path d="M410.499 289.144L318.823 297.535C317.293 292.05 317.293 286.251 318.823 280.766L410.499 289.144Z" fill="#008345"/>
<path d="M410.5 289.131L318.823 280.753C320.542 274.815 323.608 269.353 327.781 264.791L410.5 289.131Z" fill="#008345"/>
<path d="M344.877 251.207L410.499 289.08L327.78 264.778C332.709 259.361 338.482 254.778 344.877 251.207Z" fill="#008345"/>
<path d="M476.199 251.207L410.551 289.08L452.704 241.346C460.898 243.693 468.785 247.003 476.199 251.207Z" fill="#008345"/>
<path d="M476.198 251.207C482.587 254.77 488.356 259.345 493.282 264.752L410.576 289.054L476.198 251.207Z" fill="#008345"/>
<path d="M410.525 289.132L344.864 327.043C338.475 323.469 332.703 318.891 327.768 313.485L410.499 289.183L410.525 289.132Z" fill="#008345"/>
<path d="M368.372 241.385L410.525 289.119L344.877 251.208C352.293 247.017 360.179 243.719 368.372 241.385Z" fill="#008345"/>
<path d="M410.551 289.157L476.199 327.043C468.786 331.239 460.904 334.549 452.717 336.904L410.551 289.157Z" fill="#008345"/>
<path d="M328.727 268.359V294.938C328.053 292.509 327.709 290.001 327.703 287.481V268.359H328.727Z" fill="#A4D84F"/>
<path opacity="0.3" d="M328.727 268.359V294.938C328.053 292.509 327.709 290.001 327.703 287.481V268.359H328.727Z" fill="#111111"/>
<path d="M410.499 268.385L328.728 275.854C327.371 270.963 327.371 265.794 328.728 260.902L410.499 268.385Z" fill="#A4D84F"/>
<path d="M410.5 268.359L328.728 260.876C330.265 255.58 333.002 250.709 336.726 246.641L410.5 268.359Z" fill="#A4D84F"/>
<path d="M351.966 234.58L410.498 268.36L336.725 246.616C341.125 241.812 346.272 237.748 351.966 234.58Z" fill="#A4D84F"/>
<path d="M372.928 225.779L410.525 268.346L351.966 234.579C358.581 230.829 365.617 227.875 372.928 225.779Z" fill="#A4D84F"/>
<path d="M397.575 221.175L410.526 268.346L372.929 225.779C380.973 223.44 389.229 221.898 397.575 221.175Z" fill="#A4D84F"/>
<path d="M423.566 221.176L410.551 268.347L397.601 221.176C406.238 220.38 414.929 220.38 423.566 221.176Z" fill="#A4D84F"/>
<path d="M448.148 225.779L410.551 268.346L423.566 221.175C431.891 221.902 440.125 223.444 448.148 225.779Z" fill="#A4D84F"/>
<g opacity="0.2">
<path d="M410.499 268.385L328.728 275.854C327.371 270.963 327.371 265.794 328.728 260.902L410.499 268.385Z" fill="white"/>
<path d="M410.499 268.36L328.728 260.877C330.264 255.581 333.001 250.71 336.726 246.642L410.499 268.36Z" fill="white"/>
<path d="M351.968 234.58L410.5 268.36L336.727 246.616C341.127 241.812 346.273 237.748 351.968 234.58Z" fill="white"/>
<path d="M372.928 225.781L410.525 268.347L351.966 234.58C358.581 230.83 365.617 227.876 372.928 225.781Z" fill="white"/>
<path d="M397.575 221.176L410.526 268.347L372.929 225.78C380.973 223.441 389.229 221.899 397.575 221.176Z" fill="white"/>
<path d="M423.565 221.176L410.551 268.347L397.601 221.176C406.237 220.38 414.929 220.38 423.565 221.176Z" fill="white"/>
<path d="M448.148 225.78L410.551 268.347L423.565 221.176C431.89 221.903 440.124 223.446 448.148 225.78Z" fill="white"/>
</g>
<path d="M479.871 281.125L467.598 292.636L458.269 301.449L449.376 309.814L448.186 310.927V330.023C455.495 327.929 462.53 324.98 469.147 321.236C474.848 318.041 479.998 313.951 484.401 309.123C488.124 305.068 490.853 300.203 492.373 294.913C493.051 292.485 493.4 289.977 493.41 287.456V268.373L479.871 281.125Z" fill="#A4D84F"/>
<path opacity="0.3" d="M479.871 281.125L467.598 292.636L458.269 301.449L449.376 309.814L448.186 310.927V330.023C455.495 327.929 462.53 324.98 469.147 321.236C474.848 318.041 479.998 313.951 484.401 309.123C488.124 305.068 490.853 300.203 492.373 294.913C493.051 292.485 493.4 289.977 493.41 287.456V268.373L479.871 281.125Z" fill="#111111"/>
<path d="M484.35 246.667C488.07 250.739 490.806 255.609 492.348 260.903L410.563 268.385L484.35 246.667Z" fill="#A4D84F"/>
<path d="M493.372 268.398C493.362 270.923 493.013 273.435 492.335 275.868L467.561 273.591L410.563 268.372L479.833 261.977L492.335 260.839C493.02 263.3 493.369 265.843 493.372 268.398Z" fill="#A4D84F"/>
<path d="M492.335 275.866C490.812 281.155 488.083 286.019 484.363 290.077L458.232 282.402L410.563 268.333L467.561 273.551L492.335 275.866Z" fill="#A4D84F"/>
<path d="M484.362 290.077C479.959 294.905 474.809 298.995 469.108 302.19L449.337 290.755L410.575 268.397L458.243 282.467L484.362 290.077Z" fill="#A4D84F"/>
<path d="M469.11 234.58L410.551 268.372L448.148 225.806C455.456 227.898 462.492 230.843 469.11 234.58Z" fill="#A4D84F"/>
<path d="M469.109 234.58C474.805 237.767 479.951 241.848 484.35 246.667L410.563 268.411L469.109 234.58Z" fill="#A4D84F"/>
<path d="M469.108 302.19C462.491 305.93 455.455 308.875 448.147 310.964L410.575 268.397L449.337 290.755L469.108 302.19Z" fill="#A4D84F"/>
<g opacity="0.2">
<path d="M484.35 246.668C488.07 250.74 490.806 255.61 492.348 260.904L410.563 268.386L484.35 246.668Z" fill="white"/>
<path d="M493.372 268.4C493.362 270.925 493.013 273.437 492.335 275.87L467.561 273.593L410.563 268.375L479.833 261.979L492.335 260.841C493.02 263.302 493.369 265.845 493.372 268.4Z" fill="white"/>
<path d="M492.335 275.869C490.812 281.158 488.083 286.022 484.363 290.079L458.232 282.405L410.563 268.335L467.561 273.554L492.335 275.869Z" fill="white"/>
<path d="M484.364 290.079C479.961 294.907 474.811 298.997 469.11 302.192L449.339 290.757L410.577 268.399L458.245 282.469L484.364 290.079Z" fill="white"/>
<path d="M469.11 234.581L410.551 268.373L448.148 225.807C455.456 227.899 462.492 230.844 469.11 234.581Z" fill="white"/>
<path d="M469.109 234.58C474.805 237.767 479.951 241.848 484.35 246.667L410.563 268.411L469.109 234.58Z" fill="white"/>
<path d="M469.11 302.192C462.493 305.932 455.457 308.877 448.149 310.966L410.577 268.399L449.339 290.757L469.11 302.192Z" fill="white"/>
</g>
<path d="M448.16 310.977V330.073L410.525 287.456V268.347L448.16 310.977Z" fill="#263238"/>
<path d="M410.526 287.456L328.728 294.964V275.855L410.526 268.347V287.456Z" fill="#A4D84F"/>
<path opacity="0.1" d="M410.526 287.456L328.728 294.964V275.855L410.526 268.347V287.456Z" fill="#111111"/>
<path d="M222.654 289.131C220.939 283.195 217.873 277.736 213.696 273.181C208.769 267.772 203 263.194 196.613 259.623C189.193 255.422 181.302 252.111 173.105 249.761C164.085 247.158 154.831 245.444 145.476 244.645C135.809 243.763 126.082 243.763 116.415 244.645C107.056 245.446 97.7983 247.159 88.7735 249.761C80.5723 252.112 72.6775 255.422 65.2529 259.623C58.8637 263.191 53.0945 267.77 48.1691 273.181C43.9925 277.736 40.9266 283.195 39.2113 289.131C37.6946 294.622 37.6946 300.421 39.2113 305.912C40.9237 311.845 43.99 317.3 48.1691 321.849C53.0935 327.264 58.8627 331.847 65.2529 335.419C72.6639 339.617 80.5462 342.923 88.7351 345.268C97.7651 347.866 107.027 349.58 116.389 350.384C126.057 351.254 135.783 351.254 145.451 350.384C154.813 349.58 164.075 347.866 173.105 345.268C181.296 342.924 189.179 339.614 196.587 335.406C202.986 331.842 208.764 327.263 213.696 321.849C217.875 317.3 220.942 311.845 222.654 305.912C224.171 300.421 224.171 294.622 222.654 289.131Z" fill="#37474F"/>
<path d="M38.0596 289.119H223.78V298.584L38.0596 298.06V289.119Z" fill="#37474F"/>
<path d="M116.442 236.217L130.953 289.118L88.8003 241.384C97.8233 238.765 107.081 237.034 116.442 236.217Z" fill="#008345"/>
<path d="M145.451 236.217L130.939 289.118L116.44 236.217C126.091 235.338 135.801 235.338 145.451 236.217Z" fill="#008345"/>
<path d="M173.079 241.384L130.938 289.118L145.45 236.217C154.806 237.033 164.06 238.763 173.079 241.384Z" fill="#008345"/>
<path d="M213.697 264.804C217.873 269.364 220.939 274.827 222.654 280.766L130.965 289.144L213.697 264.804Z" fill="#008345"/>
<path d="M222.654 280.766C224.171 286.253 224.171 292.048 222.654 297.535L130.965 289.144L222.654 280.766Z" fill="#008345"/>
<path d="M222.654 297.535C220.939 303.471 217.873 308.93 213.697 313.484L130.965 289.182L222.654 297.535Z" fill="#008345"/>
<path d="M213.697 313.485C208.762 318.891 202.989 323.468 196.6 327.043L130.927 289.144L213.697 313.485Z" fill="#008345"/>
<path d="M130.94 289.157L173.105 336.904C164.075 339.503 154.814 341.216 145.451 342.02L130.914 289.119L130.94 289.157Z" fill="#008345"/>
<path d="M130.914 289.17L145.451 342.02C135.8 342.893 126.091 342.893 116.44 342.02L130.914 289.17Z" fill="#008345"/>
<path d="M130.901 289.157L116.44 342.02C107.078 341.216 97.8161 339.503 88.7861 336.904L130.901 289.157Z" fill="#008345"/>
<path d="M130.9 289.157L88.6707 336.904C80.5053 334.545 72.6453 331.235 65.2524 327.043L130.9 289.157Z" fill="#008345"/>
<path d="M130.888 289.144L48.156 313.446C43.9791 308.892 40.9132 303.433 39.1982 297.497L130.888 289.144Z" fill="#008345"/>
<path d="M130.888 289.144L39.1987 297.535C37.6825 292.048 37.6825 286.253 39.1987 280.766L130.888 289.144Z" fill="#008345"/>
<path d="M130.888 289.131L39.1982 280.753C40.9135 274.814 43.9793 269.351 48.156 264.791L130.888 289.131Z" fill="#008345"/>
<path d="M65.2528 251.207L130.888 289.08L48.1689 264.778C53.0924 259.361 58.8619 254.778 65.2528 251.207Z" fill="#008345"/>
<path d="M196.586 251.207L130.938 289.08L173.079 241.346C181.278 243.69 189.169 247.001 196.586 251.207Z" fill="#008345"/>
<path d="M196.587 251.207C202.986 254.787 208.764 259.378 213.696 264.803L130.977 289.105L196.587 251.207Z" fill="#008345"/>
<path d="M130.902 289.132L65.2538 327.043C58.8626 323.472 53.0896 318.894 48.1572 313.485L130.889 289.183L130.902 289.132Z" fill="#008345"/>
<path d="M88.7475 241.385L130.9 289.119L65.2524 251.208C72.6682 247.017 80.5549 243.719 88.7475 241.385Z" fill="#008345"/>
<path d="M130.938 289.157L196.586 327.043C189.173 331.239 181.292 334.549 173.104 336.904L130.938 289.157Z" fill="#008345"/>
<path d="M155.613 256.323L166.196 244.326C166.196 230.256 148.997 229.911 141.395 229.233C133.794 228.555 120.754 224.193 120.754 240.207L124.388 253.458C134.882 252.784 145.417 253.751 155.613 256.323Z" fill="#A4D84F"/>
<path opacity="0.6" d="M155.613 256.323L166.196 244.326C166.196 230.256 148.997 229.911 141.395 229.233C133.794 228.555 120.754 224.193 120.754 240.207L124.388 253.458C134.882 252.784 145.417 253.751 155.613 256.323Z" fill="white"/>
<path d="M155.613 237.484L166.196 225.5C151.377 221.645 136.025 220.253 120.754 221.381L124.388 234.581C134.884 233.919 145.419 234.899 155.613 237.484Z" fill="#A4D84F"/>
<path opacity="0.8" d="M155.613 237.484L166.196 225.5C151.377 221.645 136.025 220.253 120.754 221.381L124.388 234.581C134.884 233.919 145.419 234.899 155.613 237.484Z" fill="white"/>
<path d="M124.388 234.632V253.485L120.754 240.234V221.381L124.388 234.632Z" fill="#A4D84F"/>
<path d="M166.194 225.5L155.611 237.485V256.351L166.194 244.353V225.5Z" fill="#A4D84F"/>
<g opacity="0.6">
<path d="M124.388 234.631V253.484L120.754 240.233V221.38L124.388 234.631Z" fill="white"/>
<path d="M166.195 225.499L155.612 237.484V256.35L166.195 244.352V225.499Z" fill="white"/>
</g>
<path d="M160.781 239.006V257.859C165.197 259.284 169.458 261.147 173.501 263.423C177.029 265.425 180.271 267.895 183.137 270.764L203.894 264.663C199.767 260.453 195.067 256.845 189.932 253.945C184.263 250.696 178.198 237.522 160.781 239.006Z" fill="#A4D84F"/>
<path opacity="0.6" d="M160.781 239.006V257.859C165.197 259.284 169.458 261.147 173.501 263.423C177.029 265.425 180.271 267.895 183.137 270.764L203.894 264.663C199.767 260.453 195.067 256.845 189.932 253.945C184.263 250.696 178.198 237.522 160.781 239.006Z" fill="#111111"/>
<path d="M171.364 227.034L160.781 239.006C165.201 240.42 169.463 242.284 173.501 244.57C177.029 246.572 180.271 249.042 183.137 251.912L203.894 245.81C199.774 241.592 195.072 237.983 189.932 235.092C184.049 231.75 177.824 229.049 171.364 227.034Z" fill="#A4D84F"/>
<path opacity="0.3" d="M171.364 227.034L160.781 239.006C165.201 240.42 169.463 242.284 173.501 244.57C177.029 246.572 180.271 249.042 183.137 251.912L203.894 245.81C199.774 241.592 195.072 237.983 189.932 235.092C184.049 231.75 177.824 229.049 171.364 227.034Z" fill="#111111"/>
<path d="M183.138 251.912L203.894 245.798V264.664L183.138 270.765V251.912Z" fill="#A4D84F"/>
<path opacity="0.6" d="M183.138 251.912L203.894 245.798V264.664L183.138 270.765V251.912Z" fill="#111111"/>
<path d="M214.31 268.642H207.297C207.041 268.309 206.824 267.977 206.568 267.644L185.786 254.854V273.72C190.213 279.411 191.89 285.628 190.738 291.729L213.696 293.865C214.084 291.962 214.277 290.025 214.271 288.083L214.31 268.642Z" fill="#A4D84F"/>
<path opacity="0.6" d="M214.31 268.642H207.297C207.041 268.309 206.824 267.977 206.568 267.644L185.786 254.854V273.72C190.213 279.411 191.89 285.628 190.738 291.729L213.696 293.865C214.084 291.962 214.277 290.025 214.271 288.083L214.31 268.642Z" fill="#111111"/>
<path d="M190.726 272.952L213.696 275.011C215.565 266.148 213.197 257.028 206.556 248.791L185.773 254.892C190.201 260.584 191.942 266.813 190.726 272.952Z" fill="#A4D84F"/>
<path opacity="0.3" d="M190.726 272.952L213.696 275.011C215.565 266.148 213.197 257.028 206.556 248.791L185.773 254.892C190.201 260.584 191.942 266.813 190.726 272.952Z" fill="#111111"/>
<path d="M213.697 275.011V293.877L190.727 291.766V272.913L213.697 275.011Z" fill="#A4D84F"/>
<path opacity="0.6" d="M213.697 275.011V293.877L190.727 291.766V272.913L213.697 275.011Z" fill="#111111"/>
<path d="M118.655 254.021V235.155C105.858 229.259 82.0302 235.245 74.0449 252.806L90.4761 262.297C99.3017 257.885 108.844 255.082 118.655 254.021Z" fill="#A4D84F"/>
<path opacity="0.3" d="M118.655 254.021V235.155C105.858 229.259 82.0302 235.245 74.0449 252.806L90.4761 262.297C99.3017 257.885 108.844 255.082 118.655 254.021Z" fill="#111111"/>
<path d="M118.654 235.155L115.007 221.866C99.5357 223.606 85.3696 227.865 74.0571 233.953L90.4883 243.431C99.31 239.021 108.848 236.218 118.654 235.155Z" fill="#A4D84F"/>
<path opacity="0.1" d="M118.654 235.155L115.007 221.866C99.5357 223.606 85.3696 227.865 74.0571 233.953L90.4883 243.431C99.31 239.021 108.848 236.218 118.654 235.155Z" fill="#111111"/>
<path d="M90.4761 243.431V262.297L74.0449 252.807V233.954L90.4761 243.431Z" fill="#263238"/>
<path d="M73.2892 245.81L69.9108 255.16C58.8672 261.99 51.8929 270.215 49.0264 278.823L72.0607 280.92C74.1722 275.024 78.9838 269.409 86.4316 264.676V245.81H73.2892Z" fill="#A4D84F"/>
<path opacity="0.3" d="M73.2892 245.81L69.9108 255.16C58.8672 261.99 51.8929 270.215 49.0264 278.823L72.0607 280.92C74.1722 275.024 78.9838 269.409 86.4316 264.676V245.81H73.2892Z" fill="#111111"/>
<path d="M86.3804 245.81L69.9108 236.307C58.8672 243.124 51.8929 251.361 49.0264 259.956L72.0607 262.067C74.121 256.17 78.9326 250.542 86.3804 245.81Z" fill="#A4D84F"/>
<path opacity="0.1" d="M86.3804 245.81L69.9108 236.307C58.8672 243.124 51.8929 251.361 49.0264 259.956L72.0607 262.067C74.121 256.17 78.9326 250.542 86.3804 245.81Z" fill="#111111"/>
<path d="M49.0264 259.957V278.823L72.0095 280.921V262.067L49.0264 259.957Z" fill="#263238"/>
<path d="M71.1011 284.232V265.366L64.2676 264.752L47.5293 269.113V287.954C47.6365 295.44 50.3517 302.654 55.2074 308.355L75.9895 302.254C71.6514 296.562 69.9622 290.333 71.1011 284.232Z" fill="#A4D84F"/>
<path opacity="0.3" d="M71.1011 284.232V265.366L64.2676 264.752L47.5293 269.113V287.954C47.6365 295.44 50.3517 302.654 55.2074 308.355L75.9895 302.254C71.6514 296.562 69.9622 290.333 71.1011 284.232Z" fill="#111111"/>
<path d="M55.2842 289.502L76.0663 283.389V302.255L55.2842 308.356V289.502Z" fill="#263238"/>
<path d="M71.1149 265.366L48.0806 263.269C46.2122 272.145 48.5796 281.252 55.2212 289.502L76.0033 283.388C71.6524 277.696 69.9632 271.467 71.1149 265.366Z" fill="#A4D84F"/>
<path opacity="0.1" d="M71.1149 265.366L48.0806 263.269C46.2122 272.145 48.5796 281.252 55.2212 289.502L76.0033 283.388C71.6524 277.696 69.9632 271.467 71.1149 265.366Z" fill="#111111"/>
<path d="M95.6964 308.33C85.958 302.715 81.0952 295.36 81.0952 288.006V269.114H180.744V287.968C180.744 295.335 175.882 302.689 166.143 308.304C146.692 319.56 115.16 319.56 95.6964 308.33Z" fill="#37474F"/>
<path d="M130.926 297.893C158.44 297.893 180.744 285.02 180.744 269.14C180.744 253.26 158.44 240.387 130.926 240.387C103.412 240.387 81.1079 253.26 81.1079 269.14C81.1079 285.02 103.412 297.893 130.926 297.893Z" fill="#008345"/>
<path d="M90.475 313.727V311.323L57.9326 292.482V311.323C62.0611 315.537 66.7658 319.146 71.9068 322.041C77.7901 325.383 84.0151 328.085 90.475 330.099L101.045 318.127C97.4101 316.945 93.8754 315.473 90.475 313.727Z" fill="#A4D84F"/>
<path opacity="0.3" d="M90.475 313.727V311.323L57.9326 292.482V311.323C62.0611 315.537 66.7658 319.146 71.9068 322.041C77.7901 325.383 84.0151 328.085 90.475 330.099L101.045 318.127C97.4101 316.945 93.8754 315.473 90.475 313.727Z" fill="#111111"/>
<path d="M88.2872 293.71C84.755 291.713 81.5093 289.247 78.6383 286.381L57.8818 292.482C62.0136 296.692 66.7178 300.301 71.856 303.2C77.742 306.537 83.9664 309.238 90.4243 311.258L100.994 299.274C96.5789 297.86 92.3206 295.995 88.2872 293.71Z" fill="#A4D84F"/>
<path opacity="0.1" d="M88.2872 293.71C84.755 291.713 81.5093 289.247 78.6383 286.381L57.8818 292.482C62.0136 296.692 66.7178 300.301 71.856 303.2C77.742 306.537 83.9664 309.238 90.4243 311.258L100.994 299.274C96.5789 297.86 92.3206 295.995 88.2872 293.71Z" fill="#111111"/>
<path d="M90.4756 330.112V311.259L101.046 299.274V318.14L90.4756 330.112Z" fill="#263238"/>
<path d="M95.646 312.781V331.647C110.465 335.502 125.817 336.893 141.088 335.766V316.912L95.646 312.781Z" fill="#A4D84F"/>
<path opacity="0.1" d="M95.646 312.781V331.647C110.465 335.502 125.817 336.893 141.088 335.766V316.912L95.646 312.781Z" fill="#111111"/>
<path d="M106.203 300.796L95.6196 312.78C110.439 316.633 125.79 318.029 141.061 316.912L137.453 303.648C126.951 304.329 116.407 303.366 106.203 300.796Z" fill="#A4D84F"/>
<path opacity="0.2" d="M106.203 300.796L95.6196 312.78C110.439 316.633 125.79 318.029 141.061 316.912L137.453 303.648C126.951 304.329 116.407 303.366 106.203 300.796Z" fill="white"/>
<path d="M175.459 311.324L191.942 320.84C202.986 314.022 209.96 305.785 212.826 297.177V278.324L189.792 295.08C187.719 300.976 182.907 306.604 175.459 311.324Z" fill="#A4D84F"/>
<path opacity="0.1" d="M175.459 311.324L191.942 320.84C202.986 314.022 209.96 305.785 212.826 297.177V278.324L189.792 295.08C187.719 300.976 182.907 306.604 175.459 311.324Z" fill="#111111"/>
<path d="M175.459 292.47L191.942 301.986C202.986 295.156 209.96 286.931 212.826 278.323L189.792 276.226C187.719 282.122 182.907 287.737 175.459 292.47Z" fill="#A4D84F"/>
<path opacity="0.2" d="M175.459 292.47L191.942 301.986C202.986 295.156 209.96 286.931 212.826 278.323L189.792 276.226C187.719 282.122 182.907 287.737 175.459 292.47Z" fill="white"/>
<path d="M191.929 301.987V320.84L175.459 311.337V292.471L191.929 301.987Z" fill="#A4D84F"/>
<path opacity="0.3" d="M191.929 301.987V320.84L175.459 311.337V292.471L191.929 301.987Z" fill="#111111"/>
<path d="M146.833 316.438V321.555C145.617 321.747 144.414 321.913 143.186 322.054L146.833 335.33C161.741 333.667 175.997 329.638 187.783 323.269V304.351L146.833 316.438Z" fill="#A4D84F"/>
<path opacity="0.1" d="M146.833 316.438V321.555C145.617 321.747 144.414 321.913 143.186 322.054L146.833 335.33C161.741 333.667 175.997 329.638 187.783 323.269V304.351L146.833 316.438Z" fill="#111111"/>
<path d="M143.186 303.138L146.833 316.44C161.741 314.777 175.997 310.761 187.783 304.391L171.313 294.875C162.51 299.295 152.982 302.094 143.186 303.138Z" fill="#A4D84F"/>
<path opacity="0.2" d="M143.186 303.138L146.833 316.44C161.741 314.777 175.997 310.761 187.783 304.391L171.313 294.875C162.51 299.295 152.982 302.094 143.186 303.138Z" fill="white"/>
<path d="M146.833 316.401V335.254L143.186 322.004V303.138L146.833 316.401Z" fill="#A4D84F"/>
<path opacity="0.3" d="M146.833 316.401V335.254L143.186 322.004V303.138L146.833 316.401Z" fill="#111111"/>
<path d="M466.191 190.248C466.145 189.416 465.905 188.606 465.49 187.884C465.074 187.162 464.494 186.548 463.798 186.091L429.144 166.099C427.864 165.332 426.751 165.959 426.751 167.493V200.966C426.794 201.798 427.034 202.609 427.45 203.331C427.865 204.053 428.446 204.667 429.144 205.123L443.656 213.488L448.237 232.021C448.222 232.361 448.342 232.692 448.571 232.943C448.8 233.193 449.12 233.343 449.459 233.358C449.798 233.373 450.13 233.253 450.381 233.024C450.632 232.795 450.781 232.476 450.796 232.137L454.994 220.024L463.862 225.14C465.142 225.908 466.255 225.281 466.255 223.759L466.191 190.248Z" fill="#A4D84F"/>
<path opacity="0.5" d="M466.191 190.248C466.145 189.416 465.905 188.606 465.49 187.884C465.074 187.162 464.494 186.548 463.798 186.091L429.144 166.099C427.864 165.332 426.751 165.959 426.751 167.493V200.966C426.794 201.798 427.034 202.609 427.45 203.331C427.865 204.053 428.446 204.667 429.144 205.123L443.656 213.488L448.237 232.021C448.222 232.361 448.342 232.692 448.571 232.943C448.8 233.193 449.12 233.343 449.459 233.358C449.798 233.373 450.13 233.253 450.381 233.024C450.632 232.795 450.781 232.476 450.796 232.137L454.994 220.024L463.862 225.14C465.142 225.908 466.255 225.281 466.255 223.759L466.191 190.248Z" fill="white"/>
<path d="M439.88 181.346C440.588 181.748 441.241 182.238 441.825 182.804C442.348 183.312 442.815 183.874 443.22 184.479C443.572 185.015 443.86 185.591 444.078 186.193C444.258 186.706 444.374 187.238 444.423 187.779C444.423 188.329 444.487 188.905 444.487 189.506C444.487 190.107 444.487 190.657 444.423 191.169C444.392 191.581 444.274 191.982 444.078 192.346C443.886 192.681 443.583 192.94 443.22 193.075C442.764 193.2 442.282 193.2 441.825 193.075C441.137 192.915 440.48 192.643 439.88 192.269C439.17 191.871 438.512 191.385 437.922 190.823C437.398 190.33 436.934 189.776 436.54 189.174C435.871 188.185 435.454 187.048 435.325 185.861C435.325 185.311 435.325 184.735 435.325 184.134C435.325 183.533 435.325 182.983 435.325 182.484C435.364 182.068 435.486 181.663 435.683 181.295C435.868 180.953 436.174 180.694 436.54 180.566C436.988 180.425 437.464 180.403 437.922 180.502C438.62 180.665 439.283 180.951 439.88 181.346ZM452.114 189.135C452.245 189.039 452.4 188.981 452.562 188.969C452.795 188.984 453.019 189.059 453.215 189.186L455.045 190.248C455.255 190.367 455.437 190.528 455.582 190.721C455.702 190.885 455.769 191.081 455.774 191.284C455.779 191.326 455.779 191.369 455.774 191.412C455.752 191.459 455.721 191.503 455.685 191.54L440.61 202.667C440.478 202.765 440.324 202.827 440.162 202.847C439.927 202.831 439.702 202.752 439.509 202.616L437.679 201.567C437.467 201.447 437.283 201.281 437.142 201.081C437.019 200.924 436.947 200.732 436.937 200.531C436.927 200.485 436.927 200.437 436.937 200.391C436.955 200.341 436.986 200.297 437.027 200.263L452.114 189.135ZM441.493 189.135C441.511 188.948 441.511 188.76 441.493 188.572V186.922C441.51 186.722 441.51 186.521 441.493 186.321C441.451 185.872 441.316 185.436 441.096 185.042C440.801 184.563 440.381 184.174 439.88 183.917C439.292 183.571 438.882 183.482 438.601 183.635C438.48 183.732 438.381 183.855 438.313 183.994C438.244 184.133 438.207 184.286 438.204 184.441C438.204 184.556 438.204 184.735 438.204 185.004C438.204 185.272 438.204 185.528 438.204 185.81C438.204 186.091 438.204 186.372 438.204 186.641C438.204 186.91 438.204 187.114 438.204 187.255C438.252 187.703 438.387 188.137 438.601 188.534C438.915 189.021 439.358 189.41 439.88 189.66C440.469 190.005 440.879 190.094 441.096 189.941C441.212 189.848 441.306 189.732 441.372 189.599C441.439 189.467 441.475 189.322 441.48 189.174L441.493 189.135ZM453.087 199.636C453.798 200.038 454.456 200.528 455.045 201.094C455.564 201.602 456.027 202.164 456.427 202.77C456.788 203.3 457.076 203.877 457.284 204.484C457.462 204.997 457.582 205.529 457.642 206.07C457.642 206.62 457.642 207.195 457.642 207.796C457.642 208.398 457.642 208.948 457.642 209.459C457.603 209.871 457.481 210.272 457.284 210.636C457.197 210.808 457.076 210.961 456.929 211.086C456.781 211.212 456.611 211.306 456.427 211.365C455.976 211.497 455.496 211.497 455.045 211.365C454.352 211.206 453.691 210.933 453.087 210.559C452.38 210.161 451.726 209.676 451.142 209.114C450.617 208.617 450.149 208.064 449.747 207.464C449.393 206.929 449.105 206.354 448.889 205.75C448.71 205.237 448.594 204.705 448.544 204.164C448.544 203.601 448.544 203.026 448.544 202.424C448.544 201.823 448.544 201.273 448.544 200.774C448.573 200.358 448.691 199.952 448.889 199.585C449.077 199.246 449.382 198.987 449.747 198.856C450.205 198.743 450.683 198.743 451.142 198.856C451.833 199.012 452.492 199.289 453.087 199.675V199.636ZM454.712 207.464C454.722 207.276 454.722 207.089 454.712 206.901V205.29C454.712 205.034 454.712 204.829 454.712 204.701C454.658 204.254 454.524 203.821 454.315 203.422C453.997 202.939 453.555 202.55 453.036 202.297C452.447 201.951 452.037 201.862 451.82 202.015C451.699 202.112 451.601 202.235 451.532 202.374C451.464 202.513 451.426 202.666 451.423 202.821C451.41 203.008 451.41 203.196 451.423 203.384C451.423 203.64 451.423 203.908 451.423 204.19C451.423 204.471 451.423 204.752 451.423 205.034C451.411 205.234 451.411 205.435 451.423 205.635C451.463 206.085 451.598 206.521 451.82 206.914C452.111 207.396 452.532 207.786 453.036 208.039C453.624 208.385 454.034 208.474 454.315 208.321C454.435 208.22 454.533 208.095 454.601 207.954C454.669 207.813 454.707 207.659 454.712 207.502V207.464Z" fill="#FAFAFA"/>
<path d="M316.277 61.9076C316.23 61.0761 315.99 60.267 315.574 59.5451C315.159 58.8233 314.58 58.2087 313.884 57.7507L279.23 37.7719C277.95 37.0045 276.837 37.6184 276.837 39.1533V72.626C276.881 73.4597 277.121 74.2713 277.537 74.9956C277.952 75.7198 278.532 76.3364 279.23 76.7957L293.742 85.1607L298.323 103.656C298.373 103.942 298.519 104.203 298.738 104.395C298.956 104.587 299.234 104.7 299.524 104.713C299.815 104.726 300.102 104.64 300.337 104.469C300.572 104.298 300.742 104.052 300.818 103.771L305.016 91.6582L313.884 96.7744C315.164 97.5419 316.277 96.9279 316.277 95.3931V61.9076Z" fill="#A4D84F"/>
<path opacity="0.5" d="M316.277 61.9076C316.23 61.0761 315.99 60.267 315.574 59.5451C315.159 58.8233 314.58 58.2087 313.884 57.7507L279.23 37.7719C277.95 37.0045 276.837 37.6184 276.837 39.1533V72.626C276.881 73.4597 277.121 74.2713 277.537 74.9956C277.952 75.7198 278.532 76.3364 279.23 76.7957L293.742 85.1607L298.323 103.656C298.373 103.942 298.519 104.203 298.738 104.395C298.956 104.587 299.234 104.7 299.524 104.713C299.815 104.726 300.102 104.64 300.337 104.469C300.572 104.298 300.742 104.052 300.818 103.771L305.016 91.6582L313.884 96.7744C315.164 97.5419 316.277 96.9279 316.277 95.3931V61.9076Z" fill="white"/>
<path d="M289.967 53.0563C290.674 53.4584 291.328 53.9483 291.912 54.5144C292.431 55.0254 292.898 55.5866 293.307 56.1899C293.663 56.7232 293.951 57.299 294.164 57.9039C294.344 58.4162 294.46 58.949 294.51 59.4899C294.51 60.0399 294.574 60.6154 294.574 61.2166C294.574 61.8178 294.574 62.3677 294.51 62.8794C294.48 63.2959 294.363 63.7014 294.164 64.0689C293.979 64.4068 293.672 64.6625 293.307 64.7851C292.856 64.932 292.374 64.9541 291.912 64.8491C291.221 64.6897 290.563 64.4128 289.967 64.0305C289.253 63.637 288.595 63.151 288.009 62.5852C287.484 62.0918 287.021 61.5379 286.627 60.9352C286.266 60.4049 285.977 59.8284 285.769 59.2213C285.592 58.7075 285.471 58.1756 285.411 57.6353C285.411 57.0725 285.411 56.4969 285.411 55.9085C285.411 55.3202 285.411 54.7446 285.411 54.2458C285.451 53.8295 285.572 53.4252 285.769 53.0563C285.955 52.7151 286.26 52.4552 286.627 52.3272C287.081 52.214 287.555 52.214 288.009 52.3272C288.699 52.4554 289.361 52.7021 289.967 53.0563ZM302.201 60.8457C302.334 60.7553 302.488 60.6982 302.649 60.6794C302.883 60.6948 303.109 60.7744 303.301 60.9096L305.131 61.9584C305.338 62.0813 305.52 62.2418 305.669 62.4317C305.787 62.5962 305.854 62.792 305.86 62.9945C305.865 63.0412 305.865 63.0884 305.86 63.1352C305.835 63.1807 305.805 63.2235 305.771 63.2631L290.696 74.3908C290.562 74.4812 290.409 74.5382 290.248 74.5571C290.014 74.5417 289.788 74.4621 289.596 74.3269L287.766 73.278C287.554 73.1622 287.37 73.0005 287.228 72.8048C287.11 72.6403 287.043 72.4444 287.036 72.242C287.024 72.2002 287.024 72.1559 287.036 72.1141C287.054 72.0603 287.085 72.0119 287.126 71.9734L302.201 60.8457ZM291.579 60.8457C291.598 60.6585 291.598 60.47 291.579 60.2829V58.6329C291.597 58.4372 291.597 58.2403 291.579 58.0445C291.542 57.5945 291.406 57.158 291.182 56.7655C290.892 56.2796 290.471 55.8852 289.967 55.6271C289.378 55.2946 288.969 55.1923 288.687 55.3586C288.569 55.458 288.472 55.5809 288.404 55.7197C288.336 55.8584 288.297 56.0099 288.29 56.1643C288.29 56.2667 288.29 56.4585 288.29 56.7143C288.29 56.9702 288.29 57.2388 288.29 57.5329C288.29 57.8271 288.29 58.0957 288.29 58.3643C288.29 58.6329 288.29 58.8376 288.29 58.9655C288.34 59.4131 288.475 59.8471 288.687 60.2445C289.001 60.7311 289.444 61.1208 289.967 61.3701C290.555 61.7154 290.965 61.805 291.182 61.6515C291.301 61.5602 291.397 61.4442 291.466 61.3116C291.534 61.1791 291.573 61.0331 291.579 60.884V60.8457ZM303.173 71.3467C303.888 71.7488 304.546 72.2434 305.131 72.8176C305.653 73.3181 306.116 73.8759 306.513 74.4803C306.872 75.012 307.16 75.5882 307.371 76.1943C307.547 76.7084 307.667 77.2402 307.729 77.7803C307.729 78.3431 307.729 78.9186 307.729 79.5198C307.729 80.1209 307.729 80.6709 307.729 81.1698C307.689 81.586 307.568 81.9904 307.371 82.3593C307.185 82.7004 306.88 82.9603 306.513 83.0883C306.061 83.215 305.583 83.215 305.131 83.0883C304.439 82.9289 303.777 82.6567 303.173 82.2825C302.471 81.8772 301.819 81.3922 301.228 80.8372C300.706 80.3333 300.239 79.776 299.833 79.1744C299.482 78.6384 299.194 78.0632 298.976 77.4605C298.796 76.9481 298.679 76.4154 298.63 75.8745C298.63 75.3245 298.566 74.7489 298.566 74.1478C298.566 73.5466 298.566 72.9966 298.63 72.485C298.661 72.0688 298.779 71.6636 298.976 71.2955C299.168 70.963 299.472 70.7092 299.833 70.5792C300.284 70.4341 300.764 70.4077 301.228 70.5025C301.922 70.6823 302.581 70.9809 303.173 71.385V71.3467ZM304.798 79.1744C304.809 78.987 304.809 78.7991 304.798 78.6117V77.0001C304.798 76.7442 304.798 76.5396 304.798 76.4117C304.754 75.9629 304.619 75.5277 304.402 75.1326C304.089 74.6422 303.646 74.2482 303.122 73.9943C302.533 73.6617 302.124 73.5594 301.906 73.7257C301.783 73.821 301.683 73.9431 301.615 74.0828C301.546 74.2224 301.51 74.3759 301.51 74.5315C301.496 74.7145 301.496 74.8984 301.51 75.0815C301.51 75.3373 301.51 75.6059 301.51 75.9001C301.51 76.1943 301.51 76.4628 301.51 76.7314C301.497 76.9316 301.497 77.1324 301.51 77.3326C301.547 77.7827 301.683 78.2192 301.906 78.6117C302.197 79.0975 302.618 79.492 303.122 79.75C303.711 80.0826 304.137 80.1721 304.402 80.0186C304.523 79.9214 304.621 79.7989 304.689 79.6597C304.758 79.5205 304.795 79.3679 304.798 79.2128V79.1744Z" fill="#FAFAFA"/>
<path d="M78.3569 189.212C78.4023 188.38 78.6426 187.571 79.0582 186.849C79.4739 186.127 80.0533 185.512 80.7499 185.055L115.404 165.063C116.683 164.296 117.797 164.923 117.797 166.458V199.93C117.753 200.762 117.514 201.573 117.098 202.295C116.682 203.017 116.102 203.631 115.404 204.087L100.892 212.452L96.3108 230.96C96.3261 231.299 96.2059 231.631 95.9768 231.881C95.7476 232.132 95.4281 232.281 95.0888 232.297C94.7494 232.312 94.4178 232.192 94.167 231.963C93.9162 231.734 93.7667 231.414 93.7515 231.075L89.5669 218.962L80.6987 224.079C79.419 224.846 78.3057 224.219 78.3057 222.697L78.3569 189.212Z" fill="#A4D84F"/>
<g opacity="0.5">
<path d="M78.3569 189.211C78.4023 188.38 78.6426 187.57 79.0582 186.848C79.4739 186.126 80.0533 185.512 80.7499 185.055L115.404 165.063C116.683 164.296 117.797 164.922 117.797 166.457V199.93C117.753 200.762 117.514 201.572 117.098 202.295C116.682 203.017 116.102 203.631 115.404 204.087L100.892 212.452L96.3108 230.96C96.3261 231.299 96.2059 231.63 95.9768 231.881C95.7476 232.132 95.4281 232.281 95.0888 232.296C94.7494 232.311 94.4178 232.191 94.167 231.962C93.9162 231.733 93.7667 231.414 93.7515 231.075L89.5669 218.962L80.6987 224.078C79.419 224.846 78.3057 224.219 78.3057 222.697L78.3569 189.211Z" fill="white"/>
</g>
<path d="M90.4636 186.717C91.1563 186.287 91.9183 185.98 92.7159 185.809C93.2514 185.701 93.8054 185.727 94.3283 185.886C94.7489 186.038 95.0994 186.338 95.3136 186.73C95.5425 187.153 95.6778 187.619 95.7103 188.099C95.7615 188.687 95.7871 189.327 95.7871 190.017C95.7871 190.708 95.7615 191.373 95.7103 192.013C95.6543 192.64 95.521 193.259 95.3136 193.854C95.0684 194.549 94.7374 195.211 94.3283 195.824C93.8652 196.523 93.3243 197.166 92.7159 197.743C92.0358 198.39 91.2795 198.953 90.4636 199.418C89.7626 199.847 88.9981 200.162 88.1986 200.352C87.6689 200.47 87.1175 200.448 86.599 200.288C86.1784 200.136 85.8279 199.836 85.6136 199.444C85.3807 199.022 85.241 198.556 85.2041 198.075C85.2041 197.487 85.2041 196.796 85.2041 196.157C85.2041 195.517 85.2041 194.801 85.2041 194.161C85.2653 193.533 85.4028 192.915 85.6136 192.32C85.8535 191.622 86.1848 190.96 86.599 190.35C87.0643 189.653 87.6004 189.006 88.1986 188.418C88.8815 187.761 89.6421 187.19 90.4636 186.717ZM104.54 179.414C104.685 179.134 104.857 178.869 105.052 178.621C105.267 178.375 105.523 178.168 105.807 178.007L107.931 176.728C108.108 176.598 108.329 176.543 108.546 176.574C108.699 176.574 108.776 176.741 108.776 176.945C108.785 177.013 108.785 177.082 108.776 177.15L108.674 177.419L91.2442 210.393C91.0991 210.668 90.9277 210.93 90.7324 211.173C90.5198 211.421 90.264 211.629 89.9773 211.787L87.8659 213.066C87.6843 213.195 87.4598 213.25 87.2388 213.219C87.0852 213.219 87.0085 213.053 87.0085 212.848C86.9995 212.78 86.9995 212.712 87.0085 212.644L87.1108 212.375L104.54 179.414ZM92.332 193.65C92.3494 193.42 92.3494 193.189 92.332 192.959V191.053C92.3505 190.836 92.3505 190.618 92.332 190.401C92.325 190.222 92.2803 190.046 92.201 189.885C92.1216 189.724 92.0093 189.582 91.8713 189.467C91.6153 189.288 91.1418 189.467 90.4636 189.787C89.9402 190.051 89.4933 190.444 89.1661 190.93C88.8389 191.417 88.6423 191.979 88.5953 192.563C88.5765 192.797 88.5765 193.032 88.5953 193.266C88.5953 193.573 88.5953 193.893 88.5953 194.225C88.5953 194.558 88.5953 194.865 88.5953 195.172C88.5753 195.385 88.5753 195.599 88.5953 195.811C88.5953 195.992 88.6368 196.17 88.7167 196.332C88.7966 196.494 88.9127 196.635 89.056 196.745C89.3119 196.924 89.7726 196.809 90.4636 196.425C91.041 196.136 91.5279 195.693 91.8713 195.146C92.1261 194.684 92.2829 194.175 92.332 193.65ZM105.73 190.324C106.429 189.893 107.194 189.582 107.995 189.403C108.527 189.295 109.076 189.322 109.595 189.48C110.016 189.632 110.366 189.932 110.58 190.324C110.813 190.746 110.953 191.213 110.99 191.693C110.99 192.281 111.054 192.972 111.054 193.611C111.054 194.251 111.054 194.967 110.99 195.607C110.93 196.235 110.792 196.854 110.58 197.449C110.338 198.149 110.007 198.815 109.595 199.431C108.615 200.91 107.299 202.137 105.756 203.012C105.061 203.444 104.3 203.759 103.504 203.946C102.97 204.071 102.413 204.049 101.891 203.882C101.468 203.735 101.116 203.433 100.906 203.038C100.675 202.616 100.54 202.149 100.509 201.669C100.509 201.094 100.432 200.39 100.432 199.764C100.432 199.137 100.432 198.395 100.509 197.756C100.564 197.132 100.698 196.517 100.906 195.926C101.151 195.227 101.482 194.561 101.891 193.944C102.357 193.244 102.898 192.596 103.504 192.013C104.166 191.341 104.915 190.761 105.73 190.286V190.324ZM107.599 197.206C107.616 196.976 107.616 196.745 107.599 196.515V194.622C107.617 194.405 107.617 194.187 107.599 193.97C107.6 193.789 107.558 193.61 107.479 193.448C107.399 193.286 107.282 193.145 107.138 193.036C106.882 192.857 106.421 192.959 105.73 193.356C105.155 193.648 104.669 194.09 104.323 194.635C104.075 195.091 103.919 195.59 103.862 196.106C103.85 196.336 103.85 196.566 103.862 196.796C103.862 197.116 103.862 197.436 103.862 197.756C103.862 198.075 103.862 198.408 103.862 198.702C103.849 198.915 103.849 199.129 103.862 199.342C103.869 199.521 103.914 199.696 103.993 199.857C104.072 200.018 104.185 200.161 104.323 200.275C104.579 200.454 105.052 200.352 105.73 199.955C106.308 199.666 106.795 199.224 107.138 198.676C107.402 198.214 107.559 197.698 107.599 197.167V197.206Z" fill="#FAFAFA"/>
</svg>
