<svg width="40" height="40" viewBox="0 0 40 40" fill="none" xmlns="http://www.w3.org/2000/svg">
<rect width="40" height="40" rx="20" fill="white"/>
<g clip-path="url(#clip0_39_538)">
<g clip-path="url(#clip1_39_538)">
<path d="M15.5714 28H12.25V17.3215H15.5714V28ZM13.8929 15.893C12.8571 15.893 12 15.0001 12 13.9287C12 12.4644 13.5714 11.5358 14.8571 12.2858C15.4643 12.6072 15.8214 13.2501 15.8214 13.9287C15.8214 15.0001 14.9643 15.893 13.8929 15.893ZM27.9643 28H24.6786V22.8215C24.6786 21.5715 24.6429 20.0001 22.9286 20.0001C21.2143 20.0001 20.9643 21.3215 20.9643 22.7144V28H17.6429V17.3215H20.8214V18.7858H20.8571C21.3214 17.9644 22.3929 17.0715 24 17.0715C27.3571 17.0715 28 19.2858 28 22.143V28H27.9643Z" fill="#008345"/>
</g>
</g>
<defs>
<clipPath id="clip0_39_538">
<rect width="18" height="16" fill="white" transform="translate(11 12)"/>
</clipPath>
<clipPath id="clip1_39_538">
<rect width="16" height="16" fill="white" transform="translate(12 12)"/>
</clipPath>
</defs>
</svg>
