<svg width="40" height="40" viewBox="0 0 40 40" fill="none" xmlns="http://www.w3.org/2000/svg">
<rect width="40" height="40" rx="20" fill="white"/>
<g clip-path="url(#clip0_39_531)">
<g clip-path="url(#clip1_39_531)">
<path d="M29.0627 15.4513C28.8544 14.618 28.1947 13.9583 27.396 13.7499C25.903 13.3333 20.0002 13.3333 20.0002 13.3333C20.0002 13.3333 14.0627 13.3333 12.5697 13.7499C11.7711 13.9583 11.1113 14.618 10.903 15.4513C10.4863 16.9096 10.4863 20.0346 10.4863 20.0346C10.4863 20.0346 10.4863 23.1249 10.903 24.6179C11.1113 25.4513 11.7711 26.0764 12.5697 26.2846C14.0627 26.6666 20.0002 26.6666 20.0002 26.6666C20.0002 26.6666 25.903 26.6666 27.396 26.2846C28.1947 26.0764 28.8544 25.4513 29.0627 24.6179C29.4793 23.1249 29.4793 20.0346 29.4793 20.0346C29.4793 20.0346 29.4793 16.9096 29.0627 15.4513ZM18.0558 22.8471V17.2221L22.9863 20.0346L18.0558 22.8471Z" fill="#008345"/>
</g>
</g>
<defs>
<clipPath id="clip0_39_531">
<rect width="20" height="14" fill="white" transform="translate(10 13)"/>
</clipPath>
<clipPath id="clip1_39_531">
<rect width="20" height="13.3333" fill="white" transform="translate(10 13.3333)"/>
</clipPath>
</defs>
</svg>
