<svg width="395" height="395" viewBox="0 0 395 395" fill="none" xmlns="http://www.w3.org/2000/svg">
<path d="M231.288 208.449C231.288 196.41 227.061 187.909 220.228 184.007C213.394 180.104 203.954 180.633 193.526 186.653C172.67 198.693 155.764 227.978 155.764 252.057C155.764 264.105 159.99 272.597 166.824 276.508C173.657 280.418 183.098 279.881 193.526 273.861C214.382 261.822 231.288 232.536 231.288 208.449Z" fill="#263238"/>
<path d="M243.975 220.718C243.975 210.029 240.222 202.548 234.155 199.017C228.088 195.485 219.714 196.023 210.455 201.387C191.969 212.06 176.959 238.051 176.959 259.428C176.959 270.117 180.711 277.598 186.779 281.129C192.846 284.661 201.22 284.123 210.479 278.759C228.973 268.086 243.975 242.095 243.975 220.718Z" fill="#E0E0E0"/>
<path d="M302.246 335.75C310.312 340.869 315.408 344.148 322.091 348.2C341.051 359.703 347.245 363.139 353.991 365.494C359.924 367.555 366.418 368.377 370.66 365.178C374.903 361.978 372.904 353.778 368.077 350.081C363.25 346.383 359.758 343.476 351.021 336.817C342.939 330.655 332.796 322.747 321.475 313.828C323.742 309.988 321.609 305.975 320.077 304.245C325.465 301.124 326.183 295.452 324.975 288.666C334.494 282.67 324.84 256.007 315.906 238.327C307.524 221.737 301.78 222.44 282.022 218.238C272.44 216.207 255.241 211.775 246.472 208.655C238.193 205.724 230.017 200.399 219.344 193.827C203.607 184.133 167.401 162.843 162.1 159.319L114.945 237.174C114.945 237.174 149.595 256.395 164.004 264.713C178.414 273.032 181.582 274.983 190.92 279.802C202.864 285.996 210.725 290.072 218.57 300.864C220.845 304.024 226.541 311.592 228.721 314.776C233.967 322.446 238.478 328.632 243.929 334.597C250.975 342.307 260.748 346.81 269.517 352.498C277.417 357.601 284.527 363.732 292.245 369.088C293.292 369.943 294.527 370.538 295.847 370.826C299.11 371.284 301.772 368.069 302.705 364.909C304.49 358.881 302.065 351.929 298.502 346.968C295.95 343.656 293.079 340.603 289.93 337.851L285.712 333.901L277.899 326.626C277.203 325.978 276.453 325.046 276.864 324.192C277.275 323.339 278.807 322.707 280.972 323.505C288.113 326.152 294.173 330.607 302.246 335.75Z" fill="#FFA8A7"/>
<path d="M279.938 359.884C281.344 353.414 288.28 349.985 288.28 349.985C288.28 349.985 294.521 355.847 297.286 359.979C300.667 365.027 298.953 372.729 294.497 371.157C290.429 369.206 286.471 366.891 279.938 359.884Z" fill="#FFA8A7"/>
<path opacity="0.3" d="M279.938 359.884C281.344 353.414 288.28 349.985 288.28 349.985C288.28 349.985 294.521 355.847 297.286 359.979C300.667 365.027 298.953 372.729 294.497 371.157C290.429 369.206 286.471 366.891 279.938 359.884Z" fill="white"/>
<path opacity="0.3" d="M288.28 349.97C288.28 349.97 281.344 353.398 279.938 359.868C280.332 360.295 280.727 360.714 281.13 361.117C281.863 360.677 282.537 360.146 283.137 359.537C285.607 356.941 287.569 353.905 288.92 350.586L288.28 349.97Z" fill="white"/>
<path d="M278.562 352.72C279.321 351.92 279.999 351.047 280.584 350.113C281.252 349.164 281.784 348.127 282.164 347.032C282.22 346.818 281.88 346.439 281.69 346.668C281.017 347.586 280.392 348.538 279.818 349.52C279.218 350.441 278.535 351.305 277.78 352.103C276.579 353.346 275.193 354.396 273.672 355.216L274.549 355.848C276.032 355.007 277.384 353.953 278.562 352.72Z" fill="#F28F8F"/>
<path d="M272.02 354.062C272.692 353.272 273.379 352.482 274.114 351.692C275.394 350.373 276.76 349.148 278.064 347.892C278.245 347.719 277.937 347.355 277.732 347.489C276.097 348.562 274.577 349.801 273.197 351.187C272.471 351.906 271.752 352.664 271.072 353.446L272.02 354.062Z" fill="#F28F8F"/>
<path d="M322.462 310.138C317.193 307.926 305.761 297.064 299.457 289.401C301.385 293.698 309.94 306.552 321.474 313.796C322.116 312.683 322.456 311.423 322.462 310.138Z" fill="#F28F8F"/>
<path d="M320.108 304.19C315.503 296.574 311.268 288.184 310.85 279.139C313.717 286.494 318.544 296.519 320.108 304.19Z" fill="#F28F8F"/>
<path d="M325.061 288.634C323.552 285.166 322.446 281.706 321.253 278.143C320.015 274.581 319.317 270.852 319.184 267.083C320.008 268.767 320.746 270.491 321.396 272.25C323.402 277.487 325.243 282.907 325.061 288.626V288.634Z" fill="#F28F8F"/>
<path d="M306.409 241.219C306.038 239.409 305.342 237.687 303.683 236.716C301.734 235.512 299.461 234.938 297.174 235.072C296.993 235.059 296.811 235.094 296.647 235.173C296.484 235.252 296.344 235.372 296.242 235.523C296.013 236.036 296.613 236.502 297.119 236.755C299.615 237.987 302.024 239.591 303.557 241.914C304.205 243.051 304.928 244.144 305.722 245.184C305.809 245.307 305.93 245.402 306.07 245.458C306.21 245.514 306.364 245.529 306.512 245.5C306.922 245.366 306.954 244.805 306.899 244.379C306.741 243.383 306.63 242.285 306.409 241.219Z" fill="#F28F8F"/>
<path d="M300.262 258.045C299.883 256.228 299.196 254.514 297.537 253.534C295.587 252.333 293.314 251.759 291.027 251.891C290.664 251.891 290.237 252.01 290.095 252.342C289.866 252.855 290.466 253.329 290.972 253.574C293.468 254.806 295.878 256.41 297.411 258.733C298.056 259.871 298.78 260.964 299.575 262.003C299.663 262.126 299.784 262.221 299.924 262.277C300.064 262.333 300.217 262.347 300.365 262.319C300.776 262.185 300.808 261.624 300.744 261.197C300.594 260.202 300.484 259.12 300.262 258.045Z" fill="#F28F8F"/>
<path d="M293.233 278.625C292.854 276.808 292.167 275.094 290.508 274.122C288.56 272.914 286.286 272.338 283.998 272.471C283.635 272.471 283.208 272.597 283.066 272.929C282.837 273.435 283.437 273.909 283.943 274.154C286.439 275.386 288.849 276.99 290.381 279.312C291.029 280.452 291.752 281.548 292.546 282.591C292.635 282.712 292.756 282.805 292.896 282.86C293.036 282.915 293.189 282.928 293.336 282.899C293.747 282.765 293.778 282.204 293.715 281.777C293.565 280.782 293.454 279.66 293.233 278.625Z" fill="#F28F8F"/>
<path d="M361.164 344.859C357.744 345.309 353.264 347.64 350.215 351.874C353.937 355.541 358.177 358.642 362.8 361.078C368.764 363.922 373.235 363.179 375.037 361.196C377.62 358.376 371.79 351.708 361.164 344.859Z" fill="#FFA8A7"/>
<path opacity="0.3" d="M361.164 344.859C357.744 345.309 353.264 347.64 350.215 351.874C353.937 355.541 358.177 358.642 362.8 361.078C368.764 363.922 373.235 363.179 375.037 361.196C377.62 358.376 371.79 351.708 361.164 344.859Z" fill="white"/>
<path opacity="0.3" d="M361.164 344.859C357.744 345.309 353.264 347.64 350.215 351.874L350.792 352.427C356.851 351.329 360.983 347.047 362.247 345.57L361.164 344.859Z" fill="white"/>
<path d="M319.31 327.621C321.226 326.101 323.303 324.795 325.503 323.726C326.574 323.237 327.678 322.823 328.806 322.486C329.351 322.328 329.896 322.186 330.449 322.059C330.84 321.984 331.228 321.889 331.61 321.775L330.291 320.74L329.627 320.89C328.995 321.04 328.371 321.238 327.747 321.451C326.629 321.83 325.544 322.298 324.5 322.849C322.416 323.902 320.542 325.326 318.97 327.052C318.78 327.273 319.065 327.85 319.31 327.621Z" fill="#F28F8F"/>
<path d="M353.438 338.791L352.711 338.894C351.393 339.115 350.1 339.461 348.848 339.929C347.621 340.383 346.464 341.008 345.411 341.785C344.411 342.474 343.639 343.445 343.191 344.574C343.191 344.637 343.191 344.858 343.302 344.795C343.804 344.489 344.278 344.137 344.716 343.744C345.182 343.389 345.672 343.057 346.154 342.725C347.114 342.085 348.152 341.57 349.243 341.193C350.375 340.812 351.538 340.529 352.719 340.347C353.288 340.26 353.856 340.181 354.433 340.118L355.081 340.063L353.438 338.791Z" fill="#F28F8F"/>
<path d="M331.388 326.649C332.175 326.281 332.868 325.741 333.418 325.069C333.655 324.698 333.205 324.239 332.81 324.382C332.028 324.738 331.275 325.156 330.559 325.63C329.938 325.986 329.281 326.274 328.599 326.491C327.953 326.676 327.296 326.821 326.632 326.925C325.716 327.075 324.784 327.202 323.859 327.328C323.393 327.391 323.67 328.071 324.025 328.118C325.806 328.304 327.605 328.132 329.318 327.613C330.042 327.369 330.736 327.046 331.388 326.649Z" fill="#F28F8F"/>
<path d="M276.349 324.919L276.76 324.982C276.682 324.704 276.704 324.408 276.823 324.144C277.289 323.189 278.782 322.667 280.939 323.473C282.707 324.139 284.435 324.91 286.113 325.78C283.83 324.437 281.413 323.37 279.003 322.193C275.701 320.558 272.478 318.78 269.255 317.003C263.326 313.707 257.646 309.982 252.262 305.856C251.796 305.493 251.732 306.369 252.025 306.646C256.504 310.596 261.078 314.815 266.245 317.824C267.756 318.681 269.213 319.63 270.606 320.668C270.734 320.741 270.83 320.859 270.874 321C270.881 321.084 270.863 321.167 270.82 321.24C270.778 321.312 270.714 321.369 270.637 321.403C270.484 321.464 270.32 321.494 270.155 321.49C268.676 321.452 267.206 321.234 265.779 320.842L264.199 320.471C264.153 320.553 264.134 320.647 264.144 320.74C264.154 320.834 264.192 320.922 264.254 320.992C264.377 321.135 264.531 321.249 264.704 321.324C266.565 322.208 268.511 322.901 270.511 323.394C272.446 323.899 274.358 324.547 276.349 324.919Z" fill="#F28F8F"/>
<path d="M234.132 198.993C228.064 195.517 219.706 196.03 210.432 201.363C191.969 212.059 176.959 238.05 176.959 259.428C176.959 270.116 180.712 277.598 186.779 281.129L162.408 268.449C155.637 263.994 152.138 254.229 153.678 240.934C156.419 217.534 173.839 192.017 192.578 183.951C201.599 180.064 207.232 180.491 214.516 185.531L234.132 198.993Z" fill="#F5F5F5"/>
<path d="M161.422 250.636C161.011 254.167 162.678 258.536 165.15 260.368C167.623 262.201 169.961 260.842 170.372 257.303C170.783 253.764 169.124 249.403 166.651 247.57C164.179 245.738 161.84 247.096 161.422 250.636Z" fill="#E0E0E0"/>
<path d="M164.106 249.798C164.075 250.091 164.114 250.387 164.22 250.661C164.326 250.936 164.495 251.181 164.714 251.378C165.109 251.678 165.504 251.457 165.559 250.88C165.589 250.588 165.55 250.292 165.444 250.018C165.338 249.743 165.169 249.497 164.951 249.3C164.556 249 164.169 249.221 164.106 249.798Z" fill="#F5F5F5"/>
<path d="M167.322 252.579C167.292 252.871 167.331 253.166 167.435 253.44C167.539 253.714 167.706 253.961 167.923 254.159C168.326 254.459 168.713 254.238 168.776 253.661C168.806 253.368 168.766 253.073 168.661 252.798C168.555 252.524 168.386 252.278 168.168 252.081C167.765 251.781 167.386 252.01 167.322 252.579Z" fill="#F5F5F5"/>
<path d="M162.835 254.112C162.806 254.404 162.846 254.7 162.952 254.974C163.057 255.248 163.226 255.494 163.444 255.692C163.847 255.992 164.234 255.771 164.289 255.194C164.321 254.902 164.283 254.606 164.178 254.332C164.074 254.057 163.906 253.811 163.689 253.614C163.286 253.314 162.907 253.535 162.835 254.112Z" fill="#F5F5F5"/>
<path d="M166.256 257.342C166.223 257.634 166.26 257.93 166.365 258.205C166.469 258.48 166.638 258.726 166.856 258.922C167.259 259.222 167.646 259.001 167.709 258.424C167.737 258.132 167.697 257.837 167.591 257.563C167.486 257.289 167.318 257.043 167.101 256.844C166.69 256.544 166.319 256.75 166.256 257.342Z" fill="#F5F5F5"/>
<path d="M220.118 183.936C213.292 180.065 203.899 180.657 193.526 186.645C172.678 198.693 155.764 227.986 155.764 252.057C155.764 263.907 159.872 272.337 166.548 276.35L35.4077 200.549C28.5742 196.599 24.3477 188.146 24.3477 176.107C24.3477 152.028 41.2616 122.742 62.1176 110.703C72.5377 104.683 81.9861 104.114 88.8196 108.056L220.118 183.936Z" fill="#455A64"/>
<path d="M49.343 242.878L184.243 320.804L197.555 313.117L201.987 341.288L153.196 338.729L166.5 331.042L31.5996 253.124L49.343 242.878Z" fill="white"/>
<path d="M49.343 242.878L184.243 320.804L197.555 313.117L201.987 341.288L153.196 338.729L166.5 331.042L31.5996 253.124L49.343 242.878Z" fill="url(#paint0_linear_1_2270)"/>
<path opacity="0.4" d="M49.343 242.878L184.243 320.804L197.555 313.117L201.987 341.288L153.196 338.729L166.5 331.042L31.5996 253.124L49.343 242.878Z" fill="white"/>
<path d="M58.9407 303.818L106.649 331.342L117.977 324.801L121.754 348.777L80.2311 346.597L91.5518 340.056L43.8438 312.54L58.9407 303.818Z" fill="white"/>
<path d="M58.9407 303.818L106.649 331.342L117.977 324.801L121.754 348.777L80.2311 346.597L91.5518 340.056L43.8438 312.54L58.9407 303.818Z" fill="url(#paint1_linear_1_2270)"/>
<path d="M314.878 190.904L357.025 215.212L367.026 209.437L370.36 230.617L333.68 228.69L343.682 222.915L301.543 198.606L314.878 190.904Z" fill="white"/>
<path d="M314.878 190.904L357.025 215.212L367.026 209.437L370.36 230.617L333.68 228.69L343.682 222.915L301.543 198.606L314.878 190.904Z" fill="url(#paint2_linear_1_2270)"/>
<path opacity="0.7" d="M314.878 190.904L357.025 215.212L367.026 209.437L370.36 230.617L333.68 228.69L343.682 222.915L301.543 198.606L314.878 190.904Z" fill="white"/>
<path d="M227.954 59.7633C225.892 59.4552 224.518 58.7915 224.249 57.7014C224.175 57.0946 224.302 56.4803 224.61 55.9524C224.918 55.4245 225.391 55.0121 225.956 54.7783C227.368 54.233 228.893 54.0458 230.395 54.2333C230.206 52.3452 231.975 50.1094 233.658 49.1614C235.341 48.2134 238.501 47.9844 240.255 49.438C240.76 46.0489 242.941 44.3898 246.353 43.1969C247.831 42.689 249.416 42.577 250.95 42.8723C252.485 43.1675 253.915 43.8596 255.099 44.8797C257.074 41.1825 262.999 38.9625 269.026 41.3878C271.409 42.3632 273.352 44.1791 274.485 46.4912C275.042 47.8147 275.355 49.2278 275.41 50.6624C276.226 50.0978 277.184 49.7733 278.176 49.7258C279.167 49.6784 280.152 49.9098 281.019 50.3939C281.682 50.8084 282.221 51.394 282.58 52.0891C282.938 52.7842 283.103 53.5631 283.057 54.3439C284.306 54.4177 285.535 54.7007 286.691 55.1812C288.002 55.7342 289.369 56.9667 288.895 58.2622C288.531 59.2418 287.315 59.6289 286.24 59.779C284.105 60.0753 281.932 59.941 279.849 59.384C277.901 60.6627 275.609 61.3174 273.279 61.261C270.949 61.2045 268.691 60.4396 266.806 59.068C265.954 59.7149 265.053 60.2959 264.113 60.8061C263.11 61.2488 262.043 61.5314 260.953 61.6434C259.128 61.8409 256.552 61.5013 255.122 60.3005C254.946 60.0997 254.706 59.9658 254.443 59.9212C254.237 59.9364 254.038 60.0044 253.866 60.1187C252.468 60.8585 250.89 61.1914 249.312 61.0796C247.734 60.9679 246.219 60.4161 244.939 59.4868C243.296 60.9591 241.143 61.7332 238.938 61.6447C236.733 61.5562 234.649 60.6121 233.129 59.0127C231.51 59.7485 229.715 60.0087 227.954 59.7633Z" fill="#EBEBEB"/>
<path d="M369.538 94.744C371.426 94.4596 372.698 93.8513 372.95 92.848C373.017 92.2881 372.899 91.7217 372.614 91.2353C372.328 90.7488 371.892 90.3691 371.37 90.1541C370.07 89.6569 368.668 89.486 367.286 89.6564C367.46 87.9184 365.856 85.8644 364.276 84.9875C362.696 84.1106 359.829 83.9131 358.209 85.2403C357.743 82.0803 355.736 80.5951 352.6 79.5049C351.237 79.0398 349.777 78.941 348.364 79.2183C346.951 79.4956 345.636 80.1393 344.55 81.0849C342.725 77.68 337.306 75.6418 331.736 77.8696C329.532 78.7726 327.742 80.4617 326.712 82.6096C326.194 83.8234 325.905 85.1223 325.859 86.4411C325.121 85.9146 324.251 85.6045 323.346 85.5459C322.442 85.4873 321.539 85.6824 320.739 86.1093C320.133 86.4869 319.638 87.0202 319.307 87.6538C318.977 88.2873 318.822 88.998 318.859 89.7117C317.709 89.7856 316.579 90.0527 315.517 90.5017C314.309 91.0073 313.053 92.1449 313.495 93.3378C313.827 94.2384 314.949 94.5939 315.936 94.7282C317.9 95.0032 319.899 94.8796 321.814 94.3648C323.606 95.543 325.715 96.1464 327.859 96.0941C330.004 96.0419 332.081 95.3366 333.814 94.0725C334.6 94.6612 335.429 95.1894 336.294 95.6525C337.21 96.0617 338.182 96.3281 339.178 96.4425C340.861 96.6242 343.231 96.3082 344.542 95.2022C344.705 95.019 344.925 94.8965 345.166 94.8546C345.358 94.8682 345.543 94.9307 345.703 95.0363C346.989 95.715 348.439 96.0207 349.89 95.9188C351.34 95.8169 352.733 95.3115 353.911 94.4596C355.427 95.8093 357.408 96.5176 359.436 96.4351C361.464 96.3526 363.381 95.4857 364.782 94.0172C366.266 94.7064 367.916 94.9585 369.538 94.744Z" fill="#EBEBEB"/>
<path opacity="0.15" d="M234.519 229.827C238.876 231.369 243.032 233.427 246.899 235.957C251.244 238.793 255.209 242.23 259.831 244.584C265.928 247.544 272.692 248.864 279.455 248.415C283.27 248.226 287.418 247.404 289.843 244.465C290.51 243.738 290.909 242.804 290.973 241.819C290.973 240.381 289.977 239.156 288.935 238.169C283.365 232.908 275.615 230.759 268.142 229.076C260.668 227.393 256.189 225.284 248.842 221.484C245.682 219.857 242.601 218.103 239.441 216.57L239.362 216.531C237.798 215.703 236.192 214.957 234.551 214.295C231.869 213.271 229.078 212.56 226.232 212.178C223.374 211.793 220.466 212.141 217.779 213.189C217.074 213.423 216.455 213.864 216.002 214.453C215.676 214.995 215.527 215.624 215.575 216.254C215.654 217.534 216.114 218.761 216.894 219.778C217.673 220.787 218.587 221.683 219.612 222.44C223.989 225.853 229.321 227.994 234.519 229.827Z" fill="black"/>
<path opacity="0.15" d="M147.051 213.3C151.408 214.836 155.564 216.892 159.43 219.422C163.775 222.266 167.741 225.703 172.362 228.057C178.454 231.017 185.212 232.34 191.97 231.896C195.786 231.707 199.933 230.877 202.359 227.946C203.024 227.218 203.422 226.285 203.488 225.3C203.488 223.862 202.493 222.63 201.45 221.642C195.92 216.381 188.147 214.224 180.673 212.51C173.2 210.796 168.72 208.726 161.373 204.918C158.213 203.291 155.132 201.545 151.972 200.004H151.893C150.331 199.173 148.725 198.427 147.082 197.768C144.401 196.741 141.609 196.028 138.764 195.643C135.903 195.262 132.993 195.61 130.303 196.655C129.6 196.894 128.984 197.337 128.533 197.926C128.207 198.465 128.058 199.092 128.107 199.72C128.184 201 128.644 202.227 129.426 203.243C130.204 204.252 131.119 205.148 132.143 205.905C136.52 209.35 141.853 211.467 147.051 213.3Z" fill="black"/>
<path opacity="0.15" d="M76.1715 147.896C80.4694 149.415 84.5697 151.444 88.3849 153.939C92.6667 156.744 96.5851 160.133 101.136 162.455C107.151 165.369 113.821 166.671 120.491 166.232C124.259 166.05 128.343 165.236 130.761 162.329C131.42 161.61 131.813 160.687 131.874 159.714C131.874 158.3 130.895 157.091 129.86 156.12C124.377 150.929 116.73 148.804 109.359 147.145C101.989 145.486 97.5726 143.408 90.3283 139.656C87.2236 138.076 84.1742 136.33 81.0458 134.813H80.9747C79.4353 133.992 77.853 133.254 76.2347 132.601C73.588 131.591 70.8339 130.889 68.0266 130.508C65.2083 130.135 62.3416 130.481 59.6921 131.511C58.9903 131.728 58.3689 132.149 57.9067 132.72C57.5968 133.256 57.4512 133.871 57.488 134.489C57.5714 135.751 58.0247 136.96 58.7915 137.965C59.5591 138.964 60.4633 139.849 61.4775 140.596C65.783 143.977 71.0523 146.087 76.1715 147.896Z" fill="black"/>
<path d="M69.8512 113.104C68.6109 112.851 67.26 113.957 66.4384 116.114C65.6168 118.271 66.5411 120.183 66.0434 122.932C65.6247 125.215 64.4634 127.545 64.969 129.923C65.1185 130.979 65.5128 131.986 66.1204 132.862C66.7281 133.739 67.5322 134.461 68.4687 134.971C70.499 136.164 73.2087 135.967 73.5879 134.482C73.9671 132.996 69.8512 113.104 69.8512 113.104Z" fill="#263238"/>
<path d="M65.6558 128.501C65.5887 128.059 65.5887 127.609 65.6558 127.166C65.8612 125.776 66.2958 124.417 66.5091 123.027C66.642 121.749 66.7 120.464 66.6829 119.179C66.6788 117.887 66.9481 116.608 67.4729 115.427C67.73 114.853 68.1222 114.35 68.6161 113.96C69.11 113.571 69.6908 113.307 70.3089 113.191C70.9081 113.166 71.5075 113.232 72.0865 113.389C73.5086 113.648 74.9562 113.741 76.3998 113.665C77.5786 113.556 78.7314 113.254 79.8126 112.772C81.0687 112.275 83.6521 110.845 83.6521 110.845L83.336 119.709C83.336 119.709 80.9661 120.104 79.8522 120.372C78.7383 120.641 75.839 121.865 74.9384 122.742C74.0378 123.619 73.785 125.476 73.6191 126.763C73.519 127.409 73.4662 128.061 73.461 128.715C73.461 130.034 73.864 131.353 73.6191 132.665C73.5709 132.987 73.4403 133.292 73.2398 133.549C72.9244 133.881 72.502 134.091 72.0469 134.142C71.2749 134.241 70.4906 134.169 69.7493 133.931C69.0081 133.694 68.3281 133.296 67.7572 132.767C66.5426 131.662 65.7917 130.138 65.6558 128.501Z" fill="#C8856A"/>
<path d="M66.0359 125.301C66.6679 126.368 68.7456 128.722 71.5659 128.706C72.0473 128.738 72.5242 128.596 72.9099 128.306C73.2955 128.016 73.5643 127.598 73.6673 127.126C73.6828 128.335 73.7804 129.541 73.9596 130.736C74.2282 132.214 74.4099 134.686 72.7351 135.081C71.0603 135.476 68.2084 134.394 66.7627 132.253C65.317 130.112 65.0405 128.445 66.0359 125.301Z" fill="#37474F"/>
<path d="M73.7923 113.499C73.2077 115.869 68.8548 116.573 66.6823 120.372C66.5164 118.002 66.7297 115.972 67.9068 114.503C68.2889 113.956 68.8182 113.528 69.4334 113.269C70.0486 113.011 70.7245 112.931 71.3828 113.041C72.9549 113.334 73.7923 113.499 73.7923 113.499Z" fill="#37474F"/>
<path d="M112.59 85.2018C112.59 85.2018 113.53 100.085 110.686 110.095C108.917 116.328 101.909 116.92 100.416 117.205C93.7724 118.635 81.4563 120.12 81.4563 120.12C81.4563 120.12 78.2094 116.257 79.8763 112.599C85.4063 109.763 91.7263 105.418 96.5769 105.584L105.425 84.5303L112.59 85.2018Z" fill="#37474F"/>
<path d="M108.23 97.6593C108.23 97.6593 111.058 95.7475 111.39 91.0312L101.523 93.6777L96.5303 105.623C96.3277 105.611 96.1246 105.611 95.922 105.623H95.764L95.1478 105.678L94.4842 105.781H94.3578L93.6942 105.923C92.4587 106.241 91.2533 106.667 90.0918 107.195L96.2617 117.986L97.2808 117.804H97.3993L98.4026 117.615L99.2637 117.441L99.477 117.401L100.322 117.228C101.823 116.904 108.831 116.311 110.592 110.118C110.79 109.415 110.971 108.688 111.137 107.945L108.23 97.6593Z" fill="#263238"/>
<path d="M117.109 148.14C116.525 148.14 116.454 147.35 116.098 145.494C115.743 143.637 114.842 135.635 114.842 135.635L104.777 138.992C104.777 138.992 108.008 146.102 108.727 148.046C109.517 150.194 110.679 152.659 110.837 154.318C110.995 155.977 111.01 160.599 113.001 161.476C114.992 162.353 116.88 161.476 118.223 160.591C119.566 159.706 121.162 156.641 122.663 155.061C124.164 153.481 125.412 152.691 126.573 151.048C127.735 149.404 127.727 145.383 126.21 144.499C124.693 143.614 122.497 144.499 121.201 145.289C119.906 146.079 118.199 148.093 117.109 148.14Z" fill="#C8856A"/>
<path d="M111.5 160.149C111.017 158.527 110.751 156.848 110.71 155.156C110.71 154.737 110.655 154.327 110.647 153.908C110.631 153.832 110.631 153.754 110.647 153.679C110.685 153.629 110.733 153.589 110.789 153.56C111.259 153.276 111.783 153.095 112.328 153.028C112.872 152.962 113.425 153.011 113.949 153.173C114.739 153.426 115.963 154.121 116.224 155.061C116.485 156.001 115.158 156.681 114.573 157.242L111.5 160.149Z" fill="#455A64"/>
<path d="M126.439 144.325C125.562 143.424 124.132 143.401 122.221 144.325C120.941 144.912 119.785 145.738 118.816 146.758C118.816 146.758 117.781 148.615 119.266 149.918C120.751 151.222 126.439 144.325 126.439 144.325Z" fill="#455A64"/>
<path d="M127.774 146.063C127.727 145.542 127.478 145.06 127.079 144.72C126.953 144.633 126.526 144.388 126.439 144.325C125.341 143.535 123.279 145.115 121.596 146.648C119.606 148.433 117.725 152.075 116.066 154.548C114.407 157.02 112.448 157.913 111.777 159.003C111.554 159.341 111.447 159.742 111.472 160.145C111.498 160.549 111.655 160.933 111.919 161.239C112.022 161.358 112.385 161.721 112.456 161.8C112.801 162.09 113.211 162.293 113.651 162.392C114.091 162.491 114.548 162.483 114.984 162.369C117.188 161.99 118.784 161.302 120.648 158.679C122.513 156.057 123.5 154.69 125.657 153.023C127.814 151.356 128.193 148.228 127.774 146.063Z" fill="#37474F"/>
<path d="M127.774 146.063C127.197 143.03 124.456 145.052 122.244 147.043C120.253 148.828 118.365 152.47 116.714 154.943C115.062 157.415 113.04 158.284 112.416 159.398C111.286 161.421 112.779 162.748 114.991 162.369C117.203 161.99 118.791 161.302 120.656 158.679C122.52 156.057 123.508 154.69 125.664 153.023C127.821 151.356 128.192 148.228 127.774 146.063Z" fill="#263238"/>
<path d="M91.5757 81.2119C88.0997 85.2172 86.5118 88.6695 86.3538 92.185C86.3003 95.6794 87.19 99.1236 88.9292 102.155C91.8127 107.535 94.1353 110.742 100.526 122.948C100.452 126.589 101.157 130.204 102.596 133.549C105.085 139.941 108.055 146.806 108.055 146.806C108.055 146.806 110.275 142.785 115.955 143.377C115.655 140.217 113.775 125.207 112.858 120.815C111.713 115.285 106.799 97.1541 106.799 97.1541C108.639 95.7584 110.124 93.949 111.134 91.8724C112.144 89.7958 112.651 87.5104 112.613 85.2014L91.5757 81.2119Z" fill="#37474F"/>
<path d="M115.341 38.3545C113.16 35.0681 109.558 33.0062 105.561 33.4644C99.8884 34.1122 96.0806 37.6672 93.6158 42.6679C93.0533 43.9924 92.36 45.2574 91.546 46.4441C89.0496 49.6831 84.3175 50.5837 80.3991 49.4145C81.4393 50.5857 82.781 51.4492 84.278 51.9109C82.5493 51.8614 80.8495 51.4553 79.2852 50.718C80.3898 54.5424 82.9398 57.7867 86.3952 59.7635C89.9818 61.857 94.2952 62.3389 98.3321 62.6154C102.085 62.8682 106.422 60.909 108.444 57.7253C109.262 56.2737 109.939 54.7473 110.466 53.167C111.295 50.8078 112.518 48.6065 114.085 46.6574C114.569 46.1533 114.882 45.5091 114.978 44.8168C115.074 44.1245 114.95 43.4194 114.622 42.8022C116.004 41.87 116.131 39.7686 115.341 38.3545Z" fill="#263238"/>
<path d="M143.963 65.4043C143.837 65.2209 143.774 65.0022 143.781 64.7802C143.811 64.5619 143.864 64.3475 143.939 64.1403C144.014 63.787 143.987 63.4196 143.861 63.0811C143.735 62.7426 143.516 62.4469 143.228 62.2285C143.339 61.5491 143.402 61.2094 143.52 60.5379C143.544 60.4303 143.527 60.3179 143.473 60.2219C143.451 60.1949 143.423 60.1732 143.392 60.1582C143.36 60.1431 143.326 60.1352 143.291 60.135C142.966 60.0962 142.638 60.1839 142.375 60.3799C141.886 60.7354 141.501 61.2156 141.261 61.7703C140.654 62.8083 139.993 63.8131 139.278 64.7802C139.081 65.0251 137.864 66.7789 137.548 65.744H134.996C134.527 66.4819 134.158 67.2788 133.898 68.114C133.813 68.3657 133.71 68.6112 133.59 68.8487C133.091 69.7381 132.341 70.4607 131.433 70.9264C130.004 71.7164 124.11 75.0581 124.11 75.0581C124.11 75.0581 123.423 73.8968 120.697 67.8533C118.754 63.5636 115.957 57.7808 111.841 57.7808C111.841 57.7808 111.51 64.8908 111.344 69.9389C113.508 73.723 116.969 79.8376 118.73 82.1286C120.8 84.8146 122.269 85.8495 124.474 84.7435C128.329 82.808 131.663 79.1029 134.04 77.0094C135.424 75.7692 136.924 74.6659 138.52 73.7151C139.496 73.1662 140.421 72.5317 141.285 71.8191C142.035 71.1713 143.655 69.3148 143.923 68.3984C144.018 68.0745 143.923 67.7901 144.026 67.482C144.129 67.1739 144.334 66.929 144.405 66.613C144.516 66.1153 144.279 65.8783 143.963 65.4043Z" fill="#C8856A"/>
<path d="M124.11 75.0502C122.752 75.9639 121.703 77.2664 121.1 78.7869C121.125 77.7827 121.438 76.8068 122 75.9745C122.426 75.2975 123.03 74.7508 123.746 74.3945L124.11 75.0502Z" fill="#AF6152"/>
<path d="M122.901 71.8429C121.361 68.6829 118.865 63.6111 117.687 61.6598C115.91 58.721 114.875 58.1759 111.849 57.5913L111.344 71.4716C111.344 71.4716 112.979 74.0075 114.772 76.7172C117.792 75.6754 120.56 74.0153 122.901 71.8429Z" fill="#E0E0E0"/>
<path d="M138.252 68.8013C138.322 68.5426 138.37 68.2782 138.394 68.0113C138.454 67.7513 138.454 67.4812 138.394 67.2213C138.394 67.1502 138.228 67.0475 138.181 67.166C138.117 67.4038 138.078 67.6472 138.062 67.8928C138.027 68.1242 137.979 68.3536 137.92 68.5801C137.798 69.0336 137.612 69.4673 137.367 69.8678C137.13 70.2493 136.828 70.5862 136.474 70.8632C136.139 71.111 135.785 71.3328 135.416 71.5268C135.416 71.5268 135.368 71.6453 135.416 71.6453C135.879 71.5765 136.322 71.4054 136.711 71.1444C137.101 70.8835 137.427 70.5391 137.667 70.1364C137.936 69.7277 138.134 69.2762 138.252 68.8013Z" fill="#AF6152"/>
<path d="M137.548 65.7282C137.507 65.5243 137.526 65.313 137.603 65.1199C137.775 64.5143 137.842 63.8837 137.801 63.2555C137.798 63.0015 137.742 62.7511 137.635 62.5208C137.5 62.2522 137.105 61.9046 136.789 62.1021C136.473 62.2996 136.379 62.9474 136.252 63.2239C135.888 64.0898 135.468 64.9316 134.996 65.744" fill="#C8856A"/>
<path d="M92.3049 77.4204C92.4155 78.6686 92.6209 79.9721 91.5781 81.2361C92.4471 84.641 99.8573 86.616 104.732 86.6792C111.423 86.7582 112.632 85.2256 112.632 85.2256L113.035 80.9833L92.3049 77.4204Z" fill="#C8856A"/>
<path d="M118.011 68.6272C116.249 62.7338 111.849 57.5672 111.849 57.5672C110.822 57.3776 103.34 56.3901 103.34 56.3901L95.8038 56.8957C94.3897 57.741 93.2837 59.0761 92.1145 61.5488C91.6168 62.6074 90.5977 66.6285 90.8584 68.327C91.418 71.2541 91.8084 74.211 92.0276 77.1829C92.1461 79.5529 90.5187 80.3903 91.1507 81.6859C94.7689 87.8716 109.573 89.3173 112.575 85.7149C113.634 84.206 113.855 81.1803 114.424 77.2145C118.761 76.0374 118.872 71.5107 118.011 68.6272Z" fill="#F0F0F0"/>
<path d="M107.306 76.6854C106.223 77.2168 105.032 77.4931 103.826 77.4931C102.62 77.4931 101.429 77.2168 100.346 76.6854C96.8147 74.8763 96.5935 71.5188 97.028 70.2627C97.028 70.2627 94.9819 75.5557 99.398 77.8625C104.873 80.746 107.306 76.6854 107.306 76.6854Z" fill="#E0E0E0"/>
<path d="M100.592 54.9764C100.592 54.1864 100.592 50.2917 100.592 50.2917C100.592 50.5998 98.7904 51.4135 97.479 49.8019C96.9278 49.2368 96.6019 48.4898 96.5626 47.7014C96.5233 46.9129 96.7734 46.1372 97.2657 45.5201C98.1742 44.343 100.149 44.4457 100.9 46.4049C101.492 46.4049 102.48 46.3338 102.219 43.2449C102.33 39.5398 105.995 36.5694 108.958 39.208C110.19 37.1619 112.671 38.0388 113.54 40.0849C114.022 41.3568 114.18 41.7913 113.872 44.1771C114.083 45.1852 114.192 46.2123 114.195 47.2423C113.982 51.6821 112.781 52.9777 111.454 53.8388C110.458 54.4362 109.277 54.647 108.136 54.4313V55.5057C108.136 56.193 108.073 56.746 108.713 56.9988C109.18 57.1438 109.658 57.252 110.143 57.3227C110.143 57.3227 113.255 62.0627 107.18 62.7184C101.326 63.3267 98.7983 56.7144 98.7983 56.7144C99.2022 56.7234 99.6042 56.6564 99.9833 56.5169C100.394 56.2404 100.568 55.798 100.592 54.9764Z" fill="#C8856A"/>
<path d="M106.532 49.1382L108.823 49.9282C108.778 50.0806 108.703 50.2224 108.602 50.3452C108.501 50.468 108.377 50.5693 108.236 50.643C108.095 50.7167 107.941 50.7613 107.782 50.7742C107.624 50.7872 107.465 50.7681 107.314 50.7182C107.005 50.6069 106.75 50.3802 106.605 50.0857C106.459 49.7911 106.433 49.4516 106.532 49.1382Z" fill="#AF6152"/>
<path d="M106.65 49.6753C106.957 49.6726 107.256 49.7767 107.495 49.9698C107.735 50.1628 107.899 50.4329 107.962 50.7339C107.743 50.8005 107.509 50.8005 107.29 50.7339C107.078 50.6521 106.892 50.5139 106.753 50.3343C106.614 50.1547 106.526 49.9405 106.5 49.7148L106.65 49.6753Z" fill="#F28F8F"/>
<path d="M113.137 42.7551L111.51 41.8703C111.564 41.7617 111.639 41.6652 111.732 41.5865C111.824 41.5078 111.932 41.4486 112.047 41.4125C112.163 41.3763 112.285 41.364 112.406 41.3761C112.527 41.3883 112.644 41.4247 112.75 41.4832C112.964 41.6064 113.123 41.8064 113.195 42.0426C113.267 42.2789 113.246 42.5336 113.137 42.7551Z" fill="#263238"/>
<path d="M104.826 42.85L106.454 41.8704C106.397 41.7612 106.318 41.6649 106.223 41.5873C106.127 41.5097 106.017 41.4524 105.899 41.4191C105.78 41.3858 105.656 41.3771 105.534 41.3936C105.412 41.4101 105.295 41.4513 105.19 41.5149C104.968 41.6469 104.806 41.8599 104.738 42.109C104.67 42.3581 104.702 42.6238 104.826 42.85Z" fill="#263238"/>
<path d="M111.25 44.6272C111.23 44.8344 111.293 45.0411 111.424 45.2024C111.556 45.3636 111.746 45.4664 111.953 45.4883C112.151 45.5024 112.348 45.4411 112.503 45.3166C112.658 45.1921 112.761 45.0136 112.79 44.8168C112.81 44.6108 112.749 44.4052 112.619 44.2442C112.489 44.0832 112.301 43.9796 112.095 43.9557C111.895 43.9395 111.697 43.9999 111.54 44.1246C111.383 44.2492 111.279 44.4289 111.25 44.6272Z" fill="#263238"/>
<path d="M105.64 44.6667C105.622 44.8714 105.684 45.0749 105.814 45.2342C105.944 45.3935 106.131 45.496 106.335 45.5199C106.434 45.5342 106.536 45.5282 106.633 45.5023C106.73 45.4764 106.821 45.431 106.9 45.369C106.979 45.307 107.044 45.2295 107.092 45.1414C107.141 45.0533 107.171 44.9563 107.18 44.8563C107.2 44.649 107.137 44.4424 107.006 44.2811C106.874 44.1199 106.684 44.0171 106.477 43.9952C106.279 43.981 106.082 44.0424 105.927 44.1668C105.772 44.2913 105.669 44.4698 105.64 44.6667Z" fill="#263238"/>
<path d="M111.723 47.1791L109.251 48.3009L108.84 43.5767L111.723 47.1791Z" fill="#AF6152"/>
<path d="M108.128 54.4397C105.189 54.0921 102.377 53.231 101.689 51.4219C101.716 51.9519 101.881 52.4657 102.168 52.9121C102.454 53.3584 102.853 53.7217 103.325 53.9657C104.795 54.7846 106.438 55.2448 108.12 55.3087L108.128 54.4397Z" fill="#AF6152"/>
<path d="M84.9966 93.9467C84.4623 93.2273 84.0462 92.4273 83.7642 91.5767C83.7642 90.8973 85.0677 92.3667 85.5891 92.6432C85.7916 92.7671 86.0166 92.8497 86.2511 92.8863C86.4857 92.9229 86.7251 92.9128 86.9558 92.8565C87.256 92.8091 87.6905 92.422 87.6036 92.1218C87.6036 92.0586 87.5325 92.027 87.4851 91.9875C86.7714 91.3084 86.1185 90.5683 85.5338 89.7755C84.9608 88.9966 84.3324 88.26 83.6536 87.5714C82.8307 86.9488 82.2476 86.0616 82.0025 85.0592C81.4258 81.0302 81.4416 78.8735 81.1098 74.9314C84.2698 73.1223 89.0098 70.3336 90.3765 69.5436C92.1647 68.6169 93.6199 67.1562 94.5398 65.3645C95.6537 62.9945 96.3568 58.6653 95.7643 57.2512C89.8314 57.6462 88.283 59.0761 85.2257 61.2486C83.4956 62.4731 82.3738 63.2473 79.6404 65.3882C78.2658 66.4547 76.8991 67.2842 74.4343 69.433C73.8042 69.8904 73.3263 70.5268 73.0628 71.2595C72.7994 71.9921 72.7625 72.7871 72.957 73.541C73.3435 75.7492 73.8472 77.9354 74.4659 80.0901C74.9557 81.8044 76.8359 89.1198 76.986 90.1468C77.1773 91.2523 77.4654 92.3387 77.8471 93.3937C78.4094 94.6969 79.2136 95.8818 80.2171 96.8855C80.4699 97.0672 80.7543 97.083 81.0071 97.2726C81.2599 97.4622 81.3942 97.7308 81.6628 97.8967C82.0578 98.1574 82.3501 98.0231 82.8794 97.8967C83.0819 97.8293 83.3009 97.8293 83.5035 97.8967C83.6885 97.9977 83.8632 98.1168 84.0249 98.2522C84.3159 98.4353 84.6527 98.5324 84.9966 98.5324C85.3404 98.5324 85.6772 98.4353 85.9683 98.2522L87.3903 99.0422C87.4766 99.0986 87.5807 99.1211 87.6826 99.1054C87.7148 99.0968 87.7442 99.0799 87.7677 99.0563C87.7913 99.0327 87.8083 99.0033 87.8169 98.9711C87.9597 98.693 87.9908 98.3708 87.9038 98.0705C87.7482 97.5179 87.4451 97.0181 87.0269 96.6248C86.3053 95.767 85.6276 94.8731 84.9966 93.9467Z" fill="#C8856A"/>
<path d="M95.803 56.9194C90.9682 57.2749 90.8418 56.872 85.4224 60.7272C83.163 62.3072 81.03 63.8872 79.2051 65.2855C80.0136 68.5349 81.962 71.386 84.6956 73.3198C87.4448 71.7398 91.0788 69.6858 92.3191 68.8405C94.4205 67.4264 97.1223 61.4461 95.803 56.9194Z" fill="#E0E0E0"/>
<path d="M137.461 197.034C137.354 196.611 137.314 196.174 137.343 195.739C137.388 194.565 137.699 193.417 138.251 192.381C138.977 191.365 139.617 190.289 140.163 189.166C140.673 187.959 141.029 186.693 141.222 185.398C141.283 184.325 141.474 183.264 141.791 182.238C143.047 179.283 146.325 179.733 148.213 179.488L155.134 174.93L157.211 184.07C157.211 184.07 153.522 185.24 152.471 185.753C151.041 186.433 149.659 188.123 148.758 189.387C147.621 190.967 146.215 192.547 146.12 194.585C146.112 195.682 146.223 196.776 146.452 197.848C146.514 198.155 146.53 198.469 146.499 198.78C146.373 199.633 145.59 200.202 144.872 200.676C143.71 201.466 142.312 202.256 141.001 201.774C140.276 201.441 139.658 200.913 139.215 200.25C138.409 199.315 137.811 198.219 137.461 197.034Z" fill="#FFA8A7"/>
<path d="M145.788 202.407C145.568 202.681 145.292 202.905 144.979 203.063C144.665 203.221 144.322 203.31 143.971 203.323C143.497 203.329 143.025 203.276 142.565 203.165C141.73 202.962 140.931 202.635 140.195 202.193C137.896 200.866 136.339 198.607 136.197 196.663C136.071 194.902 137.548 191.252 137.943 190.225C138.348 189.097 138.51 187.896 138.417 186.702C138.351 185.482 138.412 184.259 138.599 183.052C138.645 182.577 138.776 182.114 138.986 181.685C139.298 181.163 139.798 180.782 140.384 180.619C140.597 180.555 141.285 180.571 141.395 180.35C140.845 181.39 140.517 182.534 140.431 183.707C140.518 185.027 140.21 190.746 139.641 192.224C139.379 193.227 139.322 194.274 139.474 195.3C139.626 196.326 139.984 197.311 140.526 198.196C141.703 199.981 146.199 201.838 146.199 201.838L145.788 202.407Z" fill="#263238"/>
<path d="M139.334 188.644C139.209 189.623 138.943 190.578 138.544 191.481C137.612 193.685 136.964 196.3 138.102 198.591C138.579 199.496 139.284 200.261 140.148 200.81C140.993 201.378 141.906 201.837 142.866 202.177C143.801 202.541 144.822 202.626 145.804 202.422C146.152 202.195 146.438 201.886 146.638 201.522C146.838 201.159 146.945 200.751 146.95 200.336C146.95 198.875 146.697 197.421 146.721 195.96C146.669 195.225 146.717 194.486 146.863 193.764C147.448 191.765 148.854 189.877 149.881 188.06C150.01 187.924 150.107 187.76 150.163 187.581C150.219 187.401 150.233 187.212 150.204 187.026C150.175 186.84 150.104 186.664 149.996 186.51C149.887 186.357 149.745 186.23 149.581 186.14C149.021 185.665 148.433 185.224 147.819 184.821C147.712 184.727 147.586 184.659 147.449 184.62C147.312 184.582 147.169 184.575 147.029 184.6C146.752 184.679 146.61 184.963 146.46 185.2C146.31 185.437 146.065 185.698 145.789 185.635C145.948 185.257 146.029 184.851 146.026 184.442C145.947 183.344 144.446 182.814 144.92 181.527C145.142 181.066 145.516 180.695 145.978 180.476C146.685 180.093 147.422 179.768 148.182 179.504C148.19 179.452 148.187 179.399 148.172 179.348C148.158 179.297 148.132 179.25 148.098 179.211C148.063 179.171 148.02 179.139 147.972 179.117C147.924 179.096 147.872 179.085 147.819 179.085C147.455 179.085 147.092 179.125 146.729 179.164L144.264 179.394C143.51 179.475 142.762 179.613 142.028 179.804C141.678 179.871 141.341 179.997 141.033 180.176C140.58 180.518 140.246 180.993 140.077 181.534C139.616 182.705 139.349 183.943 139.287 185.2C139.279 186.338 139.461 187.499 139.334 188.644Z" fill="#37474F"/>
<path d="M184.323 145.424C184.967 153.231 184.528 161.09 183.02 168.776C181.724 175.468 174.551 177.688 173.073 178.32C166.501 181.116 154.074 185.106 154.074 185.106C154.074 185.106 149.95 181.756 150.985 177.656C156.12 173.619 161.768 167.884 166.785 167.086L171.114 144.966L184.323 145.424Z" fill="#37474F"/>
<path d="M182.8 169.685L179.126 157.124C180.194 156.093 181.046 154.858 181.632 153.494C182.218 152.129 182.527 150.662 182.539 149.177L169.852 152.692L169.544 153.348L166.85 167.086C164.582 167.442 162.204 168.792 159.795 170.538L165.222 181.33C168.043 180.326 170.894 179.252 173.122 178.32C174.481 177.751 181.062 175.665 182.8 169.685Z" fill="#263238"/>
<path d="M188.306 210.275C187.674 210.322 187.642 209.485 187.374 207.541C187.082 205.392 185.952 196.995 185.952 196.995L175.84 200.945C175.84 200.945 178.463 207.865 179.284 209.856C180.201 212.076 181.48 215.109 181.694 216.839C181.907 218.57 182.002 223.373 184.159 224.234C186.315 225.095 188.33 224.115 189.76 223.175C191.19 222.235 192.841 218.98 194.421 217.329C196.001 215.678 197.336 214.754 198.552 213.047C199.769 211.341 199.682 207.115 198.031 206.238C196.38 205.361 194.034 206.364 192.651 207.194C191.269 208.023 189.475 210.196 188.306 210.275Z" fill="#FFA8A7"/>
<path d="M159.098 143.891C158.924 144.784 157.653 148.797 157.431 152.486C157.155 157.29 157.945 160.544 159.509 163.459C162.535 169.116 164.083 170.569 170.798 183.391C170.728 187.222 171.482 191.024 173.01 194.538C175.625 201.253 178.746 208.466 178.746 208.466C178.746 208.466 181.116 204.239 187.025 204.863C186.709 201.553 184.734 185.809 183.77 181.163C182.569 175.373 177.403 156.302 177.403 156.302C177.403 156.302 183.96 154.406 183.802 143.907L159.098 143.891Z" fill="#37474F"/>
<path d="M198.292 206.064C197.328 205.147 195.796 205.163 193.757 206.174C192.397 206.817 191.17 207.71 190.139 208.805C189.831 209.176 189.515 209.461 188.994 209.287C188.825 209.219 188.661 209.14 188.504 209.05C187.366 208.465 185.984 208.963 184.854 209.556C184.733 209.608 184.627 209.689 184.546 209.793C184.348 210.109 184.688 210.48 184.996 210.685C185.305 210.899 185.573 211.166 185.786 211.475L184.925 211.262C184.755 211.203 184.574 211.187 184.396 211.215C184.08 211.278 183.874 211.586 183.724 211.87C183.525 212.25 183.362 212.646 183.235 213.055C183.165 213.457 182.991 213.833 182.729 214.146C182.586 214.28 182.408 214.372 182.216 214.412C182.024 214.453 181.824 214.44 181.639 214.375C181.446 214.315 181.268 214.213 181.12 214.076C180.971 213.94 180.854 213.772 180.778 213.585C180.778 213.585 180.722 213.64 180.691 213.806C180.663 213.912 180.663 214.024 180.691 214.13C180.802 214.423 180.929 214.71 181.07 214.991C181.35 215.91 181.518 216.86 181.568 217.819C181.656 219.58 181.983 221.321 182.539 222.994L193.165 212.724L192.462 211.823C194.8 210.322 198.292 206.064 198.292 206.064Z" fill="#37474F"/>
<path d="M199.737 207.834C199.703 207.564 199.616 207.303 199.48 207.067C199.345 206.831 199.163 206.624 198.947 206.459C198.813 206.372 198.346 206.119 198.252 206.064C197.059 205.274 194.91 206.957 193.093 208.6C190.984 210.52 189.032 214.359 187.326 216.958C185.62 219.557 183.502 220.561 182.799 221.698C182.567 222.053 182.46 222.476 182.498 222.899C182.535 223.322 182.713 223.72 183.005 224.029C183.107 224.147 183.51 224.526 183.589 224.597C183.97 224.893 184.416 225.095 184.889 225.187C185.362 225.278 185.851 225.258 186.315 225.127C188.685 224.676 190.383 223.926 192.342 221.137C194.302 218.349 195.329 216.911 197.612 215.117C199.895 213.324 200.219 210.077 199.737 207.834Z" fill="#37474F"/>
<path d="M199.737 207.834C199.05 204.674 196.143 206.87 193.796 208.995C191.687 210.915 189.736 214.754 188.029 217.353C186.323 219.952 184.15 220.924 183.503 222.093C182.325 224.234 183.961 225.585 186.323 225.127C188.685 224.668 190.391 223.926 192.351 221.137C194.31 218.348 195.337 216.911 197.62 215.117C199.903 213.324 200.219 210.077 199.737 207.834Z" fill="#263238"/>
<path d="M212.251 108.515C212.156 108.176 211.919 107.97 211.84 107.639C211.761 107.307 211.84 106.975 211.722 106.643C211.556 106.145 211.216 106.059 210.671 105.806C210.453 105.712 210.269 105.555 210.142 105.355C210.054 105.141 209.988 104.919 209.944 104.692C209.822 104.333 209.601 104.016 209.306 103.778C209.01 103.541 208.654 103.392 208.277 103.349C208.009 102.669 207.874 102.338 207.621 101.666C207.605 101.61 207.578 101.559 207.542 101.514C207.505 101.469 207.46 101.432 207.408 101.405C207.377 101.387 207.341 101.378 207.305 101.378C207.269 101.378 207.234 101.387 207.203 101.405C206.886 101.541 206.636 101.797 206.508 102.116C206.254 102.698 206.167 103.337 206.255 103.965C206.266 105.218 206.213 106.47 206.097 107.718C206.057 108.049 205.899 110.285 205.054 109.527C204.913 109.363 204.82 109.163 204.785 108.95C204.61 108.31 204.33 107.704 203.956 107.157C203.815 106.93 203.629 106.734 203.411 106.58C203.142 106.414 202.621 106.311 202.423 106.659C202.226 107.007 202.502 107.639 202.542 107.962C202.679 108.939 202.752 109.923 202.763 110.909C202.731 111.826 202.827 112.744 203.047 113.635C203.102 113.911 203.138 114.191 203.158 114.472C203.185 115.54 202.896 116.593 202.328 117.498C201.483 119.015 197.944 125.177 197.944 125.177C197.944 125.177 196.696 124.489 190.984 120.508C186.923 117.679 186.631 116.336 181.733 115.578C181.733 115.578 181.101 122.775 183.661 127.428C187.658 129.672 194.073 133.337 196.901 134.451C200.211 135.763 202.091 135.905 203.482 133.724C205.923 129.893 206.934 124.758 207.961 121.582C208.543 119.723 209.302 117.924 210.228 116.21C210.816 115.187 211.311 114.114 211.706 113.003C212.038 112.039 212.512 109.487 212.251 108.515Z" fill="#FFA8A7"/>
<path d="M180.762 114.954C186.086 115.941 185.66 116.368 189.499 119.03C193.339 121.692 197.944 124.465 197.944 124.465L201.649 118.73C202.035 119.893 202.693 120.946 203.569 121.803C205.149 123.509 208.04 122.546 208.04 122.546C208.04 122.546 206.342 129.158 204.422 132.776C202.503 136.394 201.42 136.924 197.312 135.146C193.204 133.369 183.519 128.328 183.519 128.328L180.762 114.954Z" fill="#37474F"/>
<path d="M207.375 111.928C207.3 111.656 207.199 111.391 207.075 111.138C206.982 110.887 206.833 110.66 206.641 110.474C206.57 110.419 206.396 110.403 206.419 110.537C206.487 110.787 206.583 111.028 206.704 111.256C206.791 111.485 206.87 111.714 206.941 111.951C207.075 112.424 207.139 112.914 207.13 113.405C207.125 113.881 207.034 114.352 206.862 114.795C206.697 115.2 206.496 115.588 206.261 115.957C206.261 115.957 206.261 116.099 206.333 116.067C206.713 115.755 207.019 115.361 207.23 114.916C207.44 114.471 207.549 113.984 207.549 113.492C207.584 112.964 207.525 112.435 207.375 111.928Z" fill="#F28F8F"/>
<path d="M197.943 124.465C196.735 126.385 196.798 129.521 196.798 129.521C196.339 128.617 196.166 127.595 196.3 126.59C196.402 125.673 196.707 124.791 197.193 124.007L197.943 124.465Z" fill="#263238"/>
<path d="M186.156 127.981C186.425 119.544 183.17 116.289 181.732 115.594L173.121 114.259C171.281 114.353 164.589 115.491 162.417 115.886C161.011 116.147 158.814 119.125 158.656 124.529C158.546 128.17 159.178 131.749 159.186 137.564C159.194 143.378 158.554 144.421 157.756 148.916C162.922 153.253 180.445 153.774 184.663 149.169C184.663 144.666 184.956 140.976 185.185 138.109C185.414 135.241 186.077 130.272 186.156 127.981Z" fill="#F5F5F5"/>
<path d="M177.861 122.964C177.922 120.835 177.819 118.703 177.553 116.589L177.861 114.488L180.231 116.96L179.062 119.172L179.915 120.429L177.861 122.964Z" fill="#E0E0E0"/>
<path d="M176.961 114.266C179.833 116.885 181.973 120.207 183.17 123.904C185.019 129.877 185.311 137.153 185.359 136.718C185.406 136.284 187.231 127.981 186.172 122.064C185.114 116.146 181.203 114.954 181.203 114.954L176.961 113.018V114.266Z" fill="#455A64"/>
<path d="M169.852 110.972C169.622 108.91 167.719 106.666 166.905 104.834C166.091 103.001 165.68 101.674 165.87 100.094C165.988 99.1377 166.66 97.8816 167.387 97.6446C167.256 97.0573 167.246 96.4496 167.358 95.8584C167.469 95.2671 167.699 94.7047 168.035 94.2053C168.37 93.7059 168.804 93.2798 169.309 92.953C169.814 92.6262 170.38 92.4054 170.973 92.3042C171.644 92.2064 172.306 92.0612 172.956 91.8697C173.746 91.5932 173.96 90.9849 174.607 90.4951C175.729 89.6498 177.53 89.7051 178.131 91.1508C178.921 90.2739 179.861 90.3608 180.959 90.7005C181.422 90.8338 181.816 91.1382 182.063 91.552C182.309 91.9658 182.389 92.4578 182.286 92.9283C182.556 92.7769 182.857 92.6899 183.166 92.6741C183.475 92.6584 183.783 92.7142 184.067 92.8374C184.351 92.9605 184.602 93.1476 184.802 93.384C185.001 93.6204 185.143 93.8997 185.217 94.2002C185.28 94.848 185.106 95.3852 185.501 95.9935C185.574 96.1399 185.681 96.2661 185.814 96.3608C185.947 96.4555 186.102 96.5157 186.264 96.5361C186.426 96.5565 186.59 96.5363 186.743 96.4774C186.895 96.4186 187.03 96.3229 187.137 96.1989C187.239 97.1232 186.844 97.7789 185.849 97.6999C186.003 97.9638 186.098 98.2585 186.125 98.5631C186.152 98.8676 186.112 99.1744 186.007 99.4616C185.867 99.8218 185.62 100.131 185.3 100.347C184.979 100.563 184.6 100.676 184.214 100.67C184.157 101.186 183.964 101.678 183.654 102.094C183.345 102.511 182.93 102.837 182.452 103.04C180.876 103.572 179.243 103.911 177.586 104.051L175.634 104.336C175.524 104.336 174.939 104.336 174.844 104.454L169.852 110.972Z" fill="#263238"/>
<path d="M167.482 108.231C167.82 108.505 168.24 108.661 168.675 108.674C169.111 108.687 169.538 108.556 169.892 108.302L169.489 112.402L168.999 115.72C168.999 115.72 171.132 120.839 177.831 123.004C178.29 121.826 178.234 117.813 177.523 116.628L177.871 113.468C178.681 113.519 179.494 113.519 180.304 113.468C181.134 113.375 181.917 113.039 182.557 112.502C183.196 111.965 183.663 111.251 183.899 110.45C184.544 108.201 184.753 105.85 184.515 103.522C184.436 102.964 184.436 102.398 184.515 101.839C184.702 100.622 184.602 99.3774 184.222 98.2054C182.548 96.6807 177.586 96.0961 173.652 98.2054C174.355 100.188 173.723 102.155 172.033 102.89C172.072 103.506 172.033 105.047 171.061 104.96C170.342 104.897 170.342 103.988 169.647 103.151C168.952 102.313 167.237 101.99 166.487 103.151C166.014 103.976 165.854 104.943 166.037 105.876C166.219 106.81 166.733 107.645 167.482 108.231Z" fill="#FFA8A7"/>
<path d="M169.346 113.76C170.066 115.686 171.07 117.494 172.324 119.124C174.125 121.265 177.854 123.003 177.854 123.003L171.732 122.308L171.036 119.709L166.367 116.683L169.346 113.76Z" fill="#E0E0E0"/>
<path d="M177.902 113.429C175.382 112.978 173.47 112.591 172.253 110.68C171.695 109.698 171.242 108.66 170.902 107.583C170.985 108.897 171.276 110.191 171.763 111.414C172.34 112.623 173.849 113.689 177.807 114.266L177.902 113.429Z" fill="#F28F8F"/>
<path d="M177.854 103.411C177.851 103.509 177.827 103.606 177.784 103.694C177.742 103.783 177.682 103.861 177.608 103.926C177.534 103.99 177.447 104.039 177.354 104.068C177.261 104.098 177.162 104.109 177.064 104.099C176.874 104.079 176.698 103.985 176.576 103.837C176.453 103.69 176.393 103.5 176.409 103.309C176.423 103.12 176.512 102.945 176.656 102.822C176.8 102.699 176.986 102.638 177.175 102.653C177.364 102.668 177.539 102.757 177.662 102.9C177.784 103.044 177.845 103.231 177.831 103.419L177.854 103.411Z" fill="#263238"/>
<path d="M177.261 101.318L175.681 102.013C175.593 101.794 175.593 101.548 175.682 101.329C175.77 101.11 175.94 100.933 176.155 100.836C176.259 100.794 176.371 100.773 176.483 100.774C176.596 100.776 176.706 100.8 176.809 100.845C176.912 100.89 177.005 100.955 177.083 101.036C177.161 101.117 177.221 101.213 177.261 101.318Z" fill="#263238"/>
<path d="M183.684 101.745L182.018 101.184C182.049 101.073 182.103 100.97 182.175 100.88C182.248 100.791 182.338 100.717 182.44 100.664C182.542 100.611 182.654 100.579 182.769 100.571C182.884 100.562 182.999 100.577 183.108 100.615C183.331 100.693 183.516 100.853 183.623 101.064C183.731 101.274 183.753 101.518 183.684 101.745Z" fill="#263238"/>
<path d="M183.479 103.341C183.474 103.438 183.45 103.534 183.407 103.622C183.364 103.71 183.304 103.788 183.231 103.852C183.157 103.916 183.071 103.965 182.978 103.995C182.885 104.025 182.787 104.036 182.689 104.028C182.543 104.018 182.402 103.965 182.286 103.875C182.169 103.786 182.082 103.663 182.035 103.524C181.988 103.384 181.984 103.234 182.022 103.092C182.061 102.95 182.14 102.823 182.251 102.727C182.362 102.63 182.499 102.569 182.645 102.55C182.791 102.532 182.939 102.557 183.071 102.623C183.202 102.688 183.311 102.792 183.384 102.92C183.457 103.047 183.49 103.194 183.479 103.341Z" fill="#263238"/>
<path d="M182.278 106.09L179.726 107.046L179.244 102.132C180.184 101.856 181.243 104.162 182.278 106.09Z" fill="#F28F8F"/>
<path d="M176.962 108.088L179.908 108.878C179.864 109.075 179.78 109.261 179.663 109.425C179.545 109.589 179.395 109.728 179.222 109.832C179.05 109.937 178.858 110.006 178.658 110.035C178.458 110.064 178.255 110.052 178.06 110C177.664 109.887 177.327 109.625 177.122 109.267C176.917 108.91 176.859 108.487 176.962 108.088Z" fill="#B16668"/>
<path d="M177.301 108.594C177.177 108.582 177.053 108.582 176.93 108.594C176.945 108.923 177.062 109.24 177.266 109.499C177.47 109.758 177.75 109.947 178.067 110.039C178.227 110.063 178.389 110.063 178.549 110.039C178.563 109.685 178.442 109.339 178.21 109.07C177.979 108.802 177.654 108.631 177.301 108.594Z" fill="#F28F8F"/>
<path d="M169.393 113.247C169.96 117.575 170.179 121.942 170.048 126.306C168.982 148.884 163.507 157.669 163.507 157.669C163.507 157.669 156.294 155.496 153.877 149.666C155.18 147.407 158.293 141.284 158.617 137.816C158.941 134.348 158.119 129.276 158.238 123.786C158.325 119.385 161.398 115.53 161.398 115.53L169.393 113.247Z" fill="#455A64"/>
<path d="M148.757 155.867C148.285 155.037 147.951 154.135 147.769 153.197C147.864 152.486 149.041 154.248 149.555 154.588C149.961 154.902 150.473 155.049 150.985 154.998C151.308 154.998 151.822 154.635 151.775 154.311C151.775 154.24 151.711 154.2 151.664 154.153C151.002 153.331 150.413 152.454 149.902 151.53C149.396 150.626 148.828 149.758 148.204 148.931C147.416 148.158 146.92 147.137 146.798 146.04C146.734 141.671 147.05 139.388 147.24 135.154C150.842 133.66 156.238 131.354 157.826 130.698C160.022 129.797 159.88 128.96 160.986 127.214C162.487 124.899 163.261 117.307 162.297 115.909C157.944 116.107 156.167 118.706 152.399 120.965C150.455 122.126 149.468 122.964 146.426 124.915C144.631 126.036 142.901 127.257 141.244 128.573C140.467 129.1 139.834 129.814 139.405 130.649C138.975 131.484 138.763 132.414 138.787 133.352C138.881 135.47 139.103 137.581 139.451 139.672C139.735 141.56 140.699 149.587 140.746 150.732C140.799 151.934 140.955 153.128 141.212 154.303C141.636 155.767 142.333 157.136 143.266 158.34C143.511 158.569 143.811 158.624 144.056 158.861C144.301 159.098 144.404 159.399 144.657 159.612C145.044 159.944 145.376 159.841 145.952 159.778C146.179 159.739 146.412 159.775 146.616 159.881C146.799 160.013 146.968 160.164 147.121 160.331C147.405 160.565 147.75 160.714 148.115 160.76C148.48 160.806 148.85 160.748 149.183 160.592C149.752 161.01 150.029 161.224 150.582 161.65C150.667 161.724 150.777 161.764 150.89 161.761C150.924 161.752 150.955 161.736 150.982 161.715C151.01 161.693 151.032 161.665 151.048 161.634C151.144 161.5 151.213 161.347 151.25 161.186C151.286 161.024 151.29 160.857 151.261 160.694C151.174 160.083 150.923 159.507 150.534 159.027C149.885 158.007 149.292 156.952 148.757 155.867Z" fill="#FFA8A7"/>
<path d="M162.432 115.246C159.983 115.736 158.948 115.744 154.73 118.73C150.511 121.716 142.619 126.733 140.233 129C137.848 131.267 138.314 132.444 138.796 136.773C139.277 141.103 140.162 145.25 140.162 145.25C140.162 145.25 141.268 146.206 143.654 145.732C144.913 145.547 146.099 145.023 147.083 144.215L147.636 135.47L159.77 130.185C161.47 128.139 162.608 125.686 163.075 123.067C163.542 120.448 163.32 117.753 162.432 115.246Z" fill="#37474F"/>
<path d="M228.105 194.546C226.849 194.293 225.482 195.415 224.645 197.603C223.807 199.791 224.755 201.727 224.25 204.508C223.831 206.83 222.67 209.192 223.159 211.618C223.31 212.689 223.711 213.711 224.328 214.6C224.945 215.489 225.763 216.221 226.714 216.737C228.768 217.953 231.533 217.748 231.897 216.239C232.26 214.73 228.105 194.546 228.105 194.546Z" fill="#263238"/>
<path d="M223.855 210.14C223.788 209.692 223.788 209.237 223.855 208.789C224.06 207.383 224.503 206.009 224.716 204.594C224.856 203.298 224.917 201.995 224.898 200.692C224.89 199.384 225.16 198.089 225.688 196.892C225.953 196.304 226.358 195.79 226.868 195.395C227.377 195 227.976 194.735 228.611 194.625C229.218 194.596 229.826 194.663 230.412 194.822C231.853 195.08 233.319 195.176 234.781 195.107C235.976 194.996 237.145 194.689 238.241 194.198C239.513 193.692 242.136 192.247 242.136 192.247L241.812 201.229C241.812 201.229 239.442 201.624 238.281 201.901C237.119 202.177 234.22 203.417 233.304 204.271C232.387 205.124 232.134 207.043 231.961 208.355C231.86 209.008 231.808 209.669 231.803 210.33C231.803 211.665 232.213 213.008 231.961 214.319C231.909 214.646 231.779 214.955 231.581 215.22C231.258 215.555 230.828 215.767 230.365 215.82C229.582 215.921 228.787 215.847 228.036 215.606C227.285 215.364 226.597 214.96 226.02 214.422C224.789 213.315 224.017 211.788 223.855 210.14Z" fill="#FFBDA7"/>
<path d="M224.233 206.917C224.881 207.999 226.99 210.385 229.811 210.369C230.305 210.404 230.794 210.256 231.187 209.955C231.579 209.654 231.849 209.22 231.944 208.734C231.959 209.959 232.057 211.181 232.236 212.392C232.513 213.893 232.702 216.389 231.004 216.8C229.305 217.211 226.414 216.105 224.944 213.932C223.475 211.76 223.23 210.14 224.233 206.917Z" fill="#37474F"/>
<path d="M232.11 194.948C231.51 197.318 227.101 198.061 224.874 201.916C224.708 199.546 224.921 197.452 226.114 195.967C226.501 195.412 227.038 194.979 227.661 194.716C228.285 194.453 228.97 194.372 229.637 194.482L232.11 194.948Z" fill="#37474F"/>
<path d="M271.436 166.264C271.436 166.264 272.392 181.345 269.516 191.496C267.715 197.816 260.613 198.417 259.088 198.741C252.357 200.194 239.86 201.703 239.86 201.703C239.86 201.703 236.565 197.753 238.28 194.08C243.889 191.204 250.28 186.796 255.217 186.97L264.168 165.561L271.436 166.264Z" fill="#37474F"/>
<path d="M267.02 178.896C267.02 178.896 269.887 176.953 270.259 172.173L260.257 174.852L255.193 186.962C254.988 186.962 254.783 186.962 254.569 186.962H254.419C254.208 186.969 253.997 186.988 253.787 187.018C253.566 187.018 253.345 187.081 253.116 187.12H252.981L252.318 187.262C251.063 187.584 249.839 188.015 248.66 188.55L254.917 199.492L255.952 199.31H256.07L257.089 199.128L257.966 198.954H258.18L259.033 198.781C260.558 198.457 267.66 197.856 269.461 191.536C269.661 190.825 269.843 190.091 270.006 189.332L267.02 178.896Z" fill="#263238"/>
<path d="M276.027 230.08C275.427 230.08 275.364 229.29 275 227.394C274.637 225.498 273.728 217.392 273.728 217.392L263.521 220.797C263.521 220.797 266.8 228.018 267.535 229.977C268.364 232.157 269.51 234.662 269.676 236.344C269.841 238.027 269.849 242.704 271.872 243.597C273.894 244.489 275.822 243.597 277.165 242.696C278.508 241.795 280.143 238.683 281.66 237.111C283.177 235.539 284.456 234.677 285.61 233.05C286.763 231.423 286.779 227.299 285.239 226.406C283.698 225.513 281.47 226.406 280.159 227.196C278.847 227.986 277.133 230.024 276.027 230.08Z" fill="#FFBDA7"/>
<path d="M270.338 242.254C269.841 240.61 269.562 238.907 269.508 237.19C269.508 236.763 269.453 236.345 269.445 235.918C269.439 235.84 269.452 235.761 269.485 235.689C269.522 235.641 269.567 235.601 269.619 235.57C270.09 235.289 270.613 235.108 271.158 235.04C271.702 234.972 272.254 235.018 272.779 235.175C273.616 235.428 274.825 236.139 275.086 237.087C275.347 238.035 274.004 238.73 273.411 239.299L270.338 242.254Z" fill="#455A64"/>
<path d="M285.482 226.209C284.589 225.293 283.112 225.269 281.208 226.209C279.91 226.809 278.736 227.648 277.748 228.682C277.748 228.682 276.705 230.562 278.214 231.889C279.723 233.216 285.482 226.209 285.482 226.209Z" fill="#455A64"/>
<path d="M286.841 227.963C286.791 227.434 286.536 226.947 286.13 226.604C286.004 226.517 285.569 226.264 285.482 226.209C284.368 225.419 282.322 226.999 280.576 228.579C278.554 230.396 276.626 234.109 274.991 236.582C273.356 239.054 271.318 239.995 270.638 241.093C270.414 241.436 270.307 241.842 270.334 242.251C270.361 242.66 270.52 243.05 270.788 243.36C270.891 243.478 271.262 243.858 271.333 243.929C271.682 244.223 272.097 244.429 272.543 244.53C272.988 244.63 273.451 244.622 273.893 244.505C276.129 244.118 277.748 243.431 279.636 240.769C281.524 238.106 282.536 236.724 284.716 235.033C286.896 233.343 287.26 230.159 286.841 227.963Z" fill="#37474F"/>
<path d="M286.841 227.963C286.249 224.89 283.468 226.944 281.224 228.958C279.202 230.767 277.274 234.488 275.639 236.953C274.004 239.418 271.918 240.342 271.286 241.472C270.141 243.526 271.658 244.869 273.893 244.482C276.129 244.095 277.748 243.407 279.637 240.745C281.525 238.083 282.536 236.7 284.716 235.01C286.897 233.319 287.26 230.159 286.841 227.963Z" fill="#263238"/>
<path d="M250.139 162.211C246.615 166.28 244.996 169.779 244.838 173.334C244.789 176.881 245.692 180.375 247.453 183.454C250.376 188.905 252.738 192.144 259.208 204.531C259.132 208.224 259.849 211.891 261.309 215.283C263.837 221.761 266.839 228.713 266.839 228.713C266.839 228.713 269.091 224.629 274.826 225.237C274.526 222.077 272.614 206.846 271.666 202.327C270.513 196.734 265.528 178.335 265.528 178.335C267.392 176.921 268.896 175.087 269.919 172.983C270.941 170.879 271.453 168.563 271.413 166.224L250.139 162.211Z" fill="#37474F"/>
<path d="M249.822 119.085C248.132 120.278 247.776 121.574 246.844 123.328C246.475 124.142 245.873 124.83 245.114 125.303C242.27 126.748 238.691 125.397 235.697 126.503C234.544 126.994 233.477 127.666 232.537 128.494C234.184 127.919 235.963 127.837 237.656 128.257C236.423 128.027 235.148 128.255 234.07 128.897C233.002 129.532 231.884 130.079 230.728 130.532C229.482 130.911 228.148 130.881 226.92 130.445C229.014 132.642 232.031 134.277 235.01 133.724C235.942 133.55 236.827 133.171 237.759 132.997C240.358 132.499 243.044 133.621 245.659 133.242C247.447 133.051 249.138 132.333 250.517 131.18C251.726 129.943 252.592 128.413 253.03 126.74C253.464 125.468 253.764 123.786 254.807 123.667C255.321 123.612 255.455 122.466 255.81 122.087C256.679 121.187 257.035 119.488 255.708 118.88C253.132 117.711 251.086 118.2 249.822 119.085Z" fill="#263238"/>
<path d="M303.249 146.19C303.114 146.004 303.037 145.781 303.028 145.55C303.064 145.332 303.119 145.118 303.194 144.91C303.272 144.552 303.245 144.178 303.118 143.834C302.991 143.49 302.768 143.189 302.475 142.967C302.586 142.272 302.649 141.932 302.768 141.253C302.791 141.143 302.774 141.028 302.72 140.929C302.699 140.901 302.671 140.88 302.639 140.866C302.608 140.852 302.573 140.847 302.538 140.85C302.209 140.804 301.874 140.889 301.606 141.087C301.114 141.451 300.727 141.939 300.484 142.501C299.876 143.546 299.214 144.558 298.502 145.535C298.304 145.787 297.072 147.565 296.74 146.514H294.157C293.683 147.251 293.311 148.048 293.051 148.884C292.963 149.14 292.854 149.388 292.727 149.627C292.22 150.525 291.462 151.255 290.546 151.728C289.093 152.566 283.12 155.923 283.12 155.923C283.12 155.923 282.425 154.738 279.66 148.616C277.693 144.263 274.817 138.401 270.686 138.401C270.686 138.401 270.346 145.606 270.172 150.725C272.368 154.564 275.876 160.766 277.669 163.088C279.763 165.806 281.256 166.865 283.484 165.743C287.434 163.776 290.775 160.015 293.193 157.898C294.594 156.641 296.112 155.522 297.727 154.556C298.718 154.001 299.656 153.359 300.532 152.637C301.322 151.981 302.949 150.093 303.21 149.169C303.305 148.837 303.21 148.552 303.313 148.236C303.415 147.92 303.629 147.675 303.7 147.352C303.81 146.941 303.573 146.672 303.249 146.19Z" fill="#FFBDA7"/>
<path d="M270.693 138.25C273.759 138.843 274.801 139.403 276.603 142.374C278.404 145.344 283.231 155.472 283.231 155.472L289.764 152.209C289.471 153.622 289.71 155.094 290.436 156.341C291.66 158.316 292.94 158.553 292.94 158.553C292.94 158.553 287.07 164.723 283.752 165.963C280.434 167.204 279.399 165.75 277.882 163.83C276.366 161.911 270.18 152.336 270.18 152.336L270.693 138.25Z" fill="#E0E0E0"/>
<path d="M297.49 149.635C297.563 149.376 297.613 149.112 297.64 148.845C297.691 148.584 297.691 148.315 297.64 148.055C297.64 147.976 297.467 147.881 297.419 147.999C297.356 148.24 297.316 148.486 297.301 148.734C297.261 148.971 297.214 149.2 297.158 149.429C297.032 149.887 296.844 150.326 296.598 150.733C296.353 151.12 296.046 151.465 295.689 151.752C295.348 152 294.989 152.222 294.615 152.415C294.615 152.415 294.559 152.542 294.615 152.542C295.084 152.468 295.532 152.293 295.926 152.028C296.32 151.764 296.652 151.416 296.898 151.009C297.174 150.589 297.374 150.124 297.49 149.635Z" fill="#F0997A"/>
<path d="M312.05 176.266L269.809 86.2059L268.735 86.7352L310.976 176.795C311.26 177.222 312.287 176.677 312.05 176.266Z" fill="#455A64"/>
<path d="M269.391 87.6906C267.874 87.3884 266.3 87.6201 264.935 88.3463C262.928 89.2548 261.664 91.2772 260.155 92.9125C258.302 94.886 255.975 96.353 253.395 97.1743C250.815 97.9956 248.067 98.1439 245.414 97.6051C246.582 98.9674 248.131 99.9495 249.862 100.425C251.577 100.889 253.334 101.18 255.107 101.294C252.222 102.535 249.07 103.03 245.943 102.732C247.091 103.69 248.388 104.453 249.783 104.992C252.69 106.303 255.542 107.259 258.773 106.967C261.836 106.695 264.696 105.316 266.815 103.088C267.826 101.997 268.648 100.718 269.659 99.6433C270.731 98.4353 272.163 97.6043 273.743 97.2733L269.391 87.6906Z" fill="white"/>
<path d="M269.391 87.6906C267.874 87.3884 266.3 87.6201 264.935 88.3463C262.928 89.2548 261.664 91.2772 260.155 92.9125C258.302 94.886 255.975 96.353 253.395 97.1743C250.815 97.9956 248.067 98.1439 245.414 97.6051C246.582 98.9674 248.131 99.9495 249.862 100.425C251.577 100.889 253.334 101.18 255.107 101.294C252.222 102.535 249.07 103.03 245.943 102.732C247.091 103.69 248.388 104.453 249.783 104.992C252.69 106.303 255.542 107.259 258.773 106.967C261.836 106.695 264.696 105.316 266.815 103.088C267.826 101.997 268.648 100.718 269.659 99.6433C270.731 98.4353 272.163 97.6043 273.743 97.2733L269.391 87.6906Z" fill="url(#paint3_linear_1_2270)"/>
<path d="M268.269 87.2798C268.372 87.4187 268.503 87.5354 268.652 87.6232C268.801 87.711 268.966 87.7679 269.138 87.7908C269.309 87.8136 269.484 87.8018 269.651 87.7561C269.818 87.7104 269.974 87.6317 270.11 87.5247C270.389 87.3037 270.57 86.9821 270.614 86.629C270.658 86.276 270.562 85.9197 270.347 85.6366C270.243 85.4977 270.113 85.3809 269.964 85.2931C269.815 85.2054 269.65 85.1484 269.478 85.1256C269.307 85.1027 269.132 85.1145 268.965 85.1602C268.798 85.2059 268.642 85.2846 268.506 85.3917C268.229 85.6139 268.049 85.9353 268.005 86.2877C267.961 86.6401 268.055 86.996 268.269 87.2798Z" fill="#37474F"/>
<path opacity="0.1" d="M283.232 155.481C281.863 156.403 280.798 157.712 280.175 159.241C280.154 158.216 280.48 157.214 281.099 156.397C281.602 155.74 282.177 155.141 282.814 154.612L283.232 155.481Z" fill="black"/>
<path d="M296.74 146.514C296.706 146.306 296.728 146.094 296.803 145.897C296.978 145.284 297.047 144.646 297.008 144.009C297.003 143.75 296.944 143.494 296.835 143.259C296.7 142.99 296.297 142.635 295.981 142.84C295.665 143.045 295.563 143.693 295.436 143.978C295.064 144.854 294.636 145.707 294.156 146.529" fill="#FFBDA7"/>
<path d="M250.874 158.34C250.984 159.612 251.19 160.939 250.139 162.211C251.016 165.664 258.537 167.67 263.474 167.741C270.26 167.828 271.437 166.28 271.437 166.28L271.848 161.974L250.874 158.34Z" fill="#FFBDA7"/>
<path d="M276.935 149.453C275.149 143.481 270.694 138.259 270.694 138.259C269.643 138.077 262.059 137.074 262.059 137.074C262.059 137.074 257.209 137.406 254.42 137.579C252.982 138.44 251.868 139.791 250.675 142.319C250.17 143.386 249.143 147.47 249.411 149.192C249.977 152.159 250.373 155.155 250.596 158.167C250.715 160.608 249.064 161.414 249.704 162.733C253.369 169.006 268.379 170.475 271.429 166.817C272.503 165.285 272.724 162.227 273.301 158.206C277.693 156.966 277.812 152.376 276.935 149.453Z" fill="#F0F0F0"/>
<path d="M266.08 157.63C264.983 158.17 263.776 158.452 262.553 158.452C261.329 158.452 260.122 158.17 259.025 157.63C255.447 155.797 255.225 152.392 255.66 151.12C255.66 151.12 253.59 156.484 258.03 158.823C263.615 161.738 266.08 157.63 266.08 157.63Z" fill="#E0E0E0"/>
<path d="M255.716 118.887C253.631 119.638 253.409 123.983 255.329 124.125C258.22 124.346 258.892 117.537 255.716 118.887Z" fill="white"/>
<path d="M255.716 118.887C253.631 119.638 253.409 123.983 255.329 124.125C258.22 124.346 258.892 117.537 255.716 118.887Z" fill="url(#paint4_linear_1_2270)"/>
<path d="M274.218 118.762C265.733 105.987 245.999 120.12 259.374 132.626L260.954 132.737C261.562 131.417 262.897 131.765 264.161 131.536C265.472 130.477 266.531 129.458 268.403 129.395C271.342 129.142 275.189 126.496 273.475 123.272C274.921 122.285 274.992 120.199 274.218 118.762Z" fill="#263238"/>
<path d="M259.279 135.612C259.279 134.775 259.279 130.872 259.279 130.872C259.239 131.18 257.446 132.01 256.119 130.375C255.558 129.802 255.227 129.043 255.188 128.243C255.148 127.442 255.404 126.655 255.906 126.03C256.822 124.837 258.829 124.939 259.587 126.93C260.195 126.93 261.167 126.859 260.93 123.77C261.041 120.01 264.754 116.992 267.764 119.67C269.004 117.592 271.524 118.493 272.409 120.555C272.891 121.851 273.049 122.293 272.741 124.718C272.953 125.74 273.064 126.78 273.072 127.823C272.851 132.318 271.635 133.629 270.284 134.506C269.279 135.119 268.082 135.336 266.926 135.115V136.197C266.926 136.9 266.863 137.461 267.511 137.714C267.986 137.86 268.472 137.971 268.964 138.046C268.964 138.046 272.124 142.88 265.954 143.512C260.022 144.129 257.454 137.421 257.454 137.421C257.867 137.435 258.278 137.365 258.663 137.216C259.074 136.9 259.255 136.442 259.279 135.612Z" fill="#FFBDA7"/>
<path d="M265.306 129.695L267.62 130.485C267.573 130.638 267.495 130.781 267.392 130.904C267.289 131.027 267.162 131.128 267.02 131.202C266.877 131.275 266.721 131.319 266.561 131.332C266.401 131.345 266.24 131.325 266.088 131.275C265.78 131.162 265.527 130.935 265.381 130.641C265.236 130.347 265.209 130.009 265.306 129.695Z" fill="#B16668"/>
<path d="M265.442 130.232C265.753 130.231 266.055 130.337 266.297 130.533C266.538 130.729 266.705 131.002 266.769 131.307C266.548 131.377 266.31 131.377 266.09 131.307C265.869 131.228 265.675 131.09 265.528 130.907C265.382 130.724 265.289 130.504 265.26 130.272C265.32 130.255 265.38 130.242 265.442 130.232Z" fill="#F0997A"/>
<path d="M271.999 123.241L270.348 122.325C270.403 122.215 270.479 122.117 270.573 122.038C270.667 121.958 270.776 121.899 270.893 121.862C271.011 121.826 271.134 121.814 271.256 121.827C271.378 121.84 271.497 121.878 271.604 121.938C271.823 122.064 271.986 122.269 272.059 122.511C272.133 122.753 272.111 123.014 271.999 123.241Z" fill="#263238"/>
<path d="M263.577 123.312L265.22 122.348C265.162 122.238 265.082 122.14 264.986 122.062C264.889 121.983 264.778 121.925 264.658 121.891C264.538 121.857 264.413 121.848 264.289 121.864C264.166 121.88 264.047 121.921 263.94 121.985C263.722 122.118 263.562 122.329 263.495 122.576C263.427 122.823 263.457 123.086 263.577 123.312Z" fill="#263238"/>
<path d="M270.087 125.121C270.076 125.224 270.085 125.329 270.115 125.428C270.144 125.528 270.193 125.62 270.258 125.701C270.323 125.782 270.404 125.849 270.495 125.898C270.586 125.948 270.687 125.979 270.79 125.99C270.992 126.008 271.194 125.948 271.352 125.821C271.511 125.695 271.615 125.512 271.643 125.311C271.654 125.207 271.644 125.103 271.615 125.003C271.586 124.904 271.537 124.811 271.472 124.73C271.406 124.65 271.326 124.583 271.234 124.533C271.143 124.483 271.043 124.452 270.94 124.442C270.738 124.423 270.536 124.484 270.377 124.61C270.218 124.737 270.114 124.92 270.087 125.121Z" fill="#263238"/>
<path d="M264.389 125.16C264.378 125.264 264.388 125.369 264.418 125.469C264.448 125.569 264.497 125.662 264.564 125.743C264.63 125.824 264.711 125.891 264.803 125.94C264.895 125.989 264.996 126.02 265.1 126.029C265.303 126.048 265.504 125.987 265.663 125.861C265.822 125.734 265.926 125.551 265.954 125.35C265.964 125.246 265.955 125.141 265.925 125.041C265.895 124.941 265.845 124.848 265.779 124.767C265.713 124.686 265.632 124.62 265.54 124.57C265.447 124.521 265.346 124.491 265.243 124.481C265.04 124.463 264.839 124.523 264.68 124.65C264.521 124.776 264.417 124.959 264.389 125.16Z" fill="#263238"/>
<path d="M270.56 127.705L268.056 128.842L267.637 124.055L270.56 127.705Z" fill="#F0997A"/>
<path d="M266.918 135.091C263.94 134.736 261.088 133.867 260.393 132.026C260.418 132.562 260.584 133.082 260.874 133.534C261.164 133.986 261.567 134.354 262.044 134.601C263.535 135.434 265.203 135.902 266.91 135.968L266.918 135.091Z" fill="#F0997A"/>
<path d="M243.463 175.128C242.925 174.409 242.504 173.609 242.215 172.758C242.215 172.079 243.542 173.588 244.063 173.848C244.481 174.098 244.98 174.175 245.454 174.062C245.762 174.006 246.196 173.619 246.109 173.319C246.109 173.248 246.03 173.224 245.983 173.185C245.264 172.49 244.603 171.737 244.008 170.933C243.425 170.143 242.786 169.396 242.096 168.698C241.267 168.065 240.679 167.167 240.429 166.154C239.845 162.069 239.861 159.881 239.529 155.884C242.728 154.051 247.516 151.223 248.922 150.417C250.736 149.481 252.211 148 253.14 146.183C254.27 143.813 254.981 139.396 254.389 137.959C248.369 138.362 246.797 139.815 243.692 142.019C241.946 143.26 240.809 144.042 238.036 146.206C236.645 147.289 235.255 148.134 232.751 150.314C232.115 150.78 231.633 151.425 231.367 152.167C231.101 152.909 231.063 153.714 231.257 154.478C231.644 156.716 232.156 158.932 232.79 161.114C233.28 162.852 235.16 170.27 235.342 171.312C235.54 172.427 235.831 173.524 236.211 174.591C236.787 175.912 237.607 177.112 238.628 178.13C238.897 178.32 239.181 178.328 239.418 178.525C239.655 178.723 239.813 178.983 240.082 179.157C240.485 179.426 240.777 179.284 241.314 179.157C241.523 179.094 241.745 179.094 241.954 179.157C242.139 179.264 242.314 179.388 242.475 179.528C242.772 179.713 243.114 179.811 243.463 179.811C243.812 179.811 244.154 179.713 244.45 179.528L245.888 180.318C245.977 180.376 246.084 180.399 246.188 180.382C246.221 180.373 246.25 180.356 246.274 180.332C246.297 180.309 246.314 180.28 246.323 180.247C246.397 180.109 246.443 179.958 246.458 179.802C246.473 179.646 246.456 179.488 246.41 179.339C246.252 178.776 245.946 178.266 245.525 177.862C244.792 176.986 244.104 176.073 243.463 175.128Z" fill="#FFBDA7"/>
<path d="M254.42 137.579C249.522 137.943 249.396 137.532 243.89 141.45C238.383 145.369 233.58 149.121 232.269 150.243C230.957 151.365 230.475 152.668 231.155 155.481C231.834 158.293 233.414 163.436 233.414 163.436C233.991 163.774 234.636 163.982 235.302 164.045C235.968 164.108 236.639 164.024 237.269 163.799C239.703 163.112 240.208 162.045 240.208 162.045L239.766 156.113C239.766 156.113 248.772 151.112 250.897 149.674C253.022 148.236 255.763 142.201 254.42 137.579Z" fill="#E0E0E0"/>
<defs>
<linearGradient id="paint0_linear_1_2270" x1="201.987" y1="254.601" x2="27.6403" y2="286.922" gradientUnits="userSpaceOnUse">
<stop stop-color="#0A8241"/>
<stop offset="0.416667" stop-color="#3EBB6C" stop-opacity="0.87"/>
<stop offset="0.692708" stop-color="#A5E06A" stop-opacity="0.79"/>
<stop offset="1" stop-color="#FCFF68" stop-opacity="0.31"/>
</linearGradient>
<linearGradient id="paint1_linear_1_2270" x1="121.754" y1="309.174" x2="42.038" y2="323.965" gradientUnits="userSpaceOnUse">
<stop stop-color="#0A8241"/>
<stop offset="0.416667" stop-color="#3EBB6C" stop-opacity="0.87"/>
<stop offset="0.692708" stop-color="#A5E06A" stop-opacity="0.79"/>
<stop offset="1" stop-color="#FCFF68" stop-opacity="0.31"/>
</linearGradient>
<linearGradient id="paint2_linear_1_2270" x1="370.36" y1="195.635" x2="299.948" y2="208.699" gradientUnits="userSpaceOnUse">
<stop stop-color="#0A8241"/>
<stop offset="0.416667" stop-color="#3EBB6C" stop-opacity="0.87"/>
<stop offset="0.692708" stop-color="#A5E06A" stop-opacity="0.79"/>
<stop offset="1" stop-color="#FCFF68" stop-opacity="0.31"/>
</linearGradient>
<linearGradient id="paint3_linear_1_2270" x1="273.743" y1="89.8793" x2="244.471" y2="94.4425" gradientUnits="userSpaceOnUse">
<stop stop-color="#0A8241"/>
<stop offset="0.416667" stop-color="#3EBB6C" stop-opacity="0.87"/>
<stop offset="0.692708" stop-color="#A5E06A" stop-opacity="0.79"/>
<stop offset="1" stop-color="#FCFF68" stop-opacity="0.31"/>
</linearGradient>
<linearGradient id="paint4_linear_1_2270" x1="257.815" y1="119.356" x2="253.812" y2="119.656" gradientUnits="userSpaceOnUse">
<stop stop-color="#0A8241"/>
<stop offset="0.416667" stop-color="#3EBB6C" stop-opacity="0.87"/>
<stop offset="0.692708" stop-color="#A5E06A" stop-opacity="0.79"/>
<stop offset="1" stop-color="#FCFF68" stop-opacity="0.31"/>
</linearGradient>
</defs>
</svg>
