<svg width="59" height="58" viewBox="0 0 59 58" fill="none" xmlns="http://www.w3.org/2000/svg">
<g clip-path="url(#clip0_1_2512)">
<mask id="mask0_1_2512" style="mask-type:luminance" maskUnits="userSpaceOnUse" x="-1" y="0" width="60" height="59">
<path d="M-0.00585938 0.00147247H58.9608V58.0015H-0.00585938V0.00147247Z" fill="white"/>
</mask>
<g mask="url(#mask0_1_2512)">
<path d="M6.2544 34.8738C6.62179 35.7551 6.98261 36.607 7.32628 37.3977C8.93692 41.1029 9.59569 42.0659 12.4998 44.8597L16.9147 49.1071C16.402 51.1543 15.8892 53.2018 15.3766 55.249C15.1591 56.0475 15.7464 56.8674 16.5301 56.8674H25.5479C26.7814 56.8674 27.4652 56.4247 27.8582 55.3781C32.114 44.0408 21.4931 40.2349 18.4806 36.4314C17.8525 35.6382 14.1363 30.7426 13.5081 29.9494C12.8526 29.1218 11.6297 28.9693 10.7907 29.6111C9.95167 30.2527 10.0861 31.2996 10.4572 32.2827C11.4302 34.8604 12.6584 37.5087 13.8748 39.5594M10.2999 30.2319L5.09096 21.3265C3.45993 18.6476 0.290817 20.4702 1.3665 22.8677C1.57242 23.3143 1.94384 24.2178 2.42018 25.3989" stroke="#008345" stroke-width="1.91403" stroke-miterlimit="2.613" stroke-linecap="round" stroke-linejoin="round"/>
<path d="M41.2607 35.4205C42.574 33.7081 44.96 30.5708 45.4521 29.9496C46.1076 29.1219 47.3305 28.9696 48.1694 29.6112C49.0084 30.2528 48.874 31.2999 48.503 32.2828C47.53 34.8605 46.3018 37.5089 45.0854 39.5595M48.6601 30.2321L53.8692 21.3266C55.5003 18.6478 58.6693 20.4703 57.5936 22.8678C56.8398 24.5025 53.873 32.2466 51.6338 37.3978C50.0233 41.103 49.3644 42.066 46.4603 44.8599L42.0455 49.1072C42.5582 51.1546 43.071 53.2019 43.5836 55.2492C43.8011 56.0476 43.2137 56.8677 42.4299 56.8677H33.4123C32.1788 56.8677 31.4948 56.4249 31.102 55.3783C28.7974 49.2389 30.8557 45.3086 33.7055 42.3907" stroke="#008345" stroke-width="1.91403" stroke-miterlimit="2.613" stroke-linecap="round" stroke-linejoin="round"/>
<path d="M4.32422 30.1426H4.32889" stroke="#008345" stroke-width="1.91403" stroke-miterlimit="2.613" stroke-linecap="round" stroke-linejoin="round"/>
<path d="M37.6074 39.0367H37.6121" stroke="#008345" stroke-width="1.91403" stroke-miterlimit="2.613" stroke-linecap="round" stroke-linejoin="round"/>
<path d="M29.4799 5.66521C31.6517 5.66521 33.4286 7.41292 33.4286 9.54917V11.4912C33.4286 13.6273 31.6517 15.375 29.4799 15.375C27.3082 15.375 25.5312 13.6273 25.5312 11.4912V9.54917C25.5312 7.41292 27.3082 5.66521 29.4799 5.66521Z" stroke="#008345" stroke-width="1.91403" stroke-miterlimit="22.926" stroke-linecap="round" stroke-linejoin="round"/>
<path d="M32.5574 14.1488C34.8248 15.267 36.3905 17.5772 36.3905 20.2296V22.1714H22.5703V20.2296C22.5703 17.5734 24.1404 15.2608 26.4126 14.1443" stroke="#008345" stroke-width="1.91403" stroke-miterlimit="22.926" stroke-linecap="round" stroke-linejoin="round"/>
<path d="M17.9643 1.13347C20.1361 1.13347 21.913 2.88118 21.913 5.01743V6.95942C21.913 9.09556 20.1361 10.8433 17.9643 10.8433C15.7926 10.8433 14.0156 9.09556 14.0156 6.95942V5.01743C14.0156 2.88118 15.7926 1.13347 17.9643 1.13347Z" stroke="#008345" stroke-width="1.91403" stroke-miterlimit="22.926" stroke-linecap="round" stroke-linejoin="round"/>
<path d="M23.0938 17.6406H11.0527V15.6988C11.0527 13.0427 12.623 10.73 14.895 9.61352M21.0399 9.61794C23.1616 10.6644 24.669 12.7547 24.8538 15.1925" stroke="#008345" stroke-width="1.91403" stroke-miterlimit="22.926" stroke-linecap="round" stroke-linejoin="round"/>
<path d="M40.9973 1.1336C43.1689 1.1336 44.9459 2.8813 44.9459 5.01756V6.95954C44.9459 9.09568 43.1689 10.8434 40.9973 10.8434C38.8255 10.8434 37.0486 9.09568 37.0486 6.95954V5.01756C37.0486 2.8813 38.8255 1.1336 40.9973 1.1336Z" stroke="#008345" stroke-width="1.91403" stroke-miterlimit="22.926" stroke-linecap="round" stroke-linejoin="round"/>
<path d="M34.1055 15.191C34.2904 12.7497 35.802 10.6571 37.9284 9.61205M44.0734 9.61658C46.3406 10.7348 47.9065 13.0449 47.9065 15.6974V17.6392H35.8654" stroke="#008345" stroke-width="1.91403" stroke-miterlimit="22.926" stroke-linecap="round" stroke-linejoin="round"/>
</g>
</g>
<defs>
<clipPath id="clip0_1_2512">
<rect width="58.9667" height="58" fill="white"/>
</clipPath>
</defs>
</svg>
