<svg width="58" height="58" viewBox="0 0 58 58" fill="none" xmlns="http://www.w3.org/2000/svg">
<g clip-path="url(#clip0_1_2473)">
<path d="M55.3915 30.7594L50.1133 14.9248" stroke="#008345" stroke-width="1.91541" stroke-miterlimit="10" stroke-linecap="round" stroke-linejoin="round"/>
<path d="M53.2158 36.038H53.751C55.6279 36.038 57.1494 34.5165 57.1494 32.6396V31.3262C57.1494 31.0134 56.8958 30.7598 56.583 30.7598H43.6406C43.3279 30.7598 43.0742 31.0134 43.0742 31.3262V32.6396C43.0742 34.5165 44.5957 36.038 46.4727 36.038H49.251" stroke="#008345" stroke-width="1.91541" stroke-miterlimit="10" stroke-linecap="round" stroke-linejoin="round"/>
<path d="M50.1142 14.9248L44.8359 30.7594" stroke="#008345" stroke-width="1.91541" stroke-miterlimit="10" stroke-linecap="round" stroke-linejoin="round"/>
<path d="M22.3145 39.2179V29.7118C22.3145 29.4428 22.5325 29.2246 22.8017 29.2246H35.0977C35.3667 29.2246 35.5849 29.4427 35.5849 29.7118V51.3062C35.5849 51.6189 35.3313 51.8726 35.0185 51.8726H22.8809C22.5681 51.8726 22.3145 51.6189 22.3145 51.3062V43.1828" stroke="#008345" stroke-width="1.91541" stroke-miterlimit="10" stroke-linecap="round" stroke-linejoin="round"/>
<path d="M33.375 13.8689V10.1196" stroke="#008345" stroke-width="1.91541" stroke-miterlimit="10" stroke-linecap="round" stroke-linejoin="round"/>
<path d="M28.9512 13.8687V7.90771" stroke="#008345" stroke-width="1.91541" stroke-miterlimit="10" stroke-linecap="round" stroke-linejoin="round"/>
<path d="M24.5273 13.8687V7.9077" stroke="#008345" stroke-width="1.91541" stroke-miterlimit="10" stroke-linecap="round" stroke-linejoin="round"/>
<path d="M20.1035 17.1866V8.33983" stroke="#008345" stroke-width="1.91541" stroke-miterlimit="10" stroke-linecap="round" stroke-linejoin="round"/>
<path d="M25.834 32.7431H32.0666" stroke="#008345" stroke-width="1.91541" stroke-miterlimit="10" stroke-linecap="round" stroke-linejoin="round"/>
<path d="M11.5264 36.038H4.24805C2.37109 36.038 0.849609 34.5165 0.849609 32.6395V31.3262C0.849609 31.0134 1.10325 30.7598 1.41602 30.7598H14.3584C14.6712 30.7598 14.9248 31.0134 14.9248 31.3262V32.6395C14.9248 34.5165 13.4033 36.038 11.5264 36.038Z" stroke="#008345" stroke-width="1.91541" stroke-miterlimit="10" stroke-linecap="round" stroke-linejoin="round"/>
<path d="M2.60938 30.7594L7.8876 14.9248" stroke="#008345" stroke-width="1.91541" stroke-miterlimit="10" stroke-linecap="round" stroke-linejoin="round"/>
<path d="M7.88672 14.9248L13.1649 30.7594" stroke="#008345" stroke-width="1.91541" stroke-miterlimit="10" stroke-linecap="round" stroke-linejoin="round"/>
<path d="M4.73691 11.4062H3.17578C2.86301 11.4062 2.60938 11.6599 2.60938 11.9727V14.3586C2.60938 14.6714 2.86301 14.925 3.17578 14.925H19.5372C19.85 14.925 20.1036 14.6714 20.1036 14.3586V11.4062H8.70175" stroke="#008345" stroke-width="1.91541" stroke-miterlimit="10" stroke-linecap="round" stroke-linejoin="round"/>
<path d="M17.0008 14.9248C16.8596 15.29 16.7852 15.6814 16.7852 16.0805V18.9131C16.7852 19.7629 17.1227 20.5779 17.7236 21.1787L23.0276 26.4828C23.495 26.9502 23.7575 27.584 23.7575 28.245V29.2242" stroke="#008345" stroke-width="1.91541" stroke-miterlimit="10" stroke-linecap="round" stroke-linejoin="round"/>
<path d="M34.1407 29.2244V27.0143C34.1407 26.3176 34.4207 25.6443 34.9337 25.1728C36.6931 23.5558 37.7956 21.2355 37.7956 18.6575V10.1197C37.7956 9.13668 36.9987 8.33963 36.0155 8.33963H35.1522C34.1692 8.33963 33.3721 9.13657 33.3721 10.1197V7.90803C33.3721 6.92498 32.5752 6.12793 31.592 6.12793H30.7287C29.7456 6.12793 28.9486 6.92486 28.9486 7.90803C28.9486 6.92498 28.1517 6.12793 27.1685 6.12793H26.3052C25.3221 6.12793 24.5251 6.92486 24.5251 7.90803C24.5251 6.92498 23.7281 6.12793 22.745 6.12793H21.8817C20.8986 6.12793 20.1016 6.92486 20.1016 7.90803V11.4359" stroke="#008345" stroke-width="1.91541" stroke-miterlimit="10" stroke-linecap="round" stroke-linejoin="round"/>
<path d="M54.8245 11.4062H37.7969V14.925H54.8244C55.1372 14.925 55.3908 14.6713 55.3908 14.3586V11.9726C55.3909 11.6598 55.1373 11.4062 54.8245 11.4062Z" stroke="#008345" stroke-width="1.91541" stroke-miterlimit="10" stroke-linecap="round" stroke-linejoin="round"/>
</g>
<defs>
<clipPath id="clip0_1_2473">
<rect width="58" height="58" fill="white"/>
</clipPath>
</defs>
</svg>
