<svg width="58" height="55" viewBox="0 0 58 55" fill="none" xmlns="http://www.w3.org/2000/svg">
<g clip-path="url(#clip0_1_2460)">
<path d="M28.8987 6.89459C29.5287 6.89459 30.0395 6.41676 30.0395 5.82734V1.06725C30.0395 0.477831 29.5287 0 28.8987 0C28.2686 0 27.7578 0.477831 27.7578 1.06725V5.82734C27.7579 6.41676 28.2687 6.89459 28.8987 6.89459Z" fill="#008345"/>
<path d="M56.7859 36.665L54.7705 34.785C54.0536 34.1151 53.098 33.7461 52.0799 33.7461C51.4288 33.7461 50.8039 33.8976 50.25 34.1815L46.4522 30.6329L46.6372 30.4601C48.1779 29.0159 48.1773 26.6691 46.637 25.2298C46.0866 24.7139 45.3998 24.37 44.6511 24.2252C44.7542 23.8923 44.8085 23.5437 44.8085 23.1869C44.8085 22.1955 44.3968 21.2659 43.6516 20.5717C43.1011 20.0558 42.4144 19.7118 41.6657 19.5671C41.7688 19.2342 41.823 18.8857 41.823 18.5287C41.823 17.5373 41.4114 16.6078 40.665 15.9125C40.1013 15.3858 39.4083 15.0524 38.6807 14.9105C39.07 13.655 38.7374 12.2425 37.6816 11.2532C36.8028 10.4345 35.6102 10.0827 34.461 10.1967L26.9352 8.86413C25.7874 8.66045 24.3541 8.52575 23.4493 9.29777C23.3922 9.34651 23.334 9.40257 23.2766 9.46499C21.8738 8.98663 20.2375 9.27148 19.1141 10.3213C18.3688 11.0176 17.9583 11.9468 17.9583 12.9376C17.9583 13.2945 18.0123 13.6431 18.1153 13.976C17.3674 14.1207 16.6815 14.4643 16.1329 14.9784C15.3861 15.6741 14.9744 16.6023 14.9736 17.5919C14.9732 17.9497 15.0275 18.2994 15.131 18.6332C14.3828 18.7776 13.6964 19.1205 13.1461 19.6347C12.3994 20.3325 11.9882 21.2622 11.9882 22.2525C11.9882 23.0111 12.2302 23.7337 12.6788 24.3441C12.1124 24.5237 11.5936 24.8227 11.1592 25.2287C9.61741 26.6691 9.61685 29.016 11.1602 30.4623L11.3445 30.634L7.54618 34.1808C6.13458 33.5591 4.39538 33.792 3.2305 34.8803L1.21387 36.7616C0.496574 37.4317 0.101676 38.3257 0.101562 39.2787C0.101562 40.2319 0.496574 41.1259 1.21387 41.7962L3.73064 44.1478C4.1764 44.5643 4.8988 44.5639 5.34399 44.1469C5.7893 43.7299 5.78885 43.0541 5.34309 42.6376L2.82632 40.2861C2.54062 40.0192 2.38327 39.6614 2.38327 39.2788C2.38327 38.8964 2.54062 38.5387 2.82564 38.2724L4.84238 36.3911C5.34626 35.9202 6.11748 35.8501 6.70314 36.1777C6.74437 36.2356 6.79207 36.2907 6.84667 36.3419C6.94443 36.4336 7.05601 36.5038 7.1745 36.5552L18.7397 47.3584C18.7947 47.4704 18.8701 47.5759 18.9686 47.6681C19.0644 47.7578 19.1737 47.8272 19.2897 47.8783C19.5343 48.137 19.6694 48.4674 19.6694 48.8199C19.6694 49.2025 19.5121 49.5601 19.2264 49.8271L17.2117 51.7096C16.6164 52.264 15.6481 52.2639 15.0546 51.7113L12.5378 49.3566C12.0923 48.9398 11.37 48.9398 10.9245 49.3566C10.4789 49.7734 10.4789 50.4491 10.9245 50.8659L13.443 53.2222C14.1843 53.9128 15.1579 54.258 16.1319 54.258C17.1061 54.258 18.0808 53.9123 18.823 53.221L20.8389 51.3374C21.5562 50.6671 21.9513 49.7731 21.9513 48.8199C21.9513 48.1397 21.749 47.49 21.3731 46.9299L25.6478 42.9357C25.6524 42.9314 25.6569 42.9271 25.6616 42.9227C26.151 42.4493 27.5142 42.5379 28.8324 42.6236C29.769 42.6845 30.8132 42.7522 31.8335 42.6422L36.5147 47.0162C36.2114 47.5335 36.0496 48.1174 36.0496 48.7255C36.0496 49.6776 36.4446 50.5711 37.1619 51.2414L39.1779 53.125C39.8948 53.7949 40.8503 54.1639 41.8685 54.1639C42.8865 54.1639 43.8421 53.795 44.559 53.125L56.7867 41.7001C57.504 41.0299 57.899 40.1359 57.899 39.1828C57.8989 38.2298 57.5039 37.3358 56.7859 36.665ZM26.5104 10.9613L31.4593 11.8376L28.4971 14.6076C28.0389 14.4016 27.4108 14.0174 26.7219 13.4008C25.7788 12.5569 25.1042 11.5824 25.0428 10.9747C25.0427 10.9744 25.0427 10.974 25.0427 10.9737C25.0427 10.9736 25.0426 10.9735 25.0426 10.9734C25.0382 10.9297 25.037 10.8949 25.0376 10.8683C25.1868 10.8344 25.583 10.7968 26.5104 10.9613ZM20.7265 11.8315C21.3044 11.2913 22.2023 11.229 22.8553 11.6427C23.2254 13.0943 24.5491 14.41 25.1446 14.943C25.586 15.3381 27.0021 16.5226 28.4315 16.8481C28.6249 17.1074 28.7301 17.4166 28.7301 17.7427C28.7301 18.1629 28.5574 18.5558 28.2426 18.8499C27.9286 19.1441 27.508 19.306 27.0581 19.306C26.608 19.306 26.1874 19.1441 25.872 18.8486L25.8719 18.8485L25.8713 18.8479L20.7263 14.0435C20.4127 13.7505 20.2399 13.3577 20.2399 12.9376C20.24 12.5174 20.4128 12.1246 20.7265 11.8315ZM17.7453 16.4887C18.0592 16.1946 18.4794 16.0325 18.9287 16.0325C19.3785 16.0325 19.8 16.1949 20.116 16.4901L24.2589 20.358C24.9113 20.9693 24.9113 21.9639 24.2612 22.5731C23.9456 22.8672 23.5235 23.0291 23.0727 23.0291C22.622 23.0291 22.1999 22.8672 21.8857 22.5744L21.8855 22.5742L18.7426 19.6347C18.7377 19.6301 18.7324 19.6259 18.7274 19.6212L17.7441 18.7018C17.4286 18.407 17.2549 18.0134 17.2553 17.5935C17.2557 17.175 17.4288 16.7835 17.7453 16.4887ZM14.7586 21.1449C15.0727 20.8514 15.4938 20.6898 15.9444 20.6898C16.3913 20.6898 16.8087 20.8491 17.1215 21.1375L20.2741 24.0853C20.5885 24.3782 20.7617 24.7706 20.7617 25.1903C20.7617 25.6098 20.5885 26.0023 20.2729 26.2963C19.9589 26.5897 19.5382 26.7513 19.0884 26.7513C18.6379 26.7513 18.2159 26.5892 17.9014 26.2963L16.7586 25.2284C16.7583 25.2281 16.758 25.2279 16.7578 25.2277L14.7587 23.3598C14.4435 23.0653 14.27 22.672 14.27 22.2523C14.27 21.8328 14.4435 21.4393 14.7586 21.1449ZM12.7716 26.7388C13.0871 26.4439 13.5087 26.2816 13.9588 26.2816C14.4088 26.2816 14.8303 26.4438 15.1457 26.7384L16.2901 27.8078C16.6046 28.1007 16.7777 28.4931 16.7777 28.9128C16.7777 29.3324 16.6045 29.7248 16.2878 30.02C15.9739 30.3141 15.5532 30.4761 15.1033 30.4761C14.6532 30.4761 14.2326 30.3142 13.9164 30.0179L13.7731 29.8844C13.7712 29.8826 13.7697 29.8806 13.7679 29.879C13.7658 29.877 13.7635 29.8753 13.7614 29.8734L12.7727 28.9522C12.1204 28.3407 12.1198 27.3478 12.7716 26.7388ZM36.0208 38.8682C35.5755 38.4511 34.8531 38.4508 34.4074 38.8672L33.3924 39.8156C32.428 40.7178 30.6804 40.6042 28.9903 40.4946C27.1551 40.3752 25.2572 40.2521 24.0292 41.4316L19.827 45.3579L9.31869 35.5419L13.0375 32.0693C13.6522 32.4218 14.3614 32.6107 15.1035 32.6107C16.1637 32.6107 17.1579 32.2262 17.9004 31.5303C18.648 30.8339 19.0597 29.9044 19.0597 28.9129C19.0597 28.9037 19.0591 28.8946 19.0591 28.8853C19.0689 28.8855 19.0788 28.886 19.0886 28.886C20.1474 28.886 21.1407 28.5027 21.8843 27.8079C22.6318 27.1115 23.0436 26.1819 23.0436 25.1905C23.0436 25.1813 23.0429 25.1722 23.0429 25.163C23.0529 25.163 23.0629 25.1636 23.073 25.1636C24.1313 25.1636 25.1253 24.7807 25.8738 24.0833C26.6509 23.3552 27.0353 22.3965 27.028 21.4399C27.0381 21.44 27.0483 21.4406 27.0585 21.4406C28.1187 21.4404 29.1128 21.0561 29.8565 20.3591C30.6017 19.6628 31.0123 18.7336 31.0123 17.7427C31.0123 17.0498 30.8109 16.3873 30.4353 15.8135L33.6948 12.7656C33.9377 12.5394 34.2372 12.3974 34.5511 12.3388C34.5851 12.3354 34.6186 12.3303 34.6518 12.3241C35.1554 12.2592 35.6843 12.4046 36.0695 12.7634C36.7219 13.3748 36.7219 14.3694 36.0719 14.9785L35.0792 15.9034C35.0759 15.9064 35.0724 15.9092 35.0691 15.9123L33.9258 16.9801C33.4799 17.3965 33.4794 18.0723 33.9247 18.4893C34.3702 18.9064 35.0924 18.9067 35.5381 18.4903L36.5347 17.5592C36.535 17.559 36.5352 17.5588 36.5354 17.5586L36.6861 17.4181C37.3403 16.8118 38.4001 16.813 39.0537 17.4235C39.3681 17.7165 39.5413 18.1089 39.5413 18.5285C39.5413 18.9481 39.3681 19.3405 39.0512 19.6357L38.0528 20.5716C38.0527 20.5717 38.0526 20.5718 38.0525 20.572L36.9092 21.6371C36.4628 22.0531 36.4613 22.7289 36.906 23.1464C37.3506 23.564 38.0729 23.5653 38.5193 23.1495L39.6678 22.0795C39.9817 21.7853 40.4023 21.6234 40.8522 21.6234C41.3023 21.6234 41.723 21.7853 42.0392 22.0816C42.3537 22.3746 42.5267 22.767 42.5267 23.1867C42.5267 23.6062 42.3537 23.9986 42.0374 24.2932L40.047 26.1559C39.6016 26.5728 39.6017 27.2485 40.0472 27.6652C40.2701 27.8735 40.5619 27.9776 40.8538 27.9776C41.1459 27.9776 41.4379 27.8733 41.6606 27.6649L42.6361 26.752C42.6416 26.747 42.6476 26.7427 42.6532 26.7375C42.9671 26.4433 43.3877 26.2814 43.8376 26.2814C44.2877 26.2814 44.7083 26.4433 45.0234 26.7386C45.6751 27.3476 45.6745 28.3405 45.0234 28.9507L44.0316 29.8775C44.0312 29.8778 44.0308 29.8781 44.0304 29.8784C44.0301 29.8787 44.0298 29.8792 44.0294 29.8795L42.4553 31.3503C42.0095 31.7669 42.0091 32.4426 42.4542 32.8596C42.6771 33.0683 42.9693 33.1727 43.2615 33.1727C43.5532 33.1727 43.845 33.0686 44.0677 32.8606L44.8377 32.1411L48.528 35.5894L38.0206 45.4069L34.2559 41.8893C34.5183 41.7314 34.7695 41.5457 35.0052 41.3252L36.0196 40.3774C36.4656 39.961 36.4661 39.2852 36.0208 38.8682ZM55.1741 40.1899L42.9465 51.6148C42.6604 51.8821 42.2775 52.0293 41.8684 52.0293C41.4592 52.0293 41.0763 51.8821 40.7901 51.6147L38.7741 49.731C38.4884 49.4642 38.331 49.1071 38.331 48.7255C38.331 48.344 38.4884 47.9868 38.7741 47.7199L51.0018 36.295C51.2879 36.0276 51.6707 35.8804 52.08 35.8804C52.4892 35.8804 52.872 36.0276 53.1589 36.2956L55.1743 38.1757C55.46 38.4426 55.6173 38.8002 55.6173 39.1827C55.6172 39.5654 55.4598 39.9231 55.1741 40.1899Z" fill="#008345"/>
<path d="M13.75 5.99495C13.9727 6.20287 14.2643 6.30673 14.5558 6.30673C14.8481 6.30673 15.1405 6.20224 15.3633 5.99336C15.8084 5.57615 15.8077 4.90047 15.3617 4.4841L11.2045 0.602846C10.7586 0.186479 10.0363 0.187009 9.59117 0.60433C9.14609 1.02154 9.14677 1.69723 9.59276 2.11359L13.75 5.99495Z" fill="#008345"/>
<path d="M43.2424 6.30675C43.5341 6.30675 43.8259 6.20268 44.0486 5.99466L48.2026 2.1133C48.6484 1.69682 48.6489 1.02104 48.2035 0.604033C47.7583 0.18703 47.0361 0.186606 46.5902 0.603185L42.4362 4.48454C41.9904 4.90102 41.99 5.57681 42.4353 5.99381C42.6581 6.20247 42.9502 6.30675 43.2424 6.30675Z" fill="#008345"/>
<path d="M7.11635 45.9079C6.67466 46.3282 6.68078 47.0039 7.13017 47.4171L7.13345 47.4201C7.35514 47.624 7.64299 47.7255 7.93072 47.7255C8.22605 47.7255 8.52137 47.6186 8.7451 47.4057C9.18679 46.9854 9.17897 46.3081 8.7297 45.8949C8.28054 45.4818 7.55826 45.4876 7.11635 45.9079Z" fill="#008345"/>
<path d="M38.8117 37.3306C38.9853 37.3306 39.1613 37.2936 39.3266 37.2157C39.8891 36.9502 40.1151 36.3085 39.8315 35.7822C39.5477 35.2559 38.8616 35.0444 38.2991 35.3099L38.2928 35.3129C37.7302 35.5783 37.5074 36.2186 37.7911 36.7449C37.9913 37.1166 38.3942 37.3306 38.8117 37.3306Z" fill="#008345"/>
</g>
<defs>
<clipPath id="clip0_1_2460">
<rect width="58" height="54.2581" fill="white"/>
</clipPath>
</defs>
</svg>
