<svg width="65" height="65" viewBox="0 0 65 65" fill="none" xmlns="http://www.w3.org/2000/svg">
<path fill-rule="evenodd" clip-rule="evenodd" d="M12.1875 35.5468C12.3884 35.5468 12.5847 35.6064 12.7518 35.718C12.9188 35.8296 13.0489 35.9882 13.1258 36.1738C13.2027 36.3594 13.2228 36.5636 13.1836 36.7606C13.1444 36.9576 13.0477 37.1386 12.9057 37.2806C12.7636 37.4226 12.5827 37.5194 12.3856 37.5586C12.1886 37.5978 11.9844 37.5776 11.7988 37.5008C11.6133 37.4239 11.4546 37.2937 11.343 37.1267C11.2314 36.9597 11.1719 36.7633 11.1719 36.5625C11.1719 36.2931 11.2789 36.0348 11.4693 35.8443C11.6598 35.6538 11.9181 35.5468 12.1875 35.5468Z" fill="#008345"/>
<path d="M33.5156 59.9218H43.6719V56.8749C43.6759 56.6745 43.7319 56.4785 43.8344 56.3062L51.7969 44.3828V29.6359C51.3674 29.7809 50.9779 30.0243 50.6594 30.3468C50.0878 30.9177 49.7663 31.6921 49.7656 32.4999V40.0562C49.768 40.2093 49.7343 40.3608 49.6673 40.4984C49.6002 40.636 49.5017 40.7559 49.3797 40.8484L38.7359 51.4921C38.6415 51.5873 38.5292 51.6629 38.4054 51.7144C38.2817 51.766 38.1489 51.7926 38.0148 51.7926C37.8808 51.7926 37.748 51.766 37.6243 51.7144C37.5005 51.6629 37.3882 51.5873 37.2938 51.4921C37.1966 51.401 37.1192 51.2908 37.0662 51.1685C37.0133 51.0463 36.986 50.9144 36.986 50.7812C36.986 50.648 37.0133 50.5161 37.0662 50.3939C37.1192 50.2716 37.1966 50.1614 37.2938 50.0703L42.0063 45.3578C42.2007 45.164 42.3103 44.901 42.3109 44.6265C42.3126 44.4933 42.2863 44.3612 42.2338 44.2388C42.1813 44.1164 42.1038 44.0063 42.0063 43.9156C41.9151 43.8184 41.8049 43.741 41.6827 43.688C41.5604 43.6351 41.4286 43.6078 41.2953 43.6078C41.1621 43.6078 41.0302 43.6351 40.908 43.688C40.7857 43.741 40.6756 43.8184 40.5844 43.9156L34.1047 50.3749C33.9164 50.5647 33.7675 50.7898 33.6664 51.0373C33.5653 51.2848 33.5141 51.5498 33.5156 51.8171V59.9218ZM20.9625 43.3062C21.1093 42.9967 21.3086 42.7149 21.5516 42.4734C22.1254 41.9077 22.8989 41.5906 23.7047 41.5906C24.5105 41.5906 25.2839 41.9077 25.8578 42.4734L32.3172 48.9328L32.5 49.1156L32.6828 48.9328L39.1422 42.4734C39.7161 41.9077 40.4895 41.5906 41.2953 41.5906C42.1011 41.5906 42.8746 41.9077 43.4484 42.4734C43.6914 42.7149 43.8907 42.9967 44.0375 43.3062L47.7344 39.6296V32.4999C47.7317 31.8323 47.8612 31.1708 48.1155 30.5535C48.3697 29.9361 48.7436 29.3753 49.2157 28.9032C49.6878 28.4311 50.2487 28.0571 50.866 27.8029C51.4833 27.5487 52.1449 27.4191 52.8125 27.4218C53.0819 27.4218 53.3402 27.5288 53.5307 27.7193C53.7211 27.9098 53.8281 28.1681 53.8281 28.4374V44.6874C53.8271 44.8883 53.7709 45.0851 53.6656 45.2562L45.7031 57.1796V59.9218H46.7188C46.9881 59.9218 47.2464 60.0288 47.4369 60.2193C47.6274 60.4098 47.7344 60.6681 47.7344 60.9375C47.7344 61.2068 47.6274 61.4651 47.4369 61.6556C47.2464 61.8461 46.9881 61.9531 46.7188 61.9531H18.2812C18.0119 61.9531 17.7536 61.8461 17.5631 61.6556C17.3726 61.4651 17.2656 61.2068 17.2656 60.9375C17.2656 60.6681 17.3726 60.4098 17.5631 60.2193C17.7536 60.0288 18.0119 59.9218 18.2812 59.9218H19.2969V57.1796L11.3344 45.2562C11.2291 45.0851 11.1729 44.8883 11.1719 44.6874V40.6249C11.1719 40.3556 11.2789 40.0973 11.4693 39.9068C11.6598 39.7163 11.9181 39.6093 12.1875 39.6093C12.4569 39.6093 12.7152 39.7163 12.9057 39.9068C13.0961 40.0973 13.2031 40.3556 13.2031 40.6249V44.3828L21.1656 56.3062C21.2681 56.4785 21.3241 56.6745 21.3281 56.8749V59.9218H31.4844V51.7968C31.4859 51.5295 31.4347 51.2645 31.3336 51.017C31.2325 50.7695 31.0836 50.5444 30.8953 50.3546L24.375 43.9156C24.2838 43.8184 24.1737 43.741 24.0514 43.688C23.9291 43.6351 23.7973 43.6078 23.6641 43.6078C23.5308 43.6078 23.399 43.6351 23.2767 43.688C23.1544 43.741 23.0443 43.8184 22.9531 43.9156C22.8555 44.0063 22.778 44.1164 22.7256 44.2388C22.6731 44.3612 22.6468 44.4933 22.6484 44.6265C22.6485 44.8814 22.7425 45.1272 22.9125 45.3171L27.6656 50.0703C27.7628 50.1614 27.8402 50.2716 27.8932 50.3939C27.9461 50.5161 27.9734 50.648 27.9734 50.7812C27.9734 50.9144 27.9461 51.0463 27.8932 51.1685C27.8402 51.2908 27.7628 51.401 27.6656 51.4921C27.5099 51.639 27.3101 51.7304 27.0972 51.7525C26.8843 51.7745 26.67 51.7258 26.4875 51.614C26.4008 51.579 26.3241 51.5232 26.2641 51.4515L15.5797 40.8281C15.4739 40.7287 15.3889 40.6092 15.3297 40.4767C15.2704 40.3443 15.238 40.2013 15.2344 40.0562V32.4999C15.2337 31.6921 14.9122 30.9177 14.3406 30.3468C14.0221 30.0243 13.6326 29.7809 13.2031 29.6359V32.4999C13.2031 32.7693 13.0961 33.0276 12.9057 33.2181C12.7152 33.4086 12.4569 33.5156 12.1875 33.5156C11.9181 33.5156 11.6598 33.4086 11.4693 33.2181C11.2789 33.0276 11.1719 32.7693 11.1719 32.4999V28.4374C11.1719 28.1681 11.2789 27.9098 11.4693 27.7193C11.6598 27.5288 11.9181 27.4218 12.1875 27.4218C12.8551 27.4191 13.5167 27.5487 14.134 27.8029C14.7513 28.0571 15.3122 28.4311 15.7843 28.9032C16.2564 29.3753 16.6303 29.9361 16.8845 30.5535C17.1388 31.1708 17.2683 31.8323 17.2656 32.4999V39.6296L20.9625 43.3062Z" fill="#008345"/>
<path d="M18.2812 23.3594H14.2188C13.9494 23.3594 13.6911 23.2524 13.5006 23.0619C13.3101 22.8714 13.2031 22.6131 13.2031 22.3438C13.2031 22.0744 13.3101 21.8161 13.5006 21.6256C13.6911 21.4351 13.9494 21.3281 14.2188 21.3281H18.2812C18.5506 21.3281 18.8089 21.4351 18.9994 21.6256C19.1899 21.8161 19.2969 22.0744 19.2969 22.3438C19.2969 22.6131 19.1899 22.8714 18.9994 23.0619C18.8089 23.2524 18.5506 23.3594 18.2812 23.3594Z" fill="#008345"/>
<path d="M22.4451 13.3045C22.3119 13.3061 22.1798 13.2798 22.0574 13.2273C21.9349 13.1749 21.8248 13.0973 21.7341 12.9998L18.8498 10.156C18.7537 10.06 18.6776 9.94599 18.6256 9.82052C18.5736 9.69505 18.5469 9.56057 18.5469 9.42477C18.5469 9.28896 18.5736 9.15449 18.6256 9.02902C18.6776 8.90355 18.7537 8.78955 18.8498 8.69352C18.9458 8.59749 19.0598 8.52131 19.1853 8.46934C19.3107 8.41737 19.4452 8.39062 19.581 8.39062C19.7168 8.39063 19.8513 8.41737 19.9768 8.46934C20.1022 8.52131 20.2162 8.59749 20.3123 8.69352L23.156 11.5779C23.2532 11.6691 23.3306 11.7792 23.3835 11.9015C23.4365 12.0238 23.4638 12.1556 23.4638 12.2888C23.4638 12.4221 23.4365 12.5539 23.3835 12.6762C23.3306 12.7985 23.2532 12.9086 23.156 12.9998C23.0653 13.0973 22.9552 13.1749 22.8328 13.2273C22.7103 13.2798 22.5783 13.3061 22.4451 13.3045Z" fill="#008345"/>
<path d="M32.5 9.14062C32.2306 9.14062 31.9723 9.03362 31.7818 8.84315C31.5914 8.65269 31.4844 8.39436 31.4844 8.125V4.0625C31.4844 3.79314 31.5914 3.53481 31.7818 3.34434C31.9723 3.15388 32.2306 3.04688 32.5 3.04688C32.7694 3.04688 33.0277 3.15388 33.2182 3.34434C33.4086 3.53481 33.5156 3.79314 33.5156 4.0625V8.125C33.5156 8.39436 33.4086 8.65269 33.2182 8.84315C33.0277 9.03362 32.7694 9.14062 32.5 9.14062Z" fill="#008345"/>
<path d="M42.6554 13.3046C42.5222 13.3063 42.3902 13.28 42.2677 13.2275C42.1453 13.175 42.0352 13.0975 41.9445 13C41.8473 12.9088 41.7699 12.7986 41.717 12.6764C41.664 12.5541 41.6367 12.4223 41.6367 12.289C41.6367 12.1558 41.664 12.0239 41.717 11.9017C41.7699 11.7794 41.8473 11.6693 41.9445 11.5781L44.6867 8.69371C44.7814 8.59901 44.8938 8.52389 45.0175 8.47265C45.1412 8.4214 45.2739 8.39502 45.4078 8.39502C45.5417 8.39502 45.6743 8.4214 45.798 8.47265C45.9218 8.52389 46.0342 8.59901 46.1289 8.69371C46.2236 8.7884 46.2987 8.90082 46.3499 9.02455C46.4012 9.14827 46.4276 9.28088 46.4276 9.4148C46.4276 9.54872 46.4012 9.68133 46.3499 9.80505C46.2987 9.92878 46.2236 10.0412 46.1289 10.1359L43.2648 13C43.1741 13.0975 43.064 13.175 42.9416 13.2275C42.8191 13.28 42.6871 13.3063 42.5539 13.3046H42.6554Z" fill="#008345"/>
<path d="M50.7812 23.3594H46.7188C46.4494 23.3594 46.1911 23.2524 46.0006 23.0619C45.8101 22.8714 45.7031 22.6131 45.7031 22.3438C45.7031 22.0744 45.8101 21.8161 46.0006 21.6256C46.1911 21.4351 46.4494 21.3281 46.7188 21.3281H50.7812C51.0506 21.3281 51.3089 21.4351 51.4994 21.6256C51.6899 21.8161 51.7969 22.0744 51.7969 22.3438C51.7969 22.6131 51.6899 22.8714 51.4994 23.0619C51.3089 23.2524 51.0506 23.3594 50.7812 23.3594Z" fill="#008345"/>
<path d="M32.5004 39.6092C32.3793 39.6286 32.2558 39.6286 32.1347 39.6092L31.2004 39.2233C28.2709 38.0609 25.761 36.0407 23.9994 33.4274C22.2379 30.814 21.3069 27.7295 21.3285 24.5779V18.2811C21.3267 18.0799 21.386 17.883 21.4984 17.7162C21.6108 17.5494 21.7711 17.4206 21.9582 17.3467L32.1144 13.2842C32.3617 13.1826 32.639 13.1826 32.8863 13.2842L43.0426 17.3467C43.2296 17.4206 43.3899 17.5494 43.5023 17.7162C43.6148 17.883 43.674 18.0799 43.6722 18.2811V24.5779C43.6816 27.7191 42.7449 30.7903 40.9841 33.3916C39.2233 35.9929 36.7201 38.0038 33.8004 39.1623L32.866 39.5483C32.7449 39.5676 32.6215 39.5676 32.5004 39.5483V39.6092ZM23.3597 18.9717V24.5779C23.3495 27.3151 24.1636 29.992 25.6962 32.26C27.2287 34.5279 29.4085 36.2819 31.9519 37.2936L32.5004 37.4967L33.0285 37.2936C35.5757 36.2851 37.7599 34.5325 39.2962 32.2643C40.8325 29.996 41.6496 27.3175 41.641 24.5779V18.9717L32.5004 15.3154L23.3597 18.9717Z" fill="#008345"/>
<path d="M30.4683 29.4532C30.3351 29.4548 30.203 29.4285 30.0806 29.3761C29.9582 29.3236 29.8481 29.2461 29.7574 29.1485L27.7261 27.1172C27.5376 26.9287 27.4316 26.673 27.4316 26.4063C27.4316 26.1396 27.5376 25.8839 27.7261 25.6954C27.9147 25.5068 28.1704 25.4009 28.4371 25.4009C28.7037 25.4009 28.9594 25.5068 29.148 25.6954L30.4683 26.9954L35.8511 21.6329C35.9445 21.5395 36.0553 21.4654 36.1773 21.4149C36.2993 21.3644 36.43 21.3384 36.5621 21.3384C36.6941 21.3384 36.8248 21.3644 36.9468 21.4149C37.0688 21.4654 37.1796 21.5395 37.273 21.6329C37.3664 21.7262 37.4404 21.8371 37.4909 21.959C37.5415 22.081 37.5675 22.2118 37.5675 22.3438C37.5675 22.4758 37.5415 22.6066 37.4909 22.7286C37.4404 22.8505 37.3664 22.9614 37.273 23.0547L31.1792 29.1485C31.0886 29.2461 30.9785 29.3236 30.856 29.3761C30.7336 29.4285 30.6015 29.4548 30.4683 29.4532Z" fill="#008345"/>
</svg>
