<svg width="51" height="51" viewBox="0 0 51 51" fill="none" xmlns="http://www.w3.org/2000/svg">
<g clip-path="url(#clip0_1_2544)">
<path d="M50.272 13.3923C50.2719 13.3923 50.2719 13.3923 50.2718 13.3923L50.2701 13.3907L46.9782 12.921C46.5155 12.8551 46.1938 12.4266 46.2597 11.9639C46.2913 11.7415 46.4101 11.541 46.5897 11.4062L49.2503 9.41077C49.6243 9.13034 49.7 8.59996 49.4196 8.22603L46.3731 4.16405C46.0927 3.79012 45.5623 3.71438 45.1884 3.9948L42.5286 5.99025C42.1563 6.27279 41.6255 6.20001 41.3429 5.82766C41.2057 5.64688 41.1469 5.4185 41.1797 5.19393L41.6502 1.90204C41.7165 1.43935 41.3953 1.01063 40.9327 0.944196C40.9324 0.944196 40.9321 0.94409 40.9318 0.94409L35.9084 0.226474C35.4459 0.160044 35.0169 0.481194 34.9505 0.943878C34.9505 0.943984 34.9505 0.943984 34.9505 0.94409L34.48 4.23598C34.4141 4.69867 33.9856 5.02035 33.5229 4.95444C33.3005 4.92282 33.1 4.80402 32.9652 4.62441L30.9706 1.96381C30.6902 1.58988 30.1598 1.51414 29.7859 1.79457L27.2429 3.70285C26.0924 3.58057 24.9322 3.58057 23.7818 3.70285C16.2474 4.56401 10.3391 10.5726 9.60462 18.1203C9.58177 18.3598 9.57331 18.5976 9.56146 18.8354H9.30759C8.90604 18.8361 8.56025 19.119 8.47996 19.5124L7.8952 22.2932L5.5528 20.6777C5.21663 20.4457 4.76262 20.4871 4.47384 20.7758L1.9351 23.3146C1.64675 23.6032 1.60549 24.0566 1.83694 24.3927L3.4448 26.7309L0.663197 27.3156C0.274136 27.4009 -0.00279744 27.7458 -0.00195119 28.1441V31.5291C-0.00216275 31.9293 0.278262 32.275 0.669967 32.3575L3.45157 32.9423L1.84371 35.2805C1.61226 35.6165 1.65352 36.0699 1.94187 36.3586L4.48061 38.8973C4.76939 39.1861 5.2234 39.2275 5.55957 38.9955L7.89774 37.3834L8.4825 40.165C8.56279 40.5584 8.90858 40.8413 9.31013 40.842H12.6951C13.0954 40.8422 13.4411 40.5618 13.5236 40.1701L14.1083 37.3885L16.4465 38.9963C16.7826 39.2278 17.2359 39.1865 17.5246 38.8982L18.8388 37.5797V39.9915C18.8426 41.1954 19.4876 42.306 20.5313 42.906V47.6077C20.5313 49.4772 22.0469 50.9927 23.9163 50.9927H27.3013C29.1708 50.9927 30.6863 49.4772 30.6863 47.6077V42.906C31.73 42.306 32.375 41.1954 32.3788 39.9915V36.6421C32.4017 35.2328 33.139 33.9317 34.3361 33.1877C35.0384 32.7321 35.7044 32.2228 36.3282 31.6645L35.1993 30.4036C34.6413 30.9037 34.0451 31.3595 33.4163 31.7669C31.7359 32.8215 30.7073 34.6583 30.6863 36.6421V39.9915C30.6863 40.9263 29.9286 41.684 28.9938 41.684H22.2238C21.289 41.684 20.5313 40.9263 20.5313 39.9915V36.5718C20.5118 34.6256 19.4993 32.8242 17.847 31.7956C11.1398 27.5811 9.11898 18.7274 13.3335 12.0202C15.9484 7.85865 20.512 5.32573 25.4269 5.30817C25.4143 5.33832 25.4032 5.3691 25.3939 5.40041C25.3624 5.62255 25.4206 5.84818 25.5555 6.02748L27.5501 8.68723C27.7604 8.9594 27.7806 9.33323 27.6009 9.62656C27.4278 9.92169 27.0932 10.0827 26.7546 10.0336L23.4627 9.56309C23 9.49677 22.5713 9.81802 22.5049 10.2806C22.5049 10.2809 22.5048 10.2812 22.5048 10.2816L21.7863 15.3074C21.72 15.77 22.0412 16.1988 22.5038 16.2652C22.5041 16.2652 22.5045 16.2654 22.5048 16.2654L25.7967 16.7359C26.2593 16.8018 26.581 17.2303 26.5151 17.693C26.4835 17.9153 26.3647 18.1159 26.1851 18.2506L23.5253 20.2452C23.1514 20.5257 23.0757 21.056 23.3561 21.43L26.4026 25.492C26.683 25.8659 27.2134 25.9416 27.5873 25.6612L30.2479 23.6666C30.6222 23.3867 31.1525 23.4632 31.4324 23.8375C31.5664 24.0166 31.624 24.2415 31.5926 24.4629L31.1229 27.7548C31.0565 28.2174 31.3777 28.6463 31.8403 28.7128C31.8404 28.7128 31.8404 28.7128 31.8405 28.7128L36.8672 29.4312C36.9068 29.4363 36.9467 29.4388 36.9866 29.4388C37.4079 29.4394 37.7653 29.1299 37.8252 28.7128L38.2949 25.4209C38.3608 24.9582 38.7893 24.6365 39.252 24.7024C39.4743 24.734 39.6749 24.8528 39.8096 25.0324L41.8051 27.6922C42.0855 28.0661 42.6159 28.1419 42.9898 27.8614L47.0518 24.815C47.4257 24.5345 47.5015 24.0042 47.221 23.6302L45.2264 20.9705C45.0171 20.6979 44.9969 20.3247 45.1757 20.0311C45.345 19.7321 45.6827 19.57 46.0219 19.6249L49.3138 20.0946C49.7764 20.161 50.2053 19.8398 50.2718 19.3772C50.2718 19.3771 50.2718 19.3771 50.2718 19.377L50.9894 14.3503C51.0558 13.8876 50.7347 13.4588 50.272 13.3923ZM22.2238 43.3765H28.9938V45.069H22.2238V43.3765ZM22.2238 46.7615H28.9938V47.6077C28.9938 48.5425 28.2361 49.3002 27.3013 49.3002H23.9163C22.9815 49.3002 22.2238 48.5425 22.2238 47.6077V46.7615ZM15.4869 32.168C15.9489 32.5458 16.4317 32.8977 16.9331 33.2216C17.7327 33.7269 18.3346 34.4913 18.6383 35.3871L16.8231 37.1989L15.0654 35.9871C14.2958 35.4567 13.2419 35.6507 12.7114 36.4204C12.5842 36.605 12.495 36.8129 12.4488 37.0322L12.0054 39.1453H9.99389L9.55046 37.0356C9.35794 36.1209 8.46039 35.5354 7.54571 35.7279C7.32642 35.774 7.11846 35.8633 6.93387 35.9905L5.17537 37.1989L3.63352 35.6604L4.84449 33.9036C5.37541 33.1343 5.18204 32.0803 4.4127 31.5494C4.228 31.4219 4.01983 31.3324 3.80023 31.2862L1.69054 30.8419V28.8312L3.80023 28.387C4.71459 28.1931 5.29871 27.2947 5.10482 26.3802C5.0588 26.1632 4.97069 25.9575 4.84534 25.7746L3.63352 24.0127L5.17537 22.4742L6.93472 23.6861C7.70469 24.2159 8.75859 24.0213 9.28844 23.2513C9.41538 23.0669 9.50445 22.8592 9.55046 22.6401L9.69855 21.936C9.83416 22.9111 10.0587 23.8716 10.3696 24.8057C7.58516 25.1376 5.59702 27.6641 5.92896 30.4485C6.26089 33.233 8.78736 35.2211 11.5718 34.8892C13.248 34.6893 14.7153 33.6694 15.4869 32.168ZM14.1726 30.9756C13.5407 32.7321 11.6046 33.6437 9.84813 33.0119C8.09164 32.38 7.18002 30.4439 7.81185 28.6874C8.29527 27.3436 9.57109 26.4486 10.9991 26.4516C11.0101 26.4516 11.0203 26.4516 11.0313 26.4516C11.8095 28.1296 12.8723 29.6601 14.1726 30.9756ZM48.7113 18.2972L46.2572 17.9468C44.8691 17.7486 43.5833 18.7132 43.385 20.1012C43.2898 20.7677 43.4633 21.4448 43.8674 21.9834L45.3542 23.9662L42.6462 25.9972L41.1586 24.0153C40.3174 22.8935 38.7261 22.6659 37.6044 23.5071C37.0658 23.911 36.7096 24.5123 36.6142 25.1788L36.2715 27.6363L32.9212 27.1574L33.2715 24.7033C33.4703 23.3153 32.5062 22.029 31.1183 21.8304C30.4513 21.7348 29.7739 21.9083 29.235 22.3126L27.2522 23.7995L25.2212 21.0915L27.2031 19.6038C28.3249 18.7626 28.5525 17.1714 27.7113 16.0497C27.3074 15.511 26.7061 15.1549 26.0395 15.0595L23.5854 14.7091L24.0644 11.3588L26.5185 11.7092C27.9065 11.9079 29.1928 10.9438 29.3914 9.5559C29.4869 8.88895 29.3134 8.21153 28.9092 7.67258L27.4172 5.68814L30.1252 3.65715L31.6129 5.6399C32.4541 6.76171 34.0453 6.98924 35.167 6.14807C35.7057 5.7442 36.0618 5.14284 36.1572 4.47632L36.5076 2.02221L39.8579 2.50033L39.5075 4.95444C39.3093 6.3425 40.2738 7.62837 41.6619 7.8266C42.3284 7.9218 43.0055 7.74832 43.5441 7.34424L45.5269 5.85739L47.5578 8.56537L45.5751 10.0531C44.4533 10.8942 44.2258 12.4855 45.0669 13.6072C45.4708 14.1458 46.0722 14.502 46.7387 14.5974L49.1928 14.9477L48.7113 18.2972Z" fill="#008345"/>
<path d="M36.3871 8.05762C32.6482 8.05762 29.6172 11.0887 29.6172 14.8276C29.6172 18.5665 32.6482 21.5975 36.3871 21.5975C40.1261 21.5975 43.1571 18.5665 43.1571 14.8276C43.1529 11.0903 40.1244 8.06174 36.3871 8.05762ZM36.3871 19.905C33.5829 19.905 31.3097 17.6318 31.3097 14.8276C31.3097 12.0233 33.5829 9.75011 36.3871 9.75011C39.1914 9.75011 41.4646 12.0233 41.4646 14.8276C41.4613 17.6304 39.19 19.9018 36.3871 19.905Z" fill="#008345"/>
<path d="M26.4581 37.4526H24.7656V39.9914H26.4581V37.4526Z" fill="#008345"/>
<path d="M21.9109 29.1415C16.6869 27.1008 14.1064 21.2116 16.1472 15.9876C16.9381 13.9634 18.3573 12.2462 20.1964 11.0886L19.2918 9.65674C13.7557 13.1444 12.095 20.4597 15.5827 25.9958C16.9334 28.1399 18.936 29.7944 21.2965 30.7164C23.3859 31.5169 24.7656 33.5225 24.7661 35.76H26.4586C26.4613 32.8244 24.6522 30.1916 21.9109 29.1415Z" fill="#008345"/>
<path d="M47.6132 31.5288H41.6895V33.2213H47.6132V31.5288Z" fill="#008345"/>
<path d="M41.3861 35.9556L40.3027 37.2559L45.3806 41.4864L46.4639 40.1861L41.3861 35.9556Z" fill="#008345"/>
<path d="M38.3038 38.2988H36.6113V44.2225H38.3038V38.2988Z" fill="#008345"/>
<path d="M7.63472 12.9365L0.865234 14.6287L1.27546 16.2697L8.04495 14.5775L7.63472 12.9365Z" fill="#008345"/>
<path d="M3.25271 4.60795L2.26953 5.98444L8.19278 10.2152L9.17596 8.83873L3.25271 4.60795Z" fill="#008345"/>
<path d="M11.1595 0.00699409L9.51978 0.426224L11.2506 7.19566L12.8902 6.77643L11.1595 0.00699409Z" fill="#008345"/>
</g>
<defs>
<clipPath id="clip0_1_2544">
<rect width="51" height="51" fill="white"/>
</clipPath>
</defs>
</svg>
