<svg width="15" height="16" viewBox="0 0 15 16" fill="none" xmlns="http://www.w3.org/2000/svg">
<path d="M0.939941 14.5C0.939941 15.3438 1.59619 16 2.43994 16H13.4399C14.2524 16 14.9399 15.3438 14.9399 14.5V6H0.939941V14.5ZM10.9399 8.375C10.9399 8.1875 11.0961 8 11.3149 8H12.5649C12.7524 8 12.9399 8.1875 12.9399 8.375V9.625C12.9399 9.84375 12.7524 10 12.5649 10H11.3149C11.0961 10 10.9399 9.84375 10.9399 9.625V8.375ZM10.9399 12.375C10.9399 12.1875 11.0961 12 11.3149 12H12.5649C12.7524 12 12.9399 12.1875 12.9399 12.375V13.625C12.9399 13.8438 12.7524 14 12.5649 14H11.3149C11.0961 14 10.9399 13.8438 10.9399 13.625V12.375ZM6.93994 8.375C6.93994 8.1875 7.09619 8 7.31494 8H8.56494C8.75244 8 8.93994 8.1875 8.93994 8.375V9.625C8.93994 9.84375 8.75244 10 8.56494 10H7.31494C7.09619 10 6.93994 9.84375 6.93994 9.625V8.375ZM6.93994 12.375C6.93994 12.1875 7.09619 12 7.31494 12H8.56494C8.75244 12 8.93994 12.1875 8.93994 12.375V13.625C8.93994 13.8438 8.75244 14 8.56494 14H7.31494C7.09619 14 6.93994 13.8438 6.93994 13.625V12.375ZM2.93994 8.375C2.93994 8.1875 3.09619 8 3.31494 8H4.56494C4.75244 8 4.93994 8.1875 4.93994 8.375V9.625C4.93994 9.84375 4.75244 10 4.56494 10H3.31494C3.09619 10 2.93994 9.84375 2.93994 9.625V8.375ZM2.93994 12.375C2.93994 12.1875 3.09619 12 3.31494 12H4.56494C4.75244 12 4.93994 12.1875 4.93994 12.375V13.625C4.93994 13.8438 4.75244 14 4.56494 14H3.31494C3.09619 14 2.93994 13.8438 2.93994 13.625V12.375ZM13.4399 2H11.9399V0.5C11.9399 0.25 11.6899 0 11.4399 0H10.4399C10.1587 0 9.93994 0.25 9.93994 0.5V2H5.93994V0.5C5.93994 0.25 5.68994 0 5.43994 0H4.43994C4.15869 0 3.93994 0.25 3.93994 0.5V2H2.43994C1.59619 2 0.939941 2.6875 0.939941 3.5V5H14.9399V3.5C14.9399 2.6875 14.2524 2 13.4399 2Z" fill="#929292"/>
</svg>
