<svg width="40" height="40" viewBox="0 0 40 40" fill="none" xmlns="http://www.w3.org/2000/svg">
<g clip-path="url(#clip0_1_5542)">
<path d="M36.4349 6.90712C30.9314 5.39915 25.3955 3.05111 20.4258 0.116894C20.1618 -0.0389648 19.8342 -0.0389648 19.5703 0.116894C14.4572 3.1354 9.22047 5.35642 3.56071 6.90712C3.19509 7.00719 2.94165 7.33954 2.94165 7.71868V16.316C2.94165 25.1693 7.02594 31.0296 10.4523 34.3867C14.1411 38.0012 18.4379 40 19.998 40C21.5579 40 25.8548 38.0012 29.5436 34.3867C32.9699 31.0297 37.0539 25.1694 37.0539 16.316V7.7186C37.0539 7.33954 36.8005 7.00719 36.4349 6.90712ZM35.3711 16.3159C35.3711 24.5849 31.5617 30.0532 28.3657 33.1846C24.7383 36.7389 20.86 38.3171 19.998 38.3171C19.1361 38.3171 15.2575 36.7389 11.63 33.1846C8.43414 30.0532 4.62454 24.5849 4.62454 16.3159V8.35735C10.0369 6.82063 15.0773 4.67603 19.9982 1.81642C24.7961 4.60017 30.0881 6.85141 35.3711 8.35703V16.3159Z" fill="#008345"/>
<path d="M12.5402 8.26374C12.3698 7.83132 11.8813 7.61889 11.4488 7.78929C9.94571 8.38155 8.4029 8.9267 6.86329 9.40967C6.51243 9.51983 6.27368 9.84483 6.27368 10.2125V13.4618C6.27368 13.9265 6.65048 14.3032 7.11509 14.3032C7.57969 14.3032 7.95649 13.9265 7.95649 13.4618V10.8274C9.33766 10.3805 10.7173 9.88623 12.0657 9.35491C12.4981 9.18467 12.7105 8.69616 12.5402 8.26374Z" fill="#008345"/>
<path d="M14.1385 8.42243C14.2514 8.42243 14.366 8.39969 14.4759 8.35173L14.4914 8.34501C14.9171 8.15845 15.1088 7.6629 14.9222 7.23735C14.7355 6.81165 14.2372 6.61907 13.8119 6.80548L13.7983 6.81134C13.3724 6.99735 13.1801 7.49251 13.3661 7.91829C13.5041 8.23438 13.8139 8.42243 14.1385 8.42243Z" fill="#008345"/>
<path d="M30.023 27.1332C29.6342 26.8791 29.1128 26.9883 28.8583 27.3773C28.1649 28.4386 27.3515 29.4548 26.4403 30.3976C25.6909 31.1727 24.8789 31.8952 24.0267 32.5448C23.6573 32.8265 23.5862 33.3545 23.8678 33.7241C24.0335 33.9412 24.2841 34.0554 24.5375 34.0554C24.7155 34.0554 24.8948 33.9993 25.0471 33.883C25.9663 33.1822 26.8421 32.403 27.65 31.5672C28.6353 30.5482 29.5157 29.4482 30.2671 28.2978C30.5214 27.9087 30.412 27.3873 30.023 27.1332Z" fill="#008345"/>
<path d="M22.0721 33.8634L22.0238 33.8919C21.6217 34.1248 21.4843 34.6395 21.7171 35.0416C21.8731 35.3111 22.1555 35.4616 22.4461 35.4616C22.589 35.4616 22.7342 35.4251 22.8668 35.3481L22.9225 35.3154C23.3235 35.0805 23.4582 34.5652 23.2233 34.1641C22.9883 33.7633 22.4729 33.6288 22.0721 33.8634Z" fill="#008345"/>
<path d="M14.2633 18.2828C13.7467 17.7661 13.0596 17.4817 12.3288 17.4817C11.598 17.4817 10.9108 17.7662 10.394 18.2828C9.32733 19.3497 9.32733 21.0856 10.394 22.1524L15.3624 27.1207C15.8791 27.6372 16.5662 27.9217 17.2971 27.9217C18.0279 27.9217 18.7151 27.6372 19.2318 27.1205L29.6038 16.7485C30.6703 15.6814 30.6703 13.9457 29.6036 12.8792C29.0869 12.3625 28.3998 12.0781 27.6689 12.0781C26.938 12.0781 26.2509 12.3626 25.7341 12.8792L17.297 21.3163L14.2633 18.2828ZM26.9241 14.0692C27.1229 13.8704 27.3875 13.7609 27.6689 13.7609C27.9505 13.7609 28.2149 13.8704 28.4139 14.0692C28.8244 14.4798 28.8244 15.148 28.4137 15.5587L18.0419 25.9306C17.8431 26.1294 17.5785 26.2389 17.2971 26.2389C17.0157 26.2389 16.7511 26.1294 16.5522 25.9306L11.5839 20.9625C11.1732 20.5518 11.1732 19.8835 11.5837 19.473C11.7826 19.2741 12.0473 19.1645 12.3287 19.1645C12.6102 19.1645 12.8747 19.274 13.0735 19.4728L16.702 23.1014C16.8599 23.2591 17.0738 23.3478 17.297 23.3478C17.5202 23.3478 17.7341 23.2592 17.8918 23.1014L26.9241 14.0692Z" fill="#008345"/>
</g>
<defs>
<clipPath id="clip0_1_5542">
<rect width="40" height="40" fill="white"/>
</clipPath>
</defs>
</svg>
