<svg width="40" height="40" viewBox="0 0 40 40" fill="none" xmlns="http://www.w3.org/2000/svg">
<g clip-path="url(#clip0_1_5498)">
<mask id="mask0_1_5498" style="mask-type:luminance" maskUnits="userSpaceOnUse" x="0" y="0" width="40" height="40">
<path d="M0 3.8147e-06L40 3.8147e-06L40 40L0 40L0 3.8147e-06Z" fill="white"/>
</mask>
<g mask="url(#mask0_1_5498)">
<path d="M23.6036 4.39157C25.3594 4.79532 27.0049 5.48789 28.4875 6.41633L29.9093 4.99461C30.5322 4.37172 31.5513 4.37172 32.1742 4.99461L35.0054 7.82579C35.6284 8.44868 35.6284 9.46789 35.0054 10.0907L33.5833 11.5128C34.5115 12.9955 35.2039 14.6407 35.6077 16.3964H37.6173C38.4982 16.3964 39.2188 17.1171 39.2188 17.998V22.002C39.2188 22.8827 38.4982 23.6034 37.6173 23.6034L35.6083 23.6034C35.2045 25.3592 34.512 27.0046 33.5835 28.4873L35.0054 29.9091C35.6284 30.532 35.6284 31.5513 35.0054 32.1741L32.1742 35.0053C31.5513 35.6282 30.5322 35.6282 29.9093 35.0053L28.4873 33.5834C27.0047 34.5117 25.3594 35.2045 23.6036 35.6083V37.6172C23.6036 38.498 22.8829 39.2188 22.002 39.2188H17.9981C17.1172 39.2188 16.3966 38.498 16.3966 37.6172V35.6081C14.6408 35.2043 12.9953 34.5119 11.5127 33.5834L10.0909 35.0053C9.46797 35.6282 8.44883 35.6282 7.82594 35.0053L4.99469 32.1741C4.3718 31.5513 4.3718 30.532 4.99469 29.9091L6.41664 28.4873C5.48828 27.0045 4.79547 25.3593 4.39172 23.6034H2.38281C1.50195 23.6034 0.78125 22.8827 0.78125 22.002L0.78125 17.998C0.78125 17.1171 1.50195 16.3964 2.38281 16.3964H4.3918C4.7957 14.6406 5.48812 12.9952 6.41656 11.5126L4.99469 10.0907C4.3718 9.46789 4.3718 8.44868 4.99469 7.82579L7.82594 4.99461C8.44883 4.37172 9.46797 4.37172 10.0909 4.99461L11.5127 6.41649C12.9955 5.48813 14.6407 4.79532 16.3966 4.39157L16.3966 2.38266C16.3966 1.5018 17.1172 0.781099 17.9981 0.781099H22.002C22.8829 0.781099 23.6036 1.5018 23.6036 2.38266V4.39157Z" stroke="#008345" stroke-width="1.875" stroke-miterlimit="22.926" stroke-linecap="round" stroke-linejoin="round"/>
<path d="M25.4565 30.3726C23.8269 31.2318 21.9703 31.7188 20 31.7188C13.5279 31.7188 8.28125 26.4721 8.28125 20C8.28125 18.0298 8.76805 16.1735 9.62711 14.5441M14.5434 9.6275C16.1732 8.76836 18.0296 8.28125 20 8.28125C26.472 8.28125 31.7187 13.528 31.7187 20C31.7187 21.9702 31.2317 23.8264 30.3728 25.456" stroke="#008345" stroke-width="1.875" stroke-miterlimit="22.926" stroke-linecap="round" stroke-linejoin="round"/>
<path d="M13.9034 20.9115C13.178 20.1862 13.178 19.0101 13.9034 18.2848C14.6287 17.5594 15.8048 17.5594 16.5302 18.2848L18.6734 20.428L23.4698 15.6315C24.1952 14.9061 25.3712 14.9061 26.0966 15.6315C26.822 16.3568 26.822 17.5329 26.0966 18.2582L19.9867 24.3681C19.2614 25.0934 18.0853 25.0934 17.36 24.3681L13.9034 20.9115Z" stroke="#008345" stroke-width="1.875" stroke-miterlimit="22.926" stroke-linecap="round" stroke-linejoin="round"/>
<path d="M11.7139 11.7139L11.7154 11.7124" stroke="#008345" stroke-width="1.875" stroke-miterlimit="2.613" stroke-linecap="round" stroke-linejoin="round"/>
<path d="M28.2861 28.2861L28.2872 28.2849" stroke="#008345" stroke-width="1.875" stroke-miterlimit="2.613" stroke-linecap="round" stroke-linejoin="round"/>
</g>
</g>
<defs>
<clipPath id="clip0_1_5498">
<rect width="40" height="40" fill="white"/>
</clipPath>
</defs>
</svg>
