<svg width="366" height="272" viewBox="0 0 366 272" fill="none" xmlns="http://www.w3.org/2000/svg">
<path d="M53.5016 242.989C124.829 280.256 240.487 280.256 311.831 242.989C383.174 205.723 383.166 145.303 311.831 108.036C240.495 70.7701 124.845 70.7701 53.5016 108.036C-17.8418 145.303 -17.8259 205.755 53.5016 242.989Z" fill="#F6F8DD"/>
<path d="M49.4502 180.648C59.5693 180.648 67.7724 176.739 67.7724 171.917C67.7724 167.095 59.5693 163.187 49.4502 163.187C39.3311 163.187 31.128 167.095 31.128 171.917C31.128 176.739 39.3311 180.648 49.4502 180.648Z" fill="#EBEBEB"/>
<path d="M258.539 192.304C272.044 192.304 282.992 187.085 282.992 180.648C282.992 174.21 272.044 168.991 258.539 168.991C245.033 168.991 234.085 174.21 234.085 180.648C234.085 187.085 245.033 192.304 258.539 192.304Z" fill="#EBEBEB"/>
<path d="M331.643 132.689C331.643 132.689 333.533 126.853 339.68 120.634C342.391 117.891 344.161 115.978 343.595 114.343C343.085 112.9 341.362 112.151 338.899 113.315C335.398 114.973 333.038 118.051 331.643 124.23V132.689Z" fill="white"/>
<path d="M331.643 132.689C331.643 132.689 333.533 126.853 339.68 120.634C342.391 117.891 344.161 115.978 343.595 114.343C343.085 112.9 341.362 112.151 338.899 113.315C335.398 114.973 333.038 118.051 331.643 124.23V132.689Z" fill="url(#paint0_linear_1_3220)"/>
<path opacity="0.1" d="M331.643 132.689C331.643 132.689 333.533 126.853 339.68 120.634C342.391 117.891 344.161 115.978 343.595 114.343C343.085 112.9 341.362 112.151 338.899 113.315C335.398 114.973 333.038 118.051 331.643 124.23V132.689Z" fill="black"/>
<path d="M331.253 129.022H331.182C331.105 129.001 331.039 128.951 330.999 128.883C330.959 128.814 330.947 128.732 330.966 128.655C333.159 120.188 338.828 114.941 341.228 113.729C341.3 113.696 341.383 113.691 341.458 113.716C341.534 113.741 341.597 113.794 341.634 113.865C341.668 113.936 341.673 114.017 341.647 114.092C341.622 114.166 341.569 114.228 341.499 114.264C339.179 115.436 333.685 120.538 331.548 128.807C331.529 128.87 331.49 128.925 331.437 128.964C331.384 129.002 331.319 129.023 331.253 129.022Z" fill="white"/>
<path d="M331.643 139.937C331.643 139.937 334.266 134.794 337.432 132.059C340.597 129.325 344.663 126.534 341.219 124.397C337.774 122.26 332.106 126.454 331.651 130.592L331.643 139.937Z" fill="white"/>
<path d="M331.643 139.937C331.643 139.937 334.266 134.794 337.432 132.059C340.597 129.325 344.663 126.534 341.219 124.397C337.774 122.26 332.106 126.454 331.651 130.592L331.643 139.937Z" fill="url(#paint1_linear_1_3220)"/>
<path d="M331.253 136.277H331.189C331.112 136.258 331.046 136.21 331.004 136.143C330.963 136.076 330.949 135.996 330.966 135.918C332.457 129.54 337.807 125.936 339.585 125.338C339.658 125.323 339.734 125.335 339.799 125.373C339.863 125.411 339.912 125.471 339.935 125.543C339.957 125.614 339.953 125.691 339.922 125.759C339.891 125.828 339.836 125.882 339.768 125.912C338.173 126.454 332.959 130.002 331.548 136.054C331.53 136.119 331.492 136.175 331.438 136.216C331.385 136.256 331.32 136.278 331.253 136.277Z" fill="white"/>
<path d="M98.4623 191.627C98.4623 191.627 97.2504 188.932 92.1875 187.791C87.2601 186.683 84.8124 187.791 81.4876 187.217C78.1628 186.643 79.0319 180.432 87.9777 181.078C96.1661 181.668 98.4623 188.11 98.4623 188.11V191.627Z" fill="white"/>
<path d="M98.4623 191.627C98.4623 191.627 97.2504 188.932 92.1875 187.791C87.2601 186.683 84.8124 187.791 81.4876 187.217C78.1628 186.643 79.0319 180.432 87.9777 181.078C96.1661 181.668 98.4623 188.11 98.4623 188.11V191.627Z" fill="url(#paint2_linear_1_3220)"/>
<path d="M98.9483 190.144C98.8903 190.142 98.8339 190.124 98.7859 190.092C98.7378 190.059 98.7001 190.014 98.6772 189.96C97.8799 188.055 94.9299 184.945 90.7759 183.996C85.6173 182.824 82.8745 183.996 82.8506 183.996C82.7793 184.02 82.7015 184.017 82.6325 183.987C82.5635 183.957 82.5082 183.902 82.4774 183.833C82.4465 183.765 82.4423 183.687 82.4656 183.616C82.4889 183.544 82.5381 183.484 82.6034 183.446C82.723 183.398 85.5614 182.163 90.9034 183.382C95.5199 184.435 98.462 187.815 99.2274 189.705C99.243 189.741 99.2513 189.78 99.2517 189.819C99.2522 189.859 99.2447 189.898 99.2299 189.934C99.215 189.97 99.193 190.003 99.1652 190.031C99.1374 190.059 99.1043 190.081 99.0679 190.096L98.9483 190.144Z" fill="white"/>
<path d="M98.4617 188.557C97.4525 186.75 96.1605 185.116 94.6346 183.717C89.8508 179.077 83.4723 177.618 80.283 175.082C76.7748 172.348 81.0245 169.19 85.5373 169.39C88.1206 169.509 90.8474 171.215 92.3463 172.443C97.6245 176.757 98.4936 183.717 98.4936 183.717L98.4617 188.557Z" fill="white"/>
<path d="M98.4617 188.557C97.4525 186.75 96.1605 185.116 94.6346 183.717C89.8508 179.077 83.4723 177.618 80.283 175.082C76.7748 172.348 81.0245 169.19 85.5373 169.39C88.1206 169.509 90.8474 171.215 92.3463 172.443C97.6245 176.757 98.4936 183.717 98.4936 183.717L98.4617 188.557Z" fill="url(#paint3_linear_1_3220)"/>
<path opacity="0.5" d="M98.4617 188.557C97.4525 186.75 96.1605 185.116 94.6346 183.717C89.8508 179.077 83.4723 177.618 80.283 175.082C76.7748 172.348 81.0245 169.19 85.5373 169.39C88.1206 169.509 90.8474 171.215 92.3463 172.443C97.6245 176.757 98.4936 183.717 98.4936 183.717L98.4617 188.557Z" fill="white"/>
<path d="M98.9479 188.087C98.8766 188.086 98.8079 188.059 98.7539 188.013C98.7 187.966 98.6642 187.902 98.6529 187.831C98.0247 184.479 96.5043 181.359 94.2518 178.798C90.4885 174.516 84.0542 172.22 83.9824 172.196C83.9096 172.169 83.8501 172.115 83.8159 172.045C83.7818 171.976 83.7758 171.895 83.799 171.821C83.8115 171.784 83.8315 171.749 83.8577 171.719C83.8838 171.69 83.9157 171.666 83.9515 171.648C83.9872 171.631 84.026 171.622 84.0655 171.62C84.1051 171.618 84.1446 171.624 84.1817 171.638C84.4528 171.726 90.8313 174.03 94.6983 178.399C97.0433 181.041 98.6181 184.276 99.2509 187.752C99.2565 187.791 99.254 187.831 99.2437 187.87C99.2334 187.908 99.2154 187.944 99.1908 187.975C99.1662 188.007 99.1356 188.033 99.1007 188.052C99.0658 188.071 99.0274 188.083 98.9878 188.087H98.9479Z" fill="white"/>
<path d="M207.885 238.11C207.885 238.11 209.241 235.479 214.359 234.61C219.335 233.765 221.718 234.968 225.075 234.61C228.432 234.251 227.89 227.96 218.92 228.128C210.716 228.279 208.076 234.586 208.076 234.586L207.885 238.11Z" fill="white"/>
<path d="M207.885 238.11C207.885 238.11 209.241 235.479 214.359 234.61C219.335 233.765 221.718 234.968 225.075 234.61C228.432 234.251 227.89 227.96 218.92 228.128C210.716 228.279 208.076 234.586 208.076 234.586L207.885 238.11Z" fill="url(#paint4_linear_1_3220)"/>
<path opacity="0.1" d="M207.885 238.11C207.885 238.11 209.241 235.479 214.359 234.61C219.335 233.765 221.718 234.968 225.075 234.61C228.432 234.251 227.89 227.96 218.92 228.128C210.716 228.279 208.076 234.586 208.076 234.586L207.885 238.11Z" fill="black"/>
<path d="M207.494 236.85C207.432 236.847 207.371 236.828 207.319 236.794C207.287 236.772 207.259 236.743 207.238 236.71C207.217 236.677 207.203 236.641 207.196 236.602C207.189 236.563 207.19 236.524 207.199 236.486C207.208 236.448 207.224 236.411 207.247 236.38C209.153 233.653 212.621 231.596 216.536 230.91C221.567 230.009 224.509 231.604 224.636 231.707C224.67 231.726 224.7 231.752 224.725 231.782C224.749 231.813 224.767 231.847 224.778 231.885C224.788 231.922 224.792 231.961 224.787 232C224.783 232.039 224.771 232.076 224.752 232.11C224.733 232.144 224.708 232.174 224.677 232.198C224.647 232.223 224.612 232.241 224.575 232.251C224.537 232.262 224.498 232.265 224.459 232.261C224.421 232.256 224.383 232.245 224.349 232.226C224.349 232.226 221.455 230.671 216.639 231.532C212.884 232.202 209.551 234.155 207.741 236.754C207.709 236.787 207.671 236.813 207.628 236.829C207.586 236.846 207.54 236.853 207.494 236.85Z" fill="white"/>
<path d="M208.244 234.418C209.402 232.962 210.717 231.638 212.167 230.472C217.214 226.102 223.6 225.393 226.981 223.033C230.632 220.489 226.558 217.109 222.037 217.069C219.454 217.069 216.64 218.608 215.069 219.756C211.722 222.263 209.219 225.732 207.893 229.698L208.244 234.418Z" fill="white"/>
<path d="M208.244 234.418C209.402 232.962 210.717 231.638 212.167 230.472C217.214 226.102 223.6 225.393 226.981 223.033C230.632 220.489 226.558 217.109 222.037 217.069C219.454 217.069 216.64 218.608 215.069 219.756C211.722 222.263 209.219 225.732 207.893 229.698L208.244 234.418Z" fill="url(#paint5_linear_1_3220)"/>
<path opacity="0.5" d="M208.244 234.418C209.402 232.962 210.717 231.638 212.167 230.472C217.214 226.102 223.6 225.393 226.981 223.033C230.632 220.489 226.558 217.109 222.037 217.069C219.454 217.069 216.64 218.608 215.069 219.756C211.722 222.263 209.219 225.732 207.893 229.698L208.244 234.418Z" fill="white"/>
<path d="M207.495 234.355H207.383C207.31 234.327 207.25 234.274 207.214 234.204C207.179 234.135 207.171 234.055 207.192 233.98C208.438 230.557 210.407 227.444 212.964 224.851C215.739 221.99 219.342 220.073 223.266 219.373C223.304 219.368 223.343 219.37 223.38 219.38C223.418 219.39 223.453 219.407 223.483 219.431C223.514 219.455 223.539 219.484 223.558 219.518C223.577 219.552 223.589 219.59 223.592 219.628C223.598 219.668 223.596 219.708 223.585 219.746C223.575 219.785 223.557 219.821 223.532 219.852C223.508 219.883 223.477 219.909 223.442 219.928C223.407 219.947 223.369 219.959 223.329 219.963C219.552 220.68 216.083 222.533 213.387 225.273C210.91 227.795 209.006 230.822 207.806 234.147C207.784 234.212 207.742 234.267 207.686 234.305C207.63 234.342 207.562 234.36 207.495 234.355Z" fill="white"/>
<path d="M130.841 192.296V132.06H98.4623V192.304C98.4623 194.696 100.057 197.088 103.246 198.906C109.569 202.558 119.822 202.558 126.145 198.906C129.334 197.08 130.881 194.696 130.889 192.304L130.841 192.296Z" fill="#37474F"/>
<path d="M103.206 139.076C96.875 135.424 96.875 129.508 103.206 125.848C109.536 122.189 119.782 122.197 126.104 125.848C132.427 129.5 132.427 135.416 126.104 139.076C119.782 142.736 109.528 142.72 103.206 139.076Z" fill="#455A64"/>
<path d="M169.71 214.741V170.889H137.323V214.741C137.323 217.133 138.918 219.525 142.107 221.343C148.43 224.994 158.683 224.994 165.006 221.343C168.195 219.525 169.75 217.133 169.75 214.741H169.71Z" fill="#37474F"/>
<path d="M142.068 177.913C135.745 174.261 135.745 168.345 142.068 164.686C148.39 161.026 158.644 161.034 164.967 164.686C171.289 168.337 171.297 174.253 164.967 177.913C158.636 181.573 148.382 181.597 142.068 177.913Z" fill="#455A64"/>
<path d="M208.578 237.177V203.124H176.192V237.185C176.192 239.577 177.786 241.969 180.975 243.795C187.298 247.446 197.552 247.446 203.874 243.795C207.063 241.969 208.61 239.577 208.618 237.185L208.578 237.177Z" fill="#37474F"/>
<path d="M192.385 212.867C201.328 212.867 208.578 208.68 208.578 203.514C208.578 198.349 201.328 194.162 192.385 194.162C183.442 194.162 176.192 198.349 176.192 203.514C176.192 208.68 183.442 212.867 192.385 212.867Z" fill="#455A64"/>
<path d="M96.3894 213.537L88.7432 209.128L92.9769 203.642C93.5191 202.941 93.2639 202.558 92.4108 202.773L82.269 205.388L74.6228 200.971C73.9805 200.645 73.2702 200.475 72.5498 200.475C71.8293 200.475 71.1191 200.645 70.4768 200.971L58.4294 207.908C57.2813 208.57 57.2813 209.638 58.4294 210.3L80.196 222.865C80.8383 223.192 81.5486 223.362 82.269 223.362C82.9895 223.362 83.6997 223.192 84.342 222.865L96.3894 215.905C97.5296 215.267 97.5296 214.199 96.3894 213.537Z" fill="white"/>
<path d="M96.3894 213.537L88.7432 209.128L92.9769 203.642C93.5191 202.941 93.2639 202.558 92.4108 202.773L82.269 205.388L74.6228 200.971C73.9805 200.645 73.2702 200.475 72.5498 200.475C71.8293 200.475 71.1191 200.645 70.4768 200.971L58.4294 207.908C57.2813 208.57 57.2813 209.638 58.4294 210.3L80.196 222.865C80.8383 223.192 81.5486 223.362 82.269 223.362C82.9895 223.362 83.6997 223.192 84.342 222.865L96.3894 215.905C97.5296 215.267 97.5296 214.199 96.3894 213.537Z" fill="url(#paint6_linear_1_3220)"/>
<path d="M84.1586 210.834C84.2832 210.822 84.4088 210.822 84.5334 210.834C84.6572 210.85 84.7766 210.89 84.8842 210.954L85.9765 211.583C86.0502 211.619 86.1073 211.682 86.136 211.759C86.136 211.823 86.136 211.878 86.0243 211.918C85.9982 211.925 85.9707 211.925 85.9446 211.918C85.9053 211.927 85.8643 211.927 85.825 211.918L70.6761 213.114H70.2455C70.1213 213.096 70.002 213.052 69.8947 212.987L68.8024 212.357C68.7287 212.321 68.6716 212.258 68.6429 212.181C68.6429 212.118 68.6429 212.062 68.7546 212.022C68.7807 212.015 68.8082 212.015 68.8343 212.022H68.9539L84.1586 210.834ZM79.2791 209.821C78.955 210.038 78.6167 210.232 78.2665 210.403C77.9837 210.547 77.6872 210.662 77.3815 210.746C77.0609 210.827 76.7314 210.867 76.4008 210.866C75.6628 210.868 74.9381 210.669 74.3039 210.292C74.0012 210.144 73.7304 209.938 73.5065 209.686C73.3612 209.52 73.2793 209.308 73.2753 209.088C73.2783 208.88 73.3545 208.679 73.4906 208.522C73.6492 208.316 73.8437 208.14 74.0647 208.003C74.2159 207.894 74.3729 207.793 74.5351 207.701C74.6866 207.613 74.87 207.517 75.0693 207.421C75.3563 207.277 75.6585 207.165 75.9702 207.087C76.6325 206.922 77.3251 206.922 77.9874 207.087C78.3558 207.187 78.7096 207.334 79.0399 207.525C79.3275 207.675 79.5823 207.881 79.7894 208.131C79.9364 208.296 80.021 208.508 80.0286 208.729C80.0183 208.936 79.943 209.134 79.8133 209.295C79.6672 209.5 79.4865 209.678 79.2791 209.821ZM80.786 216.056C80.4772 216.287 80.1521 216.495 79.8133 216.678C79.5284 216.821 79.2291 216.934 78.9203 217.013C78.6009 217.101 78.2708 217.144 77.9396 217.141C77.5866 217.139 77.2354 217.091 76.8951 216.997C76.5259 216.904 76.1716 216.759 75.8427 216.567C75.5582 216.412 75.3042 216.206 75.0932 215.961C74.9461 215.793 74.8641 215.578 74.862 215.355C74.8683 215.149 74.941 214.95 75.0693 214.789C75.2316 214.585 75.4287 214.413 75.6513 214.278C75.7994 214.164 75.9568 214.063 76.1217 213.975C76.2936 213.871 76.472 213.778 76.6559 213.696C76.9402 213.552 77.2397 213.44 77.5489 213.361C77.8701 213.283 78.199 213.24 78.5296 213.234C79.2649 213.234 79.9867 213.432 80.6186 213.808C80.9227 213.954 81.1939 214.16 81.4159 214.414C81.5566 214.575 81.6342 214.782 81.6342 214.996C81.6342 215.21 81.5566 215.417 81.4159 215.578C81.2345 215.772 81.0215 215.934 80.786 216.056ZM75.7071 208.881C75.5486 208.97 75.4187 209.103 75.3324 209.263C75.3324 209.375 75.3324 209.486 75.5636 209.598C75.7359 209.703 75.9368 209.75 76.1377 209.734C76.3693 209.697 76.593 209.622 76.7994 209.51C77.1016 209.366 77.3922 209.198 77.6685 209.008C77.8308 208.921 77.9639 208.788 78.0512 208.625C78.0512 208.514 78.0114 208.402 77.82 208.291C77.6454 208.185 77.4407 208.14 77.238 208.163C77.009 208.195 76.7876 208.268 76.5842 208.378C76.2796 208.511 75.9863 208.668 75.7071 208.849V208.881ZM77.222 215.116C77.0597 215.203 76.9266 215.336 76.8393 215.498C76.8393 215.602 76.8393 215.713 77.0705 215.825C77.243 215.936 77.4487 215.984 77.6526 215.961C77.8807 215.925 78.1014 215.852 78.3064 215.745C78.612 215.602 78.9053 215.434 79.1834 215.243C79.3439 215.156 79.4745 215.023 79.5581 214.86C79.5581 214.749 79.5581 214.637 79.3269 214.525C79.1546 214.421 78.9537 214.374 78.7529 214.39C78.5236 214.426 78.3023 214.501 78.0991 214.613C77.7945 214.746 77.5012 214.903 77.222 215.084V215.116Z" fill="white"/>
<path d="M138.503 237.839L130.841 233.422L135.075 227.944C135.609 227.243 135.354 226.852 134.5 227.075L124.359 229.682L116.712 225.273C116.072 224.947 115.363 224.777 114.643 224.777C113.924 224.777 113.215 224.947 112.574 225.273L100.543 232.226C99.4028 232.888 99.4028 233.964 100.543 234.618L122.31 247.191C122.953 247.514 123.663 247.682 124.383 247.682C125.102 247.682 125.812 247.514 126.456 247.191L138.503 240.231C139.651 239.569 139.651 238.501 138.503 237.839Z" fill="white"/>
<path d="M138.503 237.839L130.841 233.422L135.075 227.944C135.609 227.243 135.354 226.852 134.5 227.075L124.359 229.682L116.712 225.273C116.072 224.947 115.363 224.777 114.643 224.777C113.924 224.777 113.215 224.947 112.574 225.273L100.543 232.226C99.4028 232.888 99.4028 233.964 100.543 234.618L122.31 247.191C122.953 247.514 123.663 247.682 124.383 247.682C125.102 247.682 125.812 247.514 126.456 247.191L138.503 240.231C139.651 239.569 139.651 238.501 138.503 237.839Z" fill="url(#paint7_linear_1_3220)"/>
<path d="M126.273 235.136H126.656C126.78 235.156 126.899 235.199 127.007 235.263L128.091 235.893C128.187 235.949 128.242 236.005 128.25 236.069C128.258 236.132 128.25 236.18 128.147 236.228C128.12 236.234 128.093 236.234 128.067 236.228H127.947L112.798 237.424C112.671 237.436 112.543 237.436 112.416 237.424C112.291 237.407 112.172 237.363 112.065 237.297L110.981 236.675C110.885 236.619 110.829 236.555 110.821 236.499C110.819 236.464 110.827 236.429 110.846 236.399C110.864 236.369 110.892 236.345 110.925 236.332H111.005H111.124L126.273 235.136ZM121.393 234.123C121.073 234.341 120.737 234.536 120.389 234.705C120.104 234.848 119.805 234.961 119.496 235.04C119.176 235.128 118.846 235.171 118.515 235.168C118.162 235.166 117.811 235.118 117.471 235.024C117.101 234.931 116.747 234.786 116.418 234.594C116.132 234.439 115.875 234.233 115.661 233.988C115.516 233.827 115.436 233.618 115.436 233.402C115.436 233.185 115.516 232.977 115.661 232.816C115.822 232.614 116.016 232.442 116.235 232.305C116.385 232.195 116.543 232.094 116.705 232.002C116.881 231.9 117.062 231.806 117.247 231.723C117.532 231.579 117.831 231.467 118.14 231.388C118.656 231.257 119.193 231.229 119.72 231.306C120.247 231.382 120.753 231.562 121.21 231.835C121.498 231.987 121.755 232.193 121.968 232.441C122.114 232.606 122.196 232.818 122.199 233.039C122.193 233.246 122.117 233.446 121.984 233.605C121.82 233.812 121.62 233.988 121.393 234.123ZM122.908 240.358C122.585 240.575 122.246 240.77 121.896 240.94C121.614 241.085 121.317 241.197 121.011 241.275C120.69 241.356 120.361 241.396 120.03 241.395C119.292 241.396 118.567 241.198 117.933 240.821C117.645 240.671 117.388 240.468 117.176 240.223C117.029 240.055 116.947 239.84 116.945 239.617C116.954 239.41 117.029 239.211 117.16 239.051C117.321 238.847 117.515 238.672 117.734 238.532C117.893 238.421 118.053 238.325 118.204 238.229C118.356 238.134 118.539 238.046 118.738 237.95C119.025 237.806 119.328 237.693 119.639 237.615C119.961 237.542 120.29 237.502 120.62 237.496C120.97 237.495 121.319 237.54 121.657 237.631C122.027 237.726 122.381 237.874 122.709 238.07C122.997 238.222 123.254 238.428 123.467 238.676C123.61 238.836 123.69 239.043 123.69 239.258C123.69 239.473 123.61 239.68 123.467 239.84C123.311 240.042 123.122 240.218 122.908 240.358ZM117.83 233.182C117.667 233.27 117.534 233.403 117.447 233.565C117.447 233.669 117.487 233.78 117.678 233.892C117.85 234.003 118.056 234.051 118.26 234.028C118.488 233.99 118.708 233.918 118.914 233.812C119.221 233.67 119.515 233.499 119.791 233.302C119.95 233.217 120.081 233.087 120.166 232.927C120.166 232.816 120.126 232.704 119.934 232.592C119.764 232.484 119.561 232.436 119.36 232.457C119.128 232.492 118.905 232.568 118.699 232.68C118.397 232.813 118.106 232.97 117.83 233.15V233.182ZM119.336 239.417C119.18 239.507 119.051 239.636 118.962 239.792C118.962 239.904 119.002 240.015 119.193 240.127C119.364 240.235 119.566 240.283 119.767 240.263C119.998 240.227 120.221 240.154 120.429 240.047C120.73 239.898 121.021 239.728 121.298 239.537C121.457 239.45 121.59 239.32 121.681 239.162C121.72 239.051 121.681 238.939 121.449 238.827C121.275 238.72 121.071 238.672 120.867 238.692C120.639 238.729 120.419 238.802 120.213 238.907C119.911 239.047 119.618 239.207 119.336 239.385V239.417Z" fill="white"/>
<path d="M180.585 262.125L172.939 257.716L177.181 252.222C177.715 251.529 177.46 251.138 176.607 251.361L166.465 253.969L158.819 249.559C158.177 249.233 157.466 249.063 156.746 249.063C156.025 249.063 155.315 249.233 154.673 249.559L142.625 256.544C141.485 257.206 141.485 258.282 142.625 258.936L164.392 271.509C165.035 271.832 165.745 272 166.465 272C167.185 272 167.895 271.832 168.538 271.509L180.585 264.517C181.734 263.879 181.734 262.811 180.585 262.125Z" fill="white"/>
<path d="M180.585 262.125L172.939 257.716L177.181 252.222C177.715 251.529 177.46 251.138 176.607 251.361L166.465 253.969L158.819 249.559C158.177 249.233 157.466 249.063 156.746 249.063C156.025 249.063 155.315 249.233 154.673 249.559L142.625 256.544C141.485 257.206 141.485 258.282 142.625 258.936L164.392 271.509C165.035 271.832 165.745 272 166.465 272C167.185 272 167.895 271.832 168.538 271.509L180.585 264.517C181.734 263.879 181.734 262.811 180.585 262.125Z" fill="url(#paint8_linear_1_3220)"/>
<path d="M168.355 259.446H168.729C168.854 259.465 168.973 259.508 169.08 259.574L170.172 260.203C170.268 260.259 170.324 260.315 170.332 260.379C170.34 260.443 170.332 260.49 170.228 260.538H170.149H170.029L154.88 261.734C154.755 261.746 154.63 261.746 154.505 261.734C154.38 261.718 154.261 261.674 154.154 261.607L153.07 260.985C152.974 260.929 152.919 260.865 152.911 260.809C152.908 260.774 152.917 260.739 152.935 260.709C152.954 260.679 152.982 260.655 153.014 260.642H153.094C153.133 260.633 153.174 260.633 153.214 260.642L168.355 259.446ZM163.475 258.433C163.153 258.653 162.815 258.848 162.462 259.015C162.181 259.16 161.884 259.272 161.577 259.35C161.258 259.438 160.928 259.481 160.597 259.478C160.241 259.476 159.887 259.428 159.544 259.334C159.177 259.241 158.826 259.096 158.5 258.904C158.213 258.749 157.957 258.543 157.742 258.298C157.595 258.13 157.513 257.915 157.511 257.692C157.52 257.485 157.596 257.287 157.726 257.126C157.889 256.924 158.083 256.749 158.3 256.608C158.46 256.496 158.619 256.4 158.771 256.313C158.922 256.225 159.106 256.129 159.305 256.026C159.892 255.738 160.534 255.583 161.187 255.571C161.922 255.573 162.643 255.772 163.276 256.145C163.564 256.298 163.821 256.503 164.033 256.751C164.177 256.918 164.259 257.129 164.264 257.349C164.254 257.556 164.179 257.754 164.049 257.915C163.89 258.121 163.696 258.297 163.475 258.433ZM164.982 264.668C164.66 264.884 164.324 265.078 163.977 265.25C163.695 265.394 163.399 265.506 163.092 265.585C162.425 265.755 161.726 265.755 161.059 265.585C160.692 265.489 160.341 265.341 160.015 265.147C159.711 265.001 159.439 264.795 159.217 264.541C159.07 264.377 158.987 264.164 158.986 263.943C158.991 263.736 159.064 263.537 159.193 263.377C159.359 263.175 159.556 263 159.776 262.858C159.927 262.749 160.084 262.648 160.246 262.556C160.397 262.468 160.581 262.372 160.78 262.276C161.362 261.977 162.007 261.821 162.662 261.822C163.012 261.821 163.36 261.866 163.698 261.958C164.065 262.054 164.417 262.202 164.743 262.396C165.047 262.542 165.318 262.748 165.54 263.002C165.688 263.166 165.77 263.379 165.771 263.6C165.767 263.806 165.694 264.006 165.564 264.166C165.401 264.366 165.204 264.536 164.982 264.668ZM159.903 257.493C159.745 257.582 159.615 257.715 159.528 257.875C159.528 257.979 159.568 258.091 159.76 258.202C159.931 258.309 160.133 258.357 160.334 258.338C160.564 258.302 160.788 258.229 160.995 258.122C161.302 257.978 161.595 257.807 161.872 257.612C162.032 257.527 162.162 257.397 162.247 257.237C162.287 257.126 162.247 257.014 162.016 256.903C161.842 256.795 161.638 256.747 161.434 256.767C161.205 256.804 160.984 256.879 160.78 256.99C160.476 257.125 160.183 257.282 159.903 257.461V257.493ZM161.418 263.728C161.26 263.817 161.128 263.946 161.035 264.102C161.035 264.214 161.035 264.326 161.274 264.437C161.445 264.545 161.647 264.593 161.849 264.573C162.077 264.537 162.297 264.464 162.502 264.357C162.807 264.209 163.1 264.038 163.379 263.847C163.539 263.76 163.671 263.63 163.762 263.472C163.805 263.361 163.725 263.249 163.523 263.138C163.352 263.029 163.15 262.981 162.949 263.002C162.721 263.038 162.5 263.111 162.295 263.217C161.991 263.363 161.698 263.531 161.418 263.72V263.728Z" fill="white"/>
<path d="M289.545 130.592L276.589 123.114V85.7117L289.545 93.1904V130.592Z" fill="#37474F"/>
<path d="M289.546 130.592L302.503 123.114V85.7117L289.546 93.1904V130.592Z" fill="#455A64"/>
<path d="M276.589 85.7119L289.545 93.1907L302.501 85.7119L289.545 78.2332L276.589 85.7119Z" fill="#455A64"/>
<path d="M260.397 113.761L247.44 106.282V31.4866L260.397 38.9654V113.761Z" fill="#37474F"/>
<path d="M260.396 113.761L273.353 106.282V31.4866L260.396 38.9654V113.761Z" fill="#455A64"/>
<path d="M247.44 31.4866L260.397 38.9654L273.353 31.4866L260.397 24.0078L247.44 31.4866Z" fill="#455A64"/>
<path d="M231.246 96.9299L218.29 89.4511V63.2754L231.246 70.7542V96.9299Z" fill="#37474F"/>
<path d="M231.247 96.9299L244.204 89.4511V63.2754L231.247 70.7542V96.9299Z" fill="#455A64"/>
<path d="M218.29 63.2754L231.246 70.7542L244.203 63.2754L231.246 55.7966L218.29 63.2754Z" fill="#455A64"/>
<path d="M318.696 147.424L305.74 139.937V68.8884L318.688 76.3672L318.696 147.424Z" fill="#37474F"/>
<path d="M318.688 147.424L331.644 139.937V68.8884L318.688 76.3672V147.424Z" fill="#455A64"/>
<path d="M305.74 68.8884L318.688 76.3672L331.644 68.8884L318.696 61.4016L305.74 68.8884Z" fill="#455A64"/>
<g opacity="0.3">
<path d="M228.112 141.994L227.976 59.1694C227.948 58.6899 227.808 58.2238 227.567 57.8083C227.326 57.3929 226.991 57.0398 226.589 56.7774L128.87 0.606836C128.073 0.168314 127.491 0.527105 127.491 1.40415L127.651 84.197C127.677 84.6769 127.816 85.1437 128.057 85.5595C128.298 85.9752 128.634 86.3279 129.038 86.5889L226.764 142.799C227.506 143.238 228.112 142.879 228.112 141.994Z" fill="white"/>
</g>
<path d="M227.363 143.381C227.082 143.37 226.807 143.288 226.566 143.142L128.84 86.9317C128.373 86.638 127.984 86.236 127.707 85.7599C127.429 85.2837 127.271 84.7475 127.245 84.1969L127.093 1.40403C127.06 1.16122 127.1 0.913976 127.207 0.693726C127.315 0.473476 127.485 0.29017 127.697 0.167102C127.909 0.0440345 128.153 -0.0132366 128.398 0.00257492C128.642 0.0183864 128.876 0.106562 129.071 0.255896L226.797 56.4185C227.263 56.7132 227.651 57.1154 227.928 57.5914C228.206 58.0673 228.365 58.603 228.392 59.1533L228.527 141.978C228.547 142.22 228.501 142.462 228.396 142.681C228.291 142.899 228.13 143.086 227.929 143.222C227.758 143.325 227.563 143.38 227.363 143.381ZM128.258 0.782124C128.205 0.768263 128.15 0.768263 128.098 0.782124C128.02 0.849164 127.961 0.934653 127.924 1.03077C127.888 1.12688 127.877 1.23055 127.891 1.33227L128.026 84.157C128.049 84.576 128.172 84.9835 128.384 85.3455C128.596 85.7076 128.892 86.0135 129.246 86.238L226.973 142.448C227.212 142.584 227.419 142.624 227.547 142.544C227.674 142.464 227.754 142.273 227.754 141.994L227.619 59.1693C227.593 58.761 227.473 58.3642 227.268 58.0101C227.064 57.6559 226.78 57.3541 226.438 57.1281L128.672 0.917666C128.548 0.837973 128.405 0.791324 128.258 0.782124Z" fill="white"/>
<path d="M227.363 143.381C227.082 143.37 226.807 143.288 226.566 143.142L128.84 86.9317C128.373 86.638 127.984 86.236 127.707 85.7599C127.429 85.2837 127.271 84.7475 127.245 84.1969L127.093 1.40403C127.06 1.16122 127.1 0.913976 127.207 0.693726C127.315 0.473476 127.485 0.29017 127.697 0.167102C127.909 0.0440345 128.153 -0.0132366 128.398 0.00257492C128.642 0.0183864 128.876 0.106562 129.071 0.255896L226.797 56.4185C227.263 56.7132 227.651 57.1154 227.928 57.5914C228.206 58.0673 228.365 58.603 228.392 59.1533L228.527 141.978C228.547 142.22 228.501 142.462 228.396 142.681C228.291 142.899 228.13 143.086 227.929 143.222C227.758 143.325 227.563 143.38 227.363 143.381ZM128.258 0.782124C128.205 0.768263 128.15 0.768263 128.098 0.782124C128.02 0.849164 127.961 0.934653 127.924 1.03077C127.888 1.12688 127.877 1.23055 127.891 1.33227L128.026 84.157C128.049 84.576 128.172 84.9835 128.384 85.3455C128.596 85.7076 128.892 86.0135 129.246 86.238L226.973 142.448C227.212 142.584 227.419 142.624 227.547 142.544C227.674 142.464 227.754 142.273 227.754 141.994L227.619 59.1693C227.593 58.761 227.473 58.3642 227.268 58.0101C227.064 57.6559 226.78 57.3541 226.438 57.1281L128.672 0.917666C128.548 0.837973 128.405 0.791324 128.258 0.782124Z" fill="url(#paint9_linear_1_3220)"/>
<path d="M218.832 123.72C216.241 121.878 214.726 120.212 213.697 107.407L213.609 106.314C212.645 94.2831 212.015 86.3418 206.529 83.0649C203.898 81.4703 201.793 83.0649 199.569 84.795C197.552 86.3339 195.479 87.9125 193.142 86.581C189.036 84.1891 188.359 79.4531 187.083 70.8102C186.923 69.7418 186.764 68.6176 186.581 67.4376C186.302 65.5958 186.062 63.8816 185.839 62.271C184.579 53.1976 183.814 47.7121 179.174 44.9135C178.717 44.5897 178.19 44.377 177.637 44.2926C177.083 44.2082 176.517 44.2542 175.984 44.4272C172.468 45.655 169.717 53.0939 166.807 60.9793C166.584 61.5614 166.369 62.1753 166.138 62.7892C164.025 68.6017 161.633 75.1954 158.324 76.4153C157.856 76.5866 157.355 76.6497 156.86 76.6C156.364 76.5503 155.886 76.389 155.462 76.1283C152.169 74.2626 151.579 69.1598 151.013 64.2164C150.446 59.2731 149.896 54.3059 146.787 52.4322C146.523 52.2617 146.222 52.1587 145.909 52.1323C145.596 52.1059 145.281 52.1568 144.993 52.2807C141.134 53.7796 137.713 65.1971 137.681 65.3087L136.884 65.0855C137.028 64.5991 140.448 53.1816 144.666 51.5312C145.069 51.3644 145.506 51.2969 145.94 51.3343C146.374 51.3718 146.793 51.5132 147.162 51.7465C150.598 53.8035 151.196 59.0419 151.778 64.1048C152.36 69.1677 152.886 73.7523 155.836 75.4187C156.158 75.623 156.522 75.7502 156.901 75.7903C157.28 75.8304 157.664 75.7824 158.021 75.6499C160.979 74.5576 163.411 67.8761 165.364 62.5022C165.595 61.8803 165.811 61.2744 166.034 60.6843C169.143 52.2727 171.83 45.0092 175.697 43.6538C176.338 43.446 177.018 43.389 177.685 43.4872C178.352 43.5853 178.987 43.8361 179.54 44.2199C184.5 47.2177 185.289 52.8388 186.581 62.1514C186.804 63.746 187.043 65.4682 187.322 67.302C187.505 68.49 187.665 69.6142 187.824 70.6747C189.044 79.0783 189.722 83.7027 193.493 85.8714C195.367 86.9478 197.065 85.6482 199.035 84.1492C201.267 82.443 203.818 80.5215 206.888 82.3632C212.716 85.8555 213.37 93.9641 214.351 106.235L214.439 107.327C215.491 120.387 217.07 121.503 219.223 123.058L218.832 123.72Z" fill="white"/>
<path d="M218.832 123.72C216.241 121.878 214.726 120.212 213.697 107.407L213.609 106.314C212.645 94.2831 212.015 86.3418 206.529 83.0649C203.898 81.4703 201.793 83.0649 199.569 84.795C197.552 86.3339 195.479 87.9125 193.142 86.581C189.036 84.1891 188.359 79.4531 187.083 70.8102C186.923 69.7418 186.764 68.6176 186.581 67.4376C186.302 65.5958 186.062 63.8816 185.839 62.271C184.579 53.1976 183.814 47.7121 179.174 44.9135C178.717 44.5897 178.19 44.377 177.637 44.2926C177.083 44.2082 176.517 44.2542 175.984 44.4272C172.468 45.655 169.717 53.0939 166.807 60.9793C166.584 61.5614 166.369 62.1753 166.138 62.7892C164.025 68.6017 161.633 75.1954 158.324 76.4153C157.856 76.5866 157.355 76.6497 156.86 76.6C156.364 76.5503 155.886 76.389 155.462 76.1283C152.169 74.2626 151.579 69.1598 151.013 64.2164C150.446 59.2731 149.896 54.3059 146.787 52.4322C146.523 52.2617 146.222 52.1587 145.909 52.1323C145.596 52.1059 145.281 52.1568 144.993 52.2807C141.134 53.7796 137.713 65.1971 137.681 65.3087L136.884 65.0855C137.028 64.5991 140.448 53.1816 144.666 51.5312C145.069 51.3644 145.506 51.2969 145.94 51.3343C146.374 51.3718 146.793 51.5132 147.162 51.7465C150.598 53.8035 151.196 59.0419 151.778 64.1048C152.36 69.1677 152.886 73.7523 155.836 75.4187C156.158 75.623 156.522 75.7502 156.901 75.7903C157.28 75.8304 157.664 75.7824 158.021 75.6499C160.979 74.5576 163.411 67.8761 165.364 62.5022C165.595 61.8803 165.811 61.2744 166.034 60.6843C169.143 52.2727 171.83 45.0092 175.697 43.6538C176.338 43.446 177.018 43.389 177.685 43.4872C178.352 43.5853 178.987 43.8361 179.54 44.2199C184.5 47.2177 185.289 52.8388 186.581 62.1514C186.804 63.746 187.043 65.4682 187.322 67.302C187.505 68.49 187.665 69.6142 187.824 70.6747C189.044 79.0783 189.722 83.7027 193.493 85.8714C195.367 86.9478 197.065 85.6482 199.035 84.1492C201.267 82.443 203.818 80.5215 206.888 82.3632C212.716 85.8555 213.37 93.9641 214.351 106.235L214.439 107.327C215.491 120.387 217.07 121.503 219.223 123.058L218.832 123.72Z" fill="url(#paint10_linear_1_3220)"/>
<g opacity="0.4">
<path d="M218.832 123.719C216.241 121.878 214.726 120.211 213.697 107.406L213.609 106.314C212.645 94.2826 212.015 86.3413 206.529 83.0644C203.898 81.4698 201.793 83.0644 199.569 84.7946C197.552 86.3334 195.479 87.912 193.142 86.5805C189.036 84.1886 188.359 79.4526 187.083 70.8097C186.923 69.7413 186.764 68.6171 186.581 67.4371C186.302 65.5953 186.062 63.8811 185.839 62.2705C184.579 53.1971 183.814 47.7116 179.174 44.913C178.717 44.5892 178.19 44.3766 177.637 44.2921C177.083 44.2077 176.517 44.2538 175.984 44.4267C172.468 45.6545 169.717 53.0934 166.807 60.9789C166.584 61.5609 166.369 62.1748 166.138 62.7888C164.025 68.6012 161.633 75.1949 158.324 76.4148C157.856 76.5861 157.355 76.6492 156.86 76.5995C156.364 76.5498 155.886 76.3885 155.462 76.1278C152.169 74.2621 151.579 69.1593 151.013 64.2159C150.446 59.2726 149.896 54.3054 146.787 52.4317C146.523 52.2612 146.222 52.1582 145.909 52.1318C145.596 52.1054 145.281 52.1563 144.993 52.2802C141.134 53.7791 137.713 65.1966 137.681 65.3083L136.884 65.085C137.028 64.5986 140.448 53.1811 144.666 51.5307C145.069 51.3639 145.506 51.2964 145.94 51.3338C146.374 51.3713 146.793 51.5127 147.162 51.746C150.598 53.8031 151.196 59.0414 151.778 64.1043C152.36 69.1672 152.886 73.7518 155.836 75.4182C156.158 75.6225 156.522 75.7497 156.901 75.7898C157.28 75.8299 157.664 75.7819 158.021 75.6494C160.979 74.5571 163.411 67.8756 165.364 62.5017C165.595 61.8798 165.811 61.2739 166.034 60.6839C169.143 52.2722 171.83 45.0087 175.697 43.6533C176.338 43.4455 177.018 43.3885 177.685 43.4867C178.352 43.5849 178.987 43.8356 179.54 44.2194C184.5 47.2173 185.289 52.8383 186.581 62.1509C186.804 63.7455 187.043 65.4677 187.322 67.3015C187.505 68.4895 187.665 69.6138 187.824 70.6742C189.044 79.0778 189.722 83.7022 193.493 85.8709C195.367 86.9473 197.065 85.6477 199.035 84.1487C201.267 82.4425 203.818 80.521 206.888 82.3628C212.716 85.855 213.37 93.9636 214.351 106.234L214.439 107.327C215.491 120.387 217.07 121.503 219.223 123.058L218.832 123.719Z" fill="black"/>
</g>
<path d="M205.349 79.5405C205.942 79.929 206.436 80.4507 206.792 81.0639C207.148 81.6771 207.356 82.365 207.399 83.0726C207.399 84.3722 206.482 84.8984 205.357 84.2526C204.762 83.8669 204.266 83.3459 203.91 82.7321C203.554 82.1183 203.348 81.429 203.308 80.7205C203.308 79.4528 204.193 78.9266 205.349 79.5405Z" fill="white"/>
<path d="M205.349 79.5405C205.942 79.929 206.436 80.4507 206.792 81.0639C207.148 81.6771 207.356 82.365 207.399 83.0726C207.399 84.3722 206.482 84.8984 205.357 84.2526C204.762 83.8669 204.266 83.3459 203.91 82.7321C203.554 82.1183 203.348 81.429 203.308 80.7205C203.308 79.4528 204.193 78.9266 205.349 79.5405Z" fill="url(#paint11_linear_1_3220)"/>
<g opacity="0.2">
<path d="M205.349 79.5407C205.942 79.9293 206.436 80.451 206.792 81.0642C207.148 81.6774 207.356 82.3652 207.399 83.0728C207.399 84.3724 206.482 84.8987 205.357 84.2529C204.762 83.8671 204.266 83.3461 203.91 82.7323C203.554 82.1185 203.348 81.4293 203.308 80.7208C203.308 79.453 204.193 78.9268 205.349 79.5407Z" fill="black"/>
</g>
<path d="M179.381 42.2184C179.975 42.6055 180.469 43.127 180.824 43.7407C181.178 44.3543 181.383 45.0429 181.422 45.7505C181.422 47.0501 180.513 47.5764 179.389 46.9305C178.793 46.5453 178.297 46.0244 177.94 45.4105C177.584 44.7966 177.379 44.1071 177.34 43.3985C177.34 42.0669 178.249 41.5726 179.381 42.2184Z" fill="white"/>
<path d="M179.381 42.2184C179.975 42.6055 180.469 43.127 180.824 43.7407C181.178 44.3543 181.383 45.0429 181.422 45.7505C181.422 47.0501 180.513 47.5764 179.389 46.9305C178.793 46.5453 178.297 46.0244 177.94 45.4105C177.584 44.7966 177.379 44.1071 177.34 43.3985C177.34 42.0669 178.249 41.5726 179.381 42.2184Z" fill="url(#paint12_linear_1_3220)"/>
<g opacity="0.5">
<path d="M179.381 42.2184C179.974 42.6055 180.468 43.127 180.823 43.7407C181.178 44.3543 181.383 45.0429 181.422 45.7505C181.422 47.0501 180.513 47.5764 179.389 46.9305C178.793 46.5453 178.296 46.0244 177.94 45.4105C177.584 44.7966 177.378 44.1071 177.34 43.3985C177.34 42.0669 178.248 41.5726 179.381 42.2184Z" fill="white"/>
</g>
<path d="M147.002 49.753C147.598 50.1365 148.094 50.6559 148.45 51.2686C148.807 51.8812 149.012 52.5695 149.051 53.2771C149.051 54.5847 148.142 55.1109 147.01 54.4651C146.417 54.0776 145.923 53.5559 145.568 52.9424C145.214 52.3289 145.008 51.6405 144.969 50.933C144.961 49.6334 145.878 49.0992 147.002 49.753Z" fill="white"/>
<path d="M147.002 49.753C147.598 50.1365 148.094 50.6559 148.45 51.2686C148.807 51.8812 149.012 52.5695 149.051 53.2771C149.051 54.5847 148.142 55.1109 147.01 54.4651C146.417 54.0776 145.923 53.5559 145.568 52.9424C145.214 52.3289 145.008 51.6405 144.969 50.933C144.961 49.6334 145.878 49.0992 147.002 49.753Z" fill="url(#paint13_linear_1_3220)"/>
<path opacity="0.65" d="M176.184 138.342V55.5176C176.157 55.0387 176.019 54.5728 175.779 54.1573C175.539 53.7419 175.206 53.3885 174.804 53.1257L90.122 4.23452C89.3246 3.796 88.7426 4.15479 88.7426 5.03183V87.8566C88.7685 88.3356 88.9069 88.8018 89.1465 89.2173C89.3861 89.6329 89.7203 89.9862 90.122 90.2485L174.804 139.14C175.57 139.586 176.184 139.227 176.184 138.342Z" fill="white"/>
<path d="M175.426 139.73C175.144 139.719 174.87 139.636 174.629 139.491L89.9225 90.5993C89.4572 90.3025 89.0697 89.8986 88.7923 89.4215C88.5149 88.9444 88.3557 88.4078 88.3279 87.8566V5.03186C88.2964 4.7897 88.3374 4.54364 88.4456 4.32474C88.5539 4.10585 88.7245 3.92393 88.9361 3.80195C89.1476 3.67997 89.3906 3.62339 89.6343 3.63937C89.8779 3.65534 90.1114 3.74315 90.3052 3.89171L174.988 52.7829C175.453 53.078 175.84 53.4803 176.118 53.9562C176.395 54.432 176.555 54.9675 176.582 55.5176V138.342C176.601 138.584 176.556 138.826 176.451 139.045C176.346 139.263 176.185 139.45 175.984 139.586C175.814 139.682 175.622 139.732 175.426 139.73ZM89.5079 4.44982C89.4556 4.43632 89.4007 4.43632 89.3484 4.44982C89.2706 4.51686 89.2109 4.60235 89.1747 4.69847C89.1384 4.79458 89.1269 4.89825 89.1411 4.99997V87.8566C89.1661 88.2661 89.2857 88.6642 89.4904 89.0198C89.6952 89.3753 89.9795 89.6785 90.3212 89.9057L175.004 138.797C175.085 138.86 175.181 138.902 175.282 138.919C175.384 138.936 175.488 138.927 175.586 138.893C175.713 138.821 175.785 138.621 175.785 138.342V55.5176C175.761 55.1091 175.641 54.7118 175.436 54.3575C175.232 54.0032 174.947 53.7015 174.605 53.4765L89.9225 4.59334C89.8004 4.50767 89.6568 4.45795 89.5079 4.44982Z" fill="white"/>
<path d="M175.426 139.73C175.144 139.719 174.87 139.636 174.629 139.491L89.9225 90.5993C89.4572 90.3025 89.0697 89.8986 88.7923 89.4215C88.5149 88.9444 88.3557 88.4078 88.3279 87.8566V5.03186C88.2964 4.7897 88.3374 4.54364 88.4456 4.32474C88.5539 4.10585 88.7245 3.92393 88.9361 3.80195C89.1476 3.67997 89.3906 3.62339 89.6343 3.63937C89.8779 3.65534 90.1114 3.74315 90.3052 3.89171L174.988 52.7829C175.453 53.078 175.84 53.4803 176.118 53.9562C176.395 54.432 176.555 54.9675 176.582 55.5176V138.342C176.601 138.584 176.556 138.826 176.451 139.045C176.346 139.263 176.185 139.45 175.984 139.586C175.814 139.682 175.622 139.732 175.426 139.73ZM89.5079 4.44982C89.4556 4.43632 89.4007 4.43632 89.3484 4.44982C89.2706 4.51686 89.2109 4.60235 89.1747 4.69847C89.1384 4.79458 89.1269 4.89825 89.1411 4.99997V87.8566C89.1661 88.2661 89.2857 88.6642 89.4904 89.0198C89.6952 89.3753 89.9795 89.6785 90.3212 89.9057L175.004 138.797C175.085 138.86 175.181 138.902 175.282 138.919C175.384 138.936 175.488 138.927 175.586 138.893C175.713 138.821 175.785 138.621 175.785 138.342V55.5176C175.761 55.1091 175.641 54.7118 175.436 54.3575C175.232 54.0032 174.947 53.7015 174.605 53.4765L89.9225 4.59334C89.8004 4.50767 89.6568 4.45795 89.5079 4.44982Z" fill="url(#paint14_linear_1_3220)"/>
<path d="M161.616 119.518V65.0136C161.603 64.7738 161.533 64.5406 161.412 64.3329C161.292 64.1251 161.124 63.9486 160.923 63.8177L152.591 59.0338C152.208 58.8105 151.897 58.9859 151.897 59.4324V113.905C151.909 114.145 151.978 114.379 152.099 114.587C152.219 114.795 152.388 114.971 152.591 115.101L160.923 119.885C161.305 120.14 161.616 119.956 161.616 119.518Z" fill="white"/>
<path d="M161.616 119.518V65.0136C161.603 64.7738 161.533 64.5406 161.412 64.3329C161.292 64.1251 161.124 63.9486 160.923 63.8177L152.591 59.0338C152.208 58.8105 151.897 58.9859 151.897 59.4324V113.905C151.909 114.145 151.978 114.379 152.099 114.587C152.219 114.795 152.388 114.971 152.591 115.101L160.923 119.885C161.305 120.14 161.616 119.956 161.616 119.518Z" fill="url(#paint15_linear_1_3220)"/>
<g opacity="0.3">
<path d="M161.616 119.518V65.0139C161.603 64.7741 161.533 64.5409 161.412 64.3331C161.292 64.1254 161.124 63.9489 160.923 63.8179L152.591 59.034C152.208 58.8108 151.897 58.9862 151.897 59.4327V113.905C151.909 114.145 151.978 114.379 152.099 114.587C152.219 114.795 152.388 114.971 152.591 115.101L160.923 119.885C161.305 120.14 161.616 119.957 161.616 119.518Z" fill="black"/>
</g>
<path d="M145.424 110.165V81.8447C145.41 81.6049 145.34 81.3717 145.22 81.164C145.099 80.9562 144.932 80.7797 144.73 80.6487L136.39 75.8649C136.016 75.6496 135.705 75.8649 135.705 76.2635V104.592C135.719 104.831 135.788 105.063 135.907 105.271C136.026 105.478 136.191 105.655 136.39 105.788L144.73 110.572C145.113 110.787 145.424 110.636 145.424 110.165Z" fill="white"/>
<path d="M145.424 110.165V81.8447C145.41 81.6049 145.34 81.3717 145.22 81.164C145.099 80.9562 144.932 80.7797 144.73 80.6487L136.39 75.8649C136.016 75.6496 135.705 75.8649 135.705 76.2635V104.592C135.719 104.831 135.788 105.063 135.907 105.271C136.026 105.478 136.191 105.655 136.39 105.788L144.73 110.572C145.113 110.787 145.424 110.636 145.424 110.165Z" fill="url(#paint16_linear_1_3220)"/>
<g opacity="0.2">
<path d="M145.423 110.165V81.8447C145.409 81.6049 145.339 81.3717 145.219 81.164C145.098 80.9562 144.931 80.7797 144.729 80.6487L136.389 75.8649C136.015 75.6496 135.704 75.8649 135.704 76.2635V104.592C135.718 104.831 135.787 105.063 135.906 105.271C136.025 105.478 136.19 105.655 136.389 105.788L144.729 110.572C145.112 110.787 145.423 110.636 145.423 110.165Z" fill="white"/>
</g>
<path d="M129.246 100.821V57.5349C129.232 57.2951 129.162 57.0619 129.042 56.8541C128.921 56.6463 128.754 56.4699 128.552 56.3389L120.212 51.555C119.838 51.3318 119.527 51.5072 119.527 51.9537V95.2318C119.539 95.4708 119.608 95.7036 119.727 95.9113C119.846 96.119 120.013 96.2959 120.212 96.4277L128.552 101.212C128.919 101.435 129.246 101.259 129.246 100.821Z" fill="white"/>
<path d="M129.246 100.821V57.5349C129.232 57.2951 129.162 57.0619 129.042 56.8541C128.921 56.6463 128.754 56.4699 128.552 56.3389L120.212 51.555C119.838 51.3318 119.527 51.5072 119.527 51.9537V95.2318C119.539 95.4708 119.608 95.7036 119.727 95.9113C119.846 96.119 120.013 96.2959 120.212 96.4277L128.552 101.212C128.919 101.435 129.246 101.259 129.246 100.821Z" fill="url(#paint17_linear_1_3220)"/>
<g opacity="0.2">
<path d="M129.246 100.821V57.5349C129.232 57.2951 129.162 57.0619 129.042 56.8541C128.921 56.6463 128.754 56.4699 128.552 56.3389L120.212 51.555C119.838 51.3318 119.527 51.5072 119.527 51.9537V95.2318C119.539 95.4708 119.608 95.7036 119.727 95.9113C119.846 96.119 120.013 96.2959 120.212 96.4277L128.552 101.212C128.919 101.435 129.246 101.259 129.246 100.821Z" fill="black"/>
</g>
<path d="M113.029 91.5003V29.4854C113.016 29.2461 112.948 29.0131 112.829 28.8053C112.71 28.5975 112.543 28.4208 112.343 28.2894L104.003 23.5055C103.628 23.2823 103.317 23.5055 103.317 23.9042V85.8872C103.331 86.126 103.401 86.3583 103.52 86.5658C103.639 86.7733 103.804 86.9504 104.003 87.0832L112.343 91.867C112.726 92.0903 113.029 91.9069 113.029 91.5003Z" fill="white"/>
<path d="M113.029 91.5003V29.4854C113.016 29.2461 112.948 29.0131 112.829 28.8053C112.71 28.5975 112.543 28.4208 112.343 28.2894L104.003 23.5055C103.628 23.2823 103.317 23.5055 103.317 23.9042V85.8872C103.331 86.126 103.401 86.3583 103.52 86.5658C103.639 86.7733 103.804 86.9504 104.003 87.0832L112.343 91.867C112.726 92.0903 113.029 91.9069 113.029 91.5003Z" fill="url(#paint18_linear_1_3220)"/>
<path d="M285.224 101.411C285.113 100.813 282.187 94.0037 280.983 91.3247L274.883 94.1791L277.219 99.5291L283.534 104.417C284.148 104.229 284.667 103.812 284.982 103.253C285.297 102.693 285.384 102.033 285.224 101.411Z" fill="#FFA8A7"/>
<path d="M273.073 172.73H268.369V179.587H273.073V172.73Z" fill="#FFA8A7"/>
<path d="M256.502 164.261L251.801 164.423L252.036 171.276L256.738 171.114L256.502 164.261Z" fill="#FFA8A7"/>
<path d="M257.678 74.5332C255.975 74.5728 254.31 75.0424 252.838 75.8983C251.366 76.7543 250.134 77.9687 249.258 79.4287C246.659 83.2957 242.082 89.9054 242.082 89.9054L250.653 92.6242L257.678 74.5332Z" fill="white"/>
<path d="M257.678 74.5332C255.975 74.5728 254.31 75.0424 252.838 75.8983C251.366 76.7543 250.134 77.9687 249.258 79.4287C246.659 83.2957 242.082 89.9054 242.082 89.9054L250.653 92.6242L257.678 74.5332Z" fill="url(#paint19_linear_1_3220)"/>
<g opacity="0.7">
<path d="M257.678 74.5334C255.975 74.573 254.31 75.0426 252.838 75.8985C251.366 76.7545 250.134 77.969 249.258 79.4289C246.659 83.2959 242.082 89.9056 242.082 89.9056L250.653 92.6245L257.678 74.5334Z" fill="white"/>
</g>
<path d="M272.763 105.852C272.763 110.349 273.345 139.427 273.345 139.427C273.456 140.718 274.668 143.102 274.405 148.069C274.046 154.823 273.464 173.583 273.464 173.583C273.464 173.583 271.256 175.776 268.138 173.583C268.138 173.583 263.873 148.109 263.035 141.42C262.294 135.584 261.05 119.733 261.05 119.733L256.689 138.398C256.689 138.398 257.486 142.783 257.622 145.877C257.757 148.97 256.824 166.862 256.824 166.862C256.061 167.339 255.187 167.608 254.287 167.643C253.388 167.678 252.495 167.478 251.698 167.061C251.698 167.061 247.918 140.926 247.432 138.127C246.946 135.328 250.749 105.852 250.749 105.852H272.763Z" fill="white"/>
<path d="M272.763 105.852C272.763 110.349 273.345 139.427 273.345 139.427C273.456 140.718 274.668 143.102 274.405 148.069C274.046 154.823 273.464 173.583 273.464 173.583C273.464 173.583 271.256 175.776 268.138 173.583C268.138 173.583 263.873 148.109 263.035 141.42C262.294 135.584 261.05 119.733 261.05 119.733L256.689 138.398C256.689 138.398 257.486 142.783 257.622 145.877C257.757 148.97 256.824 166.862 256.824 166.862C256.061 167.339 255.187 167.608 254.287 167.643C253.388 167.678 252.495 167.478 251.698 167.061C251.698 167.061 247.918 140.926 247.432 138.127C246.946 135.328 250.749 105.852 250.749 105.852H272.763Z" fill="url(#paint20_linear_1_3220)"/>
<path opacity="0.2" d="M272.763 105.852C272.763 110.349 273.345 139.427 273.345 139.427C273.456 140.718 274.668 143.102 274.405 148.069C274.046 154.823 273.464 173.583 273.464 173.583C273.464 173.583 271.256 175.776 268.138 173.583C268.138 173.583 263.873 148.109 263.035 141.42C262.294 135.584 261.05 119.733 261.05 119.733L256.689 138.398C256.689 138.398 257.486 142.783 257.622 145.877C257.757 148.97 256.824 166.862 256.824 166.862C256.061 167.339 255.187 167.608 254.287 167.643C253.388 167.678 252.495 167.478 251.698 167.061C251.698 167.061 247.918 140.926 247.432 138.127C246.946 135.328 250.749 105.852 250.749 105.852H272.763Z" fill="black"/>
<path d="M265.682 74.6769C269.9 75.6895 275.25 77.3958 277.131 81.2867C279.013 85.1775 281.915 91.4843 281.915 91.4843L274.931 95.6143L272.762 91.8829V105.852C269.461 109.44 257.948 111.114 250.74 105.852V82.8574C250.74 79.1977 252.782 74.7886 258.403 74.4617L265.682 74.6769Z" fill="white"/>
<path d="M265.682 74.6769C269.9 75.6895 275.25 77.3958 277.131 81.2867C279.013 85.1775 281.915 91.4843 281.915 91.4843L274.931 95.6143L272.762 91.8829V105.852C269.461 109.44 257.948 111.114 250.74 105.852V82.8574C250.74 79.1977 252.782 74.7886 258.403 74.4617L265.682 74.6769Z" fill="url(#paint21_linear_1_3220)"/>
<path opacity="0.7" d="M265.682 74.6769C269.9 75.6895 275.25 77.3958 277.131 81.2867C279.013 85.1775 281.915 91.4843 281.915 91.4843L274.931 95.6143L272.762 91.8829V105.852C269.461 109.44 257.948 111.114 250.74 105.852V82.8574C250.74 79.1977 252.782 74.7886 258.403 74.4617L265.682 74.6769Z" fill="white"/>
<path d="M267.269 55.908C267.647 55.8644 268.031 55.9079 268.39 56.035C268.749 56.1621 269.075 56.3696 269.342 56.6415C270.235 57.5505 270.051 59.2408 269.342 63.1157L266.583 63.4346L267.269 55.908Z" fill="#263238"/>
<path d="M251.235 54.8236C250.643 54.831 250.057 54.7142 249.513 54.4808C248.668 53.9944 248.444 54.9512 248.907 55.7884C249.213 56.3855 249.667 56.8945 250.225 57.2671C250.783 57.6397 251.427 57.8634 252.096 57.9172C252.096 57.7976 252.893 55.7645 252.893 55.7645L251.235 54.8236Z" fill="#263238"/>
<path d="M265.977 63.4346C266.384 63.6818 266.966 62.8925 267.468 62.3662C267.667 62.1399 267.919 61.9676 268.203 61.8656C268.486 61.7636 268.79 61.7352 269.088 61.783C269.385 61.8308 269.665 61.9533 269.902 62.139C270.139 62.3246 270.325 62.5674 270.442 62.8446C271.279 64.6067 269.382 66.9587 268.266 67.7321C267.954 68.0017 267.564 68.166 267.154 68.2018C266.743 68.2376 266.331 68.143 265.977 67.9315L265.682 74.6767C265.19 75.7577 264.437 76.6994 263.49 77.4175C262.544 78.1355 261.434 78.6074 260.261 78.7908C256.274 79.325 257.111 76.064 258.411 74.4615V72.0057C257.421 72.2202 256.404 72.274 255.397 72.1652C254.879 72.0296 253.651 70.5706 252.854 68.8723C251.961 66.9986 250.462 63.6738 251.801 58.0528C253.22 52.0171 259.702 51.8337 263.577 54.2655C267.452 56.6973 265.977 63.4346 265.977 63.4346Z" fill="#FFA8A7"/>
<path d="M265.978 64.1204C266.177 64.1204 266.966 62.8287 267.469 62.3663C268.178 61.7205 267.269 55.908 267.269 55.908C267.269 55.908 267.979 53.7075 266.584 52.2404C265.188 50.7734 262.493 51.0285 260.516 50.9567C258.089 50.969 255.686 50.486 253.452 49.5375C250.645 48.3176 250.438 48.1741 250.087 49.41C249.736 50.6458 249.609 53.4603 251.283 55.3499L252.679 55.8682C252.679 55.8682 253.428 56.5299 256.043 56.8489C258.461 57.0325 260.89 56.9871 263.299 56.7133C264.056 56.6097 264.216 57.3432 264.622 59.3524C264.989 61.1225 265.284 64.1124 265.978 64.1204Z" fill="#263238"/>
<path d="M267.262 56.3626L269.733 55.0311C269.655 54.8651 269.543 54.7168 269.405 54.5953C269.267 54.4737 269.107 54.3814 268.932 54.324C268.758 54.2666 268.573 54.2453 268.39 54.2613C268.207 54.2773 268.029 54.3303 267.867 54.4172C267.536 54.6012 267.287 54.9061 267.175 55.2684C267.062 55.6308 267.093 56.0226 267.262 56.3626Z" fill="#263238"/>
<path d="M258.411 72.0058C260.101 71.6872 261.759 71.212 263.362 70.5866C264.117 70.196 264.735 69.584 265.132 68.8325C264.94 69.5839 264.598 70.2889 264.127 70.9055C263.187 72.1015 258.411 72.9865 258.411 72.9865V72.0058Z" fill="#F28F8F"/>
<path d="M259.304 62.5178C259.301 62.6161 259.317 62.7141 259.353 62.8059C259.388 62.8976 259.442 62.9813 259.51 63.052C259.579 63.1227 259.66 63.1789 259.751 63.2172C259.842 63.2556 259.939 63.2753 260.037 63.2752C260.199 63.288 260.36 63.2513 260.501 63.17C260.641 63.0887 260.753 62.9667 260.822 62.8202C260.891 62.6737 260.913 62.5096 260.887 62.3498C260.86 62.19 260.786 62.0421 260.673 61.9257C260.56 61.8094 260.415 61.7301 260.256 61.6985C260.097 61.6668 259.933 61.6843 259.784 61.7486C259.635 61.8129 259.51 61.9209 259.424 62.0583C259.338 62.1957 259.296 62.356 259.304 62.5178Z" fill="#263238"/>
<path d="M260.078 59.7432L261.672 60.6122C261.783 60.3962 261.806 60.1461 261.738 59.9133C261.67 59.6805 261.515 59.4827 261.306 59.3605C261.201 59.3004 261.085 59.2626 260.965 59.2494C260.845 59.2362 260.723 59.2479 260.608 59.2839C260.493 59.3198 260.386 59.3791 260.295 59.4582C260.204 59.5372 260.13 59.6342 260.078 59.7432Z" fill="#263238"/>
<path d="M259.36 67.501L257.677 68.1309C257.715 68.2427 257.775 68.346 257.852 68.4347C257.93 68.5235 258.025 68.5959 258.131 68.6478C258.237 68.6997 258.352 68.7301 258.47 68.7371C258.588 68.7442 258.706 68.7278 258.817 68.689C259.043 68.598 259.225 68.4241 259.325 68.2031C259.426 67.9821 259.439 67.7308 259.36 67.501Z" fill="#F28F8F"/>
<path d="M252.75 60.357L254.177 59.2487C254.11 59.1522 254.024 59.0703 253.924 59.008C253.824 58.9458 253.712 58.9045 253.596 58.8866C253.48 58.8687 253.361 58.8746 253.247 58.9039C253.133 58.9333 253.026 58.9855 252.933 59.0574C252.741 59.2086 252.615 59.4282 252.58 59.6703C252.546 59.9125 252.607 60.1585 252.75 60.357Z" fill="#263238"/>
<path d="M253.188 62.3104C253.188 62.4068 253.207 62.5021 253.244 62.5911C253.281 62.6801 253.335 62.761 253.403 62.8291C253.471 62.8972 253.552 62.9513 253.641 62.9881C253.73 63.025 253.825 63.0439 253.922 63.0439C254.018 63.0439 254.113 63.025 254.202 62.9881C254.291 62.9513 254.372 62.8972 254.44 62.8291C254.508 62.761 254.563 62.6801 254.599 62.5911C254.636 62.5021 254.655 62.4068 254.655 62.3104C254.658 62.2121 254.642 62.1141 254.606 62.0224C254.571 61.9306 254.517 61.8469 254.449 61.7762C254.381 61.7055 254.299 61.6494 254.208 61.611C254.117 61.5727 254.02 61.5529 253.922 61.553C253.724 61.5572 253.537 61.6391 253.399 61.7809C253.262 61.9227 253.186 62.113 253.188 62.3104Z" fill="#263238"/>
<path d="M256.928 61.6089L256.688 66.034L254.384 65.2446L256.928 61.6089Z" fill="#F28F8F"/>
<path d="M237.729 88.239L256.53 93.1903L262.079 116.528L244.203 111.337L237.729 88.239Z" fill="white"/>
<path d="M237.729 88.239L256.53 93.1903L262.079 116.528L244.203 111.337L237.729 88.239Z" fill="url(#paint22_linear_1_3220)"/>
<path d="M245.926 103.683C245.595 104.274 245.094 104.751 244.488 105.054C243.883 105.357 243.2 105.471 242.529 105.381L242.258 104.416L245.926 103.683Z" fill="white"/>
<path d="M245.926 103.683C245.595 104.274 245.094 104.751 244.488 105.054C243.883 105.357 243.2 105.471 242.529 105.381L242.258 104.416L245.926 103.683Z" fill="url(#paint23_linear_1_3220)"/>
<path d="M250.127 104.417C250.206 105.038 251.49 106.187 253.651 106.904C256.107 107.701 259.878 107.295 259.878 107.295L259.543 106.131L250.127 104.417Z" fill="white"/>
<path d="M250.127 104.417C250.206 105.038 251.49 106.187 253.651 106.904C256.107 107.701 259.878 107.295 259.878 107.295L259.543 106.131L250.127 104.417Z" fill="url(#paint24_linear_1_3220)"/>
<path opacity="0.43" d="M243.262 91.6197L243.102 90.9021C243.023 90.5035 244.123 90.4875 245.574 90.8623L248.341 91.5799C249.792 91.9626 251.028 92.5845 251.115 92.9831L251.275 93.7007L243.262 91.6197Z" fill="#455A64"/>
<path d="M241.922 88.9168C241.874 88.6696 242.321 88.6059 242.927 88.7733L244.059 89.1082C244.059 89.1082 243.732 87.5135 246.172 88.0956C246.823 88.1916 247.438 88.4542 247.958 88.8579C248.477 89.2616 248.884 89.7928 249.138 90.3998L250.31 90.7347C250.956 90.9181 251.538 91.2609 251.618 91.532L251.753 91.9785L242.066 89.4271L241.922 88.9168Z" fill="#37474F"/>
<path d="M243.262 89.6903C244.147 89.9055 244.514 90.0251 244.649 90.6311C244.785 91.2371 244.865 91.843 244.865 91.843L249.146 92.9752C249.146 92.9752 248.939 92.0902 248.875 91.7473C248.811 91.4045 248.955 91.1972 249.672 91.3726L249.728 91.1015L243.007 89.3953L243.262 89.6903Z" fill="#37474F"/>
<path d="M243.111 91.6915L242.959 90.9739C242.872 90.5753 243.972 90.5593 245.423 90.934L248.19 91.6516C249.641 92.0264 250.885 92.6483 250.972 93.0469L251.124 93.7645L243.111 91.6915Z" fill="#37474F"/>
<path d="M283.534 104.417L277.219 99.529C277.219 99.529 263.984 102.017 262.493 102.136C261.002 102.256 259.822 100.781 259.256 99.3137C258.69 97.8467 257.542 98.03 257.542 98.03C257.542 98.03 257.98 99.8958 258.124 100.486C258.267 101.076 254.815 101.562 252.829 100.892C250.844 100.223 247.966 101.195 249.744 103.906C251.522 106.617 254.998 106.92 257.406 106.928C258.414 106.918 259.42 106.849 260.42 106.721C261.217 106.625 262.015 106.545 262.756 106.49C267.683 106.139 281.294 105.118 283.534 104.417Z" fill="#FFA8A7"/>
<path d="M239.634 95.0639L240.472 98.0379C240.631 98.612 242.816 99.6325 244.203 100.031C245.59 100.43 247.097 100.828 246.443 102.798C245.838 104.576 243.565 104.982 242.409 104.935C241.63 104.803 240.903 104.459 240.308 103.939C239.713 103.42 239.273 102.746 239.036 101.993C238.239 99.7202 238.67 97.2884 238.351 95.9569C238.032 94.6254 238.949 94.2746 239.634 95.0639Z" fill="#F28F8F"/>
<path d="M268.369 177.267V176.589C267.922 176.788 266.87 180.783 265.004 182.481C263.521 183.837 261.496 185.407 261.017 186.914C260.539 188.421 263.84 189.354 265.227 189.107C266.822 188.82 269.636 187.688 270.338 186.635C271.04 185.583 271.367 184.028 271.933 183.255C272.499 182.481 273.814 181.66 274.125 180.735C274.218 179.901 274.125 179.057 273.854 178.263C273.639 177.426 273.4 176.517 273.121 176.589C273.121 176.693 273.121 177.107 273.121 177.107C272.437 177.637 271.593 177.918 270.729 177.905C270.035 177.929 268.361 177.793 268.369 177.267Z" fill="#37474F"/>
<path d="M252.032 169.812C251.785 169.812 251.585 170.163 251.051 170.745C250.244 171.56 249.307 172.234 248.277 172.738C246.515 173.623 243.094 174.979 241.539 175.68C240.567 176.119 240.614 177.275 241.619 177.953C242.624 178.63 245.039 179.101 247.942 178.447C249.536 178.096 251.585 176.637 252.885 176.709C254.185 176.781 256.624 176.773 257.589 176.111C258.554 175.449 258.163 174.03 257.892 172.81C257.621 171.59 257.175 169.453 256.736 169.541V169.964C256.17 170.817 253.284 171.167 252.04 170.538L252.032 169.812Z" fill="#37474F"/>
<path d="M48.1686 166.95L51.1107 171.04C49.7694 171.659 48.3063 171.97 46.8291 171.949C44.198 172.053 43.4724 171.152 43.3768 170.976C42.9303 170.027 43.6239 168.305 43.8153 166.822L48.1686 166.95Z" fill="#37474F"/>
<path d="M43.3769 162.836C43.3769 162.836 43.8234 166.551 43.8553 167.349C43.8872 168.146 47.483 168.409 48.1687 166.95L48.2724 162.405L43.3769 162.836Z" fill="#F28F8F"/>
<path d="M43.3766 89.6345C40.9209 93.4616 38.5927 96.8103 38.0824 101.132C37.03 110.213 40.4744 120.594 41.2159 127.307C39.8217 129.223 39.0155 131.503 38.8957 133.869C38.8957 136.644 43.3766 162.836 43.3766 162.836C43.3766 162.836 46.6296 163.832 48.2721 162.405L51.3497 114.224L49.7551 108.355L43.3766 89.6345Z" fill="white"/>
<path d="M43.3766 89.6345C40.9209 93.4616 38.5927 96.8103 38.0824 101.132C37.03 110.213 40.4744 120.594 41.2159 127.307C39.8217 129.223 39.0155 131.503 38.8957 133.869C38.8957 136.644 43.3766 162.836 43.3766 162.836C43.3766 162.836 46.6296 163.832 48.2721 162.405L51.3497 114.224L49.7551 108.355L43.3766 89.6345Z" fill="url(#paint25_linear_1_3220)"/>
<path opacity="0.5" d="M43.3766 89.6345C40.9209 93.4616 38.5927 96.8103 38.0824 101.132C37.03 110.213 40.4744 120.594 41.2159 127.307C39.8217 129.223 39.0155 131.503 38.8957 133.869C38.8957 136.644 43.3766 162.836 43.3766 162.836C43.3766 162.836 46.6296 163.832 48.2721 162.405L51.3497 114.224L49.7551 108.355L43.3766 89.6345Z" fill="white"/>
<path d="M66.0765 71.687L82.2699 79.4608L72.5507 101.315L57.4496 92.6005L66.0765 71.687Z" fill="white"/>
<path d="M66.0765 71.687L82.2699 79.4608L72.5507 101.315L57.4496 92.6005L66.0765 71.687Z" fill="url(#paint26_linear_1_3220)"/>
<path d="M80.364 79.8594L71.9763 98.4846L60.3515 91.7872L66.9453 73.457L80.364 79.8594Z" fill="white"/>
<path d="M80.364 79.8594L71.9763 98.4846L60.3515 91.7872L66.9453 73.457L80.364 79.8594Z" fill="url(#paint27_linear_1_3220)"/>
<path d="M66.9456 73.457L80.3643 79.8594L71.3068 98.684L58.6136 91.4364L66.9456 73.457Z" fill="white"/>
<path d="M69.8633 76.152L70.1742 75.4822C70.3496 75.1155 71.4579 75.267 72.6539 75.8331L74.9422 76.9174C76.1381 77.4755 76.9594 78.2409 76.7919 78.6077L76.473 79.2774L69.8633 76.152Z" fill="#E0E0E0"/>
<path d="M37.883 79.5404C36.7029 82.9051 34.3668 88.2471 35.1163 89.3235C35.8658 90.3998 40.3626 90.1686 42.8662 90.0729C46.0554 89.9533 48.7025 89.8257 48.7025 89.8257L48.1683 84.2446H43.6395L45.6328 78.5996L37.883 79.5404Z" fill="#F28F8F"/>
<path d="M42.4202 67.5808C40.7698 70.2917 37.437 79.8594 37.437 79.8594C38.363 80.9096 39.5912 81.6476 40.9532 81.9723C42.1426 82.3373 43.4065 82.3867 44.6208 82.1158L48.3044 72.9467L42.4202 67.5808Z" fill="white"/>
<path d="M42.4202 67.5808C40.7698 70.2917 37.437 79.8594 37.437 79.8594C38.363 80.9096 39.5912 81.6476 40.9532 81.9723C42.1426 82.3373 43.4065 82.3867 44.6208 82.1158L48.3044 72.9467L42.4202 67.5808Z" fill="url(#paint28_linear_1_3220)"/>
<path opacity="0.4" d="M42.4202 67.5808C40.7698 70.2917 37.437 79.8594 37.437 79.8594C38.363 80.9096 39.5912 81.6476 40.9532 81.9723C42.1426 82.3373 43.4065 82.3867 44.6208 82.1158L48.3044 72.9467L42.4202 67.5808Z" fill="black"/>
<path d="M58.9004 69.2871C61.7947 70.1562 63.5567 70.3077 66.754 75.2271C69.9512 80.1465 76.9516 89.9056 77.6452 91.0776C78.61 92.6723 79.0246 94.6496 78.1954 96.1485C77.3662 97.6475 75.1576 96.9459 71.9843 94.1473C68.811 91.3487 62.8312 83.846 62.8312 83.846C62.8312 83.846 56.5962 76.8217 58.9004 69.2871Z" fill="#FFA8A7"/>
<path d="M56.5886 62.9086L55.8072 69.8213L48.9822 70.6107L49.9709 61.4336L56.5886 62.9086Z" fill="#FFA8A7"/>
<path d="M41.99 52.8068C42.5561 46.4283 45.9766 43.7892 48.6954 43.1594C54.0932 41.8837 58.9089 43.8451 61.0936 47.6323C61.6676 48.6289 62.6324 52.3603 60.7109 54.5609C58.7893 56.7615 41.99 52.8068 41.99 52.8068Z" fill="#263238"/>
<path d="M61.6272 55.0552C61.6272 55.0552 63.0464 57.4471 62.8312 57.7182C62.4538 57.9374 62.0409 58.0885 61.6113 58.1647L61.6272 55.0552Z" fill="#F28F8F"/>
<path d="M57.3214 47.3611C58.7885 48.2302 61.308 49.8168 61.6508 55.398C62.0096 61.1307 60.9173 62.8927 60.0562 63.5944C59.506 64.0728 56.6836 63.9133 55.2723 63.395C53.5422 62.7412 49.6911 60.9632 48.0327 57.9175C46.1192 54.3376 45.9517 49.7052 48.4872 48.0388C49.7799 47.1823 51.2701 46.6704 52.8162 46.5518C54.3624 46.4332 55.9132 46.7118 57.3214 47.3611Z" fill="#FFA8A7"/>
<path d="M57.7525 47.6483C57.7525 47.6483 58.7651 52.9185 57.011 56.1077C57.011 56.1077 56.2137 54.0267 54.4277 54.5131C52.6417 54.9995 52.6656 57.3436 53.9812 58.6193C54.3145 58.9823 54.7435 59.2437 55.2189 59.3735C55.6943 59.5033 56.1967 59.4961 56.6681 59.3528C56.4202 60.9943 55.6549 62.5138 54.4835 63.6902C52.6241 64.1203 50.6809 64.0163 48.878 63.3899C47.0752 62.7636 45.4861 61.6405 44.2939 60.1501C40.3073 55.4141 41.3518 47.3931 47.6745 45.6709C53.9971 43.9487 57.7525 47.6483 57.7525 47.6483Z" fill="#263238"/>
<path d="M50.9431 169.079C50.9431 169.079 54.5151 168.847 56.9788 168.536C59.4425 168.226 61.3959 169.429 60.8138 170.45C60.2318 171.471 58.8764 172.308 56.7635 173.017C54.9536 173.631 52.7769 174.07 50.8953 174.612C49.0136 175.154 47.706 175.856 46.6137 175.481C45.3938 175.058 44.8676 174.572 44.9713 173.679C45.2375 172.409 45.5675 171.153 45.9599 169.916L50.9431 169.079Z" fill="#37474F"/>
<path d="M46.9969 165.124L45.7132 170.761C45.7132 170.761 45.5936 171.447 48.5277 171.885C51.4618 172.324 56.0703 170.354 56.8596 169.948C57.649 169.541 57.7367 168.752 54.8504 168.911C51.9641 169.071 50.9436 169.079 50.9436 169.079L51.9083 166.575L46.9969 165.124Z" fill="#FFA8A7"/>
<path d="M51.3491 114.224L49.7545 108.356C46.7013 107.552 43.7564 106.382 40.9841 104.871C40.9841 104.871 42.6425 107.893 47.3626 109.544L49.8422 117.086L50.0575 134.34L51.3491 114.224Z" fill="white"/>
<path d="M51.3491 114.224L49.7545 108.356C46.7013 107.552 43.7564 106.382 40.9841 104.871C40.9841 104.871 42.6425 107.893 47.3626 109.544L49.8422 117.086L50.0575 134.34L51.3491 114.224Z" fill="url(#paint29_linear_1_3220)"/>
<path d="M43.3763 89.6345C42.0608 91.7793 38.9194 95.4549 39.5811 98.979C40.3785 103.261 42.6986 106.258 49.7309 108.355L56.3327 132.275C56.3327 132.275 52.8962 135.464 51.8438 138.55C50.7913 141.635 46.9961 165.148 46.9961 165.148C46.9961 165.148 48.1682 167.061 51.8757 166.599C51.8757 166.599 64.8001 137.098 65.717 135.177C66.8109 133.242 67.1971 130.987 66.8093 128.798C66.4027 125.697 62.0255 91.8351 62.0255 91.8351L43.3763 89.6345Z" fill="white"/>
<path d="M43.3763 89.6345C42.0608 91.7793 38.9194 95.4549 39.5811 98.979C40.3785 103.261 42.6986 106.258 49.7309 108.355L56.3327 132.275C56.3327 132.275 52.8962 135.464 51.8438 138.55C50.7913 141.635 46.9961 165.148 46.9961 165.148C46.9961 165.148 48.1682 167.061 51.8757 166.599C51.8757 166.599 64.8001 137.098 65.717 135.177C66.8109 133.242 67.1971 130.987 66.8093 128.798C66.4027 125.697 62.0255 91.8351 62.0255 91.8351L43.3763 89.6345Z" fill="url(#paint30_linear_1_3220)"/>
<path opacity="0.5" d="M43.3763 89.6345C42.0608 91.7793 38.9194 95.4549 39.5811 98.979C40.3785 103.261 42.6986 106.258 49.7309 108.355L56.3327 132.275C56.3327 132.275 52.8962 135.464 51.8438 138.55C50.7913 141.635 46.9961 165.148 46.9961 165.148C46.9961 165.148 48.1682 167.061 51.8757 166.599C51.8757 166.599 64.8001 137.098 65.717 135.177C66.8109 133.242 67.1971 130.987 66.8093 128.798C66.4027 125.697 62.0255 91.8351 62.0255 91.8351L43.3763 89.6345Z" fill="white"/>
<path d="M42.1808 68.0752C42.6911 66.7198 44.3176 65.5876 45.7847 65.9863C50.3852 67.2381 57.5371 68.8885 58.9005 69.2872C58.9005 69.2872 58.2945 79.6522 63.5887 82.7458C63.3415 84.7151 61.994 91.7793 61.994 91.7793C61.994 91.7793 55.6155 94.8729 50.3852 93.374C45.1548 91.875 43.3768 89.6585 43.3768 89.6585L46 85.3849C45.4418 83.9896 43.2732 79.2775 41.8779 74.8923C41.3648 72.634 41.4694 70.2791 42.1808 68.0752Z" fill="white"/>
<path d="M42.1808 68.0752C42.6911 66.7198 44.3176 65.5876 45.7847 65.9863C50.3852 67.2381 57.5371 68.8885 58.9005 69.2872C58.9005 69.2872 58.2945 79.6522 63.5887 82.7458C63.3415 84.7151 61.994 91.7793 61.994 91.7793C61.994 91.7793 55.6155 94.8729 50.3852 93.374C45.1548 91.875 43.3768 89.6585 43.3768 89.6585L46 85.3849C45.4418 83.9896 43.2732 79.2775 41.8779 74.8923C41.3648 72.634 41.4694 70.2791 42.1808 68.0752Z" fill="url(#paint31_linear_1_3220)"/>
<path opacity="0.2" d="M42.1808 68.0752C42.6911 66.7198 44.3176 65.5876 45.7847 65.9863C50.3852 67.2381 57.5371 68.8885 58.9005 69.2872C58.9005 69.2872 58.2945 79.6522 63.5887 82.7458C63.3415 84.7151 61.994 91.7793 61.994 91.7793C61.994 91.7793 55.6155 94.8729 50.3852 93.374C45.1548 91.875 43.3768 89.6585 43.3768 89.6585L46 85.3849C45.4418 83.9896 43.2732 79.2775 41.8779 74.8923C41.3648 72.634 41.4694 70.2791 42.1808 68.0752Z" fill="black"/>
<g opacity="0.25">
<path d="M45.2823 83.6787C47.4627 84.9901 49.7482 86.1182 52.1152 87.0513C49.9673 87.0098 47.8642 86.4286 45.9999 85.361L45.2823 83.6787Z" fill="white"/>
<path d="M45.2823 83.6787C47.4627 84.9901 49.7482 86.1182 52.1152 87.0513C49.9673 87.0098 47.8642 86.4286 45.9999 85.361L45.2823 83.6787Z" fill="url(#paint32_linear_1_3220)"/>
</g>
<path d="M46.638 44.5785C46.638 44.5785 44.4534 40.855 39.1034 41.8198C33.7534 42.7845 31.5847 48.4614 31.6645 52.0573C31.7442 55.6531 32.9481 58.1647 29.727 62.4223C29.0921 63.2619 28.6447 64.228 28.4151 65.2553C28.1854 66.2826 28.1788 67.3472 28.3957 68.3772C28.6126 69.4073 29.0479 70.3788 29.6724 71.2263C30.2968 72.0737 31.0957 72.7774 32.0153 73.2897C36.3128 75.6816 37.3573 71.5196 36.3606 67.9636C35.2125 63.8894 39.4781 63.1798 40.6183 60.0942C41.7584 57.0086 39.518 50.5264 40.9532 48.3259C42.5478 45.9339 44.7005 46.2688 45.737 47.082L46.638 44.5785Z" fill="#263238"/>
<path d="M58.901 69.2871C60.3309 69.5909 61.7276 70.0343 63.071 70.6106C64.825 71.4717 71.666 82.2115 71.666 82.2115C71.666 82.2115 71.1796 86.2539 65.5825 87.8565L62.2736 83.6786C62.2736 83.6786 57.41 76.4151 58.901 69.2871Z" fill="white"/>
<path d="M58.901 69.2871C60.3309 69.5909 61.7276 70.0343 63.071 70.6106C64.825 71.4717 71.666 82.2115 71.666 82.2115C71.666 82.2115 71.1796 86.2539 65.5825 87.8565L62.2736 83.6786C62.2736 83.6786 57.41 76.4151 58.901 69.2871Z" fill="url(#paint33_linear_1_3220)"/>
<path opacity="0.1" d="M58.901 69.2871C60.3309 69.5909 61.7276 70.0343 63.071 70.6106C64.825 71.4717 71.666 82.2115 71.666 82.2115C71.666 82.2115 71.1796 86.2539 65.5825 87.8565L62.2736 83.6786C62.2736 83.6786 57.41 76.4151 58.901 69.2871Z" fill="black"/>
<path d="M63.2456 84.9385C61.7755 83.2273 60.6663 81.2367 59.9846 79.0862C59.9846 79.0862 59.9846 83.7265 63.0383 86.1264L63.2456 84.9385Z" fill="white"/>
<path d="M63.2456 84.9385C61.7755 83.2273 60.6663 81.2367 59.9846 79.0862C59.9846 79.0862 59.9846 83.7265 63.0383 86.1264L63.2456 84.9385Z" fill="url(#paint34_linear_1_3220)"/>
<path opacity="0.4" d="M63.2456 84.9385C61.7755 83.2273 60.6663 81.2367 59.9846 79.0862C59.9846 79.0862 59.9846 83.7265 63.0383 86.1264L63.2456 84.9385Z" fill="black"/>
<path d="M70.4455 73.2658C70.5491 73.0345 71.0355 73.0505 71.5298 73.2658L72.4228 73.7043C72.4228 73.7043 73.1165 72.2611 75.1895 73.1302C77.2625 73.9993 76.6246 75.6657 76.6246 75.6657L77.5734 76.152C78.0997 76.4151 78.4505 76.8218 78.3707 77.061L78.2113 77.4835L70.2382 73.6564L70.4455 73.2658Z" fill="#455A64"/>
<path d="M71.259 74.1747C72.0085 74.5096 72.2955 74.6691 72.0563 75.2431C71.8171 75.8172 71.4743 76.3673 71.4743 76.3673L74.9984 78.0576C74.9984 78.0576 75.3732 77.2603 75.5326 76.9095C75.6921 76.5587 75.9791 76.4231 76.5372 76.6942L76.7764 76.455L71.1953 73.8638L71.259 74.1747Z" fill="#455A64"/>
<path d="M69.7994 75.9526L70.1184 75.2829C70.2938 74.9081 71.402 75.0676 72.598 75.6337L74.8863 76.718C76.0743 77.2762 76.9035 78.0336 76.7281 78.4083L76.4092 79.0781L69.7994 75.9526Z" fill="#455A64"/>
<defs>
<linearGradient id="paint0_linear_1_3220" x1="343.7" y1="115.119" x2="330.992" y2="115.941" gradientUnits="userSpaceOnUse">
<stop stop-color="#0A8241"/>
<stop offset="0.416667" stop-color="#3EBB6C" stop-opacity="0.87"/>
<stop offset="0.692708" stop-color="#A5E06A" stop-opacity="0.79"/>
<stop offset="1" stop-color="#FCFF68" stop-opacity="0.31"/>
</linearGradient>
<linearGradient id="paint1_linear_1_3220" x1="342.532" y1="125.741" x2="331.067" y2="126.57" gradientUnits="userSpaceOnUse">
<stop stop-color="#0A8241"/>
<stop offset="0.416667" stop-color="#3EBB6C" stop-opacity="0.87"/>
<stop offset="0.692708" stop-color="#A5E06A" stop-opacity="0.79"/>
<stop offset="1" stop-color="#FCFF68" stop-opacity="0.31"/>
</linearGradient>
<linearGradient id="paint2_linear_1_3220" x1="98.4623" y1="182.293" x2="79.2964" y2="185.927" gradientUnits="userSpaceOnUse">
<stop stop-color="#0A8241"/>
<stop offset="0.416667" stop-color="#3EBB6C" stop-opacity="0.87"/>
<stop offset="0.692708" stop-color="#A5E06A" stop-opacity="0.79"/>
<stop offset="1" stop-color="#FCFF68" stop-opacity="0.31"/>
</linearGradient>
<linearGradient id="paint3_linear_1_3220" x1="98.4936" y1="171.665" x2="78.091" y2="173.887" gradientUnits="userSpaceOnUse">
<stop stop-color="#0A8241"/>
<stop offset="0.416667" stop-color="#3EBB6C" stop-opacity="0.87"/>
<stop offset="0.692708" stop-color="#A5E06A" stop-opacity="0.79"/>
<stop offset="1" stop-color="#FCFF68" stop-opacity="0.31"/>
</linearGradient>
<linearGradient id="paint4_linear_1_3220" x1="226.973" y1="229.314" x2="207.583" y2="233.283" gradientUnits="userSpaceOnUse">
<stop stop-color="#0A8241"/>
<stop offset="0.416667" stop-color="#3EBB6C" stop-opacity="0.87"/>
<stop offset="0.692708" stop-color="#A5E06A" stop-opacity="0.79"/>
<stop offset="1" stop-color="#FCFF68" stop-opacity="0.31"/>
</linearGradient>
<linearGradient id="paint5_linear_1_3220" x1="228.392" y1="219.135" x2="207.038" y2="221.837" gradientUnits="userSpaceOnUse">
<stop stop-color="#0A8241"/>
<stop offset="0.416667" stop-color="#3EBB6C" stop-opacity="0.87"/>
<stop offset="0.692708" stop-color="#A5E06A" stop-opacity="0.79"/>
<stop offset="1" stop-color="#FCFF68" stop-opacity="0.31"/>
</linearGradient>
<linearGradient id="paint6_linear_1_3220" x1="97.2445" y1="203.201" x2="56.6497" y2="210.736" gradientUnits="userSpaceOnUse">
<stop stop-color="#0A8241"/>
<stop offset="0.416667" stop-color="#3EBB6C" stop-opacity="0.87"/>
<stop offset="0.692708" stop-color="#A5E06A" stop-opacity="0.79"/>
<stop offset="1" stop-color="#FCFF68" stop-opacity="0.31"/>
</linearGradient>
<linearGradient id="paint7_linear_1_3220" x1="139.364" y1="227.505" x2="98.7672" y2="235.035" gradientUnits="userSpaceOnUse">
<stop stop-color="#0A8241"/>
<stop offset="0.416667" stop-color="#3EBB6C" stop-opacity="0.87"/>
<stop offset="0.692708" stop-color="#A5E06A" stop-opacity="0.79"/>
<stop offset="1" stop-color="#FCFF68" stop-opacity="0.31"/>
</linearGradient>
<linearGradient id="paint8_linear_1_3220" x1="181.447" y1="251.795" x2="140.846" y2="259.315" gradientUnits="userSpaceOnUse">
<stop stop-color="#0A8241"/>
<stop offset="0.416667" stop-color="#3EBB6C" stop-opacity="0.87"/>
<stop offset="0.692708" stop-color="#A5E06A" stop-opacity="0.79"/>
<stop offset="1" stop-color="#FCFF68" stop-opacity="0.31"/>
</linearGradient>
<linearGradient id="paint9_linear_1_3220" x1="228.532" y1="17.0799" x2="121.77" y2="25.168" gradientUnits="userSpaceOnUse">
<stop stop-color="#0A8241"/>
<stop offset="0.416667" stop-color="#3EBB6C" stop-opacity="0.87"/>
<stop offset="0.692708" stop-color="#A5E06A" stop-opacity="0.79"/>
<stop offset="1" stop-color="#FCFF68" stop-opacity="0.31"/>
</linearGradient>
<linearGradient id="paint10_linear_1_3220" x1="219.223" y1="53.0035" x2="133.114" y2="62.4598" gradientUnits="userSpaceOnUse">
<stop stop-color="#0A8241"/>
<stop offset="0.416667" stop-color="#3EBB6C" stop-opacity="0.87"/>
<stop offset="0.692708" stop-color="#A5E06A" stop-opacity="0.79"/>
<stop offset="1" stop-color="#FCFF68" stop-opacity="0.31"/>
</linearGradient>
<linearGradient id="paint11_linear_1_3220" x1="207.399" y1="79.9089" x2="203.099" y2="80.2679" gradientUnits="userSpaceOnUse">
<stop stop-color="#0A8241"/>
<stop offset="0.416667" stop-color="#3EBB6C" stop-opacity="0.87"/>
<stop offset="0.692708" stop-color="#A5E06A" stop-opacity="0.79"/>
<stop offset="1" stop-color="#FCFF68" stop-opacity="0.31"/>
</linearGradient>
<linearGradient id="paint12_linear_1_3220" x1="181.422" y1="42.5645" x2="177.131" y2="42.9204" gradientUnits="userSpaceOnUse">
<stop stop-color="#0A8241"/>
<stop offset="0.416667" stop-color="#3EBB6C" stop-opacity="0.87"/>
<stop offset="0.692708" stop-color="#A5E06A" stop-opacity="0.79"/>
<stop offset="1" stop-color="#FCFF68" stop-opacity="0.31"/>
</linearGradient>
<linearGradient id="paint13_linear_1_3220" x1="149.051" y1="50.1011" x2="144.76" y2="50.4572" gradientUnits="userSpaceOnUse">
<stop stop-color="#0A8241"/>
<stop offset="0.416667" stop-color="#3EBB6C" stop-opacity="0.87"/>
<stop offset="0.692708" stop-color="#A5E06A" stop-opacity="0.79"/>
<stop offset="1" stop-color="#FCFF68" stop-opacity="0.31"/>
</linearGradient>
<linearGradient id="paint14_linear_1_3220" x1="176.587" y1="19.8484" x2="83.6108" y2="26.3052" gradientUnits="userSpaceOnUse">
<stop stop-color="#0A8241"/>
<stop offset="0.416667" stop-color="#3EBB6C" stop-opacity="0.87"/>
<stop offset="0.692708" stop-color="#A5E06A" stop-opacity="0.79"/>
<stop offset="1" stop-color="#FCFF68" stop-opacity="0.31"/>
</linearGradient>
<linearGradient id="paint15_linear_1_3220" x1="161.616" y1="66.2111" x2="151.332" y2="66.3863" gradientUnits="userSpaceOnUse">
<stop stop-color="#0A8241"/>
<stop offset="0.416667" stop-color="#3EBB6C" stop-opacity="0.87"/>
<stop offset="0.692708" stop-color="#A5E06A" stop-opacity="0.79"/>
<stop offset="1" stop-color="#FCFF68" stop-opacity="0.31"/>
</linearGradient>
<linearGradient id="paint16_linear_1_3220" x1="145.424" y1="79.9357" x2="135.146" y2="80.2423" gradientUnits="userSpaceOnUse">
<stop stop-color="#0A8241"/>
<stop offset="0.416667" stop-color="#3EBB6C" stop-opacity="0.87"/>
<stop offset="0.692708" stop-color="#A5E06A" stop-opacity="0.79"/>
<stop offset="1" stop-color="#FCFF68" stop-opacity="0.31"/>
</linearGradient>
<linearGradient id="paint17_linear_1_3220" x1="129.246" y1="57.3965" x2="118.964" y2="57.6112" gradientUnits="userSpaceOnUse">
<stop stop-color="#0A8241"/>
<stop offset="0.416667" stop-color="#3EBB6C" stop-opacity="0.87"/>
<stop offset="0.692708" stop-color="#A5E06A" stop-opacity="0.79"/>
<stop offset="1" stop-color="#FCFF68" stop-opacity="0.31"/>
</linearGradient>
<linearGradient id="paint18_linear_1_3220" x1="113.029" y1="31.5824" x2="102.753" y2="31.7382" gradientUnits="userSpaceOnUse">
<stop stop-color="#0A8241"/>
<stop offset="0.416667" stop-color="#3EBB6C" stop-opacity="0.87"/>
<stop offset="0.692708" stop-color="#A5E06A" stop-opacity="0.79"/>
<stop offset="1" stop-color="#FCFF68" stop-opacity="0.31"/>
</linearGradient>
<linearGradient id="paint19_linear_1_3220" x1="257.678" y1="76.6882" x2="241.311" y2="78.1989" gradientUnits="userSpaceOnUse">
<stop stop-color="#0A8241"/>
<stop offset="0.416667" stop-color="#3EBB6C" stop-opacity="0.87"/>
<stop offset="0.692708" stop-color="#A5E06A" stop-opacity="0.79"/>
<stop offset="1" stop-color="#FCFF68" stop-opacity="0.31"/>
</linearGradient>
<linearGradient id="paint20_linear_1_3220" x1="274.442" y1="114.036" x2="245.86" y2="115.241" gradientUnits="userSpaceOnUse">
<stop stop-color="#0A8241"/>
<stop offset="0.416667" stop-color="#3EBB6C" stop-opacity="0.87"/>
<stop offset="0.692708" stop-color="#A5E06A" stop-opacity="0.79"/>
<stop offset="1" stop-color="#FCFF68" stop-opacity="0.31"/>
</linearGradient>
<linearGradient id="paint21_linear_1_3220" x1="281.915" y1="78.5997" x2="249.222" y2="81.7413" gradientUnits="userSpaceOnUse">
<stop stop-color="#0A8241"/>
<stop offset="0.416667" stop-color="#3EBB6C" stop-opacity="0.87"/>
<stop offset="0.692708" stop-color="#A5E06A" stop-opacity="0.79"/>
<stop offset="1" stop-color="#FCFF68" stop-opacity="0.31"/>
</linearGradient>
<linearGradient id="paint22_linear_1_3220" x1="262.079" y1="91.6088" x2="236.524" y2="93.9641" gradientUnits="userSpaceOnUse">
<stop stop-color="#0A8241"/>
<stop offset="0.416667" stop-color="#3EBB6C" stop-opacity="0.87"/>
<stop offset="0.692708" stop-color="#A5E06A" stop-opacity="0.79"/>
<stop offset="1" stop-color="#FCFF68" stop-opacity="0.31"/>
</linearGradient>
<linearGradient id="paint23_linear_1_3220" x1="245.926" y1="103.889" x2="242.234" y2="104.728" gradientUnits="userSpaceOnUse">
<stop stop-color="#0A8241"/>
<stop offset="0.416667" stop-color="#3EBB6C" stop-opacity="0.87"/>
<stop offset="0.692708" stop-color="#A5E06A" stop-opacity="0.79"/>
<stop offset="1" stop-color="#FCFF68" stop-opacity="0.31"/>
</linearGradient>
<linearGradient id="paint24_linear_1_3220" x1="259.878" y1="104.772" x2="250.684" y2="107.991" gradientUnits="userSpaceOnUse">
<stop stop-color="#0A8241"/>
<stop offset="0.416667" stop-color="#3EBB6C" stop-opacity="0.87"/>
<stop offset="0.692708" stop-color="#A5E06A" stop-opacity="0.79"/>
<stop offset="1" stop-color="#FCFF68" stop-opacity="0.31"/>
</linearGradient>
<linearGradient id="paint25_linear_1_3220" x1="51.3497" y1="98.3947" x2="37.1032" y2="98.674" gradientUnits="userSpaceOnUse">
<stop stop-color="#0A8241"/>
<stop offset="0.416667" stop-color="#3EBB6C" stop-opacity="0.87"/>
<stop offset="0.692708" stop-color="#A5E06A" stop-opacity="0.79"/>
<stop offset="1" stop-color="#FCFF68" stop-opacity="0.31"/>
</linearGradient>
<linearGradient id="paint26_linear_1_3220" x1="82.2699" y1="75.2164" x2="56.2097" y2="77.5539" gradientUnits="userSpaceOnUse">
<stop stop-color="#0A8241"/>
<stop offset="0.416667" stop-color="#3EBB6C" stop-opacity="0.87"/>
<stop offset="0.692708" stop-color="#A5E06A" stop-opacity="0.79"/>
<stop offset="1" stop-color="#FCFF68" stop-opacity="0.31"/>
</linearGradient>
<linearGradient id="paint27_linear_1_3220" x1="80.364" y1="76.4384" x2="59.3368" y2="78.2386" gradientUnits="userSpaceOnUse">
<stop stop-color="#0A8241"/>
<stop offset="0.416667" stop-color="#3EBB6C" stop-opacity="0.87"/>
<stop offset="0.692708" stop-color="#A5E06A" stop-opacity="0.79"/>
<stop offset="1" stop-color="#FCFF68" stop-opacity="0.31"/>
</linearGradient>
<linearGradient id="paint28_linear_1_3220" x1="48.3044" y1="69.3328" x2="36.8739" y2="70.2371" gradientUnits="userSpaceOnUse">
<stop stop-color="#0A8241"/>
<stop offset="0.416667" stop-color="#3EBB6C" stop-opacity="0.87"/>
<stop offset="0.692708" stop-color="#A5E06A" stop-opacity="0.79"/>
<stop offset="1" stop-color="#FCFF68" stop-opacity="0.31"/>
</linearGradient>
<linearGradient id="paint29_linear_1_3220" x1="51.3491" y1="108.382" x2="40.3943" y2="108.794" gradientUnits="userSpaceOnUse">
<stop stop-color="#0A8241"/>
<stop offset="0.416667" stop-color="#3EBB6C" stop-opacity="0.87"/>
<stop offset="0.692708" stop-color="#A5E06A" stop-opacity="0.79"/>
<stop offset="1" stop-color="#FCFF68" stop-opacity="0.31"/>
</linearGradient>
<linearGradient id="paint30_linear_1_3220" x1="66.9561" y1="98.8113" x2="37.9289" y2="99.9194" gradientUnits="userSpaceOnUse">
<stop stop-color="#0A8241"/>
<stop offset="0.416667" stop-color="#3EBB6C" stop-opacity="0.87"/>
<stop offset="0.692708" stop-color="#A5E06A" stop-opacity="0.79"/>
<stop offset="1" stop-color="#FCFF68" stop-opacity="0.31"/>
</linearGradient>
<linearGradient id="paint31_linear_1_3220" x1="63.5887" y1="69.2262" x2="40.4365" y2="71.1852" gradientUnits="userSpaceOnUse">
<stop stop-color="#0A8241"/>
<stop offset="0.416667" stop-color="#3EBB6C" stop-opacity="0.87"/>
<stop offset="0.692708" stop-color="#A5E06A" stop-opacity="0.79"/>
<stop offset="1" stop-color="#FCFF68" stop-opacity="0.31"/>
</linearGradient>
<linearGradient id="paint32_linear_1_3220" x1="52.1152" y1="84.0805" x2="45.2083" y2="85.5788" gradientUnits="userSpaceOnUse">
<stop stop-color="#0A8241"/>
<stop offset="0.416667" stop-color="#3EBB6C" stop-opacity="0.87"/>
<stop offset="0.692708" stop-color="#A5E06A" stop-opacity="0.79"/>
<stop offset="1" stop-color="#FCFF68" stop-opacity="0.31"/>
</linearGradient>
<linearGradient id="paint33_linear_1_3220" x1="71.666" y1="71.4991" x2="57.9326" y2="72.5324" gradientUnits="userSpaceOnUse">
<stop stop-color="#0A8241"/>
<stop offset="0.416667" stop-color="#3EBB6C" stop-opacity="0.87"/>
<stop offset="0.692708" stop-color="#A5E06A" stop-opacity="0.79"/>
<stop offset="1" stop-color="#FCFF68" stop-opacity="0.31"/>
</linearGradient>
<linearGradient id="paint34_linear_1_3220" x1="63.2456" y1="79.9248" x2="59.8026" y2="80.0956" gradientUnits="userSpaceOnUse">
<stop stop-color="#0A8241"/>
<stop offset="0.416667" stop-color="#3EBB6C" stop-opacity="0.87"/>
<stop offset="0.692708" stop-color="#A5E06A" stop-opacity="0.79"/>
<stop offset="1" stop-color="#FCFF68" stop-opacity="0.31"/>
</linearGradient>
</defs>
</svg>
