<svg width="20" height="21" viewBox="0 0 20 21" fill="none" xmlns="http://www.w3.org/2000/svg">
<path fill-rule="evenodd" clip-rule="evenodd" d="M1.8208 10.8663C1.8208 6.25678 5.32167 2.51575 9.63523 2.51575C13.9488 2.51575 17.4497 6.25678 17.4497 10.8663V12.0604C17.4497 13.7054 16.2541 15.0415 14.7146 15.0415C13.7847 15.0415 12.9095 14.5572 12.4015 13.814C11.6982 14.5739 10.7136 15.0415 9.63523 15.0415C7.47845 15.0415 5.72802 13.171 5.72802 10.8663C5.72802 8.56152 7.47845 6.691 9.63523 6.691C11.792 6.691 13.5424 8.56152 13.5424 10.8663V12.0604C13.5424 12.7201 14.0973 13.3714 14.7146 13.3714C15.332 13.3714 15.8868 12.7201 15.8868 12.0604V10.8663C15.8868 7.24214 13.0267 4.18585 9.63523 4.18585C6.24377 4.18585 3.38369 7.24214 3.38369 10.8663C3.38369 14.4904 6.24377 17.5467 9.63523 17.5467H13.5424V19.2168H9.63523C5.32167 19.2168 1.8208 15.4757 1.8208 10.8663ZM7.2909 10.8663C7.2909 12.2524 8.33804 13.3714 9.63523 13.3714C10.9324 13.3714 11.9796 12.2524 11.9796 10.8663C11.9796 9.48008 10.9324 8.36111 9.63523 8.36111C8.33804 8.36111 7.2909 9.48008 7.2909 10.8663Z" fill="#AAAAAA"/>
</svg>
