<svg width="285" height="285" viewBox="0 0 285 285" fill="none" xmlns="http://www.w3.org/2000/svg">
<path d="M142.346 271.371C74.7076 271.371 19.8758 239.714 19.8758 200.663C19.8758 161.611 74.7076 129.954 142.346 129.954C209.984 129.954 264.816 161.611 264.816 200.663C264.816 239.714 209.984 271.371 142.346 271.371Z" fill="#F6F8DD"/>
<path d="M76.9506 254.67C63.4299 254.67 52.4691 247.798 52.4691 239.32C52.4691 230.842 63.4299 223.97 76.9506 223.97C90.4714 223.97 101.432 230.842 101.432 239.32C101.432 247.798 90.4714 254.67 76.9506 254.67Z" fill="#E6E6E6"/>
<path d="M32.4897 184.27L37.5684 181.42C37.5684 181.42 38.0472 172.146 37.3176 164.747C36.2973 154.35 29.5827 141.833 21.5685 144.797C13.5543 147.761 25.245 158.323 27.8385 167.147C30.432 175.971 32.4897 184.27 32.4897 184.27Z" fill="#37474F"/>
<path d="M34.8554 183.181C34.8198 183.181 34.7846 183.173 34.752 183.158C34.7194 183.144 34.69 183.123 34.6656 183.097C34.6411 183.071 34.6222 183.04 34.6097 183.007C34.5973 182.973 34.5917 182.938 34.5932 182.902C35.3798 159.8 23.8772 148.172 23.7632 148.058C23.7126 148.008 23.6838 147.94 23.6833 147.869C23.6828 147.798 23.7105 147.729 23.7604 147.679C23.8103 147.628 23.8782 147.599 23.9493 147.599C24.0204 147.598 24.0888 147.626 24.1394 147.676C24.2591 147.79 35.927 159.583 35.1347 182.925C35.1333 182.96 35.1249 182.995 35.11 183.026C35.0952 183.058 35.0742 183.087 35.0483 183.111C35.0223 183.135 34.992 183.153 34.9589 183.165C34.9258 183.177 34.8906 183.183 34.8554 183.181Z" fill="white"/>
<path d="M29.7021 185.877L32.877 184.042C32.877 184.042 33.4185 177.487 30.2037 169.518C27.405 162.581 20.4567 156.83 16.9683 158.038C13.4799 159.247 13.5483 161.726 15.2583 164.308C16.9683 166.89 27.3252 173.115 29.7021 185.877Z" fill="#455A64"/>
<path d="M31.3498 185.176C31.3142 185.177 31.2787 185.17 31.2455 185.157C31.2124 185.144 31.1822 185.125 31.1567 185.1C31.1312 185.075 31.1109 185.045 31.0971 185.012C31.0833 184.979 31.0762 184.944 31.0762 184.908C31.1389 170.299 17.4247 160.398 17.2822 160.324C17.2249 160.282 17.1862 160.219 17.1745 160.149C17.1628 160.078 17.1789 160.006 17.2195 159.948C17.2399 159.919 17.2659 159.894 17.296 159.875C17.326 159.856 17.3595 159.844 17.3945 159.838C17.4295 159.832 17.4653 159.833 17.4998 159.841C17.5344 159.849 17.567 159.864 17.5957 159.885C17.7382 159.982 31.6804 170.02 31.6177 184.908C31.6177 184.943 31.6108 184.978 31.5973 185.011C31.5839 185.043 31.5641 185.073 31.5392 185.098C31.5144 185.122 31.4848 185.142 31.4523 185.156C31.4198 185.169 31.385 185.176 31.3498 185.176Z" fill="white"/>
<path d="M123.725 141.73L127.025 139.844C127.171 139.734 127.286 139.589 127.36 139.423C127.434 139.256 127.464 139.073 127.447 138.892V116.901C127.414 116.311 127.217 115.743 126.877 115.26L123.594 117.152C123.922 117.634 124.108 118.199 124.129 118.782V140.79C124.15 140.968 124.124 141.149 124.053 141.314C123.982 141.479 123.869 141.623 123.725 141.73Z" fill="white"/>
<path d="M123.725 141.73L127.025 139.844C127.171 139.734 127.286 139.589 127.36 139.423C127.434 139.256 127.464 139.073 127.447 138.892V116.901C127.414 116.311 127.217 115.743 126.877 115.26L123.594 117.152C123.922 117.634 124.108 118.199 124.129 118.782V140.79C124.15 140.968 124.124 141.149 124.053 141.314C123.982 141.479 123.869 141.623 123.725 141.73Z" fill="url(#paint0_linear_1_2812)"/>
<path opacity="0.55" d="M123.725 141.73L127.025 139.844C127.171 139.734 127.286 139.589 127.36 139.423C127.434 139.256 127.464 139.073 127.447 138.892V116.901C127.414 116.311 127.217 115.743 126.877 115.26L123.594 117.152C123.922 117.634 124.108 118.199 124.129 118.782V140.79C124.15 140.968 124.124 141.149 124.053 141.314C123.982 141.479 123.869 141.623 123.725 141.73Z" fill="white"/>
<path d="M122.675 116.194L76.6305 89.615C75.804 89.1362 75.1371 89.5238 75.1371 90.4757V112.512C75.1644 113.03 75.314 113.534 75.5736 113.982C75.8332 114.431 76.1953 114.812 76.6305 115.094L122.675 141.633C123.496 142.106 124.168 141.719 124.168 140.767V118.782C124.139 118.264 123.989 117.76 123.73 117.31C123.47 116.861 123.109 116.479 122.675 116.194Z" fill="white"/>
<path d="M122.675 116.194L76.6305 89.615C75.804 89.1362 75.1371 89.5238 75.1371 90.4757V112.512C75.1644 113.03 75.314 113.534 75.5736 113.982C75.8332 114.431 76.1953 114.812 76.6305 115.094L122.675 141.633C123.496 142.106 124.168 141.719 124.168 140.767V118.782C124.139 118.264 123.989 117.76 123.73 117.31C123.47 116.861 123.109 116.479 122.675 116.194Z" fill="url(#paint1_linear_1_2812)"/>
<path opacity="0.7" d="M122.675 116.194L76.6305 89.615C75.804 89.1362 75.1371 89.5238 75.1371 90.4757V112.512C75.1644 113.03 75.314 113.534 75.5736 113.982C75.8332 114.431 76.1953 114.812 76.6305 115.094L122.675 141.633C123.496 142.106 124.168 141.719 124.168 140.767V118.782C124.139 118.264 123.989 117.76 123.73 117.31C123.47 116.861 123.109 116.479 122.675 116.194Z" fill="white"/>
<path d="M78.8769 87.626L75.6279 89.4785C75.7932 89.417 75.9709 89.3968 76.1457 89.4197C76.3206 89.4425 76.4872 89.5077 76.6311 89.6096L122.676 116.194C123.065 116.435 123.393 116.763 123.633 117.152L126.917 115.26C126.682 114.874 126.36 114.55 125.976 114.313L79.9314 87.7286C79.7305 87.6047 79.5005 87.5359 79.2645 87.5291C79.1292 87.528 78.9958 87.5613 78.8769 87.626Z" fill="white"/>
<path d="M78.8769 87.626L75.6279 89.4785C75.7932 89.417 75.9709 89.3968 76.1457 89.4197C76.3206 89.4425 76.4872 89.5077 76.6311 89.6096L122.676 116.194C123.065 116.435 123.393 116.763 123.633 117.152L126.917 115.26C126.682 114.874 126.36 114.55 125.976 114.313L79.9314 87.7286C79.7305 87.6047 79.5005 87.5359 79.2645 87.5291C79.1292 87.528 78.9958 87.5613 78.8769 87.626Z" fill="url(#paint2_linear_1_2812)"/>
<path opacity="0.85" d="M78.8769 87.626L75.6279 89.4785C75.7932 89.417 75.9709 89.3968 76.1457 89.4197C76.3206 89.4425 76.4872 89.5077 76.6311 89.6096L122.676 116.194C123.065 116.435 123.393 116.763 123.633 117.152L126.917 115.26C126.682 114.874 126.36 114.55 125.976 114.313L79.9314 87.7286C79.7305 87.6047 79.5005 87.5359 79.2645 87.5291C79.1292 87.528 78.9958 87.5613 78.8769 87.626Z" fill="white"/>
<path d="M119.074 118.229L80.2338 95.7599C79.8348 95.5319 79.5155 95.6915 79.5155 96.119C79.5329 96.3601 79.607 96.5937 79.7318 96.8008C79.8566 97.0078 80.0286 97.1824 80.2338 97.3103L119.074 119.768C119.467 119.996 119.792 119.837 119.792 119.409C119.772 119.17 119.697 118.939 119.572 118.734C119.448 118.529 119.277 118.356 119.074 118.229Z" fill="white"/>
<path d="M119.074 118.229L80.2338 95.7599C79.8348 95.5319 79.5155 95.6915 79.5155 96.119C79.5329 96.3601 79.607 96.5937 79.7318 96.8008C79.8566 97.0078 80.0286 97.1824 80.2338 97.3103L119.074 119.768C119.467 119.996 119.792 119.837 119.792 119.409C119.772 119.17 119.697 118.939 119.572 118.734C119.448 118.529 119.277 118.356 119.074 118.229Z" fill="url(#paint3_linear_1_2812)"/>
<path d="M119.074 133.95L80.2338 111.492C79.8348 111.264 79.5155 111.423 79.5155 111.857C79.5328 112.097 79.607 112.33 79.7318 112.536C79.8567 112.742 80.0287 112.916 80.2338 113.042L119.074 135.477C119.467 135.705 119.792 135.54 119.792 135.113C119.769 134.877 119.692 134.649 119.568 134.448C119.443 134.246 119.274 134.076 119.074 133.95Z" fill="white"/>
<path d="M119.074 133.95L80.2338 111.492C79.8348 111.264 79.5155 111.423 79.5155 111.857C79.5328 112.097 79.607 112.33 79.7318 112.536C79.8567 112.742 80.0287 112.916 80.2338 113.042L119.074 135.477C119.467 135.705 119.792 135.54 119.792 135.113C119.769 134.877 119.692 134.649 119.568 134.448C119.443 134.246 119.274 134.076 119.074 133.95Z" fill="url(#paint4_linear_1_2812)"/>
<path d="M119.074 126.078L80.2338 103.614C79.8348 103.386 79.5155 103.552 79.5155 103.979C79.5338 104.22 79.6082 104.453 79.733 104.66C79.8577 104.867 80.0292 105.042 80.2338 105.17L119.074 127.628C119.467 127.856 119.792 127.691 119.792 127.264C119.773 127.024 119.698 126.791 119.574 126.585C119.449 126.379 119.278 126.206 119.074 126.078Z" fill="white"/>
<path d="M119.074 126.078L80.2338 103.614C79.8348 103.386 79.5155 103.552 79.5155 103.979C79.5338 104.22 79.6082 104.453 79.733 104.66C79.8577 104.867 80.0292 105.042 80.2338 105.17L119.074 127.628C119.467 127.856 119.792 127.691 119.792 127.264C119.773 127.024 119.698 126.791 119.574 126.585C119.449 126.379 119.278 126.206 119.074 126.078Z" fill="url(#paint5_linear_1_2812)"/>
<path d="M119.074 130L80.2338 107.542C79.8348 107.314 79.5155 107.473 79.5155 107.901C79.5329 108.142 79.607 108.375 79.7318 108.582C79.8566 108.79 80.0286 108.964 80.2338 109.092L119.074 131.55C119.467 131.778 119.792 131.618 119.792 131.191C119.774 130.95 119.7 130.716 119.575 130.509C119.45 130.303 119.278 130.128 119.074 130Z" fill="white"/>
<path d="M119.074 130L80.2338 107.542C79.8348 107.314 79.5155 107.473 79.5155 107.901C79.5329 108.142 79.607 108.375 79.7318 108.582C79.8566 108.79 80.0286 108.964 80.2338 109.092L119.074 131.55C119.467 131.778 119.792 131.618 119.792 131.191C119.774 130.95 119.7 130.716 119.575 130.509C119.45 130.303 119.278 130.128 119.074 130Z" fill="url(#paint6_linear_1_2812)"/>
<path d="M119.074 122.151L80.2338 99.6926C79.8348 99.4646 79.5155 99.6242 79.5155 100.057C79.5328 100.298 79.607 100.531 79.7318 100.737C79.8567 100.943 80.0287 101.116 80.2338 101.243L119.074 123.69C119.467 123.918 119.792 123.752 119.792 123.325C119.771 123.087 119.695 122.857 119.57 122.654C119.446 122.45 119.276 122.278 119.074 122.151Z" fill="white"/>
<path d="M119.074 122.151L80.2338 99.6926C79.8348 99.4646 79.5155 99.6242 79.5155 100.057C79.5328 100.298 79.607 100.531 79.7318 100.737C79.8567 100.943 80.0287 101.116 80.2338 101.243L119.074 123.69C119.467 123.918 119.792 123.752 119.792 123.325C119.771 123.087 119.695 122.857 119.57 122.654C119.446 122.45 119.276 122.278 119.074 122.151Z" fill="url(#paint7_linear_1_2812)"/>
<path d="M123.975 108.169L127.11 106.385C127.256 106.276 127.372 106.131 127.446 105.964C127.52 105.797 127.549 105.614 127.532 105.433V46.9392C127.501 46.349 127.304 45.7797 126.962 45.2976L123.907 47.0646C124.218 47.5365 124.393 48.0846 124.414 48.6492V107.205C124.435 107.391 124.406 107.578 124.328 107.748C124.251 107.918 124.129 108.063 123.975 108.169Z" fill="#263238"/>
<path d="M76.0952 19.2829C76.3716 19.2582 76.6484 19.3264 76.8818 19.4767L122.926 46.0615C123.329 46.3136 123.667 46.6573 123.912 47.0647L126.973 45.2977C126.735 44.9153 126.414 44.5918 126.033 44.3515L79.9883 17.7724C79.7885 17.6452 79.5581 17.5743 79.3214 17.5672C79.1861 17.5661 79.0527 17.5994 78.9338 17.6641L76.0952 19.2829Z" fill="#37474F"/>
<path d="M122.926 46.0615L76.8814 19.4824C76.0549 19.0036 75.388 19.3912 75.388 20.3431V78.9505C75.4154 79.4683 75.565 79.9722 75.8246 80.421C76.0841 80.8698 76.4463 81.2507 76.8814 81.5326L122.92 108.072C123.747 108.545 124.419 108.157 124.419 107.205V48.6493C124.39 48.1312 124.24 47.6272 123.981 47.1778C123.721 46.7283 123.36 46.346 122.926 46.0615Z" fill="#455A64"/>
<path d="M120.373 47.9711L79.0481 24.1109C78.3071 23.6834 77.7086 24.0311 77.7086 24.8861V77.5199C77.7337 77.9847 77.868 78.437 78.1008 78.8401C78.3335 79.2432 78.6581 79.5857 79.0481 79.8398L120.373 103.654C121.114 104.082 121.713 103.734 121.713 102.879V50.291C121.688 49.8262 121.553 49.3738 121.321 48.9707C121.088 48.5676 120.763 48.2251 120.373 47.9711Z" fill="#F0F0F0"/>
<mask id="mask0_1_2812" style="mask-type:luminance" maskUnits="userSpaceOnUse" x="77" y="23" width="45" height="81">
<path d="M120.373 47.9711L79.0481 24.1109C78.3071 23.6834 77.7086 24.0311 77.7086 24.8861V77.5199C77.7337 77.9847 77.868 78.437 78.1008 78.8401C78.3335 79.2432 78.6581 79.5857 79.0481 79.8398L120.373 103.654C121.114 104.082 121.713 103.734 121.713 102.879V50.291C121.688 49.8262 121.553 49.3738 121.321 48.9707C121.088 48.5676 120.763 48.2251 120.373 47.9711Z" fill="white"/>
</mask>
<g mask="url(#mask0_1_2812)">
<path d="M86.0186 69.5397C86.7443 68.2716 87.8973 67.3031 89.2715 66.807C90.6457 66.311 92.1515 66.3199 93.5198 66.8322C93.5198 66.8322 93.7592 71.2383 91.502 77.5653C91.502 77.5653 81.6695 91.8951 79.7087 93.2289L76.9898 84.2115C76.9898 84.2115 84.1661 72.441 86.0186 69.5397Z" fill="#B16668"/>
<path d="M110.113 72.6007C112.433 73.4842 112.085 76.0207 112.011 78.2722C111.971 79.6573 111.743 82.0057 111.595 85.2262L110.934 95.5945L111.082 118.087C103.541 120.657 93.9477 118.394 85.8993 109.451C85.8993 109.451 86.3495 80.6662 86.3495 75.9409C86.3495 75.7243 86.3495 75.5134 86.3495 75.2968C86.6345 68.833 89.8436 66.0685 93.5087 66.8437C94.6829 67.0945 97.2251 67.9039 98.9066 68.4283L103.524 69.9217C103.524 69.9217 107.799 71.7172 110.113 72.6007Z" fill="white"/>
<path d="M110.113 72.6007C112.433 73.4842 112.085 76.0207 112.011 78.2722C111.971 79.6573 111.743 82.0057 111.595 85.2262L110.934 95.5945L111.082 118.087C103.541 120.657 93.9477 118.394 85.8993 109.451C85.8993 109.451 86.3495 80.6662 86.3495 75.9409C86.3495 75.7243 86.3495 75.5134 86.3495 75.2968C86.6345 68.833 89.8436 66.0685 93.5087 66.8437C94.6829 67.0945 97.2251 67.9039 98.9066 68.4283L103.524 69.9217C103.524 69.9217 107.799 71.7172 110.113 72.6007Z" fill="url(#paint8_linear_1_2812)"/>
<path opacity="0.2" d="M110.113 72.6007C112.433 73.4842 112.085 76.0207 112.011 78.2722C111.971 79.6573 111.743 82.0057 111.595 85.2262L110.934 95.5945L111.082 118.087C103.541 120.657 93.9477 118.394 85.8993 109.451C85.8993 109.451 86.3495 80.6662 86.3495 75.9409C86.3495 75.7243 86.3495 75.5134 86.3495 75.2968C86.6345 68.833 89.8436 66.0685 93.5087 66.8437C94.6829 67.0945 97.2251 67.9039 98.9066 68.4283L103.524 69.9217C103.524 69.9217 107.799 71.7172 110.113 72.6007Z" fill="black"/>
<path d="M92.6481 50.2052C92.6481 48.1247 92.3232 45.3944 90.2085 44.3969C89.1369 43.8896 87.6093 43.6787 86.589 44.3399C85.5687 45.0011 84.9189 45.9359 85.1013 47.2355C85.2796 48.2058 85.7652 49.0931 86.4864 49.7663C86.6111 49.8623 86.7043 49.9933 86.7543 50.1425C86.7733 50.2628 86.7635 50.3858 86.7258 50.5016C86.4522 51.7841 86.4693 53.2547 87.3414 54.2351C87.6415 54.5686 88.0207 54.8211 88.444 54.9696C88.8674 55.118 89.3213 55.1575 89.7639 55.0844C90.2611 54.9668 90.725 54.7373 91.1201 54.4133C91.5152 54.0893 91.8312 53.6794 92.0439 53.2148C92.4784 52.2728 92.6853 51.2419 92.6481 50.2052Z" fill="#263238"/>
<path d="M106.59 57.5125C106.59 57.5125 105.416 63.5602 104.948 64.4779C104.807 64.745 104.601 64.9723 104.349 65.1387C104.097 65.3051 103.807 65.4052 103.506 65.4298L103.586 60.9837L106.59 57.5125Z" fill="#263238"/>
<path d="M105.148 48.0107C105.148 48.0107 106.237 48.2786 106.288 48.3071C106.79 48.4944 107.241 48.7971 107.605 49.1906C107.887 49.4909 108.093 49.8551 108.204 50.2522C108.315 50.6492 108.329 51.0673 108.243 51.4706C108.06 52.0582 107.728 52.5884 107.28 53.0096C107.625 53.3618 107.895 53.7808 108.072 54.2408C108.246 54.7058 108.246 55.218 108.072 55.6829C107.951 55.9535 107.793 56.2066 107.605 56.4353C107.188 56.9654 106.698 57.4841 105.98 57.4043C105.456 57.3473 104.926 57.2618 104.401 57.1934L105.148 48.0107Z" fill="#263238"/>
<path d="M103.74 57.0397C104.179 57.4672 104.811 56.6521 105.359 56.1391C105.906 55.6261 107.684 55.2043 108.573 57.604C109.463 60.0037 107.787 62.506 106.385 62.6428C103.968 62.8708 103.603 60.9841 103.603 60.9841L103.523 70.9135C100.884 76.4368 90.0085 74.3335 95.5432 68.5993V65.5498C94.4348 65.4532 93.342 65.2236 92.2885 64.8658C90.5101 64.0735 89.3872 62.1526 88.8685 59.7871C88.0021 55.9852 88.0762 53.7337 88.3669 46.8766C88.5664 42.1684 96.9625 40.7149 101.146 44.8759C105.33 49.0369 103.74 57.0397 103.74 57.0397Z" fill="#B16668"/>
<path d="M105.37 56.139C105.655 55.9167 105.627 55.2669 105.644 54.9534C105.673 54.1932 105.66 53.432 105.604 52.6734C105.53 51.4764 105.199 50.2224 105.473 49.0482C105.609 48.6213 105.65 48.17 105.593 47.7258C105.56 47.5033 105.458 47.2971 105.3 47.1371C105.142 46.9772 104.937 46.8719 104.715 46.8366C104.977 46.1507 105.049 45.4069 104.924 44.6833C104.799 43.9598 104.481 43.2835 104.004 42.7256C103.526 42.1677 102.907 41.7489 102.212 41.5134C101.517 41.2779 100.77 41.2343 100.052 41.3874C99.8598 40.7305 99.4933 40.138 98.9916 39.6724C98.4899 39.2068 97.8716 38.8855 97.2023 38.7426C96.4358 38.5808 95.6415 38.6082 94.8881 38.8224C94.5041 38.9262 94.1478 39.1133 93.8444 39.3704C93.5409 39.6275 93.2979 39.9484 93.1325 40.3101C92.6594 39.2955 91.0235 38.3835 89.5301 38.5545C88.2761 38.7027 86.9879 39.4779 86.5604 40.4925C86.2688 41.1513 86.1183 41.8639 86.1183 42.5844C86.1183 43.3048 86.2688 44.0174 86.5604 44.6763C86.7939 45.1343 87.1236 45.5364 87.527 45.8552C87.9303 46.1739 88.3978 46.4018 88.8974 46.5231C89.9156 46.7695 90.9899 46.6013 91.8842 46.0557C91.8865 46.5947 92.0623 47.1186 92.3858 47.5498C92.7092 47.981 93.1629 48.2965 93.6797 48.4497C94.3981 48.6817 95.1651 48.719 95.9027 48.558C96.5958 48.293 97.2265 47.8874 97.7552 47.3667C97.8013 47.8537 97.9803 48.3186 98.2729 48.7107C98.5654 49.1027 98.9602 49.4068 99.4139 49.5897C99.8695 49.7606 100.357 49.8303 100.842 49.7939C101.327 49.7575 101.799 49.6158 102.224 49.3787C102.012 50.0568 101.893 50.7606 101.871 51.4707C101.839 51.8397 101.896 52.2109 102.036 52.5536C102.112 52.7206 102.234 52.8626 102.387 52.9634C102.54 53.0643 102.719 53.1198 102.902 53.1236C102.491 54.1621 102.344 55.2863 102.475 56.3955C102.487 56.8391 102.662 57.2628 102.965 57.5868C103.951 58.4988 104.76 56.6178 105.37 56.139Z" fill="#263238"/>
<path d="M105.143 48.5749L107.822 47.6344C107.44 46.6483 106.534 46.0612 105.793 46.3177C105.052 46.5742 104.767 47.5888 105.143 48.5749Z" fill="#263238"/>
<path d="M95.5719 65.5495C95.5719 65.5495 99.5619 65.6863 100.93 65.2075C101.762 64.9174 102.45 64.317 102.851 63.5317C102.655 64.362 102.282 65.14 101.756 65.8117C100.742 67.0372 95.5719 66.7579 95.5719 66.7579V65.5495Z" fill="#9A4A4D"/>
<path d="M96.5986 54.7711C96.5995 55.0198 96.6765 55.2623 96.8191 55.466C96.9617 55.6698 97.1632 55.8251 97.3966 55.9111C97.8355 56.0308 98.1946 55.6945 98.1946 55.1701C98.1929 54.9215 98.1156 54.6794 97.9731 54.4758C97.8306 54.2722 97.6295 54.1168 97.3966 54.0301C96.9577 53.9104 96.5986 54.2467 96.5986 54.7711Z" fill="#263238"/>
<path d="M97.2022 52.1605L99.1402 53.3917C99.2245 53.0986 99.2148 52.7865 99.1126 52.4992C99.0103 52.212 98.8207 51.9639 98.5702 51.79C98.4604 51.7094 98.3339 51.6546 98.2001 51.6296C98.0662 51.6047 97.9284 51.6102 97.797 51.6458C97.6655 51.6814 97.5438 51.7461 97.4409 51.8352C97.3379 51.9243 97.2563 52.0355 97.2022 52.1605Z" fill="#263238"/>
<path d="M95.9317 60.146L94.1191 60.4424C94.1702 60.7312 94.3219 60.9926 94.5472 61.1804C94.7725 61.3682 95.057 61.4702 95.3503 61.4684C95.8519 61.3886 96.1141 60.7958 95.9317 60.146Z" fill="#9A4A4D"/>
<path d="M89.393 51.7786L90.9434 50.8153C90.6299 50.2168 90.0257 49.9489 89.5982 50.2111C89.3793 50.4028 89.2377 50.6677 89.2 50.9562C89.1622 51.2447 89.2308 51.537 89.393 51.7786Z" fill="#263238"/>
<path d="M89.7981 53.1693C89.7986 53.4173 89.8747 53.6593 90.0163 53.863C90.1578 54.0667 90.3581 54.2224 90.5904 54.3093C91.0293 54.429 91.3884 54.0927 91.3884 53.5683C91.3859 53.32 91.3084 53.0782 91.1659 52.8747C91.0235 52.6713 90.8229 52.5157 90.5904 52.4283C90.1515 52.3086 89.7981 52.6392 89.7981 53.1693Z" fill="#263238"/>
<path d="M94.1191 53.3916L94.0279 58.932L91.1779 57.4443L94.1191 53.3916Z" fill="#9A4A4D"/>
<path d="M111.555 120.042C111.425 121.538 110.993 122.993 110.284 124.317C109.498 125.549 108.538 126.66 107.434 127.617C107.316 127.707 107.23 127.833 107.189 127.976C107.149 128.272 107.485 128.478 107.759 128.546C108.382 128.639 109.018 128.514 109.56 128.193C109.966 127.955 110.34 127.666 110.671 127.332C110.785 127.229 111.492 126.728 111.492 126.614C111.268 127.814 110.849 128.97 110.25 130.034C109.66 130.95 109.129 131.901 108.659 132.884C108.391 133.528 108.266 134.36 108.762 134.85C108.972 135.028 109.219 135.154 109.486 135.221C110.389 135.475 111.343 135.486 112.251 135.251C113.159 135.017 113.989 134.546 114.656 133.887C115.24 133.251 115.728 132.533 116.104 131.755C116.332 131.327 116.537 130.888 116.719 130.438C117.023 129.655 117.257 128.846 117.42 128.022C117.859 126.044 118.024 124.032 118.327 122.048C119.224 115.731 119.582 109.348 119.398 102.97C118.372 81.846 116.93 74.7039 110.101 72.6006C108.169 74.037 107.303 80.1873 109.338 85.6707C110.347 91.7957 111.01 97.973 111.321 104.173C111.447 107.103 111.92 113.008 111.783 115.938C111.72 117.249 111.72 118.56 111.555 120.042Z" fill="#B16668"/>
</g>
<path d="M248.595 213.778L251.895 211.892C252.041 211.782 252.156 211.637 252.23 211.471C252.304 211.304 252.334 211.121 252.317 210.94V188.955C252.284 188.365 252.086 187.796 251.747 187.313L248.52 189.206C248.849 189.688 249.035 190.253 249.056 190.836V212.815C249.075 213.002 249.042 213.191 248.961 213.361C248.879 213.531 248.753 213.676 248.595 213.778Z" fill="white"/>
<path d="M248.595 213.778L251.895 211.892C252.041 211.782 252.156 211.637 252.23 211.471C252.304 211.304 252.334 211.121 252.317 210.94V188.955C252.284 188.365 252.086 187.796 251.747 187.313L248.52 189.206C248.849 189.688 249.035 190.253 249.056 190.836V212.815C249.075 213.002 249.042 213.191 248.961 213.361C248.879 213.531 248.753 213.676 248.595 213.778Z" fill="url(#paint9_linear_1_2812)"/>
<path opacity="0.55" d="M248.595 213.778L251.895 211.892C252.041 211.782 252.156 211.637 252.23 211.471C252.304 211.304 252.334 211.121 252.317 210.94V188.955C252.284 188.365 252.086 187.796 251.747 187.313L248.52 189.206C248.849 189.688 249.035 190.253 249.056 190.836V212.815C249.075 213.002 249.042 213.191 248.961 213.361C248.879 213.531 248.753 213.676 248.595 213.778Z" fill="white"/>
<path d="M247.545 188.248L201.501 161.663C200.68 161.185 200.007 161.572 200.007 162.524V184.56C200.037 185.079 200.188 185.583 200.448 186.033C200.708 186.483 201.071 186.865 201.506 187.148L247.545 213.682C248.372 214.155 249.039 213.767 249.039 212.815V190.83C249.011 190.313 248.862 189.809 248.602 189.36C248.342 188.911 247.98 188.53 247.545 188.248Z" fill="white"/>
<path d="M247.545 188.248L201.501 161.663C200.68 161.185 200.007 161.572 200.007 162.524V184.56C200.037 185.079 200.188 185.583 200.448 186.033C200.708 186.483 201.071 186.865 201.506 187.148L247.545 213.682C248.372 214.155 249.039 213.767 249.039 212.815V190.83C249.011 190.313 248.862 189.809 248.602 189.36C248.342 188.911 247.98 188.53 247.545 188.248Z" fill="url(#paint10_linear_1_2812)"/>
<path opacity="0.7" d="M247.545 188.248L201.501 161.663C200.68 161.185 200.007 161.572 200.007 162.524V184.56C200.037 185.079 200.188 185.583 200.448 186.033C200.708 186.483 201.071 186.865 201.506 187.148L247.545 213.682C248.372 214.155 249.039 213.767 249.039 212.815V190.83C249.011 190.313 248.862 189.809 248.602 189.36C248.342 188.911 247.98 188.53 247.545 188.248Z" fill="white"/>
<path d="M203.747 159.68L200.498 161.532C200.663 161.471 200.841 161.45 201.016 161.473C201.19 161.496 201.357 161.561 201.501 161.663L247.546 188.248C247.941 188.487 248.275 188.815 248.52 189.206L251.803 187.313C251.562 186.934 251.233 186.618 250.846 186.39L204.801 159.805C204.6 159.681 204.37 159.612 204.134 159.605C204.001 159.597 203.868 159.623 203.747 159.68Z" fill="white"/>
<path d="M203.747 159.68L200.498 161.532C200.663 161.471 200.841 161.45 201.016 161.473C201.19 161.496 201.357 161.561 201.501 161.663L247.546 188.248C247.941 188.487 248.275 188.815 248.52 189.206L251.803 187.313C251.562 186.934 251.233 186.618 250.846 186.39L204.801 159.805C204.6 159.681 204.37 159.612 204.134 159.605C204.001 159.597 203.868 159.623 203.747 159.68Z" fill="url(#paint11_linear_1_2812)"/>
<path opacity="0.85" d="M203.747 159.68L200.498 161.532C200.663 161.471 200.841 161.45 201.016 161.473C201.19 161.496 201.357 161.561 201.501 161.663L247.546 188.248C247.941 188.487 248.275 188.815 248.52 189.206L251.803 187.313C251.562 186.934 251.233 186.618 250.846 186.39L204.801 159.805C204.6 159.681 204.37 159.612 204.134 159.605C204.001 159.597 203.868 159.623 203.747 159.68Z" fill="white"/>
<path d="M243.961 190.277L205.121 167.819C204.728 167.591 204.403 167.751 204.403 168.184C204.421 168.424 204.496 168.656 204.621 168.862C204.746 169.068 204.917 169.242 205.121 169.37L243.961 191.828C244.36 192.056 244.679 191.896 244.679 191.469C244.662 191.227 244.588 190.994 244.463 190.787C244.338 190.58 244.166 190.405 243.961 190.277Z" fill="white"/>
<path d="M243.961 190.277L205.121 167.819C204.728 167.591 204.403 167.751 204.403 168.184C204.421 168.424 204.496 168.656 204.621 168.862C204.746 169.068 204.917 169.242 205.121 169.37L243.961 191.828C244.36 192.056 244.679 191.896 244.679 191.469C244.662 191.227 244.588 190.994 244.463 190.787C244.338 190.58 244.166 190.405 243.961 190.277Z" fill="url(#paint12_linear_1_2812)"/>
<path d="M243.961 205.975L205.104 183.54C204.711 183.312 204.386 183.477 204.386 183.905C204.404 184.145 204.479 184.377 204.604 184.583C204.728 184.789 204.9 184.963 205.104 185.09L243.961 207.525C244.36 207.753 244.679 207.588 244.679 207.161C244.662 206.92 244.588 206.687 244.463 206.481C244.338 206.275 244.166 206.102 243.961 205.975Z" fill="white"/>
<path d="M243.961 205.975L205.104 183.54C204.711 183.312 204.386 183.477 204.386 183.905C204.404 184.145 204.479 184.377 204.604 184.583C204.728 184.789 204.9 184.963 205.104 185.09L243.961 207.525C244.36 207.753 244.679 207.588 244.679 207.161C244.662 206.92 244.588 206.687 244.463 206.481C244.338 206.275 244.166 206.102 243.961 205.975Z" fill="url(#paint13_linear_1_2812)"/>
<path d="M243.961 198.126L205.121 175.668C204.728 175.44 204.403 175.6 204.403 176.027C204.421 176.268 204.496 176.501 204.621 176.708C204.745 176.915 204.917 177.09 205.121 177.218L243.961 199.676C244.36 199.904 244.679 199.745 244.679 199.317C244.663 199.076 244.589 198.842 244.464 198.635C244.339 198.428 244.167 198.253 243.961 198.126Z" fill="white"/>
<path d="M243.961 198.126L205.121 175.668C204.728 175.44 204.403 175.6 204.403 176.027C204.421 176.268 204.496 176.501 204.621 176.708C204.745 176.915 204.917 177.09 205.121 177.218L243.961 199.676C244.36 199.904 244.679 199.745 244.679 199.317C244.663 199.076 244.589 198.842 244.464 198.635C244.339 198.428 244.167 198.253 243.961 198.126Z" fill="url(#paint14_linear_1_2812)"/>
<path d="M243.961 202.048L205.121 179.59C204.728 179.362 204.403 179.521 204.403 179.949C204.421 180.19 204.495 180.423 204.62 180.63C204.744 180.837 204.916 181.012 205.121 181.14L243.961 203.598C244.36 203.826 244.679 203.666 244.679 203.239C244.662 202.998 244.588 202.764 244.463 202.557C244.338 202.35 244.166 202.175 243.961 202.048Z" fill="white"/>
<path d="M243.961 202.048L205.121 179.59C204.728 179.362 204.403 179.521 204.403 179.949C204.421 180.19 204.495 180.423 204.62 180.63C204.744 180.837 204.916 181.012 205.121 181.14L243.961 203.598C244.36 203.826 244.679 203.666 244.679 203.239C244.662 202.998 244.588 202.764 244.463 202.557C244.338 202.35 244.166 202.175 243.961 202.048Z" fill="url(#paint15_linear_1_2812)"/>
<path d="M243.961 194.204L205.121 171.741C204.728 171.513 204.403 171.678 204.403 172.106C204.421 172.346 204.496 172.578 204.621 172.784C204.746 172.99 204.917 173.163 205.121 173.291L243.961 195.755C244.36 195.983 244.679 195.818 244.679 195.39C244.662 195.15 244.588 194.917 244.463 194.711C244.338 194.505 244.166 194.331 243.961 194.204Z" fill="white"/>
<path d="M243.961 194.204L205.121 171.741C204.728 171.513 204.403 171.678 204.403 172.106C204.421 172.346 204.496 172.578 204.621 172.784C204.746 172.99 204.917 173.163 205.121 173.291L243.961 195.755C244.36 195.983 244.679 195.818 244.679 195.39C244.662 195.15 244.588 194.917 244.463 194.711C244.338 194.505 244.166 194.331 243.961 194.204Z" fill="url(#paint16_linear_1_2812)"/>
<path d="M248.788 180.12L251.94 178.358C252.086 178.249 252.202 178.105 252.276 177.938C252.35 177.771 252.38 177.588 252.362 177.406V118.913C252.331 118.323 252.134 117.754 251.792 117.271L248.737 119.038C249.048 119.51 249.223 120.058 249.244 120.623V179.179C249.259 179.362 249.225 179.546 249.145 179.712C249.065 179.877 248.941 180.018 248.788 180.12Z" fill="#263238"/>
<path d="M200.908 91.2567C201.185 91.2321 201.461 91.3003 201.695 91.4505L247.739 118.035C248.142 118.287 248.48 118.631 248.725 119.039L251.786 117.272C251.548 116.889 251.227 116.566 250.846 116.325L204.801 89.7462C204.601 89.6191 204.371 89.5482 204.134 89.541C203.999 89.54 203.866 89.5733 203.747 89.6379L200.908 91.2567Z" fill="#37474F"/>
<path d="M247.739 118.03L201.694 91.4507C200.874 90.9719 200.201 91.3595 200.201 92.3114V150.919C200.23 151.437 200.381 151.941 200.64 152.39C200.899 152.84 201.26 153.222 201.694 153.507L247.739 180.04C248.566 180.513 249.232 180.131 249.232 179.179V120.618C249.204 120.099 249.054 119.595 248.795 119.145C248.535 118.696 248.174 118.314 247.739 118.03Z" fill="#455A64"/>
<path d="M245.38 119.848L204.061 95.9876C203.32 95.5601 202.721 95.9078 202.721 96.7628V149.34C202.745 149.805 202.879 150.257 203.112 150.661C203.345 151.064 203.67 151.406 204.061 151.659L245.38 175.503C246.121 175.93 246.719 175.582 246.719 174.727V122.168C246.694 121.703 246.56 121.251 246.327 120.847C246.095 120.444 245.77 120.102 245.38 119.848Z" fill="#F0F0F0"/>
<mask id="mask1_1_2812" style="mask-type:luminance" maskUnits="userSpaceOnUse" x="202" y="95" width="45" height="81">
<path d="M245.38 119.848L204.061 95.9876C203.32 95.5601 202.721 95.9078 202.721 96.7628V149.34C202.745 149.805 202.879 150.257 203.112 150.661C203.345 151.064 203.67 151.406 204.061 151.659L245.38 175.503C246.121 175.93 246.719 175.582 246.719 174.727V122.168C246.694 121.703 246.56 121.251 246.327 120.847C246.095 120.444 245.77 120.102 245.38 119.848Z" fill="white"/>
</mask>
<g mask="url(#mask1_1_2812)">
<path d="M212.2 141.787C215.426 137.598 220.75 138.19 220.75 138.19C220.281 141.833 219.395 145.409 218.111 148.849C218.111 148.849 208.273 163.174 206.312 164.513L203.593 155.49C203.593 155.49 210.108 144.512 212.2 141.787Z" fill="#FFBDA7"/>
<path d="M221.901 138.396C220.507 137.948 219.043 137.755 217.58 137.826C215.26 137.974 212.405 140.602 210.7 143.338C208.42 146.997 206.904 149.608 206.904 149.608C206.904 149.608 207.662 153.906 213.528 155.758L218.954 148.679L221.901 138.396Z" fill="white"/>
<path d="M221.901 138.396C220.507 137.948 219.043 137.755 217.58 137.826C215.26 137.974 212.405 140.602 210.7 143.338C208.42 146.997 206.904 149.608 206.904 149.608C206.904 149.608 207.662 153.906 213.528 155.758L218.954 148.679L221.901 138.396Z" fill="url(#paint17_linear_1_2812)"/>
<path opacity="0.5" d="M221.901 138.396C220.507 137.948 219.043 137.755 217.58 137.826C215.26 137.974 212.405 140.602 210.7 143.338C208.42 146.997 206.904 149.608 206.904 149.608C206.904 149.608 207.662 153.906 213.528 155.758L218.954 148.679L221.901 138.396Z" fill="black"/>
<path d="M236.869 155.188L237.627 167.158L237.017 189.553C229.476 192.124 219.883 189.861 211.835 180.918C211.835 180.918 212.165 151.175 213.214 146.096C214.474 139.98 217.478 136.634 223.565 138.812L229.533 141.194L235.672 143.64C235.672 143.64 236.869 152.874 236.869 155.188Z" fill="white"/>
<path d="M236.869 155.188L237.627 167.158L237.017 189.553C229.476 192.124 219.883 189.861 211.835 180.918C211.835 180.918 212.165 151.175 213.214 146.096C214.474 139.98 217.478 136.634 223.565 138.812L229.533 141.194L235.672 143.64C235.672 143.64 236.869 152.874 236.869 155.188Z" fill="url(#paint18_linear_1_2812)"/>
<path opacity="0.4" d="M236.869 155.188L237.627 167.158L237.017 189.553C229.476 192.124 219.883 189.861 211.835 180.918C211.835 180.918 212.165 151.175 213.214 146.096C214.474 139.98 217.478 136.634 223.565 138.812L229.533 141.194L235.672 143.64C235.672 143.64 236.869 152.874 236.869 155.188Z" fill="black"/>
<path d="M228.992 121.809C228.992 126.882 225.43 130.039 221.012 128.86C216.595 127.68 213.032 122.618 213.032 117.545C213.032 112.472 216.823 112.472 221.218 113.652C225.612 114.832 228.992 116.736 228.992 121.809Z" fill="#263238"/>
<path d="M230.28 132.422L231.614 130.877L231.072 128.654L232.212 119.871C232.676 119.793 233.152 119.867 233.57 120.08C233.989 120.293 234.328 120.636 234.538 121.056C236.447 124.522 231.996 135.175 231.614 135.916C231.473 136.184 231.267 136.412 231.015 136.579C230.763 136.747 230.473 136.848 230.172 136.874L230.28 132.422Z" fill="#263238"/>
<path d="M230.434 128.478C230.873 128.905 231.506 128.09 232.053 127.577C232.6 127.064 234.379 126.642 235.268 129.042C236.157 131.442 234.487 133.95 233.085 134.081C230.662 134.309 230.303 132.422 230.303 132.422L230.218 142.739C226.165 147.043 216.828 144.939 222.238 140.066V137.005C221.128 136.909 220.033 136.681 218.977 136.327C217.199 135.529 216.082 133.613 215.557 131.242C214.691 127.446 214.36 124.476 215.096 117.653C215.905 110.175 223.646 112.17 227.841 116.331C232.036 120.492 230.434 128.478 230.434 128.478Z" fill="#FFBDA7"/>
<path d="M230.514 129.202C231.255 129.008 231.74 127.822 232.053 127.577C232.367 127.332 232.315 126.705 232.327 126.391C232.3 125.622 232.319 124.851 232.384 124.083C232.542 123.275 232.63 122.455 232.646 121.632C232.646 119.922 232.606 117.539 231.905 115.96C230.611 113.048 228.593 112.312 226.159 111.532C224.29 110.962 222.243 111.019 220.408 110.323C218.907 109.651 217.532 108.725 216.344 107.587C215.894 107.205 215.267 106.806 214.771 107.12C214.536 107.303 214.374 107.563 214.315 107.855C214.043 108.732 213.96 109.657 214.07 110.568C213.858 110.584 213.645 110.551 213.447 110.472C213.25 110.393 213.073 110.27 212.93 110.112C212.844 110.01 212.753 109.89 212.622 109.89C212.491 109.89 212.348 110.101 212.32 110.278C212.212 111.043 212.281 111.823 212.519 112.558C213.568 116.228 217.216 118.451 220.938 119.306C223.022 119.877 225.209 119.955 227.328 119.534C227.583 119.48 227.848 119.527 228.069 119.665C228.258 119.809 228.398 120.009 228.468 120.235C228.873 121.279 228.468 123.41 228.57 124.847C228.724 126.597 228.992 128.079 229.653 128.905C229.744 129.043 229.877 129.147 230.033 129.201C230.189 129.255 230.358 129.255 230.514 129.202Z" fill="#263238"/>
<path d="M232.447 120.019L235.12 119.073C234.744 118.087 233.838 117.5 233.097 117.762C232.356 118.024 232.065 119.027 232.447 120.019Z" fill="#263238"/>
<path d="M222.26 137.005C222.26 137.005 226.25 137.147 227.612 136.663C228.445 136.373 229.133 135.772 229.533 134.987C229.339 135.817 228.967 136.594 228.445 137.267C227.43 138.493 222.26 138.213 222.26 138.213V137.005Z" fill="#F0997A"/>
<path d="M223.212 126.175C223.213 126.423 223.289 126.665 223.431 126.868C223.572 127.072 223.772 127.228 224.005 127.315C224.449 127.429 224.803 127.098 224.803 126.568C224.801 126.319 224.724 126.077 224.581 125.874C224.439 125.67 224.238 125.515 224.005 125.428C223.566 125.314 223.212 125.645 223.212 126.175Z" fill="#263238"/>
<path d="M224.489 122.715L226.199 124.254C226.311 123.968 226.333 123.655 226.262 123.356C226.19 123.058 226.029 122.788 225.8 122.584C225.719 122.481 225.613 122.399 225.492 122.348C225.372 122.297 225.24 122.276 225.109 122.29C224.978 122.303 224.853 122.348 224.745 122.423C224.636 122.497 224.549 122.598 224.489 122.715Z" fill="#263238"/>
<path d="M222.619 131.556L220.801 131.858C220.855 132.146 221.009 132.405 221.235 132.591C221.461 132.778 221.745 132.879 222.038 132.878C222.534 132.81 222.796 132.205 222.619 131.556Z" fill="#F0997A"/>
<path d="M215.917 121.221L217.467 120.269C217.154 119.699 216.55 119.403 216.122 119.699C215.913 119.888 215.777 120.144 215.74 120.423C215.702 120.702 215.765 120.985 215.917 121.221Z" fill="#263238"/>
<path d="M216.253 124.043C216.255 124.292 216.332 124.534 216.475 124.737C216.617 124.941 216.818 125.096 217.051 125.183C217.49 125.303 217.844 124.967 217.844 124.442C217.848 124.189 217.774 123.942 217.633 123.732C217.491 123.523 217.288 123.363 217.051 123.274C216.601 123.182 216.253 123.513 216.253 124.043Z" fill="#263238"/>
<path d="M220.528 124.089L220.436 129.635L217.586 128.141L220.528 124.089Z" fill="#F0997A"/>
<path d="M246.309 178.336C243.801 151.58 240.392 145.042 235.479 144.369C233.552 145.806 232.942 151.95 234.304 158.323C234.304 158.323 237.086 172.75 237.331 177.942C237.548 182.502 238.807 188.088 238.249 191.679C238.146 192.312 237.816 194.159 237.474 194.586C236.334 195.989 236.613 196.638 235.764 197.733C235.08 198.588 233.945 199.101 234.054 199.443C234.219 199.853 234.966 200.383 236.151 199.836C236.841 199.466 237.428 198.932 237.861 198.28C237.861 198.28 237.736 199.99 236.151 202.589C234.664 205.08 234.225 207.679 238.369 207.2C240.711 206.933 242.433 206.271 243.949 200.229C244.371 198.559 244.713 195.527 245.043 193.344C246.018 187.045 246.656 182.018 246.309 178.336Z" fill="#FFBDA7"/>
<path d="M235.411 143.554C235.411 143.554 240.375 144.529 241.76 149.146C242.9 153.044 243.847 156.556 245.078 164.741C243.785 165.923 242.181 166.711 240.455 167.012C238.729 167.313 236.953 167.114 235.337 166.439C235.337 166.439 232.715 155.763 232.452 150.964C232.167 145.709 235.411 143.554 235.411 143.554Z" fill="white"/>
<path d="M235.411 143.554C235.411 143.554 240.375 144.529 241.76 149.146C242.9 153.044 243.847 156.556 245.078 164.741C243.785 165.923 242.181 166.711 240.455 167.012C238.729 167.313 236.953 167.114 235.337 166.439C235.337 166.439 232.715 155.763 232.452 150.964C232.167 145.709 235.411 143.554 235.411 143.554Z" fill="url(#paint19_linear_1_2812)"/>
<path opacity="0.5" d="M235.411 143.554C235.411 143.554 240.375 144.529 241.76 149.146C242.9 153.044 243.847 156.556 245.078 164.741C243.785 165.923 242.181 166.711 240.455 167.012C238.729 167.313 236.953 167.114 235.337 166.439C235.337 166.439 232.715 155.763 232.452 150.964C232.167 145.709 235.411 143.554 235.411 143.554Z" fill="black"/>
</g>
<path d="M186.105 177.207L189.406 175.32C189.551 175.21 189.665 175.065 189.739 174.899C189.813 174.732 189.843 174.55 189.827 174.368V152.384C189.795 151.794 189.597 151.225 189.257 150.742L185.974 152.634C186.301 153.117 186.485 153.682 186.504 154.265V176.244C186.53 176.425 186.507 176.61 186.436 176.78C186.366 176.949 186.252 177.097 186.105 177.207Z" fill="white"/>
<path d="M186.105 177.207L189.406 175.32C189.551 175.21 189.665 175.065 189.739 174.899C189.813 174.732 189.843 174.55 189.827 174.368V152.384C189.795 151.794 189.597 151.225 189.257 150.742L185.974 152.634C186.301 153.117 186.485 153.682 186.504 154.265V176.244C186.53 176.425 186.507 176.61 186.436 176.78C186.366 176.949 186.252 177.097 186.105 177.207Z" fill="url(#paint20_linear_1_2812)"/>
<path opacity="0.55" d="M186.105 177.207L189.406 175.32C189.551 175.21 189.665 175.065 189.739 174.899C189.813 174.732 189.843 174.55 189.827 174.368V152.384C189.795 151.794 189.597 151.225 189.257 150.742L185.974 152.634C186.301 153.117 186.485 153.682 186.504 154.265V176.244C186.53 176.425 186.507 176.61 186.436 176.78C186.366 176.949 186.252 177.097 186.105 177.207Z" fill="white"/>
<path d="M185.051 151.677L139.012 125.092C138.185 124.613 137.518 125.001 137.518 125.953V147.989C137.546 148.507 137.695 149.011 137.955 149.459C138.215 149.908 138.577 150.289 139.012 150.571L185.051 177.11C185.877 177.583 186.544 177.196 186.544 176.244V154.259C186.517 153.741 186.367 153.237 186.108 152.789C185.848 152.34 185.486 151.959 185.051 151.677Z" fill="white"/>
<path d="M185.051 151.677L139.012 125.092C138.185 124.613 137.518 125.001 137.518 125.953V147.989C137.546 148.507 137.695 149.011 137.955 149.459C138.215 149.908 138.577 150.289 139.012 150.571L185.051 177.11C185.877 177.583 186.544 177.196 186.544 176.244V154.259C186.517 153.741 186.367 153.237 186.108 152.789C185.848 152.34 185.486 151.959 185.051 151.677Z" fill="url(#paint21_linear_1_2812)"/>
<path opacity="0.7" d="M185.051 151.677L139.012 125.092C138.185 124.613 137.518 125.001 137.518 125.953V147.989C137.546 148.507 137.695 149.011 137.955 149.459C138.215 149.908 138.577 150.289 139.012 150.571L185.051 177.11C185.877 177.583 186.544 177.196 186.544 176.244V154.259C186.517 153.741 186.367 153.237 186.108 152.789C185.848 152.34 185.486 151.959 185.051 151.677Z" fill="white"/>
<path d="M141.258 123.12L138.009 124.972C138.175 124.911 138.352 124.891 138.527 124.913C138.702 124.936 138.869 125.002 139.012 125.103L185.057 151.677C185.446 151.917 185.774 152.245 186.015 152.634L189.298 150.742C189.064 150.357 188.741 150.032 188.357 149.796L142.313 123.211C142.11 123.087 141.878 123.018 141.64 123.011C141.505 123.013 141.374 123.05 141.258 123.12Z" fill="white"/>
<path d="M141.258 123.12L138.009 124.972C138.175 124.911 138.352 124.891 138.527 124.913C138.702 124.936 138.869 125.002 139.012 125.103L185.057 151.677C185.446 151.917 185.774 152.245 186.015 152.634L189.298 150.742C189.064 150.357 188.741 150.032 188.357 149.796L142.313 123.211C142.11 123.087 141.878 123.018 141.64 123.011C141.505 123.013 141.374 123.05 141.258 123.12Z" fill="url(#paint22_linear_1_2812)"/>
<path opacity="0.85" d="M141.258 123.12L138.009 124.972C138.175 124.911 138.352 124.891 138.527 124.913C138.702 124.936 138.869 125.002 139.012 125.103L185.057 151.677C185.446 151.917 185.774 152.245 186.015 152.634L189.298 150.742C189.064 150.357 188.741 150.032 188.357 149.796L142.313 123.211C142.11 123.087 141.878 123.018 141.64 123.011C141.505 123.013 141.374 123.05 141.258 123.12Z" fill="white"/>
<path d="M181.454 153.706L142.608 131.248C142.215 131.02 141.896 131.18 141.896 131.607C141.912 131.848 141.986 132.081 142.109 132.288C142.233 132.495 142.404 132.67 142.608 132.798L181.454 155.256C181.847 155.484 182.166 155.325 182.166 154.897C182.149 154.657 182.075 154.424 181.951 154.217C181.828 154.01 181.657 153.835 181.454 153.706Z" fill="white"/>
<path d="M181.454 153.706L142.608 131.248C142.215 131.02 141.896 131.18 141.896 131.607C141.912 131.848 141.986 132.081 142.109 132.288C142.233 132.495 142.404 132.67 142.608 132.798L181.454 155.256C181.847 155.484 182.166 155.325 182.166 154.897C182.149 154.657 182.075 154.424 181.951 154.217C181.828 154.01 181.657 153.835 181.454 153.706Z" fill="url(#paint23_linear_1_2812)"/>
<path d="M181.454 169.404L142.608 146.94C142.215 146.712 141.896 146.877 141.896 147.305C141.913 147.544 141.987 147.777 142.111 147.982C142.234 148.188 142.405 148.362 142.608 148.49L181.454 170.954C181.847 171.182 182.166 171.017 182.166 170.589C182.149 170.35 182.075 170.118 181.951 169.912C181.828 169.706 181.657 169.532 181.454 169.404Z" fill="white"/>
<path d="M181.454 169.404L142.608 146.94C142.215 146.712 141.896 146.877 141.896 147.305C141.913 147.544 141.987 147.777 142.111 147.982C142.234 148.188 142.405 148.362 142.608 148.49L181.454 170.954C181.847 171.182 182.166 171.017 182.166 170.589C182.149 170.35 182.075 170.118 181.951 169.912C181.828 169.706 181.657 169.532 181.454 169.404Z" fill="url(#paint24_linear_1_2812)"/>
<path d="M181.454 161.555L142.608 139.08C142.215 138.852 141.896 139.011 141.896 139.439C141.913 139.679 141.987 139.912 142.111 140.119C142.234 140.326 142.405 140.501 142.608 140.63L181.454 163.088C181.847 163.316 182.166 163.156 182.166 162.723C182.146 162.487 182.071 162.258 181.948 162.055C181.824 161.852 181.655 161.681 181.454 161.555Z" fill="white"/>
<path d="M181.454 161.555L142.608 139.08C142.215 138.852 141.896 139.011 141.896 139.439C141.913 139.679 141.987 139.912 142.111 140.119C142.234 140.326 142.405 140.501 142.608 140.63L181.454 163.088C181.847 163.316 182.166 163.156 182.166 162.723C182.146 162.487 182.071 162.258 181.948 162.055C181.824 161.852 181.655 161.681 181.454 161.555Z" fill="url(#paint25_linear_1_2812)"/>
<path d="M181.454 165.476L142.608 143.018C142.215 142.79 141.896 142.95 141.896 143.378C141.912 143.618 141.986 143.851 142.109 144.058C142.233 144.265 142.404 144.44 142.608 144.569L181.454 167.01C181.847 167.238 182.166 167.078 182.166 166.651C182.146 166.413 182.071 166.184 181.948 165.98C181.824 165.776 181.655 165.604 181.454 165.476Z" fill="white"/>
<path d="M181.454 165.476L142.608 143.018C142.215 142.79 141.896 142.95 141.896 143.378C141.912 143.618 141.986 143.851 142.109 144.058C142.233 144.265 142.404 144.44 142.608 144.569L181.454 167.01C181.847 167.238 182.166 167.078 182.166 166.651C182.146 166.413 182.071 166.184 181.948 165.98C181.824 165.776 181.655 165.604 181.454 165.476Z" fill="url(#paint26_linear_1_2812)"/>
<path d="M181.454 157.633L142.608 135.17C142.215 134.942 141.896 135.107 141.896 135.535C141.913 135.774 141.987 136.006 142.111 136.212C142.234 136.418 142.405 136.592 142.608 136.72L181.454 159.184C181.847 159.412 182.166 159.247 182.166 158.819C182.149 158.579 182.075 158.347 181.951 158.141C181.828 157.935 181.657 157.761 181.454 157.633Z" fill="white"/>
<path d="M181.454 157.633L142.608 135.17C142.215 134.942 141.896 135.107 141.896 135.535C141.913 135.774 141.987 136.006 142.111 136.212C142.234 136.418 142.405 136.592 142.608 136.72L181.454 159.184C181.847 159.412 182.166 159.247 182.166 158.819C182.149 158.579 182.075 158.347 181.951 158.141C181.828 157.935 181.657 157.761 181.454 157.633Z" fill="url(#paint27_linear_1_2812)"/>
<path d="M186.168 144.267L189.298 142.5C189.444 142.391 189.56 142.246 189.633 142.079C189.707 141.912 189.737 141.729 189.719 141.548V83.0373C189.689 82.4472 189.491 81.8779 189.149 81.3958L186.094 83.1627C186.405 83.6346 186.581 84.1827 186.602 84.7473V143.303C186.623 143.488 186.595 143.675 186.518 143.845C186.442 144.015 186.321 144.161 186.168 144.267Z" fill="#263238"/>
<path d="M138.288 55.381C138.565 55.3564 138.842 55.4246 139.075 55.5748L185.12 82.1596C185.523 82.4118 185.86 82.7555 186.106 83.1628L189.167 81.3958C188.929 81.0134 188.607 80.6899 188.226 80.4496L142.181 53.8705C141.982 53.7434 141.751 53.6725 141.515 53.6653C141.379 53.6642 141.246 53.6976 141.127 53.7622L138.288 55.381Z" fill="#37474F"/>
<path d="M185.119 82.1596L139.08 55.5748C138.254 55.1017 137.587 55.4836 137.587 56.4412V115.049C137.614 115.566 137.764 116.07 138.023 116.519C138.283 116.968 138.645 117.349 139.08 117.631L185.125 144.164C185.946 144.643 186.618 144.255 186.618 143.303V84.7474C186.589 84.2287 186.438 83.7242 186.177 83.2746C185.917 82.8251 185.554 82.4431 185.119 82.1596Z" fill="#455A64"/>
<path d="M182.754 83.9723L141.429 60.1121C140.688 59.6846 140.089 60.0323 140.089 60.8873V113.493C140.114 113.957 140.248 114.41 140.481 114.813C140.714 115.216 141.038 115.558 141.429 115.812L182.754 139.65C183.495 140.077 184.093 139.73 184.093 138.875V86.2979C184.068 85.8323 183.934 85.3792 183.701 84.9751C183.468 84.5711 183.144 84.2276 182.754 83.9723Z" fill="#F0F0F0"/>
<mask id="mask2_1_2812" style="mask-type:luminance" maskUnits="userSpaceOnUse" x="140" y="59" width="45" height="81">
<path d="M182.754 83.9723L141.429 60.1121C140.688 59.6846 140.089 60.0323 140.089 60.8873V113.493C140.114 113.957 140.248 114.41 140.481 114.813C140.714 115.216 141.038 115.558 141.429 115.812L182.754 139.65C183.495 140.077 184.093 139.73 184.093 138.875V86.2922C184.068 85.8275 183.933 85.3753 183.7 84.9723C183.468 84.5692 183.143 84.2267 182.754 83.9723Z" fill="white"/>
</mask>
<g mask="url(#mask2_1_2812)">
<path d="M148.131 130.901C154.247 109.337 154.316 105.821 153.951 103.278C148.399 101.939 145.971 105.746 144.489 112.165C143.776 115.248 141.724 126.985 140.453 131.892C139.313 136.196 137.934 140.813 136.258 143.862C136.122 144.121 135.926 144.343 135.688 144.51C135.449 144.678 135.173 144.786 134.884 144.826C133.328 145.048 132.866 145.92 131.601 146.57C130.609 147.071 129.891 146.946 129.92 147.294C129.993 147.68 130.182 148.036 130.462 148.313C130.742 148.59 131.099 148.775 131.487 148.844C132.111 148.911 132.741 148.871 133.351 148.724C132.601 149.707 131.682 150.548 130.638 151.21C128.198 152.789 127.44 155.2 131.664 156.391C133.322 156.853 136.412 156.328 140.088 151.363C141.313 149.586 142.328 147.673 143.115 145.664C145.207 140.368 146.911 135.21 148.131 130.901Z" fill="#FFA8A7"/>
<path d="M162.98 105.758C162.98 105.758 169.033 107.906 170.595 108.642C166.605 113.43 171.382 126.494 171.382 126.494L168.834 135.295L149.682 128.586C146.512 120.606 145.891 116.987 146.17 114.798C146.803 109.839 149.767 106.584 153.951 103.278L162.98 105.758Z" fill="white"/>
<path d="M162.98 105.758C162.98 105.758 169.033 107.906 170.595 108.642C166.605 113.43 171.382 126.494 171.382 126.494L168.834 135.295L149.682 128.586C146.512 120.606 145.891 116.987 146.17 114.798C146.803 109.839 149.767 106.584 153.951 103.278L162.98 105.758Z" fill="url(#paint28_linear_1_2812)"/>
<path d="M148.599 100.445L158.585 103.58C160.108 104.059 161.721 104.172 163.296 103.911C164.87 103.651 166.361 103.024 167.649 102.08C168.936 101.137 169.983 99.9044 170.706 98.4817C171.429 97.0589 171.807 95.4861 171.809 93.8902V91.7698C171.809 84.6106 166.782 77.4628 160.58 75.8098L159.742 75.5875C153.541 73.9231 148.513 78.3805 148.513 85.5397V87.5404C148.513 93.9472 148.599 100.445 148.599 100.445Z" fill="#37474F"/>
<path d="M167.944 78.7794C168.56 78.1752 169.592 78.4032 170.253 79.2867L169.022 80.5065C169.313 80.4719 169.608 80.5297 169.865 80.6718C170.311 80.9222 170.671 81.3019 170.897 81.7608C171.123 82.2197 171.204 82.7363 171.131 83.2425L167.933 81.6066C167.95 81.5332 167.971 81.4609 167.996 81.39C167.391 80.5122 167.352 79.3665 167.944 78.7794Z" fill="#37474F"/>
<path d="M152.885 81.168C151.745 81.9147 150.149 83.2542 150.297 90.7839C150.423 97.1622 152.207 99.2085 153.102 99.9039C153.996 100.599 155.724 100.782 157.399 100.907V104.931C157.399 104.931 154.498 107.679 154.646 109.491C154.794 111.304 157.399 112.792 161.332 110.38C162.717 109.457 163.884 108.244 164.752 106.824L164.718 98.2167C164.718 98.2167 165.704 99.5847 167.374 98.3421C168.08 97.7834 168.55 96.981 168.694 96.0929C168.837 95.2047 168.643 94.295 168.15 93.5427C167.934 93.2078 167.648 92.923 167.313 92.7077C166.978 92.4923 166.6 92.3514 166.206 92.2944C165.975 92.2836 165.744 92.3198 165.527 92.4009C165.31 92.482 165.112 92.6062 164.945 92.7661C164.777 92.926 164.644 93.1182 164.553 93.331C164.463 93.5439 164.416 93.7729 164.416 94.0044V94.4775C164.416 94.4775 163.196 94.6656 163.116 92.283C163.071 90.9606 161.492 88.863 159.947 87.5406C157.32 85.2777 153.974 85.2492 152.885 81.168Z" fill="#FFA8A7"/>
<path d="M157.132 90.3904C157.122 90.6097 157.179 90.8267 157.297 91.0123C157.414 91.1978 157.585 91.3429 157.788 91.4278C158.169 91.5532 158.494 91.2853 158.511 90.8578C158.522 90.6378 158.465 90.4199 158.348 90.2334C158.23 90.0468 158.059 89.9007 157.856 89.8147C157.48 89.6722 157.149 89.9344 157.132 90.3904Z" fill="#263238"/>
<path d="M156.67 95.8567L154.635 96.0619C154.686 96.3835 154.845 96.6779 155.087 96.8958C155.329 97.1137 155.638 97.2419 155.963 97.2589C156.522 97.2019 156.841 96.5749 156.67 95.8567Z" fill="#F28F8F"/>
<path d="M151.147 86.9248L152.544 86.1781C152.293 85.648 151.769 85.3858 151.404 85.6081C151.205 85.7565 151.068 85.9735 151.021 86.2169C150.974 86.4604 151.019 86.7128 151.147 86.9248Z" fill="#263238"/>
<path d="M159.11 88.994L157.714 87.4949C157.97 87.1073 158.489 87.1187 158.854 87.5348C159.044 87.7202 159.172 87.961 159.218 88.2229C159.264 88.4849 159.226 88.7547 159.11 88.994Z" fill="#263238"/>
<path d="M151.312 89.1992C151.3 89.4195 151.357 89.6382 151.474 89.825C151.591 90.0118 151.764 90.1576 151.968 90.2423C152.35 90.3677 152.675 90.0998 152.692 89.6723C152.703 89.4521 152.646 89.2338 152.529 89.0471C152.412 88.8604 152.239 88.7145 152.036 88.6292C151.66 88.481 151.329 88.7489 151.312 89.1992Z" fill="#263238"/>
<path d="M154.636 89.427L154.527 94.2036L152.339 92.8356L154.636 89.427Z" fill="#F28F8F"/>
<path d="M157.399 100.89C159.166 101.095 162.803 100.89 163.373 99.3564C163.174 100.083 162.721 100.714 162.096 101.135C161.008 101.916 157.399 102.161 157.399 102.161V100.89Z" fill="#F28F8F"/>
<path d="M181.026 143.104C179.14 122.499 178.062 110.888 170.595 108.642C169.484 109.047 168.452 111.492 168.258 113.265C167.922 116.263 168.327 121.438 170.185 124.095C170.185 124.095 172.528 136.441 173.434 143.549C174.061 148.468 175.412 155.553 175.098 159.543C174.95 160.264 174.633 160.939 174.175 161.515L172.909 163.618C172.66 164.06 172.374 164.479 172.054 164.872C171.764 165.209 171.427 165.499 171.114 165.813C170.88 166.041 170.652 166.383 170.846 166.656C170.921 166.745 171.02 166.81 171.131 166.845C171.502 166.985 171.901 167.038 172.296 167.001C172.691 166.963 173.073 166.836 173.411 166.628C173.833 166.366 174.175 165.984 174.614 165.756C174.577 166.491 174.369 167.208 174.004 167.848C173.753 168.366 173.502 168.891 173.223 169.404C172.922 169.918 172.655 170.451 172.425 171C172.188 171.549 172.13 172.16 172.26 172.744C172.405 173.19 172.672 173.586 173.03 173.889C173.389 174.191 173.825 174.387 174.289 174.454C175.221 174.574 176.167 174.388 176.985 173.924C179.795 172.47 180.736 169.552 181.089 166.622C181.432 164.186 181.622 161.73 181.659 159.269C181.551 152.76 181.391 147.117 181.026 143.104Z" fill="#FFA8A7"/>
<path d="M164.73 106.231C165.946 106.491 167.105 106.97 168.15 107.644C168.15 107.644 165.46 112.843 160.843 113.595C156.226 114.348 155.895 111.241 155.895 111.241C158.785 111.361 161.703 110.107 164.73 106.231Z" fill="#455A64"/>
<path d="M157.399 104.144V104.931C155.439 107.485 154.84 109.691 155.923 111.241C155.923 111.241 152.691 112.341 152.121 109.97C151.551 107.599 155.655 103.757 155.655 103.757C156.252 103.8 156.84 103.931 157.399 104.144Z" fill="#455A64"/>
</g>
<path d="M199.5 42.3055L202.92 44.2834C202.902 44.132 202.893 43.9798 202.892 43.8274V42.8413C202.892 41.0743 204.129 40.3618 205.656 41.2396C206.316 41.6434 206.88 42.1861 207.309 42.8299C207.554 40.6069 209.298 39.7861 211.407 41.0059C212.613 41.7894 213.617 42.8469 214.336 44.0921C215.055 45.3373 215.47 46.7349 215.546 48.1708V49.6528C215.56 50.2417 215.441 50.8263 215.198 51.3628L218.048 53.0044C218.494 53.2966 218.865 53.6889 219.132 54.1501C219.399 54.6113 219.555 55.1286 219.587 55.6606C219.587 56.641 218.897 57.04 218.048 56.5498L199.5 45.8509C199.055 45.5581 198.685 45.1655 198.419 44.7043C198.153 44.2432 197.998 43.7262 197.967 43.1947C197.961 42.2143 198.645 41.821 199.5 42.3055Z" fill="#EBEBEB"/>
<path d="M222.107 33.2197L224.01 33.9436V29.7883C224.01 26.4937 226.638 25.7014 229.488 27.3487C232.338 29.0017 234.658 33.0088 234.658 36.3034V36.9076C235.06 36.7818 235.485 36.7498 235.901 36.814C236.317 36.8782 236.713 37.037 237.058 37.2781C238.14 37.9837 239.041 38.9347 239.686 40.0539C240.332 41.1731 240.705 42.4288 240.774 43.7191V43.9927L243.39 45.5089C244.103 45.9734 244.697 46.5995 245.123 47.3363C245.549 48.0731 245.795 48.8999 245.841 49.7497C245.841 51.3115 244.741 51.9442 243.39 51.1633L222.107 38.8741C221.394 38.4092 220.802 37.783 220.377 37.0461C219.952 36.3093 219.707 35.4826 219.661 34.6333C219.661 33.0601 220.756 32.4388 222.107 33.2197Z" fill="#EBEBEB"/>
<path d="M103.347 152.19C104.15 151.529 105.387 151.392 106.869 151.945C109.839 153.045 112.677 156.471 113.213 159.589C113.481 161.15 113.116 162.342 112.318 163.009L57.8548 211.812C56.749 212.855 54.9592 213.112 52.7818 212.308C48.6322 210.769 44.6593 205.987 43.9183 201.62C43.525 199.34 44.1064 197.63 45.3433 196.724L103.347 152.19Z" fill="white"/>
<path d="M103.347 152.19C104.15 151.529 105.387 151.392 106.869 151.945C109.839 153.045 112.677 156.471 113.213 159.589C113.481 161.15 113.116 162.342 112.318 163.009L57.8548 211.812C56.749 212.855 54.9592 213.112 52.7818 212.308C48.6322 210.769 44.6593 205.987 43.9183 201.62C43.525 199.34 44.1064 197.63 45.3433 196.724L103.347 152.19Z" fill="url(#paint29_linear_1_2812)"/>
<path opacity="0.15" d="M104.712 160.175C102.236 157.19 101.627 153.61 103.352 152.179C105.077 150.748 108.482 152.007 110.959 154.992C113.435 157.977 114.044 161.557 112.319 162.988C110.594 164.419 107.188 163.16 104.712 160.175Z" fill="black"/>
<path d="M123.855 140.397C124.813 140.81 125.659 141.445 126.325 142.248C126.991 143.052 127.457 144.001 127.685 145.02C127.787 145.38 127.792 145.761 127.697 146.124C127.603 146.487 127.414 146.818 127.15 147.083L110.546 160.86C110.237 161.073 109.877 161.199 109.503 161.226C109.13 161.253 108.755 161.18 108.419 161.014C107.461 160.6 106.614 159.965 105.948 159.162C105.281 158.359 104.814 157.409 104.583 156.391C104.481 156.029 104.477 155.647 104.572 155.283C104.668 154.919 104.858 154.587 105.125 154.322L121.723 140.551C122.033 140.337 122.393 140.211 122.768 140.184C123.143 140.157 123.518 140.23 123.855 140.397Z" fill="#263238"/>
<path opacity="0.1" d="M106.162 161.635L49.9375 210.712C50.8127 211.362 51.7713 211.891 52.7875 212.285C54.9649 213.089 56.7775 212.855 57.8662 211.784L112.29 163.02C111.48 163.687 110.255 163.812 108.767 163.265C107.813 162.873 106.932 162.322 106.162 161.635Z" fill="black"/>
<path d="M94.7397 87.2101C94.7397 86.6401 94.7853 86.0701 94.8309 85.5001C94.8765 84.9301 94.8993 84.3886 94.9563 83.8414C94.9563 83.4709 95.0247 83.1118 95.0703 82.7413C95.1672 81.7894 95.304 80.8432 95.4636 79.9483C95.532 79.5379 95.6061 79.1218 95.6859 78.7114C95.7657 78.301 95.8455 77.9362 95.9253 77.5714C96.1647 76.534 96.4212 75.5194 96.7119 74.5447C96.8658 74.083 97.0083 73.6213 97.1622 73.171C97.1927 73.1035 97.2156 73.0327 97.2306 72.9601C97.3959 72.5098 97.5555 72.0766 97.7265 71.6491C97.8975 71.2216 98.1141 70.6687 98.3421 70.2013C98.5017 69.8536 98.6499 69.5173 98.8323 69.181C98.9355 68.9291 99.0574 68.6852 99.1971 68.4514C99.3382 68.1512 99.4942 67.8583 99.6645 67.5736C99.6979 67.5064 99.7359 67.4416 99.7785 67.3798C99.9153 67.129 100.075 66.8725 100.223 66.6217C100.371 66.3709 100.434 66.3025 100.531 66.1429C101.249 65.0066 102.059 63.9313 102.953 62.9281C103.107 62.7571 103.261 62.5861 103.398 62.4208L103.78 62.0218C103.934 61.8565 104.105 61.7026 104.276 61.5316C104.736 61.0659 105.223 60.6281 105.735 60.2206C105.974 60.0154 106.225 59.8216 106.482 59.6506C106.738 59.4796 106.983 59.2744 107.251 59.0806C107.653 58.7852 108.072 58.5131 108.505 58.2655L108.842 58.0546L108.91 57.9976L116.77 53.3806L116.884 53.3122C120.717 51.1776 125.044 50.0904 129.43 50.1601C135.956 50.1601 143.315 52.2976 151.118 56.7892C177.908 72.2647 199.631 109.89 199.631 140.836C199.631 156.271 194.233 167.124 185.507 172.186L185.427 172.226L177.555 176.831L177.464 176.883L177.35 176.945L177.224 177.014C176.848 177.23 176.472 177.43 176.084 177.618C175.697 177.806 175.115 178.068 174.625 178.256C174.189 178.448 173.742 178.613 173.286 178.752C173.054 178.835 172.818 178.906 172.579 178.963C172.327 179.059 172.068 179.135 171.804 179.191C171.545 179.269 171.282 179.334 171.017 179.385C170.83 179.44 170.64 179.482 170.447 179.51C170.111 179.579 169.746 179.653 169.393 179.698C169.315 179.723 169.234 179.736 169.153 179.738C168.737 179.807 168.31 179.869 167.894 179.909C160.666 180.667 152.264 178.627 143.27 173.44C116.48 157.97 94.734 120.327 94.734 89.3932C94.6998 88.675 94.7169 87.9454 94.7397 87.2101ZM183.158 160.227C184.28 156.088 184.832 151.816 184.8 147.528C184.8 118.207 163.345 81.037 137.951 66.3766C134.244 64.181 130.242 62.5246 126.067 61.4575C124.065 60.9625 122.013 60.7043 119.951 60.688C118.912 60.6833 117.875 60.7633 116.85 60.9274H116.765C111.566 67.0777 110.802 76.9273 110.802 82.1941C110.802 111.515 132.234 148.685 157.639 163.339C164.103 167.067 170.316 169.039 175.646 169.039C176.752 169.047 177.854 168.907 178.923 168.623C180.894 166.144 182.336 163.286 183.158 160.227Z" fill="white"/>
<path d="M94.7397 87.2101C94.7397 86.6401 94.7853 86.0701 94.8309 85.5001C94.8765 84.9301 94.8993 84.3886 94.9563 83.8414C94.9563 83.4709 95.0247 83.1118 95.0703 82.7413C95.1672 81.7894 95.304 80.8432 95.4636 79.9483C95.532 79.5379 95.6061 79.1218 95.6859 78.7114C95.7657 78.301 95.8455 77.9362 95.9253 77.5714C96.1647 76.534 96.4212 75.5194 96.7119 74.5447C96.8658 74.083 97.0083 73.6213 97.1622 73.171C97.1927 73.1035 97.2156 73.0327 97.2306 72.9601C97.3959 72.5098 97.5555 72.0766 97.7265 71.6491C97.8975 71.2216 98.1141 70.6687 98.3421 70.2013C98.5017 69.8536 98.6499 69.5173 98.8323 69.181C98.9355 68.9291 99.0574 68.6852 99.1971 68.4514C99.3382 68.1512 99.4942 67.8583 99.6645 67.5736C99.6979 67.5064 99.7359 67.4416 99.7785 67.3798C99.9153 67.129 100.075 66.8725 100.223 66.6217C100.371 66.3709 100.434 66.3025 100.531 66.1429C101.249 65.0066 102.059 63.9313 102.953 62.9281C103.107 62.7571 103.261 62.5861 103.398 62.4208L103.78 62.0218C103.934 61.8565 104.105 61.7026 104.276 61.5316C104.736 61.0659 105.223 60.6281 105.735 60.2206C105.974 60.0154 106.225 59.8216 106.482 59.6506C106.738 59.4796 106.983 59.2744 107.251 59.0806C107.653 58.7852 108.072 58.5131 108.505 58.2655L108.842 58.0546L108.91 57.9976L116.77 53.3806L116.884 53.3122C120.717 51.1776 125.044 50.0904 129.43 50.1601C135.956 50.1601 143.315 52.2976 151.118 56.7892C177.908 72.2647 199.631 109.89 199.631 140.836C199.631 156.271 194.233 167.124 185.507 172.186L185.427 172.226L177.555 176.831L177.464 176.883L177.35 176.945L177.224 177.014C176.848 177.23 176.472 177.43 176.084 177.618C175.697 177.806 175.115 178.068 174.625 178.256C174.189 178.448 173.742 178.613 173.286 178.752C173.054 178.835 172.818 178.906 172.579 178.963C172.327 179.059 172.068 179.135 171.804 179.191C171.545 179.269 171.282 179.334 171.017 179.385C170.83 179.44 170.64 179.482 170.447 179.51C170.111 179.579 169.746 179.653 169.393 179.698C169.315 179.723 169.234 179.736 169.153 179.738C168.737 179.807 168.31 179.869 167.894 179.909C160.666 180.667 152.264 178.627 143.27 173.44C116.48 157.97 94.734 120.327 94.734 89.3932C94.6998 88.675 94.7169 87.9454 94.7397 87.2101ZM183.158 160.227C184.28 156.088 184.832 151.816 184.8 147.528C184.8 118.207 163.345 81.037 137.951 66.3766C134.244 64.181 130.242 62.5246 126.067 61.4575C124.065 60.9625 122.013 60.7043 119.951 60.688C118.912 60.6833 117.875 60.7633 116.85 60.9274H116.765C111.566 67.0777 110.802 76.9273 110.802 82.1941C110.802 111.515 132.234 148.685 157.639 163.339C164.103 167.067 170.316 169.039 175.646 169.039C176.752 169.047 177.854 168.907 178.923 168.623C180.894 166.144 182.336 163.286 183.158 160.227Z" fill="url(#paint30_linear_1_2812)"/>
<path opacity="0.15" d="M101.676 87.3413C101.676 102.919 107.729 120.703 117.214 136.162C117.659 136.897 118.115 137.615 118.582 138.339C118.976 138.96 119.38 139.582 119.802 140.197C120.691 141.52 121.592 142.825 122.538 144.102C122.983 144.712 123.433 145.316 123.895 145.909C124.356 146.502 124.898 147.214 125.411 147.858C126.386 149.089 127.394 150.286 128.42 151.455C129.093 152.236 129.783 153 130.478 153.735C136.064 159.743 142.169 164.816 148.519 168.475C149.733 169.176 150.93 169.815 152.121 170.39C155.983 172.352 160.167 173.601 164.473 174.078C165.168 174.147 165.852 174.175 166.514 174.175C166.867 174.175 167.203 174.175 167.54 174.147H167.579C168.225 174.119 168.868 174.053 169.506 173.947C169.82 173.901 170.127 173.85 170.424 173.782C170.722 173.724 171.017 173.652 171.307 173.565C174.315 172.801 176.988 171.071 178.917 168.64C177.85 168.924 176.749 169.064 175.645 169.056C170.315 169.056 164.102 167.09 157.639 163.356C132.234 148.702 110.802 111.532 110.802 82.2113C110.802 76.9445 111.566 67.0949 116.764 60.9446H116.849C110.226 62.0048 106.458 66.5078 104.338 71.7119C103.737 73.1916 103.252 74.7163 102.89 76.2719C102.89 76.3574 102.85 76.4429 102.833 76.5284C102.765 76.8077 102.696 77.0984 102.645 77.372C102.594 77.6456 102.537 77.942 102.485 78.1928C102.468 78.2623 102.455 78.3327 102.446 78.4037C102.389 78.7001 102.337 78.9908 102.292 79.2758C102.126 80.3645 101.99 81.4247 101.898 82.4393C101.898 82.7357 101.847 83.0093 101.83 83.2943C101.813 83.5793 101.796 83.7218 101.784 83.927C101.784 84.0125 101.784 84.1037 101.784 84.1892C101.784 84.4172 101.756 84.6395 101.744 84.8618C101.744 84.9245 101.744 84.9815 101.744 85.0499C101.744 85.3292 101.744 85.6199 101.716 85.8764C101.682 86.3666 101.676 86.8682 101.676 87.3413Z" fill="black"/>
<path opacity="0.1" d="M178.228 176.472L185.512 172.191C194.239 167.09 199.637 156.232 199.637 140.842C199.637 127.036 195.31 111.914 188.151 98.0288L179.858 102.8C187.023 116.685 191.771 131.653 191.771 145.453C191.771 160.541 186.635 171.245 178.228 176.472Z" fill="black"/>
<path opacity="0.4" d="M108.836 58.0546L108.904 57.9976L116.759 53.3806H116.787L116.896 53.3122C120.725 51.1803 125.048 50.0932 129.43 50.1601C135.951 50.1601 143.315 52.2919 151.118 56.7892C165.938 65.3392 179.259 80.7292 188.168 98.0344L179.915 102.891L180.092 103.233C171.171 86.1328 157.941 70.6687 143.252 61.4119C129.954 53.0329 117.335 52.9189 108.522 58.2769L108.836 58.0546Z" fill="white"/>
<path opacity="0.3" d="M105.9 84.8561C105.9 114.177 127.355 151.347 152.749 166.007C156.457 168.203 160.458 169.859 164.633 170.926C166.635 171.421 168.688 171.68 170.749 171.696C172.868 171.723 174.973 171.363 176.962 170.635C180.115 167.991 182.018 164.16 183.158 160.227C184.28 156.088 184.833 151.816 184.8 147.528C184.8 118.207 163.345 81.0371 137.952 66.3767C134.244 64.1811 130.242 62.5247 126.067 61.4576C124.066 60.9626 122.013 60.7044 119.951 60.6881C117.833 60.6618 115.728 61.019 113.738 61.7426C110.58 64.3874 108.676 68.2235 107.536 72.1565C106.419 76.2962 105.868 80.5684 105.9 84.8561Z" fill="white"/>
<mask id="mask3_1_2812" style="mask-type:luminance" maskUnits="userSpaceOnUse" x="110" y="60" width="75" height="110">
<path d="M157.64 163.368C132.235 148.713 110.803 111.543 110.803 82.2226C110.803 76.9558 111.566 67.1062 116.765 60.9559H116.85C117.876 60.7918 118.913 60.7117 119.951 60.7165C122.013 60.7327 124.066 60.991 126.067 61.486C130.237 62.5452 134.235 64.1918 137.94 66.3766C163.334 81.037 184.789 118.207 184.789 147.528C184.821 151.816 184.269 156.088 183.147 160.227C182.311 163.354 180.821 166.268 178.775 168.777C177.738 168.958 176.687 169.045 175.634 169.039C170.316 169.062 164.103 167.096 157.64 163.368Z" fill="white"/>
</mask>
<g mask="url(#mask3_1_2812)">
<path d="M117.928 42.3854C118.329 42.3538 118.729 42.4538 119.068 42.6704L186.727 81.7268C187.318 82.0973 187.813 82.601 188.175 83.1974L192.661 80.6039C192.314 80.0401 191.842 79.564 191.281 79.2131L123.645 40.1681C123.351 39.9812 123.013 39.8768 122.665 39.866C122.466 39.8644 122.27 39.9135 122.095 40.0085L117.928 42.3854Z" fill="#37474F"/>
<path d="M186.721 81.7211L119.085 42.6761C117.877 41.975 116.891 42.5393 116.891 43.9415V130.012C116.933 130.772 117.153 131.512 117.534 132.172C117.916 132.831 118.447 133.392 119.085 133.808L186.721 172.813C187.935 173.508 188.916 172.944 188.916 171.542V85.5002C188.872 84.7424 188.65 84.0056 188.269 83.3492C187.888 82.6928 187.358 82.1351 186.721 81.7211Z" fill="#455A64"/>
<path d="M183.25 84.3887L122.551 49.3394C121.468 48.7124 120.584 49.2197 120.584 50.4794V127.749C120.619 128.433 120.816 129.1 121.157 129.694C121.499 130.289 121.977 130.794 122.551 131.169L183.256 166.155C184.345 166.782 185.228 166.275 185.228 165.015V87.7802C185.186 87.0996 184.986 86.4383 184.642 85.8493C184.299 85.2603 183.822 84.76 183.25 84.3887Z" fill="#F0F0F0"/>
<mask id="mask4_1_2812" style="mask-type:luminance" maskUnits="userSpaceOnUse" x="120" y="49" width="66" height="118">
<path d="M183.25 84.3887L122.551 49.3394C121.468 48.7124 120.584 49.2197 120.584 50.4794V127.749C120.619 128.433 120.816 129.1 121.157 129.694C121.499 130.289 121.977 130.794 122.551 131.169L183.256 166.155C184.345 166.782 185.228 166.275 185.228 165.015V87.7802C185.186 87.0996 184.986 86.4383 184.642 85.8493C184.299 85.2603 183.822 84.76 183.25 84.3887Z" fill="white"/>
</mask>
<g mask="url(#mask4_1_2812)">
<path d="M132.395 153.33C141.378 121.655 141.475 116.468 140.945 112.758C132.788 110.791 129.237 116.377 127.048 125.811C125.994 130.371 122.984 147.596 121.114 154.789C119.473 161.111 117.415 167.899 114.958 172.414C114.758 172.791 114.47 173.116 114.119 173.361C113.768 173.606 113.364 173.764 112.941 173.822C110.661 174.147 109.977 175.435 108.113 176.381C106.654 177.128 105.576 176.951 105.645 177.453C105.752 178.022 106.03 178.546 106.443 178.953C106.855 179.361 107.382 179.632 107.953 179.733C108.734 179.869 109.338 179.733 110.683 179.55C109.582 180.998 108.231 182.237 106.693 183.21C103.114 185.53 101.997 189.098 108.204 190.819C110.638 191.492 115.181 190.722 120.573 183.438C122.371 180.828 123.862 178.02 125.019 175.07C128.097 167.233 130.593 159.657 132.395 153.33Z" fill="#FFA8A7"/>
<path d="M154.198 116.389C154.198 116.389 163.09 119.546 165.393 120.629C159.567 127.658 166.533 146.849 166.533 146.849L162.788 159.783C166.818 166.817 135.228 153.758 134.653 149.922C130.001 138.163 129.095 132.884 129.523 129.67C130.446 122.385 134.801 117.603 140.923 112.746L154.198 116.389Z" fill="white"/>
<path d="M154.198 116.389C154.198 116.389 163.09 119.546 165.393 120.629C159.567 127.658 166.533 146.849 166.533 146.849L162.788 159.783C166.818 166.817 135.228 153.758 134.653 149.922C130.001 138.163 129.095 132.884 129.523 129.67C130.446 122.385 134.801 117.603 140.923 112.746L154.198 116.389Z" fill="url(#paint31_linear_1_2812)"/>
<path d="M162.799 159.783C155.207 159.583 138.09 153.028 134.664 149.922C130.013 138.163 129.107 132.884 129.534 129.67" fill="white"/>
<path d="M162.799 159.783C155.207 159.583 138.09 153.028 134.664 149.922C130.013 138.163 129.107 132.884 129.534 129.67" fill="url(#paint32_linear_1_2812)"/>
<path d="M133.078 108.58L147.745 113.185C149.982 113.888 152.354 114.055 154.668 113.671C156.982 113.288 159.173 112.365 161.065 110.978C162.956 109.59 164.494 107.777 165.555 105.685C166.616 103.593 167.169 101.281 167.17 98.9352V95.8743C167.17 85.3578 159.789 74.8527 150.68 72.4131L149.449 72.0825C140.329 69.6372 132.953 76.1865 132.953 86.7087V89.6442C132.953 99.0378 133.078 108.58 133.078 108.58Z" fill="#37474F"/>
<path d="M161.499 76.7566C162.394 75.8731 163.916 76.1866 164.89 77.5033L163.078 79.2931C163.507 79.2474 163.94 79.3328 164.32 79.5382C164.976 79.9058 165.504 80.4642 165.835 81.1392C166.166 81.8142 166.284 82.5738 166.173 83.3173L161.476 80.9176C161.501 80.8072 161.533 80.6986 161.573 80.5927C160.678 79.3045 160.627 77.6173 161.499 76.7566Z" fill="#37474F"/>
<path d="M139.377 80.2734C137.667 81.3621 135.353 83.3286 135.575 94.3923C135.758 103.763 138.38 106.773 139.691 107.787C141.002 108.802 143.544 109.076 146.006 109.264V115.175C146.006 115.175 141.748 119.216 141.959 121.838C142.17 124.46 146.006 126.683 151.78 123.143C153.807 121.784 155.517 120.003 156.791 117.922L156.739 105.274C156.739 105.274 158.187 107.291 160.644 105.467C161.68 104.645 162.371 103.466 162.582 102.16C162.793 100.855 162.508 99.5173 161.784 98.4108C161.468 97.9191 161.05 97.5012 160.558 97.1854C160.066 96.8697 159.512 96.6636 158.934 96.5811C158.592 96.5606 158.25 96.611 157.929 96.7294C157.608 96.8477 157.315 97.0313 157.069 97.2686C156.822 97.5059 156.628 97.7917 156.498 98.108C156.367 98.4243 156.304 98.7642 156.312 99.1062V99.8016C156.312 99.8016 154.516 100.081 154.397 96.5811C154.328 94.6374 152.008 91.5651 149.74 89.6157C145.875 86.304 140.973 86.2641 139.377 80.2734Z" fill="#FFA8A7"/>
<path d="M145.613 93.811C145.596 94.1346 145.68 94.4552 145.853 94.7295C146.025 95.0038 146.277 95.2184 146.576 95.3443C147.146 95.5267 147.613 95.1334 147.642 94.4665C147.656 94.1441 147.571 93.8251 147.399 93.5521C147.227 93.2791 146.976 93.0652 146.678 92.9389C146.12 92.7565 145.641 93.1498 145.613 93.811Z" fill="#263238"/>
<path d="M144.935 101.848L141.948 102.15C142.199 103.205 143.088 103.991 143.891 103.906C144.695 103.82 145.185 102.902 144.935 101.848Z" fill="#F28F8F"/>
<path d="M136.802 88.7266L138.854 87.6322C138.477 86.8513 137.714 86.4922 137.144 86.7715C136.574 87.0508 136.448 87.9457 136.802 88.7266Z" fill="#263238"/>
<path d="M148.52 91.7703L146.468 89.5758C146.844 89.0058 147.608 89.0058 148.178 89.6271C148.453 89.9035 148.633 90.259 148.695 90.6436C148.756 91.0282 148.695 91.4223 148.52 91.7703Z" fill="#263238"/>
<path d="M137.064 92.0667C137.047 92.3902 137.131 92.7108 137.304 92.9851C137.476 93.2594 137.728 93.4741 138.027 93.6C138.597 93.7767 139.064 93.389 139.093 92.7221C139.107 92.3997 139.022 92.0807 138.85 91.8077C138.678 91.5347 138.426 91.3208 138.129 91.1946C137.571 91.0122 137.092 91.4055 137.064 92.0667Z" fill="#263238"/>
<path d="M141.948 92.4031L141.783 99.4198L138.568 97.4077L141.948 92.4031Z" fill="#F28F8F"/>
<path d="M146.007 109.264C148.606 109.566 153.947 109.224 154.779 107.012C154.485 108.078 153.82 109.004 152.904 109.623C151.308 110.763 146.007 111.133 146.007 111.133V109.264Z" fill="#F28F8F"/>
<path d="M180.691 171.251C177.915 140.978 176.336 123.941 165.369 120.629C163.734 121.199 162.217 124.836 161.949 127.418C161.459 131.818 162.052 139.428 164.799 143.344C164.799 143.344 168.219 161.481 169.57 171.918C170.494 179.146 172.477 189.559 172.016 195.419C171.924 196.525 171.218 197.386 170.659 198.315L168.801 201.398C168.434 202.049 168.013 202.666 167.541 203.245C167.119 203.741 166.623 204.169 166.162 204.625C165.82 204.961 165.483 205.485 165.768 205.867C165.878 205.997 166.022 206.092 166.185 206.141C166.733 206.351 167.323 206.432 167.908 206.378C168.493 206.323 169.058 206.135 169.559 205.827C170.18 205.44 170.699 204.875 171.332 204.545C171.278 205.624 170.969 206.675 170.431 207.611C170.066 208.381 169.701 209.15 169.291 209.891C168.839 210.639 168.437 211.416 168.088 212.217C167.742 213.028 167.656 213.926 167.843 214.788C168.061 215.44 168.456 216.018 168.983 216.459C169.51 216.9 170.15 217.186 170.83 217.284C172.201 217.456 173.59 217.18 174.792 216.498C178.913 214.366 180.292 210.079 180.816 205.776C181.311 202.196 181.579 198.588 181.62 194.974C181.483 185.45 181.261 177.139 180.691 171.251Z" fill="#FFA8A7"/>
<path d="M156.791 117.084C158.586 117.464 160.297 118.167 161.841 119.159C161.841 119.159 157.885 126.797 151.102 127.903C144.319 129.008 143.84 124.443 143.84 124.443C148.041 124.619 152.333 122.784 156.791 117.084Z" fill="#455A64"/>
<path d="M146.007 114V115.14C143.128 118.891 142.245 122.128 143.841 124.408C143.841 124.408 139.087 126.022 138.255 122.545C137.422 119.068 143.442 113.425 143.442 113.425C144.32 113.49 145.184 113.684 146.007 114Z" fill="#455A64"/>
</g>
</g>
<path d="M67.4939 141.36C63.5438 140.921 62.0276 142.078 60.557 145.35C59.1548 148.474 54.857 157.89 55.0736 160.085C55.2902 162.279 64.2734 171.622 64.2734 171.622L66.8327 168.509L61.2809 159.173L65.6984 149.751L67.4939 141.36Z" fill="#FFA8A7"/>
<path d="M75.4282 138.293L74.6872 146.045L67.7617 145.612L68.3146 137.017L75.4282 138.293Z" fill="#FFA8A7"/>
<path d="M84.3024 123.394C84.3618 123.029 84.3618 122.658 84.3024 122.294C84.2154 121.822 84.0272 121.375 83.7507 120.984C83.4742 120.592 83.116 120.266 82.7008 120.026C82.2857 119.787 81.8235 119.64 81.3462 119.597C80.8689 119.553 80.3878 119.614 79.9362 119.774C80.0701 119.062 79.9614 118.326 79.6277 117.684C79.2939 117.041 78.7543 116.529 78.0951 116.229C77.5828 116.034 77.0367 115.945 76.4892 115.967C75.9417 115.989 75.4042 116.12 74.9088 116.354C74.3138 116.563 73.8192 116.988 73.5237 117.546C73.1732 116.958 72.658 116.487 72.0419 116.189C71.4259 115.892 70.7362 115.782 70.0583 115.873C69.3803 115.964 68.7441 116.252 68.2283 116.701C67.7125 117.151 67.34 117.741 67.1568 118.401C66.1023 118.167 64.6146 118.634 64.1415 119.683C63.6057 120.874 64.2612 122.351 64.0161 123.599C63.8565 124.408 63.5088 125.166 63.3606 125.987C63.2094 126.901 63.1237 127.825 63.1041 128.752C62.9502 132.576 71.8365 135.062 71.6541 137.689L76.3794 131.927C76.3794 131.687 77.052 131.089 77.2002 130.889C77.4852 130.507 77.736 130.103 77.9982 129.704C78.8122 128.539 79.944 127.633 81.2586 127.093C82.1873 126.666 82.9916 126.008 83.5956 125.184C83.9638 124.648 84.2055 124.036 84.3024 123.394Z" fill="#263238"/>
<path d="M80.5692 129.789C80.5692 129.789 82.1025 132.069 81.903 132.308C81.5444 132.544 81.1468 132.714 80.7288 132.81L80.5692 129.789Z" fill="#F28F8F"/>
<path d="M75.8838 122.55C77.3715 123.308 79.9479 124.705 80.6148 130.108C81.2931 135.649 80.0448 137.575 79.2696 138.299C78.7509 138.79 76.0719 138.966 74.6754 138.544C72.9312 138.009 69.1407 136.173 67.368 133.312C65.2818 129.943 64.8486 125.457 67.2597 123.702C70.6512 121.245 74.6184 121.929 75.8838 122.55Z" fill="#FFA8A7"/>
<path d="M79.1274 138.419C78.5004 138.761 76.7163 138.903 75.3882 138.71L75.4338 137.718C76.0037 137.963 76.5953 138.153 77.2008 138.288C77.8329 138.427 78.4823 138.471 79.1274 138.419Z" fill="#F28F8F"/>
<path d="M76.5336 122.402C77.1668 122.633 77.7551 122.972 78.2721 123.405C78.5311 123.62 78.741 123.889 78.8877 124.192C79.0002 124.474 79.0433 124.779 79.0131 125.081C78.9689 125.497 78.8168 125.894 78.5718 126.233C78.3268 126.572 77.9976 126.841 77.6166 127.013C77.8189 127.286 77.9576 127.601 78.0227 127.934C78.0878 128.267 78.0775 128.611 77.9928 128.94C77.7202 129.705 77.2479 130.384 76.6248 130.906C76.5934 130.943 76.5545 130.972 76.5108 130.992C76.467 130.999 76.4221 130.996 76.3797 130.983C76.3372 130.97 76.2982 130.948 76.2657 130.918C75.3309 130.291 74.7495 129.208 73.4157 129.647C71.6772 130.217 71.7627 132.36 73.125 133.694C73.6111 134.185 74.2549 134.49 74.9433 134.554C75.2928 134.562 75.6333 134.443 75.9009 134.218C75.9009 134.218 75.8496 137.011 73.4214 138.122C71.7285 138.615 69.9331 138.637 68.2287 138.185C67.311 137.017 65.772 135.529 64.5066 134.195C60.3399 129.812 60.1005 123.445 66.2508 121.433C66.4617 121.364 66.6726 121.302 66.8892 121.245C68.8671 120.729 70.9385 120.684 72.9369 121.114C73.9217 121.326 74.8783 121.653 75.7869 122.088L76.5336 122.402Z" fill="#263238"/>
<path d="M76.7328 132.861C76.8942 132.807 77.043 132.721 77.1705 132.608C77.298 132.495 77.4014 132.358 77.4748 132.204C77.5482 132.051 77.5899 131.884 77.5976 131.714C77.6052 131.544 77.5787 131.374 77.5194 131.214C77.3988 130.89 77.155 130.627 76.8411 130.481C76.5272 130.336 76.1687 130.321 75.8436 130.439L76.7328 132.861Z" fill="#263238"/>
<path d="M76.049 239.167C75.8004 239.927 75.5911 240.699 75.422 241.481C75.2453 242.341 74.9945 243.761 75.2966 244.422C75.5987 245.083 76.7729 245.488 78.5912 245.471C79.7654 245.471 81.6008 246.263 82.8605 246.964C84.1202 247.665 86.8505 247.979 88.2299 247.813C89.8487 247.625 91.5245 246.673 91.7867 246.018C92.0489 245.362 92.2655 244.428 87.8879 243.025C87.848 243.025 82.5869 241.315 80.7401 239.263L76.049 239.167Z" fill="#263238"/>
<path d="M76.0497 239.286L76.8876 239.184L80.7408 239.263C82.5876 241.298 87.8487 243.014 87.8886 243.025L88.5897 243.259C89.3478 243.875 88.7037 244.918 86.8797 245.077C85.0557 245.237 79.4412 243.367 78.1929 242.746C77.5392 242.439 76.9888 241.948 76.6084 241.334C76.228 240.72 76.0339 240.008 76.0497 239.286Z" fill="#FFA8A7"/>
<path d="M76.0495 237.633C76.0495 237.633 76.0495 238.688 76.0495 239.286C76.0495 239.885 76.7563 240.785 78.5974 240.722C79.8913 240.677 80.7919 240.329 80.7406 239.263V237.73L76.0495 237.633Z" fill="#FFA8A7"/>
<path d="M63.6807 232.241C63.3501 232.378 63.2817 233.016 63.2646 234.287C63.2646 235.245 63.0936 236.926 64.2279 237.228C65.3622 237.53 66.9981 237.32 67.6992 236.396C68.5656 235.256 69.147 234.23 70.3896 232.822C71.4726 231.597 72.6696 230.451 73.0515 228.758C73.4163 227.236 73.0515 226.586 72.0141 226.176C70.9767 225.766 70.0248 226.102 68.5941 227.316C68.1894 227.586 67.7577 227.814 67.3059 227.994C66.3426 228.279 64.0113 232.104 63.6807 232.241Z" fill="#263238"/>
<path d="M63.6512 231.067L63.6911 232.623C63.6911 232.623 64.7342 234.663 67.6298 232.623C67.6925 232.475 67.949 229.459 67.949 229.459L63.6512 231.067Z" fill="#FFA8A7"/>
<path d="M67.294 228C67.7458 227.819 68.1775 227.592 68.5822 227.322C69.7222 226.946 72.2074 227.379 71.0959 229.072C70.1774 230.469 69.0013 231.678 67.6303 232.634C66.3193 233.278 65.8576 232.48 65.8576 232.48L66.325 228.827C66.5806 228.481 66.9121 228.198 67.294 228Z" fill="#FFA8A7"/>
<path d="M61.5595 209.521C61.8282 206.781 62.4017 204.079 63.2695 201.467C63.2695 201.467 62.2891 194.592 61.5196 187.992C59.707 172.51 60.9154 172.265 63.1042 166.902C63.1042 166.902 82.9516 164.348 83.7781 172.602C84.8155 182.862 84.3481 202.812 84.1714 206.46C83.9947 210.108 83.704 211.755 82.621 219.393C81.7945 225.207 81.0136 237.912 81.0136 237.912C78.4144 239.411 75.8836 237.656 75.8836 237.656C75.8836 237.656 73.3984 222.026 73.4554 217.82C73.4958 214.709 73.9383 211.617 74.7721 208.62C74.7721 208.62 73.0621 191.868 72.6574 189.206C72.6574 189.206 72.1786 194.547 72.0019 198.195C71.8252 201.843 70.8619 205.342 69.967 212.131C69.2146 218.019 67.9606 230.308 67.9606 230.308C65.3557 231.808 63.5374 231.129 63.5374 231.129C63.5374 231.129 60.961 214.628 61.5595 209.521Z" fill="white"/>
<path d="M61.5595 209.521C61.8282 206.781 62.4017 204.079 63.2695 201.467C63.2695 201.467 62.2891 194.592 61.5196 187.992C59.707 172.51 60.9154 172.265 63.1042 166.902C63.1042 166.902 82.9516 164.348 83.7781 172.602C84.8155 182.862 84.3481 202.812 84.1714 206.46C83.9947 210.108 83.704 211.755 82.621 219.393C81.7945 225.207 81.0136 237.912 81.0136 237.912C78.4144 239.411 75.8836 237.656 75.8836 237.656C75.8836 237.656 73.3984 222.026 73.4554 217.82C73.4958 214.709 73.9383 211.617 74.7721 208.62C74.7721 208.62 73.0621 191.868 72.6574 189.206C72.6574 189.206 72.1786 194.547 72.0019 198.195C71.8252 201.843 70.8619 205.342 69.967 212.131C69.2146 218.019 67.9606 230.308 67.9606 230.308C65.3557 231.808 63.5374 231.129 63.5374 231.129C63.5374 231.129 60.961 214.628 61.5595 209.521Z" fill="url(#paint33_linear_1_2812)"/>
<g opacity="0.4">
<path d="M61.5595 209.521C61.8282 206.781 62.4017 204.079 63.2695 201.467C63.2695 201.467 62.2891 194.592 61.5196 187.992C59.707 172.51 60.9154 172.265 63.1042 166.902C63.1042 166.902 82.9516 164.348 83.7781 172.602C84.8155 182.862 84.3481 202.812 84.1714 206.46C83.9947 210.108 83.704 211.755 82.621 219.393C81.7945 225.207 81.0136 237.912 81.0136 237.912C78.4144 239.411 75.8836 237.656 75.8836 237.656C75.8836 237.656 73.3984 222.026 73.4554 217.82C73.4958 214.709 73.9383 211.617 74.7721 208.62C74.7721 208.62 73.0621 191.868 72.6574 189.206C72.6574 189.206 72.1786 194.547 72.0019 198.195C71.8252 201.843 70.8619 205.342 69.967 212.131C69.2146 218.019 67.9606 230.308 67.9606 230.308C65.3557 231.808 63.5374 231.129 63.5374 231.129C63.5374 231.129 60.961 214.628 61.5595 209.521Z" fill="black"/>
</g>
<path opacity="0.15" d="M72.6577 189.177L71.7001 181.938C68.9029 181.933 66.1888 180.987 63.9937 179.254C63.9937 179.254 65.2933 181.898 70.5658 183.056L71.5975 190.505L71.968 198.713C72.1428 195.506 72.3727 192.328 72.6577 189.177Z" fill="black"/>
<path d="M62.4087 144.586C63.0813 142.591 64.455 141.417 67.4931 141.383H68.0289C68.2455 142.523 71.808 143.515 75.0399 142.375C75.4845 142.454 77.0235 142.625 77.7303 142.722L79.275 142.945C81.6234 143.714 82.6608 147.801 82.8888 154.271C83.1168 160.74 84.0801 174.585 84.0801 174.585C84.0801 174.585 79.0242 177.299 71.0499 176.25C63.9078 175.309 60.7386 171.12 60.9837 171.644C62.0648 168.077 63.4296 164.602 65.0649 161.253C61.3029 152.036 61.4055 147.556 62.4087 144.586Z" fill="#455A64"/>
<path d="M75.0002 176.501C73.6797 176.517 72.3596 176.439 71.0501 176.267C64.535 175.412 61.2633 171.844 60.9897 171.627C62.0568 168.067 63.4201 164.603 65.0651 161.27C63.1613 156.602 62.2494 153.154 61.9416 150.497C62.2494 152.435 65.1107 159.937 68.8556 162.182C68.8556 162.182 66.7466 162.513 64.9397 164.992C63.1328 167.472 64.6148 175.971 75.0002 176.501Z" fill="#37474F"/>
<path d="M77.7307 142.74C80.8429 143.133 83.3053 143.783 84.6676 146.73C86.9476 151.763 89.4613 155.895 91.2739 157.839C93.2119 159.914 101.158 163.539 102.947 163.271C104.737 163.003 106.521 160.923 107.445 161.453C108.368 161.983 106.658 163.983 106.772 164.434C106.886 164.884 110.129 164.645 111.663 163.562C113.196 162.479 113.766 164.702 111.782 167.039C109.799 169.376 106.082 169.547 102.018 168.749C97.9543 167.951 90.322 165.802 87.1984 163.242C83.4307 160.142 82.1482 157.793 80.5465 155.012C74.761 149.038 77.7307 142.74 77.7307 142.74Z" fill="#FFA8A7"/>
<defs>
<linearGradient id="paint0_linear_1_2812" x1="123.594" y1="118.413" x2="127.676" y2="118.476" gradientUnits="userSpaceOnUse">
<stop stop-color="#FCFF68" stop-opacity="0.31"/>
<stop offset="0.411458" stop-color="#A5E06A" stop-opacity="0.79"/>
<stop offset="0.671875" stop-color="#3EBB6C" stop-opacity="0.87"/>
<stop offset="1" stop-color="#0A8241"/>
</linearGradient>
<linearGradient id="paint1_linear_1_2812" x1="75.1371" y1="95.6547" x2="126.517" y2="100.8" gradientUnits="userSpaceOnUse">
<stop stop-color="#FCFF68" stop-opacity="0.31"/>
<stop offset="0.411458" stop-color="#A5E06A" stop-opacity="0.79"/>
<stop offset="0.671875" stop-color="#3EBB6C" stop-opacity="0.87"/>
<stop offset="1" stop-color="#0A8241"/>
</linearGradient>
<linearGradient id="paint2_linear_1_2812" x1="75.6279" y1="91.0578" x2="128.108" y2="100.787" gradientUnits="userSpaceOnUse">
<stop stop-color="#FCFF68" stop-opacity="0.31"/>
<stop offset="0.411458" stop-color="#A5E06A" stop-opacity="0.79"/>
<stop offset="0.671875" stop-color="#3EBB6C" stop-opacity="0.87"/>
<stop offset="1" stop-color="#0A8241"/>
</linearGradient>
<linearGradient id="paint3_linear_1_2812" x1="79.5155" y1="98.5407" x2="120.834" y2="105.899" gradientUnits="userSpaceOnUse">
<stop stop-color="#FCFF68" stop-opacity="0.31"/>
<stop offset="0.411458" stop-color="#A5E06A" stop-opacity="0.79"/>
<stop offset="0.671875" stop-color="#3EBB6C" stop-opacity="0.87"/>
<stop offset="1" stop-color="#0A8241"/>
</linearGradient>
<linearGradient id="paint4_linear_1_2812" x1="79.5155" y1="114.27" x2="120.831" y2="121.635" gradientUnits="userSpaceOnUse">
<stop stop-color="#FCFF68" stop-opacity="0.31"/>
<stop offset="0.411458" stop-color="#A5E06A" stop-opacity="0.79"/>
<stop offset="0.671875" stop-color="#3EBB6C" stop-opacity="0.87"/>
<stop offset="1" stop-color="#0A8241"/>
</linearGradient>
<linearGradient id="paint5_linear_1_2812" x1="79.5155" y1="106.397" x2="120.834" y2="113.754" gradientUnits="userSpaceOnUse">
<stop stop-color="#FCFF68" stop-opacity="0.31"/>
<stop offset="0.411458" stop-color="#A5E06A" stop-opacity="0.79"/>
<stop offset="0.671875" stop-color="#3EBB6C" stop-opacity="0.87"/>
<stop offset="1" stop-color="#0A8241"/>
</linearGradient>
<linearGradient id="paint6_linear_1_2812" x1="79.5155" y1="110.322" x2="120.834" y2="117.68" gradientUnits="userSpaceOnUse">
<stop stop-color="#FCFF68" stop-opacity="0.31"/>
<stop offset="0.411458" stop-color="#A5E06A" stop-opacity="0.79"/>
<stop offset="0.671875" stop-color="#3EBB6C" stop-opacity="0.87"/>
<stop offset="1" stop-color="#0A8241"/>
</linearGradient>
<linearGradient id="paint7_linear_1_2812" x1="79.5155" y1="102.472" x2="120.832" y2="109.834" gradientUnits="userSpaceOnUse">
<stop stop-color="#FCFF68" stop-opacity="0.31"/>
<stop offset="0.411458" stop-color="#A5E06A" stop-opacity="0.79"/>
<stop offset="0.671875" stop-color="#3EBB6C" stop-opacity="0.87"/>
<stop offset="1" stop-color="#0A8241"/>
</linearGradient>
<linearGradient id="paint8_linear_1_2812" x1="85.8993" y1="72.9542" x2="113.522" y2="74.4326" gradientUnits="userSpaceOnUse">
<stop stop-color="#FCFF68" stop-opacity="0.31"/>
<stop offset="0.411458" stop-color="#A5E06A" stop-opacity="0.79"/>
<stop offset="0.671875" stop-color="#3EBB6C" stop-opacity="0.87"/>
<stop offset="1" stop-color="#0A8241"/>
</linearGradient>
<linearGradient id="paint9_linear_1_2812" x1="248.52" y1="190.466" x2="252.542" y2="190.528" gradientUnits="userSpaceOnUse">
<stop stop-color="#FCFF68" stop-opacity="0.31"/>
<stop offset="0.411458" stop-color="#A5E06A" stop-opacity="0.79"/>
<stop offset="0.671875" stop-color="#3EBB6C" stop-opacity="0.87"/>
<stop offset="1" stop-color="#0A8241"/>
</linearGradient>
<linearGradient id="paint10_linear_1_2812" x1="200.007" y1="167.703" x2="251.387" y2="172.848" gradientUnits="userSpaceOnUse">
<stop stop-color="#FCFF68" stop-opacity="0.31"/>
<stop offset="0.411458" stop-color="#A5E06A" stop-opacity="0.79"/>
<stop offset="0.671875" stop-color="#3EBB6C" stop-opacity="0.87"/>
<stop offset="1" stop-color="#0A8241"/>
</linearGradient>
<linearGradient id="paint11_linear_1_2812" x1="200.498" y1="163.13" x2="252.992" y2="172.872" gradientUnits="userSpaceOnUse">
<stop stop-color="#FCFF68" stop-opacity="0.31"/>
<stop offset="0.411458" stop-color="#A5E06A" stop-opacity="0.79"/>
<stop offset="0.671875" stop-color="#3EBB6C" stop-opacity="0.87"/>
<stop offset="1" stop-color="#0A8241"/>
</linearGradient>
<linearGradient id="paint12_linear_1_2812" x1="204.403" y1="170.6" x2="245.721" y2="177.958" gradientUnits="userSpaceOnUse">
<stop stop-color="#FCFF68" stop-opacity="0.31"/>
<stop offset="0.411458" stop-color="#A5E06A" stop-opacity="0.79"/>
<stop offset="0.671875" stop-color="#3EBB6C" stop-opacity="0.87"/>
<stop offset="1" stop-color="#0A8241"/>
</linearGradient>
<linearGradient id="paint13_linear_1_2812" x1="204.386" y1="186.319" x2="245.718" y2="193.69" gradientUnits="userSpaceOnUse">
<stop stop-color="#FCFF68" stop-opacity="0.31"/>
<stop offset="0.411458" stop-color="#A5E06A" stop-opacity="0.79"/>
<stop offset="0.671875" stop-color="#3EBB6C" stop-opacity="0.87"/>
<stop offset="1" stop-color="#0A8241"/>
</linearGradient>
<linearGradient id="paint14_linear_1_2812" x1="204.403" y1="178.449" x2="245.721" y2="185.807" gradientUnits="userSpaceOnUse">
<stop stop-color="#FCFF68" stop-opacity="0.31"/>
<stop offset="0.411458" stop-color="#A5E06A" stop-opacity="0.79"/>
<stop offset="0.671875" stop-color="#3EBB6C" stop-opacity="0.87"/>
<stop offset="1" stop-color="#0A8241"/>
</linearGradient>
<linearGradient id="paint15_linear_1_2812" x1="204.403" y1="182.37" x2="245.721" y2="189.728" gradientUnits="userSpaceOnUse">
<stop stop-color="#FCFF68" stop-opacity="0.31"/>
<stop offset="0.411458" stop-color="#A5E06A" stop-opacity="0.79"/>
<stop offset="0.671875" stop-color="#3EBB6C" stop-opacity="0.87"/>
<stop offset="1" stop-color="#0A8241"/>
</linearGradient>
<linearGradient id="paint16_linear_1_2812" x1="204.403" y1="174.523" x2="245.721" y2="181.88" gradientUnits="userSpaceOnUse">
<stop stop-color="#FCFF68" stop-opacity="0.31"/>
<stop offset="0.411458" stop-color="#A5E06A" stop-opacity="0.79"/>
<stop offset="0.671875" stop-color="#3EBB6C" stop-opacity="0.87"/>
<stop offset="1" stop-color="#0A8241"/>
</linearGradient>
<linearGradient id="paint17_linear_1_2812" x1="206.904" y1="139.949" x2="222.651" y2="141.358" gradientUnits="userSpaceOnUse">
<stop stop-color="#FCFF68" stop-opacity="0.31"/>
<stop offset="0.411458" stop-color="#A5E06A" stop-opacity="0.79"/>
<stop offset="0.671875" stop-color="#3EBB6C" stop-opacity="0.87"/>
<stop offset="1" stop-color="#0A8241"/>
</linearGradient>
<linearGradient id="paint18_linear_1_2812" x1="211.835" y1="144.387" x2="239.058" y2="145.822" gradientUnits="userSpaceOnUse">
<stop stop-color="#FCFF68" stop-opacity="0.31"/>
<stop offset="0.411458" stop-color="#A5E06A" stop-opacity="0.79"/>
<stop offset="0.671875" stop-color="#3EBB6C" stop-opacity="0.87"/>
<stop offset="1" stop-color="#0A8241"/>
</linearGradient>
<linearGradient id="paint19_linear_1_2812" x1="232.435" y1="146.365" x2="245.772" y2="147.13" gradientUnits="userSpaceOnUse">
<stop stop-color="#FCFF68" stop-opacity="0.31"/>
<stop offset="0.411458" stop-color="#A5E06A" stop-opacity="0.79"/>
<stop offset="0.671875" stop-color="#3EBB6C" stop-opacity="0.87"/>
<stop offset="1" stop-color="#0A8241"/>
</linearGradient>
<linearGradient id="paint20_linear_1_2812" x1="185.974" y1="153.895" x2="190.056" y2="153.958" gradientUnits="userSpaceOnUse">
<stop stop-color="#FCFF68" stop-opacity="0.31"/>
<stop offset="0.411458" stop-color="#A5E06A" stop-opacity="0.79"/>
<stop offset="0.671875" stop-color="#3EBB6C" stop-opacity="0.87"/>
<stop offset="1" stop-color="#0A8241"/>
</linearGradient>
<linearGradient id="paint21_linear_1_2812" x1="137.518" y1="131.132" x2="188.892" y2="136.276" gradientUnits="userSpaceOnUse">
<stop stop-color="#FCFF68" stop-opacity="0.31"/>
<stop offset="0.411458" stop-color="#A5E06A" stop-opacity="0.79"/>
<stop offset="0.671875" stop-color="#3EBB6C" stop-opacity="0.87"/>
<stop offset="1" stop-color="#0A8241"/>
</linearGradient>
<linearGradient id="paint22_linear_1_2812" x1="138.009" y1="126.54" x2="190.49" y2="136.269" gradientUnits="userSpaceOnUse">
<stop stop-color="#FCFF68" stop-opacity="0.31"/>
<stop offset="0.411458" stop-color="#A5E06A" stop-opacity="0.79"/>
<stop offset="0.671875" stop-color="#3EBB6C" stop-opacity="0.87"/>
<stop offset="1" stop-color="#0A8241"/>
</linearGradient>
<linearGradient id="paint23_linear_1_2812" x1="141.896" y1="134.029" x2="183.208" y2="141.385" gradientUnits="userSpaceOnUse">
<stop stop-color="#FCFF68" stop-opacity="0.31"/>
<stop offset="0.411458" stop-color="#A5E06A" stop-opacity="0.79"/>
<stop offset="0.671875" stop-color="#3EBB6C" stop-opacity="0.87"/>
<stop offset="1" stop-color="#0A8241"/>
</linearGradient>
<linearGradient id="paint24_linear_1_2812" x1="141.896" y1="149.722" x2="183.209" y2="157.078" gradientUnits="userSpaceOnUse">
<stop stop-color="#FCFF68" stop-opacity="0.31"/>
<stop offset="0.411458" stop-color="#A5E06A" stop-opacity="0.79"/>
<stop offset="0.671875" stop-color="#3EBB6C" stop-opacity="0.87"/>
<stop offset="1" stop-color="#0A8241"/>
</linearGradient>
<linearGradient id="paint25_linear_1_2812" x1="141.896" y1="141.86" x2="183.208" y2="149.217" gradientUnits="userSpaceOnUse">
<stop stop-color="#FCFF68" stop-opacity="0.31"/>
<stop offset="0.411458" stop-color="#A5E06A" stop-opacity="0.79"/>
<stop offset="0.671875" stop-color="#3EBB6C" stop-opacity="0.87"/>
<stop offset="1" stop-color="#0A8241"/>
</linearGradient>
<linearGradient id="paint26_linear_1_2812" x1="141.896" y1="145.797" x2="183.207" y2="153.158" gradientUnits="userSpaceOnUse">
<stop stop-color="#FCFF68" stop-opacity="0.31"/>
<stop offset="0.411458" stop-color="#A5E06A" stop-opacity="0.79"/>
<stop offset="0.671875" stop-color="#3EBB6C" stop-opacity="0.87"/>
<stop offset="1" stop-color="#0A8241"/>
</linearGradient>
<linearGradient id="paint27_linear_1_2812" x1="141.896" y1="137.952" x2="183.209" y2="145.307" gradientUnits="userSpaceOnUse">
<stop stop-color="#FCFF68" stop-opacity="0.31"/>
<stop offset="0.411458" stop-color="#A5E06A" stop-opacity="0.79"/>
<stop offset="0.671875" stop-color="#3EBB6C" stop-opacity="0.87"/>
<stop offset="1" stop-color="#0A8241"/>
</linearGradient>
<linearGradient id="paint28_linear_1_2812" x1="146.111" y1="107.092" x2="172.668" y2="109.336" gradientUnits="userSpaceOnUse">
<stop stop-color="#FCFF68" stop-opacity="0.31"/>
<stop offset="0.411458" stop-color="#A5E06A" stop-opacity="0.79"/>
<stop offset="0.671875" stop-color="#3EBB6C" stop-opacity="0.87"/>
<stop offset="1" stop-color="#0A8241"/>
</linearGradient>
<linearGradient id="paint29_linear_1_2812" x1="43.7965" y1="158.889" x2="116.287" y2="167.707" gradientUnits="userSpaceOnUse">
<stop stop-color="#FCFF68" stop-opacity="0.31"/>
<stop offset="0.411458" stop-color="#A5E06A" stop-opacity="0.79"/>
<stop offset="0.671875" stop-color="#3EBB6C" stop-opacity="0.87"/>
<stop offset="1" stop-color="#0A8241"/>
</linearGradient>
<linearGradient id="paint30_linear_1_2812" x1="94.7147" y1="65.6316" x2="204.934" y2="75.1628" gradientUnits="userSpaceOnUse">
<stop stop-color="#FCFF68" stop-opacity="0.31"/>
<stop offset="0.411458" stop-color="#A5E06A" stop-opacity="0.79"/>
<stop offset="0.671875" stop-color="#3EBB6C" stop-opacity="0.87"/>
<stop offset="1" stop-color="#0A8241"/>
</linearGradient>
<linearGradient id="paint31_linear_1_2812" x1="129.428" y1="118.593" x2="168.444" y2="121.751" gradientUnits="userSpaceOnUse">
<stop stop-color="#FCFF68" stop-opacity="0.31"/>
<stop offset="0.411458" stop-color="#A5E06A" stop-opacity="0.79"/>
<stop offset="0.671875" stop-color="#3EBB6C" stop-opacity="0.87"/>
<stop offset="1" stop-color="#0A8241"/>
</linearGradient>
<linearGradient id="paint32_linear_1_2812" x1="129.44" y1="133.257" x2="164.258" y2="137.387" gradientUnits="userSpaceOnUse">
<stop stop-color="#FCFF68" stop-opacity="0.31"/>
<stop offset="0.411458" stop-color="#A5E06A" stop-opacity="0.79"/>
<stop offset="0.671875" stop-color="#3EBB6C" stop-opacity="0.87"/>
<stop offset="1" stop-color="#0A8241"/>
</linearGradient>
<linearGradient id="paint33_linear_1_2812" x1="60.6382" y1="175.104" x2="85.7885" y2="175.994" gradientUnits="userSpaceOnUse">
<stop stop-color="#FCFF68" stop-opacity="0.31"/>
<stop offset="0.411458" stop-color="#A5E06A" stop-opacity="0.79"/>
<stop offset="0.671875" stop-color="#3EBB6C" stop-opacity="0.87"/>
<stop offset="1" stop-color="#0A8241"/>
</linearGradient>
</defs>
</svg>
