<svg width="225" height="173" viewBox="0 0 225 173" fill="none" xmlns="http://www.w3.org/2000/svg">
<path d="M131.678 132.799C121.934 127.177 106.139 127.177 96.3958 132.799C88.1376 137.573 86.8859 144.844 92.6247 150.382C92.3003 150.466 91.9883 150.593 91.6965 150.758L60.9337 168.526C59.6289 169.28 59.6289 170.505 60.9337 171.258L62.8643 172.372C63.5889 172.74 64.3944 172.921 65.207 172.898C66.0195 172.875 66.8134 172.648 67.5159 172.239L96.1572 153.479C96.2742 153.402 96.3843 153.315 96.486 153.219C106.235 158.794 121.945 158.778 131.672 153.171C141.4 147.565 141.448 138.427 131.678 132.799Z" fill="#E6E6E6"/>
<path d="M200.162 112.342L160.955 135.027C160.467 135.275 159.926 135.404 159.378 135.404C158.829 135.404 158.289 135.275 157.8 135.027L89.5962 95.6449C88.7264 95.1463 88.7264 94.3295 89.5962 93.8256L128.803 71.1407C129.292 70.8924 129.833 70.7629 130.381 70.7629C130.929 70.7629 131.47 70.8924 131.959 71.1407L200.162 110.522C201.032 111.021 201.032 111.838 200.162 112.342Z" fill="#E6E6E6"/>
<path d="M25.5719 155.245L15.086 149.188C13.8183 148.456 13.8183 147.268 15.086 146.536L88.0523 104.407C88.7641 104.046 89.5509 103.858 90.349 103.858C91.147 103.858 91.9338 104.046 92.6456 104.407L103.137 110.464C104.404 111.196 104.404 112.384 103.137 113.116L30.1651 155.245C29.4534 155.606 28.6666 155.795 27.8685 155.795C27.0704 155.795 26.2836 155.606 25.5719 155.245Z" fill="#E6E6E6"/>
<path d="M208.75 146.186C208.935 143.837 211.025 139.111 213.709 136.257C216.393 133.404 220.397 131.484 223.044 132.635C225.51 133.695 224.969 137.01 221.713 138.962C218.456 140.914 213.619 143.317 211.959 147.014L208.75 151.458V146.186Z" fill="white"/>
<path d="M208.75 146.186C208.935 143.837 211.025 139.111 213.709 136.257C216.393 133.404 220.397 131.484 223.044 132.635C225.51 133.695 224.969 137.01 221.713 138.962C218.456 140.914 213.619 143.317 211.959 147.014L208.75 151.458V146.186Z" fill="url(#paint0_linear_1_3002)"/>
<path opacity="0.1" d="M208.75 146.186C208.935 143.837 211.025 139.111 213.709 136.257C216.393 133.404 220.397 131.484 223.044 132.635C225.51 133.695 224.969 137.01 221.713 138.962C218.456 140.914 213.619 143.317 211.959 147.014L208.75 151.458V146.186Z" fill="black"/>
<path d="M208.315 149.385C208.354 149.385 208.391 149.373 208.422 149.35C208.452 149.327 208.475 149.294 208.485 149.257C210.702 141.37 217.709 135.377 221.702 134.252C221.742 134.236 221.774 134.205 221.792 134.167C221.811 134.128 221.814 134.084 221.803 134.043C221.791 134.002 221.765 133.967 221.728 133.944C221.692 133.921 221.649 133.912 221.607 133.918C217.539 135.069 210.4 141.158 208.151 149.167C208.144 149.189 208.143 149.212 208.145 149.235C208.148 149.257 208.155 149.279 208.167 149.299C208.178 149.319 208.193 149.336 208.212 149.35C208.23 149.364 208.251 149.374 208.273 149.379L208.315 149.385Z" fill="white"/>
<path d="M209.1 154.588C209.582 153.299 211.37 151.252 214.123 149.66C217.167 147.905 220.89 147.284 221.856 145.799C223.017 144.022 221.591 142.139 218.594 142.267C215.597 142.394 210.07 146.017 208.75 152.037L209.1 154.588Z" fill="white"/>
<path d="M209.1 154.588C209.582 153.299 211.37 151.252 214.123 149.66C217.167 147.905 220.89 147.284 221.856 145.799C223.017 144.022 221.591 142.139 218.594 142.267C215.597 142.394 210.07 146.017 208.75 152.037L209.1 154.588Z" fill="url(#paint1_linear_1_3002)"/>
<path d="M208.638 153.177C208.671 153.177 208.703 153.168 208.731 153.15C208.758 153.132 208.78 153.106 208.792 153.076C211.805 146.409 217.236 144.42 219.687 144.298C219.732 144.298 219.775 144.28 219.807 144.248C219.838 144.217 219.856 144.173 219.856 144.128C219.856 144.083 219.838 144.04 219.807 144.008C219.775 143.976 219.732 143.959 219.687 143.959C216.976 144.091 211.572 146.128 208.495 152.933C208.486 152.954 208.48 152.976 208.48 152.999C208.479 153.022 208.483 153.045 208.492 153.066C208.5 153.088 208.513 153.107 208.529 153.123C208.545 153.139 208.564 153.152 208.585 153.161C208.602 153.17 208.62 153.175 208.638 153.177Z" fill="white"/>
<path d="M15.9524 133.091C15.9524 133.091 15.422 128.217 12.9715 124.43C10.5211 120.643 7.21146 118.288 4.10335 118.038C0.995236 117.789 -1.51353 120.653 1.81204 122.621C5.13762 124.589 11.0462 126.588 13.7671 133.934L15.9524 133.091Z" fill="white"/>
<path d="M15.9524 133.091C15.9524 133.091 15.422 128.217 12.9715 124.43C10.5211 120.643 7.21146 118.288 4.10335 118.038C0.995236 117.789 -1.51353 120.653 1.81204 122.621C5.13762 124.589 11.0462 126.588 13.7671 133.934L15.9524 133.091Z" fill="url(#paint2_linear_1_3002)"/>
<path opacity="0.1" d="M15.9524 133.091C15.9524 133.091 15.422 128.217 12.9715 124.43C10.5211 120.643 7.21146 118.288 4.10335 118.038C0.995236 117.789 -1.51353 120.653 1.81204 122.621C5.13762 124.589 11.0462 126.588 13.7671 133.934L15.9524 133.091Z" fill="black"/>
<path d="M15.0403 131.823H15.0721C15.0925 131.815 15.111 131.803 15.1266 131.788C15.1422 131.772 15.1546 131.754 15.163 131.734C15.1714 131.713 15.1757 131.692 15.1755 131.67C15.1754 131.648 15.1709 131.626 15.1623 131.606C11.8844 123.523 5.61515 120.149 2.79345 119.492C2.7521 119.487 2.7106 119.498 2.6768 119.523C2.64301 119.547 2.61928 119.583 2.61013 119.623C2.60097 119.664 2.60702 119.706 2.62712 119.743C2.64723 119.779 2.67999 119.807 2.7192 119.821C5.50377 120.457 11.6245 123.777 14.8546 131.728C14.8705 131.762 14.8974 131.79 14.931 131.808C14.9647 131.825 15.0031 131.83 15.0403 131.823Z" fill="white"/>
<path d="M0.125514 131.781C0.427839 132.46 1.1863 132.81 1.8493 133.086C2.56566 133.279 3.19784 133.705 3.64733 134.295C4.39519 135.584 3.16998 137.398 3.97087 138.65C4.15874 138.903 4.39711 139.115 4.67096 139.272C4.94481 139.429 5.24822 139.528 5.56206 139.562C6.07548 139.636 6.59243 139.684 7.11081 139.705C7.35744 139.699 7.60355 139.679 7.84806 139.647C8.56104 139.486 9.30702 139.567 9.96964 139.875C10.9933 140.448 11.3062 141.742 11.9268 142.739C12.3126 143.327 12.8209 143.825 13.4168 144.198C14.0127 144.572 14.6823 144.812 15.3797 144.903C15.9735 145.023 16.5887 144.983 17.1618 144.786L17.2626 144.723C17.3272 144.654 17.3874 144.581 17.4429 144.505V144.473C17.6232 143.805 17.3262 143.11 17.3156 142.421V142.293C17.3156 141.492 17.3686 140.702 17.3846 139.896C17.4199 138.421 17.4341 136.947 17.427 135.472C17.427 134.518 17.5331 133.468 17.13 132.566C16.6791 131.574 15.5653 131.553 15.1463 130.577C14.9766 130.19 14.8864 129.776 14.722 129.384C14.4693 128.809 14.0635 128.315 13.549 127.956C13.0345 127.597 12.4311 127.386 11.8048 127.347C9.85295 127.246 8.09204 128.821 6.1614 128.678C5.66002 128.611 5.16253 128.517 4.67099 128.397C3.07981 128.1 1.27117 128.551 0.385408 129.882C0.190038 130.153 0.064176 130.468 0.0188634 130.799C-0.0264493 131.13 0.0101713 131.467 0.125514 131.781Z" fill="white"/>
<path d="M0.125514 131.781C0.427839 132.46 1.1863 132.81 1.8493 133.086C2.56566 133.279 3.19784 133.705 3.64733 134.295C4.39519 135.584 3.16998 137.398 3.97087 138.65C4.15874 138.903 4.39711 139.115 4.67096 139.272C4.94481 139.429 5.24822 139.528 5.56206 139.562C6.07548 139.636 6.59243 139.684 7.11081 139.705C7.35744 139.699 7.60355 139.679 7.84806 139.647C8.56104 139.486 9.30702 139.567 9.96964 139.875C10.9933 140.448 11.3062 141.742 11.9268 142.739C12.3126 143.327 12.8209 143.825 13.4168 144.198C14.0127 144.572 14.6823 144.812 15.3797 144.903C15.9735 145.023 16.5887 144.983 17.1618 144.786L17.2626 144.723C17.3272 144.654 17.3874 144.581 17.4429 144.505V144.473C17.6232 143.805 17.3262 143.11 17.3156 142.421V142.293C17.3156 141.492 17.3686 140.702 17.3846 139.896C17.4199 138.421 17.4341 136.947 17.427 135.472C17.427 134.518 17.5331 133.468 17.13 132.566C16.6791 131.574 15.5653 131.553 15.1463 130.577C14.9766 130.19 14.8864 129.776 14.722 129.384C14.4693 128.809 14.0635 128.315 13.549 127.956C13.0345 127.597 12.4311 127.386 11.8048 127.347C9.85295 127.246 8.09204 128.821 6.1614 128.678C5.66002 128.611 5.16253 128.517 4.67099 128.397C3.07981 128.1 1.27117 128.551 0.385408 129.882C0.190038 130.153 0.064176 130.468 0.0188634 130.799C-0.0264493 131.13 0.0101713 131.467 0.125514 131.781Z" fill="url(#paint3_linear_1_3002)"/>
<path d="M17.6229 141.413C17.6442 141.408 17.6643 141.399 17.6818 141.386C17.6994 141.373 17.7142 141.356 17.7251 141.337C17.736 141.318 17.743 141.297 17.7455 141.276C17.748 141.254 17.746 141.232 17.7396 141.211C15.0611 131.112 4.42668 129.659 1.95505 129.834C1.93344 129.836 1.91231 129.841 1.89287 129.851C1.87344 129.86 1.85607 129.874 1.84178 129.89C1.82749 129.906 1.81655 129.925 1.80959 129.945C1.80264 129.966 1.79979 129.988 1.80123 130.009C1.79824 130.031 1.79996 130.054 1.80627 130.075C1.81258 130.097 1.82335 130.117 1.83786 130.134C1.85237 130.151 1.87031 130.165 1.8905 130.174C1.9107 130.184 1.93269 130.189 1.95505 130.19C4.38956 130.015 14.7959 131.441 17.4266 141.328C17.4439 141.363 17.4731 141.391 17.5091 141.407C17.5451 141.422 17.5854 141.424 17.6229 141.413Z" fill="white"/>
<path d="M5.80611 136.3C5.84035 136.293 5.87183 136.277 5.89628 136.252C6.87812 135.401 8.03557 134.778 9.28609 134.426C10.5366 134.074 11.8494 134.002 13.1309 134.215C13.1749 134.22 13.2191 134.208 13.2545 134.181C13.29 134.155 13.314 134.116 13.3218 134.072C13.3248 134.05 13.3234 134.028 13.3178 134.007C13.3122 133.986 13.3024 133.967 13.2891 133.949C13.2758 133.932 13.2591 133.918 13.2402 133.907C13.2212 133.896 13.2003 133.889 13.1786 133.886C11.8466 133.668 10.4828 133.746 9.18453 134.116C7.88629 134.485 6.68561 135.137 5.66821 136.024C5.65282 136.039 5.6406 136.057 5.63226 136.077C5.62392 136.097 5.61963 136.119 5.61963 136.141C5.61963 136.162 5.62392 136.184 5.63226 136.204C5.6406 136.224 5.65282 136.242 5.66821 136.257C5.68686 136.274 5.70881 136.286 5.73259 136.293C5.75637 136.301 5.78143 136.303 5.80611 136.3Z" fill="white"/>
<path d="M198.73 104.996L160.85 126.917C160.376 127.155 159.854 127.279 159.325 127.279C158.795 127.279 158.273 127.155 157.8 126.917L91.8718 88.8612C91.0284 88.3785 91.0284 87.5883 91.8718 87.1056L129.779 65.1791C130.251 64.9413 130.773 64.8174 131.301 64.8174C131.83 64.8174 132.351 64.9413 132.823 65.1791L198.73 103.235C199.547 103.723 199.547 104.508 198.73 104.996Z" fill="#37474F"/>
<path d="M178.464 115.047C177.806 115.381 177.08 115.555 176.342 115.555C175.605 115.555 174.878 115.381 174.221 115.047C173.054 114.373 173.054 113.281 174.221 112.607C174.877 112.27 175.604 112.095 176.342 112.095C177.08 112.095 177.807 112.27 178.464 112.607C179.636 113.281 179.636 114.373 178.464 115.047Z" fill="#263238"/>
<path d="M160.823 126.917L198.73 104.996C199.483 104.561 199.563 103.882 198.969 103.405C199.346 103.703 199.655 104.077 199.877 104.503C200.099 104.929 200.229 105.397 200.258 105.876V107.308C200.231 107.84 200.078 108.357 199.813 108.818C199.547 109.279 199.176 109.67 198.73 109.96L160.849 131.882C160.381 132.131 159.857 132.257 159.327 132.248V127.299C159.85 127.299 160.364 127.168 160.823 126.917Z" fill="#455A64"/>
<path d="M91.8716 93.8151C91.4266 93.5245 91.0567 93.1328 90.7922 92.6719C90.5276 92.2109 90.3759 91.6939 90.3494 91.1632V89.7311C90.3773 89.2507 90.5065 88.7816 90.7287 88.3547C90.9508 87.9278 91.2608 87.5527 91.6382 87.2542C91.0442 87.7421 91.1078 88.4157 91.8716 88.8453L157.773 126.901C158.243 127.151 158.769 127.277 159.301 127.267V132.216C158.769 132.226 158.243 132.1 157.773 131.85L91.8716 93.8151Z" fill="#263238"/>
<path d="M154.495 122.324L190.227 101.638C190.34 101.602 190.438 101.532 190.507 101.436C190.577 101.341 190.614 101.226 190.614 101.108C190.614 100.99 190.577 100.875 190.507 100.78C190.438 100.684 190.34 100.613 190.227 100.578L137.411 70.0268C137.128 69.8829 136.816 69.8079 136.498 69.8079C136.181 69.8079 135.869 69.8829 135.586 70.0268L99.8375 90.7122C99.7251 90.7482 99.6271 90.8189 99.5575 90.9142C99.4879 91.0096 99.4504 91.1246 99.4504 91.2426C99.4504 91.3606 99.4879 91.4756 99.5575 91.5709C99.6271 91.6662 99.7251 91.737 99.8375 91.773L152.665 122.324C152.948 122.468 153.262 122.543 153.58 122.543C153.898 122.543 154.211 122.468 154.495 122.324Z" fill="#FAFAFA"/>
<path d="M105.381 91.6512L122.449 101.548C122.805 101.729 123.198 101.823 123.597 101.823C123.996 101.823 124.389 101.729 124.745 101.548L154.766 84.2204C154.904 84.1734 155.025 84.0841 155.11 83.9652C155.195 83.8463 155.241 83.7037 155.241 83.5574C155.241 83.4111 155.195 83.2685 155.11 83.1496C155.025 83.0306 154.904 82.9414 154.766 82.8944L137.676 73.0185C137.32 72.8381 136.927 72.7441 136.528 72.7441C136.129 72.7441 135.736 72.8381 135.38 73.0185L105.381 90.3252C105.242 90.3722 105.122 90.4615 105.037 90.5804C104.951 90.6993 104.906 90.8419 104.906 90.9882C104.906 91.1345 104.951 91.2771 105.037 91.3961C105.122 91.515 105.242 91.6042 105.381 91.6512Z" fill="#EBEBEB"/>
<path d="M117.913 86.9359L122.295 87.7898C122.568 87.8468 122.853 87.821 123.111 87.7156L126.824 86.1244C127.413 85.8698 128.251 86.1244 128.24 86.5434L128.182 89.1954C128.182 89.3651 128.32 89.5242 128.559 89.625L132.335 91.1684C132.934 91.4124 132.791 91.9481 132.086 92.0754L127.657 92.8763C127.541 92.8874 127.429 92.9234 127.328 92.982C127.227 93.0406 127.14 93.1204 127.073 93.2158L125.7 95.767C125.477 96.1701 124.549 96.2549 124.108 95.9102L121.457 93.7302C121.244 93.577 120.986 93.5003 120.725 93.5128L116.094 93.5446C115.357 93.5446 114.933 93.0673 115.373 92.7278L118.142 90.6062C118.181 90.5837 118.216 90.5536 118.243 90.5176C118.271 90.4816 118.292 90.4405 118.303 90.3967C118.315 90.3528 118.318 90.307 118.312 90.262C118.306 90.2169 118.292 90.1735 118.269 90.1342L116.784 87.6042C116.55 87.1799 117.213 86.798 117.913 86.9359Z" fill="#FAFAFA"/>
<path d="M127.657 81.3456L137.056 75.9197C137.24 75.811 137.448 75.7468 137.661 75.732C137.875 75.7173 138.089 75.7525 138.286 75.8348C138.583 76.0099 138.515 76.3281 138.138 76.5456L128.745 81.9715C128.56 82.0787 128.353 82.142 128.139 82.1567C127.926 82.1714 127.712 82.1371 127.514 82.0564C127.217 81.8813 127.286 81.5631 127.657 81.3456Z" fill="#FAFAFA"/>
<path d="M130.034 82.7138L139.427 77.2879C139.611 77.1792 139.819 77.1149 140.032 77.1002C140.246 77.0855 140.46 77.1207 140.657 77.203C140.954 77.378 140.891 77.6963 140.509 77.9137L131.116 83.3397C130.931 83.4468 130.723 83.5102 130.51 83.5249C130.297 83.5396 130.083 83.5053 129.885 83.4245C129.583 83.2495 129.652 82.9313 130.034 82.7138Z" fill="#FAFAFA"/>
<path d="M132.399 84.0824L141.792 78.6564C141.976 78.5465 142.184 78.4816 142.398 78.4669C142.611 78.4521 142.826 78.488 143.023 78.5716C143.325 78.7466 143.256 79.0648 142.874 79.2823L133.492 84.7082C133.307 84.8154 133.1 84.8787 132.886 84.8935C132.673 84.9082 132.459 84.8738 132.261 84.7931C131.954 84.6181 132.017 84.2998 132.399 84.0824Z" fill="#FAFAFA"/>
<path d="M134.764 85.4454L144.163 80.0248C144.346 79.915 144.552 79.85 144.765 79.8353C144.978 79.8205 145.192 79.8564 145.388 79.9399C145.69 80.1096 145.621 80.4279 145.245 80.6507L135.846 86.0713C135.662 86.1812 135.455 86.2461 135.241 86.2608C135.027 86.2756 134.813 86.2397 134.616 86.1561C134.319 85.9864 134.388 85.6682 134.764 85.4454Z" fill="#FAFAFA"/>
<path d="M137.135 86.8139L146.529 81.3932C146.713 81.2834 146.92 81.2184 147.134 81.2037C147.348 81.1889 147.562 81.2248 147.759 81.3084C148.056 81.4781 147.993 81.7963 147.611 82.0191L138.217 87.4397C138.033 87.5496 137.826 87.6146 137.612 87.6293C137.399 87.6441 137.184 87.6082 136.987 87.5246C136.674 87.3549 136.754 87.0366 137.135 86.8139Z" fill="#FAFAFA"/>
<path d="M139.501 88.1823L148.873 82.7617C149.057 82.6518 149.264 82.5868 149.478 82.5721C149.692 82.5573 149.906 82.5932 150.103 82.6768C150.4 82.8465 150.337 83.1647 149.955 83.3875L140.583 88.8188C140.399 88.9286 140.192 88.9936 139.978 89.0083C139.764 89.0231 139.55 88.9872 139.352 88.9036C139.055 88.7233 139.119 88.405 139.501 88.1823Z" fill="#FAFAFA"/>
<path d="M126.442 103.829L127.217 104.28C127.431 104.387 127.667 104.443 127.906 104.443C128.146 104.443 128.382 104.387 128.596 104.28L146.629 93.8786C147.011 93.6559 147.011 93.3005 146.629 93.083L145.85 92.6322C145.636 92.5249 145.399 92.469 145.16 92.469C144.921 92.469 144.685 92.5249 144.471 92.6322L126.437 103.033C126.354 103.061 126.281 103.115 126.23 103.187C126.179 103.259 126.152 103.345 126.152 103.433C126.153 103.521 126.181 103.607 126.233 103.678C126.285 103.749 126.359 103.802 126.442 103.829Z" fill="#E0E0E0"/>
<path d="M158.759 85.1695L159.533 85.6204C159.915 85.8378 159.915 86.1932 159.533 86.416L152.294 90.5955C152.08 90.7028 151.843 90.7587 151.604 90.7587C151.365 90.7587 151.129 90.7028 150.915 90.5955L150.14 90.1447C149.758 89.9272 149.758 89.5718 150.14 89.3491L157.359 85.1695C157.576 85.0587 157.816 85.001 158.059 85.001C158.302 85.001 158.542 85.0587 158.759 85.1695Z" fill="#E0E0E0"/>
<path d="M131.232 106.582L148.343 116.452C148.699 116.633 149.092 116.726 149.491 116.726C149.89 116.726 150.283 116.633 150.639 116.452L180.66 99.1242C180.798 99.0772 180.918 98.988 181.004 98.8691C181.089 98.7501 181.135 98.6075 181.135 98.4612C181.135 98.3149 181.089 98.1723 181.004 98.0534C180.918 97.9344 180.798 97.8452 180.66 97.7982L163.57 87.9223C163.214 87.7419 162.821 87.6479 162.422 87.6479C162.023 87.6479 161.63 87.7419 161.274 87.9223L131.232 105.261C131.095 105.309 130.977 105.398 130.893 105.517C130.81 105.635 130.765 105.776 130.765 105.921C130.765 106.066 130.81 106.207 130.893 106.326C130.977 106.444 131.095 106.533 131.232 106.582Z" fill="#EBEBEB"/>
<path d="M143.781 101.861L148.168 102.72C148.441 102.777 148.726 102.751 148.985 102.646L152.697 101.055C153.291 100.8 154.129 101.055 154.119 101.469L154.06 104.121C154.06 104.29 154.193 104.449 154.432 104.545L158.213 106.088C158.813 106.338 158.664 106.873 157.964 107.001L153.541 107.791C153.425 107.803 153.313 107.84 153.213 107.898C153.112 107.957 153.025 108.036 152.957 108.13L151.583 110.682C151.366 111.085 150.438 111.17 149.992 110.825L147.34 108.645C147.126 108.492 146.866 108.415 146.603 108.427L141.973 108.459C141.241 108.459 140.811 107.982 141.251 107.642L144.02 105.521C144.099 105.474 144.156 105.399 144.181 105.311C144.205 105.223 144.195 105.129 144.153 105.049L142.662 102.519C142.424 102.11 143.087 101.729 143.781 101.861Z" fill="#FAFAFA"/>
<path d="M153.535 96.2761L162.929 90.8501C163.113 90.7414 163.32 90.6772 163.534 90.6624C163.747 90.6477 163.961 90.6829 164.159 90.7653C164.461 90.9403 164.392 91.2585 164.011 91.476L154.617 96.9019C154.432 97.0091 154.225 97.0724 154.012 97.0871C153.799 97.1019 153.585 97.0675 153.387 96.9868C153.116 96.8117 153.153 96.4935 153.535 96.2761Z" fill="#FAFAFA"/>
<path d="M155.901 97.6445L165.315 92.2185C165.5 92.1098 165.707 92.0456 165.92 92.0309C166.134 92.0161 166.348 92.0513 166.546 92.1337C166.843 92.3087 166.774 92.6269 166.397 92.8444L156.999 98.2703C156.815 98.3803 156.608 98.4462 156.395 98.4628C156.181 98.4794 155.967 98.4462 155.768 98.3658C155.455 98.1802 155.524 97.8619 155.901 97.6445Z" fill="#FAFAFA"/>
<path d="M158.272 99.0075L167.665 93.5922C167.849 93.4823 168.056 93.4174 168.27 93.4026C168.484 93.3879 168.698 93.4238 168.895 93.5074C169.192 93.6771 169.129 93.9953 168.747 94.2181L159.354 99.6387C159.169 99.7459 158.961 99.8092 158.748 99.8239C158.535 99.8386 158.321 99.8043 158.123 99.7236C157.821 99.5485 157.89 99.2303 158.272 99.0075Z" fill="#FAFAFA"/>
<path d="M160.638 100.376L170.031 94.9555C170.215 94.8456 170.422 94.7807 170.636 94.7659C170.85 94.7512 171.064 94.7871 171.261 94.8706C171.564 95.0404 171.495 95.3586 171.113 95.5814L161.72 101.018C161.536 101.128 161.328 101.193 161.114 101.207C160.901 101.222 160.686 101.186 160.489 101.103C160.192 100.917 160.256 100.599 160.638 100.376Z" fill="#FAFAFA"/>
<path d="M163.003 101.744L172.401 96.3239C172.584 96.214 172.791 96.1491 173.004 96.1343C173.217 96.1196 173.43 96.1555 173.626 96.239C173.929 96.4087 173.86 96.727 173.483 96.9497L164.085 102.37C163.901 102.48 163.693 102.545 163.479 102.56C163.266 102.575 163.051 102.539 162.854 102.455C162.557 102.285 162.626 101.967 163.003 101.744Z" fill="#FAFAFA"/>
<path d="M165.374 103.139L174.767 97.7187C174.951 97.6088 175.159 97.5439 175.372 97.5291C175.586 97.5144 175.8 97.5502 175.998 97.6338C176.295 97.8035 176.231 98.1218 175.849 98.3446L166.456 103.765C166.272 103.875 166.065 103.94 165.851 103.955C165.637 103.969 165.423 103.934 165.225 103.85C164.923 103.67 164.992 103.336 165.374 103.139Z" fill="#FAFAFA"/>
<path d="M152.31 118.76L153.09 119.211C153.304 119.318 153.54 119.374 153.779 119.374C154.018 119.374 154.255 119.318 154.469 119.211L172.502 108.81C172.586 108.782 172.658 108.729 172.71 108.657C172.762 108.586 172.789 108.5 172.789 108.412C172.789 108.324 172.762 108.238 172.71 108.166C172.658 108.095 172.586 108.042 172.502 108.014L171.722 107.563C171.508 107.456 171.272 107.4 171.033 107.4C170.793 107.4 170.557 107.456 170.343 107.563L152.31 117.964C152.226 117.992 152.153 118.045 152.102 118.117C152.05 118.188 152.022 118.274 152.022 118.362C152.022 118.45 152.05 118.536 152.102 118.607C152.153 118.679 152.226 118.732 152.31 118.76Z" fill="#E0E0E0"/>
<path d="M184.627 100.1L185.407 100.551C185.789 100.769 185.789 101.124 185.407 101.347L178.167 105.526C177.953 105.634 177.717 105.69 177.477 105.69C177.238 105.69 177.002 105.634 176.788 105.526L176.008 105.075C175.924 105.048 175.852 104.994 175.8 104.923C175.748 104.852 175.721 104.766 175.721 104.678C175.721 104.59 175.748 104.504 175.8 104.432C175.852 104.361 175.924 104.308 176.008 104.28L183.253 100.1C183.466 99.9931 183.702 99.9373 183.94 99.9373C184.179 99.9373 184.414 99.9931 184.627 100.1Z" fill="#E0E0E0"/>
<path d="M114.015 77.7812C113.87 77.8524 113.71 77.8894 113.548 77.8894C113.387 77.8894 113.227 77.8524 113.082 77.7812C113.027 77.7619 112.979 77.726 112.946 77.6785C112.912 77.631 112.894 77.5742 112.894 77.516C112.894 77.4578 112.912 77.401 112.946 77.3535C112.979 77.306 113.027 77.2701 113.082 77.2508C113.227 77.1796 113.387 77.1426 113.548 77.1426C113.71 77.1426 113.87 77.1796 114.015 77.2508C114.275 77.394 114.275 77.6327 114.015 77.7812Z" fill="#263238"/>
<path d="M112.525 82.0192C112.236 82.1656 111.916 82.2419 111.592 82.2419C111.267 82.2419 110.948 82.1656 110.658 82.0192C110.553 81.9762 110.463 81.9028 110.399 81.8084C110.336 81.7139 110.302 81.6027 110.302 81.4888C110.302 81.375 110.336 81.2638 110.399 81.1693C110.463 81.0749 110.553 81.0014 110.658 80.9585C110.948 80.8121 111.267 80.7358 111.592 80.7358C111.916 80.7358 112.236 80.8121 112.525 80.9585C112.631 81.0014 112.721 81.0749 112.784 81.1693C112.848 81.2638 112.882 81.375 112.882 81.4888C112.882 81.6027 112.848 81.7139 112.784 81.8084C112.721 81.9028 112.631 81.9762 112.525 82.0192Z" fill="#263238"/>
<path d="M113.867 80.1416C113.522 79.94 113.544 79.6112 113.91 79.399L120.052 75.8507C120.251 75.7487 120.472 75.6956 120.696 75.6956C120.92 75.6956 121.141 75.7487 121.34 75.8507C121.68 76.0469 121.664 76.3811 121.298 76.5932L115.156 80.1363C114.957 80.2378 114.736 80.2912 114.512 80.2921C114.288 80.293 114.067 80.2415 113.867 80.1416Z" fill="#263238"/>
<path d="M98.9698 28.2534V29.4998L94.663 31.9874L88.2028 35.7001L31.1748 68.6642C30.8369 68.8762 30.5578 69.1698 30.3633 69.5181C30.1537 69.8606 30.0368 70.2518 30.0239 70.6531V146.446C30.0239 150.568 27.1279 152.238 23.5637 150.159C19.9994 148.08 17.0981 143.089 17.0981 138.968V63.1693C17.1202 62.7706 17.2359 62.3828 17.4359 62.0372C17.6359 61.6916 17.9145 61.3981 18.2491 61.1803L81.732 24.5247L87.8793 20.9817C88.0847 21.3274 88.1979 21.72 88.2081 22.122V23.2783L20.4025 62.5275C20.0843 62.725 19.8201 62.9984 19.6334 63.3231C19.4016 63.6792 19.2714 64.0918 19.2568 64.5165V140.209C19.2568 142.957 21.1875 146.293 23.569 147.666C25.9504 149.04 27.8758 147.926 27.8758 145.179V69.3855C27.8942 68.9884 28.0061 68.6013 28.2025 68.2557C28.3988 67.9101 28.6739 67.6157 29.0055 67.3965L98.6357 27.1926C98.8358 27.5119 98.9509 27.8771 98.9698 28.2534Z" fill="#E0E0E0"/>
<path d="M92.5035 24.6043V28.2534L26.8831 66.1554C26.5459 66.3697 26.264 66.6606 26.0604 67.0044C25.8567 67.3481 25.737 67.735 25.7109 68.1337V143.927C25.7109 145.301 24.7509 145.858 23.5628 145.168C22.9372 144.762 22.4162 144.215 22.042 143.569C21.6678 142.924 21.4511 142.2 21.4094 141.455V65.6568C21.4231 65.2563 21.5381 64.8658 21.7436 64.5218C21.9413 64.1759 22.2197 63.8829 22.5551 63.6678L92.18 23.4692C92.3815 23.8144 92.4928 24.2047 92.5035 24.6043Z" fill="#E0E0E0"/>
<path d="M32.511 70.7432C32.3048 71.085 32.1898 71.4739 32.1769 71.8729V147.014C32.178 147.56 32.1425 148.106 32.0708 148.648C32.0496 148.789 32.0283 148.927 32.0071 149.061C32.0071 149.189 31.9594 149.311 31.9329 149.438C31.9063 149.565 31.8798 149.661 31.848 149.767C31.8162 149.873 31.795 149.973 31.7631 150.074C31.4118 151.365 30.5858 152.475 29.4506 153.182C27.9072 154.068 25.8386 153.962 23.5632 152.652C18.7897 149.905 14.9443 142.925 14.9443 137.069V61.9227C14.9573 61.5237 15.0723 61.1348 15.2785 60.793L17.4372 62.0341C17.2276 62.3766 17.1107 62.7678 17.0977 63.1691V138.963C17.0977 143.084 19.9937 148.096 23.5632 150.154C27.1328 152.212 30.0234 150.546 30.0234 146.441V70.6318C30.0364 70.2304 30.1533 69.8393 30.3629 69.4967L32.511 70.7432Z" fill="#EBEBEB"/>
<path d="M28.204 68.2556C27.9985 68.5977 27.8835 68.9865 27.8699 69.3854V145.179C27.8699 147.926 25.9392 149.04 23.5631 147.666C21.1869 146.293 19.251 142.956 19.251 140.209V64.4951C19.2655 64.0705 19.3957 63.6579 19.6276 63.3018L21.7491 64.5217C21.5436 64.8657 21.4287 65.2562 21.415 65.6567V141.45C21.4567 142.195 21.6734 142.919 22.0476 143.564C22.4217 144.209 22.9428 144.757 23.5684 145.163C24.7565 145.852 25.7165 145.295 25.7165 143.922V68.1337C25.7294 67.7323 25.8464 67.3412 26.0559 66.9986L28.204 68.2556Z" fill="#EBEBEB"/>
<path d="M87.879 20.9818L81.7423 24.5249L18.2488 61.1804C17.9097 61.391 17.6303 61.685 17.4373 62.0344L15.2786 60.7932C15.4714 60.4424 15.7508 60.1466 16.0901 59.934L79.5783 23.2784L80.8035 22.5677L82.0446 21.8676L83.1054 21.2523L83.7366 20.8864L84.9087 20.2128C85.2505 20.031 85.6304 19.9324 86.0175 19.925C86.4046 19.9176 86.7879 20.0017 87.1364 20.1703C87.4502 20.3718 87.7061 20.6515 87.879 20.9818Z" fill="#FAFAFA"/>
<path d="M102.947 29.6854L96.8107 33.2284L86.0384 39.4446L33.3278 69.884C32.9882 70.0978 32.7074 70.3932 32.511 70.7432L30.3894 69.4968C30.5793 69.1594 30.8488 68.8736 31.1744 68.6641L88.1971 35.7213L94.6573 32.0085L98.9641 29.521L99.9665 28.9428L100.078 28.8845C100.409 28.7259 100.772 28.6436 101.139 28.6436C101.506 28.6436 101.868 28.7259 102.2 28.8845L102.311 28.9534C102.573 29.1486 102.791 29.3983 102.947 29.6854Z" fill="#FAFAFA"/>
<path d="M92.1808 23.4694L22.5559 63.6679C22.2205 63.883 21.9421 64.176 21.7444 64.5219L19.6228 63.302C19.8094 62.9773 20.0737 62.7039 20.3919 62.5064L88.1975 23.2572L89.1946 22.6791C89.5364 22.4973 89.9163 22.3987 90.3034 22.3913C90.6905 22.3839 91.0738 22.468 91.4223 22.6366C91.7434 22.8433 92.0048 23.1304 92.1808 23.4694Z" fill="#FAFAFA"/>
<path d="M98.651 27.1927L29.0049 67.3967C28.6641 67.6091 28.383 67.9048 28.1881 68.2559L26.0347 67.0095C26.238 66.6555 26.5306 66.3611 26.8833 66.1555L92.5249 28.2535L95.7073 26.429C96.0495 26.248 96.4296 26.1503 96.8167 26.1439C97.2037 26.1374 97.5869 26.2224 97.9349 26.3919C98.2384 26.593 98.485 26.8688 98.651 27.1927Z" fill="#FAFAFA"/>
<path d="M103.26 30.8257V105.967C103.26 109.048 102.2 111.207 100.486 112.162L29.3499 153.235C29.9796 152.857 30.5259 152.354 30.9553 151.758C31.3848 151.161 31.6885 150.484 31.848 149.767C31.8798 149.661 31.9064 149.549 31.9329 149.438C31.9594 149.326 31.9806 149.189 32.0071 149.061C32.0337 148.934 32.0496 148.791 32.0708 148.648C32.1425 148.106 32.178 147.56 32.1769 147.014V71.8729C32.1898 71.474 32.3048 71.085 32.511 70.7432C32.7074 70.3932 32.9882 70.0978 33.3278 69.884L86.0384 39.4499L96.8107 33.2337L102.947 29.6907C103.147 30.036 103.255 30.4268 103.26 30.8257Z" fill="#F5F5F5"/>
<path d="M39.7933 71.1305L50.4012 64.9938C51.0377 64.6279 51.5468 64.9196 51.5468 65.6568V80.4177C51.5262 80.8161 51.4117 81.2039 51.2125 81.5496C51.0134 81.8952 50.7354 82.1889 50.4012 82.4067L39.7933 88.5433C39.1568 88.9093 38.6423 88.6123 38.6423 87.8803V73.1195C38.664 72.7207 38.7795 72.3327 38.9795 71.9871C39.1795 71.6415 39.4584 71.3479 39.7933 71.1305Z" fill="#455A64"/>
<path d="M38.6423 94.1815L96.816 60.5969V63.0845L38.6423 96.6691V94.1815Z" fill="white"/>
<path d="M38.6423 94.1815L96.816 60.5969V63.0845L38.6423 96.6691V94.1815Z" fill="url(#paint4_linear_1_3002)"/>
<path opacity="0.4" d="M38.6423 94.1815L96.816 60.5969V63.0845L38.6423 96.6691V94.1815Z" fill="white"/>
<path d="M39.3318 101.246L50.8838 94.5792C51.2604 94.3565 51.568 94.5368 51.568 94.977V118.261C51.5557 118.5 51.4873 118.732 51.3684 118.94C51.2496 119.147 51.0836 119.323 50.8838 119.455L39.3318 126.122C38.95 126.345 38.6423 126.164 38.6423 125.724V102.44C38.6549 102.2 38.7239 101.968 38.8437 101.76C38.9636 101.553 39.1308 101.377 39.3318 101.246Z" fill="#F0F0F0"/>
<path d="M39.3318 128.599L50.8838 121.926C51.2604 121.709 51.568 121.889 51.568 122.324V140.548L38.6423 148.027V129.808C38.6524 129.566 38.7202 129.33 38.8402 129.12C38.9601 128.909 39.1287 128.731 39.3318 128.599Z" fill="#F0F0F0"/>
<path d="M54.4166 92.5318L65.9632 85.8648C66.3451 85.6473 66.6528 85.8223 66.6528 86.2626V117.025C66.6398 117.265 66.5706 117.497 66.4508 117.705C66.331 117.912 66.164 118.088 65.9632 118.219L54.4166 124.886C54.0347 125.103 53.7271 124.928 53.7271 124.488V93.7252C53.7408 93.4863 53.8104 93.2539 53.9301 93.0466C54.0498 92.8394 54.2164 92.6631 54.4166 92.5318Z" fill="#F0F0F0"/>
<path d="M69.4957 83.8335L81.0424 77.1505C81.4242 76.9278 81.7319 77.1081 81.7319 77.5483V100.833C81.7193 101.072 81.6503 101.305 81.5305 101.512C81.4106 101.72 81.2434 101.896 81.0424 102.026L69.4957 108.709C69.1138 108.932 68.8062 108.751 68.8062 108.311V85.0269C68.8187 84.7877 68.8877 84.5548 69.0076 84.3474C69.1274 84.1399 69.2947 83.9638 69.4957 83.8335Z" fill="#F0F0F0"/>
<path d="M84.5797 75.1242L96.1263 68.4572C96.5082 68.2344 96.8159 68.4147 96.8159 68.855V99.6178C96.8021 99.8568 96.7325 100.089 96.6128 100.296C96.4931 100.504 96.3265 100.68 96.1263 100.811L84.5797 107.478C84.1978 107.696 83.8901 107.521 83.8901 107.08V76.3176C83.9027 76.0784 83.9717 75.8455 84.0915 75.6381C84.2114 75.4307 84.3787 75.2546 84.5797 75.1242Z" fill="#F0F0F0"/>
<path d="M54.4166 127.368L65.9632 120.701C66.3451 120.478 66.6528 120.659 66.6528 121.099V131.855L53.7271 139.323V128.562C53.7396 128.322 53.8086 128.089 53.9284 127.882C54.0483 127.675 54.2156 127.498 54.4166 127.368Z" fill="#F0F0F0"/>
<path d="M68.7847 112.39V130.614L81.7104 123.152V104.927C81.7104 104.487 81.4028 104.312 81.0209 104.53L69.4742 111.197C69.2735 111.327 69.1064 111.503 68.9866 111.711C68.8668 111.918 68.7976 112.151 68.7847 112.39Z" fill="#F0F0F0"/>
<path d="M84.5743 109.955L96.1263 103.288C96.5082 103.065 96.8159 103.246 96.8159 103.686V114.442L83.8901 121.905V111.149C83.9025 110.91 83.9709 110.678 84.0897 110.47C84.2086 110.263 84.3746 110.087 84.5743 109.955Z" fill="#F0F0F0"/>
<path d="M56.586 128.599L63.8259 124.419C64.2078 124.197 64.5154 124.377 64.5154 124.817V130.72C64.5029 130.96 64.4338 131.193 64.314 131.4C64.1942 131.607 64.0269 131.783 63.8259 131.914L56.586 136.083C56.2041 136.3 55.8965 136.125 55.8965 135.685V129.813C55.9057 129.571 55.9731 129.333 56.0931 129.122C56.2131 128.911 56.3822 128.731 56.586 128.599Z" fill="#E0E0E0"/>
<path d="M86.7335 111.207L93.9733 107.027C94.3499 106.805 94.6629 106.985 94.6629 107.425V113.297C94.6487 113.536 94.5789 113.768 94.4592 113.975C94.3395 114.182 94.1732 114.359 93.9733 114.49L86.7335 118.67C86.3516 118.887 86.0439 118.712 86.0439 118.272V112.4C86.0565 112.161 86.1255 111.928 86.2453 111.721C86.3652 111.513 86.5325 111.337 86.7335 111.207Z" fill="#E0E0E0"/>
<path d="M41.4857 102.493L48.7255 98.3079C49.1074 98.0904 49.4151 98.2708 49.4151 98.7057V104.582C49.4013 104.821 49.3317 105.054 49.212 105.261C49.0923 105.468 48.9257 105.645 48.7255 105.776L41.4857 109.955C41.1091 110.173 40.7961 109.998 40.7961 109.558V103.67C40.8115 103.434 40.8819 103.204 41.0016 103C41.1213 102.795 41.287 102.622 41.4857 102.493Z" fill="#E0E0E0"/>
<path d="M41.2576 111.329L48.9589 106.884C49.2135 106.741 49.4151 106.858 49.4151 107.15V107.335C49.4069 107.494 49.3614 107.649 49.2822 107.788C49.2029 107.926 49.0922 108.043 48.9589 108.131L41.2576 112.575C41.003 112.724 40.7961 112.575 40.7961 112.31V112.125C40.8053 111.965 40.8518 111.81 40.9319 111.672C41.0121 111.534 41.1236 111.416 41.2576 111.329Z" fill="#E0E0E0"/>
<path d="M41.2576 113.817L48.9589 109.372C49.2135 109.229 49.4151 109.345 49.4151 109.637V109.823C49.4069 109.982 49.3614 110.137 49.2822 110.275C49.2029 110.413 49.0922 110.531 48.9589 110.618L41.2576 115.063C41.003 115.212 40.7961 115.063 40.7961 114.798V114.612C40.8053 114.453 40.8518 114.298 40.9319 114.159C41.0121 114.021 41.1236 113.904 41.2576 113.817Z" fill="#E0E0E0"/>
<path d="M41.2576 116.304L48.9589 111.859C49.2135 111.716 49.4151 111.833 49.4151 112.125V112.31C49.4069 112.469 49.3614 112.624 49.2822 112.763C49.2029 112.901 49.0922 113.018 48.9589 113.106L41.2576 117.551C41.003 117.699 40.7961 117.577 40.7961 117.285V117.1C40.8053 116.94 40.8518 116.785 40.9319 116.647C41.0121 116.509 41.1236 116.391 41.2576 116.304Z" fill="#E0E0E0"/>
<path d="M41.2576 118.792L48.9589 114.347C49.2135 114.204 49.4151 114.32 49.4151 114.612V114.808C49.4069 114.968 49.3614 115.123 49.2822 115.261C49.2029 115.399 49.0922 115.517 48.9589 115.604L41.2576 120.049C41.003 120.197 40.7961 120.075 40.7961 119.784V119.582C40.8061 119.423 40.853 119.269 40.9331 119.132C41.0132 118.995 41.1243 118.878 41.2576 118.792Z" fill="#E0E0E0"/>
<path d="M41.2576 121.279L48.9589 116.835C49.2135 116.691 49.4151 116.808 49.4151 117.1V117.285C49.4069 117.445 49.3614 117.599 49.2822 117.738C49.2029 117.876 49.0922 117.994 48.9589 118.081L41.2576 122.526C41.003 122.674 40.7961 122.552 40.7961 122.26V122.075C40.8053 121.915 40.8518 121.76 40.9319 121.622C41.0121 121.484 41.1236 121.366 41.2576 121.279Z" fill="#E0E0E0"/>
<path d="M56.586 93.7837L63.8259 89.6041C64.2078 89.3814 64.5154 89.5617 64.5154 90.0019V95.8734C64.5024 96.1125 64.4332 96.3452 64.3134 96.5526C64.1936 96.76 64.0266 96.9361 63.8259 97.0668L56.586 101.246C56.2041 101.464 55.8965 101.289 55.8965 100.849V94.977C55.909 94.7378 55.978 94.5049 56.0979 94.2975C56.2177 94.0901 56.385 93.914 56.586 93.7837Z" fill="#E0E0E0"/>
<path d="M56.336 102.609L64.0374 98.1647C64.2919 98.0162 64.4988 98.1329 64.4988 98.4299V98.6103C64.4901 98.7699 64.4438 98.9252 64.3636 99.0634C64.2834 99.2017 64.1716 99.319 64.0374 99.4058L56.336 103.851C56.0867 103.999 55.8799 103.851 55.8799 103.585V103.405C55.888 103.246 55.9335 103.091 56.0128 102.953C56.092 102.814 56.2028 102.697 56.336 102.609Z" fill="#E0E0E0"/>
<path d="M56.336 105.113L64.0374 100.668C64.2919 100.52 64.4988 100.636 64.4988 100.933V101.114C64.4901 101.273 64.4438 101.429 64.3636 101.567C64.2834 101.705 64.1716 101.822 64.0374 101.909L56.336 106.354C56.0867 106.502 55.8799 106.38 55.8799 106.089V105.908C55.888 105.749 55.9335 105.594 56.0128 105.456C56.092 105.318 56.2028 105.2 56.336 105.113Z" fill="#E0E0E0"/>
<path d="M56.336 107.6L64.0374 103.14C64.2919 102.991 64.4988 103.108 64.4988 103.405V103.585C64.4901 103.745 64.4438 103.9 64.3636 104.039C64.2834 104.177 64.1716 104.294 64.0374 104.381L56.336 108.826C56.0867 108.974 55.8799 108.852 55.8799 108.56V108.38C55.8904 108.224 55.9371 108.072 56.0162 107.937C56.0954 107.801 56.2049 107.686 56.336 107.6Z" fill="#E0E0E0"/>
<path d="M56.336 110.088L64.0374 105.643C64.2919 105.495 64.4988 105.611 64.4988 105.908V106.089C64.4901 106.248 64.4438 106.404 64.3636 106.542C64.2834 106.68 64.1716 106.798 64.0374 106.884L56.336 111.329C56.0867 111.478 55.8799 111.356 55.8799 111.064V110.884C55.888 110.724 55.9335 110.569 56.0128 110.431C56.092 110.293 56.2028 110.175 56.336 110.088Z" fill="#E0E0E0"/>
<path d="M56.336 112.575L64.0374 108.131C64.2919 107.982 64.4988 108.099 64.4988 108.396V108.576C64.4901 108.736 64.4438 108.891 64.3636 109.029C64.2834 109.168 64.1716 109.285 64.0374 109.372L56.336 113.817C56.0867 113.965 55.8799 113.843 55.8799 113.551V113.371C55.888 113.212 55.9335 113.057 56.0128 112.919C56.092 112.78 56.2028 112.663 56.336 112.575Z" fill="#E0E0E0"/>
<path d="M56.336 115.063L64.0374 110.618C64.2919 110.47 64.4988 110.592 64.4988 110.884V111.064C64.491 111.224 64.445 111.379 64.3647 111.518C64.2844 111.656 64.1722 111.773 64.0374 111.859L56.336 116.304C56.0867 116.453 55.8799 116.336 55.8799 116.039V115.869C55.8876 115.709 55.9329 115.552 56.0121 115.412C56.0913 115.272 56.2023 115.152 56.336 115.063Z" fill="#E0E0E0"/>
<path d="M56.336 117.551L64.0374 113.106C64.2919 112.957 64.4988 113.079 64.4988 113.371V113.551C64.491 113.711 64.445 113.867 64.3647 114.005C64.2844 114.144 64.1722 114.261 64.0374 114.347L56.336 118.792C56.0867 118.94 55.8799 118.824 55.8799 118.527V118.346C55.8892 118.187 55.9353 118.033 56.0144 117.895C56.0936 117.757 56.2037 117.639 56.336 117.551Z" fill="#E0E0E0"/>
<path d="M56.336 120.038L64.0374 115.593C64.2919 115.445 64.4988 115.567 64.4988 115.859V116.039C64.491 116.199 64.445 116.354 64.3647 116.493C64.2844 116.631 64.1722 116.748 64.0374 116.835L56.336 121.279C56.0867 121.428 55.8799 121.311 55.8799 121.014V120.834C55.8892 120.675 55.9353 120.52 56.0144 120.382C56.0936 120.244 56.2037 120.126 56.336 120.038Z" fill="#E0E0E0"/>
<path d="M41.4857 129.861L48.7255 125.676C49.1074 125.459 49.4151 125.639 49.4151 126.074V131.951C49.4021 132.19 49.3329 132.423 49.2131 132.63C49.0933 132.837 48.9262 133.013 48.7255 133.144L41.4857 137.324C41.1091 137.541 40.7961 137.366 40.7961 136.926V131.054C40.8091 130.815 40.8783 130.583 40.9981 130.375C41.1179 130.168 41.2849 129.992 41.4857 129.861Z" fill="#E0E0E0"/>
<path d="M41.2576 138.676L48.9589 134.231C49.2135 134.088 49.4151 134.205 49.4151 134.497V134.682C49.4069 134.841 49.3614 134.996 49.2822 135.135C49.2029 135.273 49.0922 135.391 48.9589 135.478L41.2576 139.923C41.003 140.071 40.7961 139.949 40.7961 139.657V139.472C40.8053 139.312 40.8518 139.157 40.9319 139.019C41.0121 138.881 41.1236 138.763 41.2576 138.676Z" fill="#E0E0E0"/>
<path d="M41.2576 141.185L48.9589 136.74C49.2135 136.597 49.4151 136.714 49.4151 137.005V137.191C49.4069 137.35 49.3614 137.505 49.2822 137.643C49.2029 137.782 49.0922 137.899 48.9589 137.987L41.2576 142.431C41.003 142.58 40.7961 142.458 40.7961 142.166V141.981C40.8053 141.821 40.8518 141.666 40.9319 141.528C41.0121 141.39 41.1236 141.272 41.2576 141.185Z" fill="#E0E0E0"/>
<path d="M41.2576 143.678L48.9589 139.207C49.2135 139.063 49.4151 139.18 49.4151 139.472V139.657C49.4069 139.817 49.3614 139.972 49.2822 140.11C49.2029 140.248 49.0922 140.366 48.9589 140.453L41.2576 144.898C41.003 145.046 40.7961 144.924 40.7961 144.633V144.452C40.8073 144.296 40.8548 144.145 40.9349 144.01C41.015 143.876 41.1255 143.762 41.2576 143.678Z" fill="#E0E0E0"/>
<path d="M71.6487 85.0745L78.8886 80.895C79.2705 80.6776 79.5781 80.8526 79.5781 81.2928V87.1643C79.5656 87.4035 79.4966 87.6364 79.3767 87.8438C79.2569 88.0512 79.0896 88.2273 78.8886 88.3577L71.6487 92.5319C71.2722 92.7493 70.9592 92.569 70.9592 92.1341V86.2679C70.9738 86.0292 71.0437 85.7971 71.1634 85.59C71.283 85.3829 71.4492 85.2064 71.6487 85.0745Z" fill="#E0E0E0"/>
<path d="M71.4365 93.9161L79.1379 89.4714C79.3872 89.3282 79.594 89.4714 79.594 89.7366V89.9222C79.5847 90.0811 79.5386 90.2356 79.4595 90.3737C79.3803 90.5117 79.2702 90.6295 79.1379 90.7178L71.4365 95.1837C71.1819 95.3269 70.9751 95.1837 70.9751 94.9185V94.7329C70.9809 94.5697 71.0259 94.4104 71.1062 94.2682C71.1865 94.126 71.2998 94.0053 71.4365 93.9161Z" fill="#E0E0E0"/>
<path d="M71.4365 96.4036L79.1379 91.9589C79.3872 91.8157 79.594 91.9589 79.594 92.2241V92.4098C79.5847 92.5686 79.5386 92.7232 79.4595 92.8612C79.3803 92.9992 79.2702 93.1171 79.1379 93.2054L71.4365 97.6501C71.1819 97.7933 70.9751 97.6501 70.9751 97.3849V97.1992C70.9842 97.0397 71.0307 96.8846 71.1109 96.7464C71.191 96.6082 71.3026 96.4908 71.4365 96.4036Z" fill="#E0E0E0"/>
<path d="M71.4365 98.8967L79.1379 94.452C79.3872 94.3088 79.594 94.4254 79.594 94.7172V94.9028C79.5847 95.0616 79.5386 95.2162 79.4595 95.3542C79.3803 95.4923 79.2702 95.6101 79.1379 95.6984L71.4365 100.138C71.1819 100.281 70.9751 100.138 70.9751 99.8726V99.687C70.985 99.5284 71.0319 99.3743 71.112 99.2371C71.1922 99.0998 71.3033 98.9833 71.4365 98.8967Z" fill="#E0E0E0"/>
<path d="M71.4365 101.379L79.1379 96.9341C79.3872 96.7909 79.594 96.9076 79.594 97.1993V97.385C79.5847 97.5438 79.5386 97.6983 79.4595 97.8364C79.3803 97.9744 79.2702 98.0922 79.1379 98.1806L71.4365 102.609C71.1819 102.753 70.9751 102.636 70.9751 102.344V102.159C70.9866 102.002 71.0343 101.85 71.1143 101.715C71.1944 101.579 71.3047 101.464 71.4365 101.379Z" fill="#E0E0E0"/>
<path d="M71.4365 103.866L79.122 99.4271C79.3712 99.2838 79.5781 99.4005 79.5781 99.6923V99.8779C79.5688 100.037 79.5227 100.191 79.4436 100.329C79.3644 100.467 79.2543 100.585 79.122 100.673L71.4365 105.113C71.1819 105.256 70.9751 105.139 70.9751 104.848V104.662C70.9842 104.503 71.0307 104.347 71.1109 104.209C71.191 104.071 71.3026 103.954 71.4365 103.866Z" fill="#E0E0E0"/>
<path d="M86.7335 76.3708L93.9733 72.1913C94.3499 71.9685 94.6629 72.1489 94.6629 72.5891V78.4606C94.6487 78.6994 94.5789 78.9316 94.4592 79.1388C94.3395 79.346 94.1732 79.5224 93.9733 79.654L86.7335 83.8335C86.3516 84.0509 86.0439 83.8759 86.0439 83.4357V77.5642C86.0565 77.325 86.1255 77.0921 86.2453 76.8847C86.3652 76.6772 86.5325 76.5012 86.7335 76.3708Z" fill="#E0E0E0"/>
<path d="M86.5001 85.2072L94.2014 80.7625C94.456 80.6193 94.6629 80.736 94.6629 81.0277V81.2133C94.6537 81.3729 94.6072 81.528 94.5271 81.6662C94.4469 81.8044 94.3353 81.9218 94.2014 82.0089L86.5001 86.4536C86.2508 86.6021 86.0439 86.4802 86.0439 86.1884V86.0028C86.0533 85.844 86.0993 85.6894 86.1785 85.5514C86.2576 85.4133 86.3677 85.2955 86.5001 85.2072Z" fill="#E0E0E0"/>
<path d="M86.5001 87.7001L94.2014 83.2501C94.456 83.1068 94.6629 83.2235 94.6629 83.5153V83.7009C94.6537 83.8604 94.6072 84.0155 94.5271 84.1537C94.4469 84.292 94.3353 84.4094 94.2014 84.4965L86.5001 88.9412C86.2508 89.0897 86.0439 88.9677 86.0439 88.676V88.4957C86.052 88.3365 86.0976 88.1815 86.1768 88.0433C86.2561 87.905 86.3668 87.7875 86.5001 87.7001Z" fill="#E0E0E0"/>
<path d="M86.5001 90.1876L94.2014 85.7376C94.456 85.5944 94.6629 85.7111 94.6629 86.0028V86.1672C94.6537 86.3267 94.6072 86.4819 94.5271 86.6201C94.4469 86.7583 94.3353 86.8757 94.2014 86.9628L86.5001 91.4075C86.2508 91.556 86.0439 91.434 86.0439 91.1423V90.962C86.0553 90.8065 86.1023 90.6558 86.1814 90.5214C86.2606 90.3871 86.3696 90.2729 86.5001 90.1876Z" fill="#E0E0E0"/>
<path d="M86.5001 92.6751L94.2014 88.2251C94.456 88.0818 94.6629 88.2251 94.6629 88.4903V88.6759C94.6537 88.8354 94.6072 88.9905 94.5271 89.1287C94.4469 89.267 94.3353 89.3844 94.2014 89.4715L86.5001 93.9162C86.2508 94.0647 86.0439 93.9162 86.0439 93.651V93.4707C86.052 93.3115 86.0976 93.1565 86.1768 93.0183C86.2561 92.88 86.3668 92.7625 86.5001 92.6751Z" fill="#E0E0E0"/>
<path d="M86.5001 95.1839L94.2014 90.7338C94.456 90.5906 94.6629 90.7338 94.6629 90.999V91.1847C94.6537 91.3442 94.6072 91.4993 94.5271 91.6375C94.4469 91.7757 94.3353 91.8932 94.2014 91.9803L86.5001 96.4038C86.2508 96.5523 86.0439 96.4038 86.0439 96.1386V95.9582C86.0553 95.8028 86.1023 95.652 86.1814 95.5177C86.2606 95.3834 86.3696 95.2691 86.5001 95.1839Z" fill="#E0E0E0"/>
<path d="M86.5001 97.6502L94.2014 93.2055C94.456 93.057 94.6629 93.1737 94.6629 93.4707V93.651C94.6542 93.8106 94.6078 93.9659 94.5276 94.1042C94.4474 94.2425 94.3356 94.3598 94.2014 94.4466L86.5001 98.8966C86.2508 99.0451 86.0439 98.8966 86.0439 98.6314V98.4511C86.0516 98.2911 86.097 98.1352 86.1762 97.9961C86.2555 97.8569 86.3664 97.7384 86.5001 97.6502Z" fill="#E0E0E0"/>
<path d="M86.5001 100.138L94.2014 95.7143C94.456 95.5658 94.6629 95.6825 94.6629 95.9795V96.1598C94.6542 96.3194 94.6078 96.4747 94.5276 96.613C94.4474 96.7513 94.3356 96.8686 94.2014 96.9554L86.5001 101.4C86.2508 101.549 86.0439 101.4 86.0439 101.135V100.955C86.0492 100.792 86.0933 100.633 86.1727 100.491C86.252 100.349 86.3643 100.228 86.5001 100.138Z" fill="#E0E0E0"/>
<path d="M86.5001 102.609L94.2014 98.1647C94.456 98.0162 94.6629 98.1329 94.6629 98.4299V98.6103C94.6542 98.7699 94.6078 98.9252 94.5276 99.0634C94.4474 99.2017 94.3356 99.319 94.2014 99.4058L86.5001 103.851C86.2508 103.999 86.0439 103.882 86.0439 103.585V103.405C86.0525 103.246 86.0982 103.091 86.1774 102.953C86.2566 102.815 86.3671 102.697 86.5001 102.609Z" fill="#E0E0E0"/>
<path d="M71.6487 112.443L78.8886 108.263C79.2705 108.046 79.5781 108.221 79.5781 108.661V114.532C79.5656 114.772 79.4966 115.005 79.3767 115.212C79.2569 115.419 79.0896 115.596 78.8886 115.726L71.6487 119.911C71.2722 120.128 70.9592 119.948 70.9592 119.513V113.636C70.9738 113.397 71.0437 113.165 71.1634 112.958C71.283 112.751 71.4492 112.575 71.6487 112.443Z" fill="#E0E0E0"/>
<path d="M71.4365 121.285L79.1379 116.84C79.3872 116.697 79.594 116.813 79.594 117.105V117.291C79.5847 117.45 79.5386 117.604 79.4595 117.742C79.3803 117.88 79.2702 117.998 79.1379 118.086L71.4365 122.531C71.1819 122.674 70.9751 122.558 70.9751 122.266V122.08C70.9842 121.921 71.0307 121.766 71.1109 121.627C71.191 121.489 71.3026 121.372 71.4365 121.285Z" fill="#E0E0E0"/>
<path d="M71.4365 123.772L79.1379 119.327C79.3872 119.184 79.594 119.327 79.594 119.593V119.778C79.5847 119.937 79.5386 120.092 79.4595 120.23C79.3803 120.368 79.2702 120.485 79.1379 120.574L71.4365 125.018C71.1819 125.162 70.9751 125.045 70.9751 124.753V124.568C70.9842 124.408 71.0307 124.253 71.1109 124.115C71.191 123.977 71.3026 123.859 71.4365 123.772Z" fill="#E0E0E0"/>
<path d="M71.4365 126.26L79.1379 121.815C79.3872 121.672 79.594 121.815 79.594 122.08V122.266C79.5847 122.425 79.5386 122.579 79.4595 122.717C79.3803 122.855 79.2702 122.973 79.1379 123.061L71.4365 127.506C71.1819 127.649 70.9751 127.533 70.9751 127.241V127.055C70.9842 126.896 71.0307 126.741 71.1109 126.602C71.191 126.464 71.3026 126.347 71.4365 126.26Z" fill="#E0E0E0"/>
<path d="M56.2141 77.7128C56.108 77.6774 56.0549 77.5766 56.0549 77.4104C56.0613 77.249 56.0936 77.0896 56.1504 76.9384L56.7232 75.1138C56.7597 74.9491 56.8425 74.7982 56.9619 74.6789C57.0009 74.6575 57.0447 74.6464 57.0892 74.6464C57.1337 74.6464 57.1775 74.6575 57.2165 74.6789C57.5114 74.8023 57.8326 74.8496 58.1506 74.8162C58.4685 74.7828 58.7729 74.6699 59.0357 74.488C59.5099 74.2115 59.882 73.7892 60.0965 73.284C60.3445 72.664 60.4619 71.9995 60.4413 71.3321V60.6341C60.4314 60.3252 60.4875 60.0178 60.6057 59.7324C60.7329 59.4691 60.9411 59.2535 61.1998 59.1171L62.3772 58.4382C62.6424 58.2844 62.8334 58.2632 62.9448 58.3799C63.085 58.5907 63.1452 58.8446 63.1145 59.0959V69.8311C63.1335 71.3376 62.8146 72.8293 62.181 74.1962C61.6037 75.4545 60.649 76.5019 59.4495 77.193C58.173 77.932 57.0945 78.1052 56.2141 77.7128Z" fill="#455A64"/>
<path d="M65.767 71.2685C64.8158 70.2925 64.3402 68.4238 64.3402 65.6622C64.2861 63.1706 64.7729 60.697 65.767 58.4117C66.6145 56.4571 68.0615 54.8226 69.8988 53.7442C71.6968 52.6834 73.0811 52.6834 74.0199 53.6488C74.9587 54.6141 75.4467 56.4864 75.4467 59.2497C75.5008 61.7413 75.0141 64.2149 74.0199 66.5002C73.1746 68.4515 71.7316 70.084 69.8988 71.1624C68.0954 72.202 66.7182 72.2373 65.767 71.2685ZM72.0893 65.519C72.6289 63.9872 72.8807 62.3688 72.8319 60.7454C72.8319 58.8325 72.5843 57.5312 72.0893 56.8417C71.596 56.1522 70.8694 56.0886 69.8988 56.6455C68.8698 57.2762 68.0904 58.243 67.6923 59.3823C67.1538 60.9143 66.9038 62.5328 66.9551 64.1559C66.9551 66.0653 67.1991 67.3701 67.6923 68.0543C68.1856 68.7385 68.9229 68.8074 69.8988 68.2399C70.9233 67.6155 71.698 66.6532 72.0893 65.519Z" fill="#455A64"/>
<path d="M76.9209 66.4843C76.7809 66.2794 76.7206 66.0304 76.7512 65.7842V51.2354C76.7424 50.9245 76.8003 50.6152 76.9209 50.3285C77.0309 50.0823 77.2167 49.8779 77.4513 49.745L82.1188 47.0453C83.2927 46.37 84.1767 46.278 84.7708 46.7695C85.3648 47.261 85.6565 48.2334 85.6459 49.6867C85.6463 50.4555 85.5264 51.2197 85.2905 51.9515C85.0844 52.6302 84.7515 53.2637 84.3093 53.8185C85.4019 53.7442 85.9482 54.6636 85.9482 56.5765C85.9479 57.5152 85.8067 58.4485 85.5292 59.3452C85.2501 60.2501 84.8177 61.1005 84.251 61.8592C83.6822 62.6232 82.9594 63.2592 82.1294 63.7262L77.4619 66.4259C77.2126 66.5691 77.0323 66.5904 76.9209 66.4843ZM81.6945 54.0518C82.1203 53.8027 82.4634 53.4338 82.681 52.991C82.929 52.4849 83.0509 51.9262 83.0364 51.3627C83.0364 50.6944 82.925 50.3019 82.7075 50.1163C82.4901 49.9307 82.1506 50.0102 81.6945 50.2701L79.3926 51.6067V55.4043L81.6945 54.0518ZM81.9491 60.8727C82.4229 60.6056 82.7957 60.19 83.0098 59.6899C83.2439 59.1513 83.3614 58.5693 83.3546 57.9821C83.3546 57.2819 83.222 56.8311 82.9568 56.6349C82.6916 56.4386 82.315 56.4757 81.8377 56.7515L79.3926 58.1571V62.3525L81.9491 60.8727Z" fill="#455A64"/>
<path d="M88.3084 60.1249C87.7033 60.3023 87.0567 60.2762 86.4679 60.0506C86.3984 60.0203 86.339 59.9708 86.2967 59.9078C86.2544 59.8448 86.231 59.7711 86.2292 59.6953C86.236 59.5629 86.2629 59.4324 86.3088 59.3081L86.9665 57.335C86.9932 57.1935 87.0659 57.0649 87.1733 56.969C87.2101 56.9495 87.2511 56.9393 87.2927 56.9393C87.3343 56.9393 87.3753 56.9495 87.412 56.969C87.8533 57.0871 88.3154 57.1052 88.7645 57.0221C89.309 56.9243 89.8316 56.7304 90.308 56.4493C90.8604 56.1516 91.3319 55.7238 91.6817 55.2028C91.9886 54.6929 92.1432 54.1058 92.1272 53.5109C92.1541 53.1779 92.0782 52.8447 91.9098 52.5562C91.7547 52.3536 91.526 52.2202 91.2733 52.1849C90.8425 52.1274 90.4084 52.0991 89.9738 52.1C89.3909 52.1137 88.8089 52.0458 88.2447 51.8985C87.7573 51.75 87.343 51.4246 87.0832 50.9862C86.7356 50.3356 86.5775 49.6006 86.627 48.8646C86.6076 47.3903 86.9889 45.9384 87.7303 44.6639C88.4207 43.454 89.4201 42.4491 90.6262 41.752C92.2174 40.8344 93.4214 40.5958 94.2594 41.0254C94.3262 41.0594 94.3831 41.1099 94.4249 41.1721C94.4666 41.2343 94.4918 41.3061 94.4981 41.3808C94.4913 41.5131 94.4645 41.6436 94.4185 41.7679L93.7662 43.741C93.7399 43.8811 93.667 44.0083 93.5593 44.1017C93.523 44.1226 93.4819 44.1337 93.44 44.1337C93.3981 44.1337 93.3569 44.1226 93.3206 44.1017C92.6735 43.8223 91.8886 43.9479 90.9657 44.4783C90.4336 44.7524 89.9896 45.171 89.6847 45.6861C89.3798 46.2012 89.2263 46.7918 89.2419 47.3901C89.218 47.7108 89.288 48.0315 89.4434 48.313C89.5655 48.5008 89.7556 48.6339 89.9738 48.6843C90.3378 48.7501 90.7073 48.7803 91.0771 48.7745H91.5226C92.1431 48.7768 92.7598 48.8716 93.3524 49.0556C93.8058 49.2206 94.1756 49.558 94.3814 49.9944C94.6574 50.666 94.7789 51.391 94.7368 52.1159C94.7378 53.5187 94.3721 54.8973 93.676 56.1151C92.9653 57.3775 91.9188 58.4184 90.6527 59.1224C89.9285 59.5772 89.1375 59.9154 88.3084 60.1249Z" fill="#455A64"/>
<path d="M154.586 9.08472L152.432 7.83829C152.276 7.76558 152.103 7.73609 151.931 7.75288C151.76 7.76967 151.596 7.83213 151.456 7.93376L124.051 23.7926C123.65 24.0548 123.317 24.4074 123.078 24.8219C122.838 25.2364 122.699 25.7014 122.672 26.1793V82.6663C122.654 82.8373 122.681 83.01 122.752 83.1667C122.823 83.3234 122.935 83.4582 123.075 83.5574L125.197 84.7985H125.228C125.381 84.8601 125.546 84.8821 125.71 84.8627C125.873 84.8432 126.028 84.7828 126.162 84.6872L133.402 80.5076V84.8622C133.402 85.6312 133.524 86.0768 133.725 86.1988L135.847 87.4346C136.091 87.5672 136.446 87.2277 136.844 86.3738L141.978 75.5007L153.525 68.7965C153.926 68.5343 154.259 68.1817 154.498 67.7672C154.738 67.3527 154.877 66.8877 154.904 66.4098V9.97047C154.93 9.80796 154.915 9.64139 154.859 9.48644C154.804 9.33149 154.71 9.19324 154.586 9.08472Z" fill="white"/>
<path d="M154.586 9.08472L152.432 7.83829C152.276 7.76558 152.103 7.73609 151.931 7.75288C151.76 7.76967 151.596 7.83213 151.456 7.93376L124.051 23.7926C123.65 24.0548 123.317 24.4074 123.078 24.8219C122.838 25.2364 122.699 25.7014 122.672 26.1793V82.6663C122.654 82.8373 122.681 83.01 122.752 83.1667C122.823 83.3234 122.935 83.4582 123.075 83.5574L125.197 84.7985H125.228C125.381 84.8601 125.546 84.8821 125.71 84.8627C125.873 84.8432 126.028 84.7828 126.162 84.6872L133.402 80.5076V84.8622C133.402 85.6312 133.524 86.0768 133.725 86.1988L135.847 87.4346C136.091 87.5672 136.446 87.2277 136.844 86.3738L141.978 75.5007L153.525 68.7965C153.926 68.5343 154.259 68.1817 154.498 67.7672C154.738 67.3527 154.877 66.8877 154.904 66.4098V9.97047C154.93 9.80796 154.915 9.64139 154.859 9.48644C154.804 9.33149 154.71 9.19324 154.586 9.08472Z" fill="url(#paint5_linear_1_3002)"/>
<path opacity="0.4" d="M154.533 9.05288C154.381 8.99839 154.217 8.98103 154.057 9.00225C153.896 9.02347 153.743 9.08264 153.61 9.17487L126.199 25.039C125.801 25.2867 125.473 25.6317 125.245 26.0414L123.091 24.795C123.318 24.3841 123.647 24.0388 124.046 23.7925L151.451 7.92844C151.636 7.81539 151.846 7.75147 152.061 7.74281C152.189 7.7404 152.315 7.77148 152.427 7.83297L154.533 9.05288Z" fill="white"/>
<path opacity="0.2" d="M133.763 86.2199C133.566 86.0979 133.444 85.6524 133.444 84.8833V80.5341L135.614 79.2717V86.1138C135.614 86.8458 135.725 87.2913 135.9 87.4398L133.763 86.2199Z" fill="black"/>
<path opacity="0.1" d="M125.239 84.8037L123.086 83.5626C122.948 83.4622 122.839 83.3277 122.77 83.1724C122.7 83.0171 122.672 82.8463 122.688 82.6769V26.1793C122.707 25.6889 122.854 25.2119 123.112 24.7949L125.266 26.0413C125.008 26.4587 124.864 26.9357 124.847 27.4257V83.9127C124.827 84.0827 124.853 84.255 124.922 84.4117C124.991 84.5683 125.1 84.7037 125.239 84.8037Z" fill="black"/>
<path d="M130.278 27.6536L149.526 16.5153C150.162 16.1494 150.677 16.4464 150.677 17.1783V29.4145C150.655 29.814 150.54 30.2027 150.34 30.5492C150.14 30.8957 149.861 31.1902 149.526 31.4088L130.278 42.5471C129.647 42.9131 129.132 42.616 129.132 41.8841V29.6426C129.154 29.2445 129.269 28.8571 129.468 28.5117C129.667 28.1662 129.945 27.8723 130.278 27.6536Z" fill="#455A64"/>
<path d="M150.677 34.5011C150.649 34.8875 150.53 35.2619 150.33 35.5937C150.13 35.9255 149.855 36.2053 149.526 36.4106L130.278 47.5223C129.647 47.8883 129.132 47.6284 129.132 46.9389C129.161 46.554 129.28 46.1812 129.479 45.8505C129.678 45.5198 129.951 45.2404 130.278 45.0348L149.526 33.923C150.162 33.557 150.677 33.8169 150.677 34.5011Z" fill="#455A64"/>
<path d="M150.677 39.4921C150.649 39.8785 150.53 40.2528 150.33 40.5846C150.13 40.9164 149.855 41.1963 149.526 41.4015L130.278 52.5398C129.647 52.9057 129.132 52.6458 129.132 51.9563C129.161 51.5714 129.28 51.1987 129.479 50.8679C129.678 50.5372 129.951 50.2578 130.278 50.0522L149.526 38.9139C150.162 38.5321 150.677 38.7919 150.677 39.4921Z" fill="#455A64"/>
<path d="M150.677 44.4513C150.649 44.8377 150.53 45.2121 150.33 45.5439C150.13 45.8757 149.855 46.1555 149.526 46.3608L130.278 57.499C129.647 57.865 129.132 57.6051 129.132 56.9156C129.161 56.5307 129.28 56.1579 129.479 55.8272C129.678 55.4965 129.951 55.2171 130.278 55.0115L149.526 43.8732C150.162 43.5072 150.677 43.7671 150.677 44.4513Z" fill="#455A64"/>
<path d="M150.677 49.4265C150.649 49.8129 150.53 50.1872 150.33 50.519C150.13 50.8508 149.855 51.1307 149.526 51.3359L130.278 62.4477C129.647 62.8136 129.132 62.5537 129.132 61.8642C129.161 61.4793 129.28 61.1065 129.479 60.7758C129.678 60.4451 129.951 60.1657 130.278 59.9601L149.526 48.8218C150.162 48.5089 150.677 48.7423 150.677 49.4265Z" fill="#455A64"/>
<path d="M129.132 66.8444C129.132 67.5286 129.663 67.7885 130.278 67.4226L132.293 66.261C132.62 66.0554 132.894 65.776 133.093 65.4453C133.292 65.1146 133.41 64.7418 133.439 64.3569C133.439 63.6674 132.909 63.4075 132.293 63.7734L130.278 64.935C129.951 65.1411 129.676 65.4214 129.477 65.7531C129.278 66.0848 129.16 66.4586 129.132 66.8444Z" fill="#455A64"/>
<path d="M136.356 62.681C136.356 63.3652 136.886 63.6251 137.507 63.2591L149.525 56.311C149.854 56.1057 150.13 55.8258 150.33 55.494C150.53 55.1622 150.648 54.7879 150.676 54.4015C150.676 53.7173 150.146 53.4574 149.525 53.8234L137.507 60.7716C137.178 60.9768 136.903 61.2567 136.703 61.5885C136.503 61.9203 136.384 62.2946 136.356 62.681Z" fill="#455A64"/>
<path d="M129.132 71.8461C129.132 72.5303 129.663 72.7902 130.278 72.4243L132.293 71.2627C132.62 71.0571 132.894 70.7777 133.093 70.447C133.292 70.1163 133.41 69.7435 133.439 69.3586C133.439 68.6691 132.909 68.4092 132.293 68.7752L130.278 69.9367C129.951 70.1428 129.676 70.4231 129.477 70.7548C129.278 71.0865 129.16 71.4603 129.132 71.8461Z" fill="#455A64"/>
<path d="M136.356 67.6561C136.356 68.3403 136.886 68.6002 137.507 68.2342L149.525 61.286C149.854 61.0808 150.13 60.8009 150.33 60.4691C150.53 60.1374 150.648 59.763 150.676 59.3766C150.676 58.6924 150.146 58.4325 149.525 58.7985L137.507 65.7467C137.178 65.9519 136.903 66.2318 136.703 66.5636C136.503 66.8954 136.384 67.2697 136.356 67.6561Z" fill="#455A64"/>
<path d="M129.132 76.7946C129.132 77.4788 129.663 77.7387 130.278 77.3728L132.293 76.2112C132.62 76.0056 132.894 75.7262 133.093 75.3955C133.292 75.0648 133.41 74.692 133.439 74.3071C133.439 73.6176 132.909 73.3577 132.293 73.7236L130.278 74.8852C129.951 75.0913 129.676 75.3716 129.477 75.7033C129.278 76.035 129.16 76.4088 129.132 76.7946Z" fill="#455A64"/>
<path d="M136.356 72.631C136.356 73.3152 136.886 73.5751 137.507 73.2092L149.525 66.261C149.853 66.0563 150.128 65.7772 150.328 65.4464C150.528 65.1156 150.648 64.7424 150.676 64.3569C150.676 63.6674 150.146 63.4075 149.525 63.7734L137.507 70.7216C137.178 70.9268 136.903 71.2067 136.703 71.5385C136.503 71.8703 136.384 72.2446 136.356 72.631Z" fill="#455A64"/>
<path d="M180.452 23.9778L178.331 22.7314C178.175 22.6586 178.002 22.6292 177.83 22.6459C177.658 22.6627 177.494 22.7252 177.355 22.8268L149.934 38.6803C149.533 38.9426 149.2 39.2951 148.96 39.7096C148.721 40.1242 148.582 40.5891 148.555 41.0671V97.5541C148.536 97.7251 148.564 97.8978 148.635 98.0545C148.706 98.2111 148.817 98.346 148.958 98.4452L151.106 99.6863H151.132C151.285 99.7483 151.452 99.7706 151.616 99.7511C151.78 99.7316 151.937 99.671 152.071 99.5749L159.311 95.3954V99.7499C159.311 100.519 159.433 100.965 159.629 101.087L161.751 102.322H161.777C162.021 102.455 162.377 102.115 162.769 101.262L167.909 90.3885L179.455 83.6843C179.856 83.422 180.189 83.0695 180.429 82.6549C180.668 82.2404 180.807 81.7755 180.834 81.2975V24.8635C180.853 24.6954 180.828 24.5252 180.761 24.3699C180.694 24.2145 180.588 24.0793 180.452 23.9778Z" fill="white"/>
<path d="M180.452 23.9778L178.331 22.7314C178.175 22.6586 178.002 22.6292 177.83 22.6459C177.658 22.6627 177.494 22.7252 177.355 22.8268L149.934 38.6803C149.533 38.9426 149.2 39.2951 148.96 39.7096C148.721 40.1242 148.582 40.5891 148.555 41.0671V97.5541C148.536 97.7251 148.564 97.8978 148.635 98.0545C148.706 98.2111 148.817 98.346 148.958 98.4452L151.106 99.6863H151.132C151.285 99.7483 151.452 99.7706 151.616 99.7511C151.78 99.7316 151.937 99.671 152.071 99.5749L159.311 95.3954V99.7499C159.311 100.519 159.433 100.965 159.629 101.087L161.751 102.322H161.777C162.021 102.455 162.377 102.115 162.769 101.262L167.909 90.3885L179.455 83.6843C179.856 83.422 180.189 83.0695 180.429 82.6549C180.668 82.2404 180.807 81.7755 180.834 81.2975V24.8635C180.853 24.6954 180.828 24.5252 180.761 24.3699C180.694 24.2145 180.588 24.0793 180.452 23.9778Z" fill="url(#paint6_linear_1_3002)"/>
<path opacity="0.4" d="M180.394 23.9461C180.242 23.8916 180.078 23.8743 179.918 23.8955C179.757 23.9167 179.604 23.9759 179.471 24.0681L152.055 39.9322C151.657 40.18 151.328 40.5249 151.1 40.9347L148.947 39.6882C149.175 39.2785 149.504 38.9335 149.902 38.6858L177.313 22.8217C177.496 22.7075 177.706 22.6435 177.922 22.6361C178.048 22.6343 178.173 22.6654 178.283 22.7262L180.394 23.9461Z" fill="white"/>
<path opacity="0.2" d="M159.624 101.113C159.428 100.991 159.306 100.546 159.306 99.7766V95.4273L161.459 94.1809V101.018C161.459 101.75 161.571 102.195 161.751 102.344L159.624 101.113Z" fill="black"/>
<path opacity="0.1" d="M151.101 99.6972L148.953 98.4561C148.814 98.3564 148.705 98.222 148.635 98.0665C148.565 97.911 148.538 97.7399 148.555 97.5703V41.0833C148.572 40.5933 148.716 40.1163 148.974 39.699L151.127 40.9454C150.87 41.3627 150.725 41.8398 150.708 42.3297V98.8167C150.69 98.9851 150.717 99.1552 150.786 99.3098C150.855 99.4644 150.963 99.5981 151.101 99.6972Z" fill="black"/>
<path d="M156.145 42.5469L175.393 31.4086C176.024 31.0427 176.539 31.3397 176.539 32.0716V44.3397C176.517 44.7386 176.402 45.1268 176.203 45.4732C176.004 45.8196 175.727 46.1144 175.393 46.3339L156.145 57.4722C155.508 57.8382 154.994 57.5412 154.994 56.8092V44.5359C155.016 44.1371 155.131 43.7492 155.331 43.4035C155.531 43.0579 155.81 42.7644 156.145 42.5469Z" fill="#455A64"/>
<path d="M176.539 49.3945C176.511 49.7803 176.392 50.1541 176.193 50.4858C175.994 50.8175 175.72 51.0977 175.393 51.3039L156.145 62.4156C155.508 62.7816 154.994 62.5217 154.994 61.8322C155.023 61.4467 155.142 61.0735 155.342 60.7427C155.542 60.4118 155.817 60.1328 156.145 59.9281L175.393 48.8163C176.024 48.4504 176.539 48.7102 176.539 49.3945Z" fill="#455A64"/>
<path d="M176.539 54.3695C176.511 54.7553 176.392 55.1291 176.193 55.4608C175.994 55.7925 175.72 56.0728 175.393 56.2789L156.145 67.3907C155.508 67.7566 154.994 67.4967 154.994 66.8072C155.023 66.4218 155.142 66.0485 155.342 65.7177C155.542 65.3869 155.817 65.1078 156.145 64.9031L175.393 53.8126C176.024 53.4254 176.539 53.6853 176.539 54.3695Z" fill="#455A64"/>
<path d="M176.539 59.3446C176.508 59.7277 176.389 60.0984 176.19 60.4271C175.991 60.7559 175.718 61.0336 175.393 61.2382L156.145 72.3764C155.508 72.7424 154.994 72.4825 154.994 71.793C155.023 71.4075 155.142 71.0343 155.342 70.7035C155.542 70.3726 155.817 70.0936 156.145 69.8889L175.393 58.7665C176.024 58.4005 176.539 58.6604 176.539 59.3446Z" fill="#455A64"/>
<path d="M176.539 64.3197C176.511 64.7055 176.392 65.0794 176.193 65.4111C175.994 65.7428 175.72 66.023 175.393 66.2291L156.145 77.3674C155.508 77.7334 154.994 77.4735 154.994 76.784C155.023 76.3985 155.142 76.0252 155.342 75.6944C155.542 75.3636 155.817 75.0846 156.145 74.8799L175.393 63.7416C176.024 63.3597 176.539 63.6355 176.539 64.3197Z" fill="#455A64"/>
<path d="M154.994 81.738C154.994 82.4222 155.524 82.6821 156.145 82.3161L158.155 81.1545C158.483 80.9499 158.758 80.6708 158.958 80.34C159.158 80.0092 159.277 79.6359 159.306 79.2504C159.306 78.5609 158.776 78.301 158.155 78.667L156.145 79.8286C155.816 80.0338 155.541 80.3137 155.341 80.6455C155.141 80.9773 155.022 81.3516 154.994 81.738Z" fill="#455A64"/>
<path d="M162.223 77.5743C162.223 78.2585 162.754 78.5184 163.374 78.1524L175.393 71.2043C175.72 70.9981 175.994 70.7179 176.193 70.3862C176.392 70.0545 176.511 69.6807 176.538 69.2948C176.538 68.6106 176.008 68.3507 175.393 68.7167L163.369 75.6649C163.041 75.871 162.767 76.1512 162.568 76.4829C162.369 76.8146 162.251 77.1885 162.223 77.5743Z" fill="#455A64"/>
<path d="M154.994 86.697C154.994 87.3812 155.524 87.6411 156.145 87.2751L158.155 86.1135C158.483 85.9088 158.758 85.6298 158.958 85.299C159.158 84.9682 159.277 84.5949 159.306 84.2094C159.306 83.5199 158.776 83.26 158.155 83.626L156.145 84.7875C155.816 84.9928 155.541 85.2727 155.341 85.6044C155.141 85.9362 155.022 86.3106 154.994 86.697Z" fill="#455A64"/>
<path d="M162.223 82.5494C162.223 83.2336 162.754 83.4935 163.374 83.1275L175.393 76.1794C175.72 75.9732 175.994 75.693 176.193 75.3613C176.392 75.0296 176.511 74.6558 176.538 74.2699C176.538 73.5857 176.008 73.3258 175.393 73.6918L163.369 80.64C163.041 80.8461 162.767 81.1263 162.568 81.458C162.369 81.7897 162.251 82.1636 162.223 82.5494Z" fill="#455A64"/>
<path d="M154.994 91.6882C154.994 92.3724 155.524 92.6323 156.145 92.2663L158.155 91.1047C158.483 90.9 158.758 90.621 158.958 90.2902C159.158 89.9594 159.277 89.5861 159.306 89.2006C159.306 88.5111 158.776 88.2512 158.155 88.6172L156.145 89.7788C155.816 89.984 155.541 90.2639 155.341 90.5957C155.141 90.9275 155.022 91.3018 154.994 91.6882Z" fill="#455A64"/>
<path d="M162.223 87.5246C162.223 88.2088 162.754 88.4687 163.374 88.1027L175.393 81.1545C175.719 80.9489 175.993 80.6695 176.192 80.3388C176.391 80.0081 176.51 79.6353 176.538 79.2504C176.538 78.5609 176.008 78.301 175.393 78.667L163.369 85.6364C163.044 85.8404 162.772 86.1173 162.573 86.4451C162.374 86.7728 162.254 87.1425 162.223 87.5246Z" fill="#455A64"/>
<path d="M208.479 2.08385L205.626 0.450231H205.599C204.342 -0.255193 202.618 -0.149113 200.709 0.948803C196.863 3.17116 193.75 8.57057 193.75 13.01C193.75 15.2217 194.524 16.7811 195.781 17.5077L198.359 18.9822L198.974 17.9214C199.677 17.7674 200.351 17.5062 200.974 17.1471C204.814 14.93 207.933 9.53058 207.933 5.09118C207.931 4.4924 207.858 3.89597 207.715 3.31436L208.479 2.08385Z" fill="white"/>
<path d="M208.479 2.08385L205.626 0.450231H205.599C204.342 -0.255193 202.618 -0.149113 200.709 0.948803C196.863 3.17116 193.75 8.57057 193.75 13.01C193.75 15.2217 194.524 16.7811 195.781 17.5077L198.359 18.9822L198.974 17.9214C199.677 17.7674 200.351 17.5062 200.974 17.1471C204.814 14.93 207.933 9.53058 207.933 5.09118C207.931 4.4924 207.858 3.89597 207.715 3.31436L208.479 2.08385Z" fill="url(#paint7_linear_1_3002)"/>
<path d="M193.766 12.9724C193.766 15.1895 194.54 16.7488 195.797 17.4755L198.375 18.95L198.99 17.921C199.692 17.7626 200.366 17.4997 200.99 17.1413C203.187 15.7582 204.972 13.8088 206.156 11.4979L196.078 5.66357C194.663 7.84684 193.863 10.3722 193.766 12.9724Z" fill="#263238"/>
<path d="M208.485 2.08356L205.652 0.449946H205.626C204.369 -0.260783 202.645 -0.154702 200.735 0.948518C198.825 2.12485 197.227 3.74629 196.079 5.67433L206.156 11.5087C207.253 9.56106 207.864 7.37787 207.938 5.14394C207.936 4.54515 207.863 3.94872 207.721 3.36712L208.485 2.08356Z" fill="#455A64"/>
<path d="M203.414 2.48146C199.574 4.6985 196.455 10.0979 196.455 14.5638C196.455 19.0298 199.574 20.8013 203.414 18.5789C207.254 16.3566 210.399 10.9359 210.399 6.49654C210.399 2.05714 207.259 0.243191 203.414 2.48146Z" fill="#37474F"/>
<path d="M203.923 6.15692C204.13 6.08511 204.351 6.06865 204.565 6.10919C204.74 6.1497 204.901 6.2357 205.032 6.35847C205.158 6.48161 205.255 6.63227 205.313 6.7987C205.38 6.96812 205.42 7.14719 205.43 7.3291C205.433 7.41764 205.413 7.50551 205.371 7.58368C205.339 7.6534 205.288 7.71235 205.223 7.75341L204.693 8.05574C204.608 8.10878 204.544 8.11938 204.502 8.09286C204.45 8.05961 204.409 8.01157 204.385 7.95496C204.348 7.8865 204.299 7.82595 204.238 7.7768C204.178 7.72764 204.109 7.69085 204.035 7.66855C203.916 7.65147 203.795 7.65864 203.68 7.68964C203.564 7.72064 203.455 7.77481 203.361 7.84888C203.226 7.92464 203.101 8.01733 202.99 8.12469C202.873 8.23215 202.77 8.35324 202.682 8.48536C202.595 8.61304 202.525 8.75226 202.475 8.89906C202.427 9.03904 202.402 9.18594 202.401 9.33399C202.39 9.46864 202.42 9.60355 202.486 9.72118C202.517 9.7622 202.557 9.7955 202.603 9.8185C202.649 9.8415 202.7 9.85357 202.751 9.85377C202.91 9.86084 203.069 9.84476 203.223 9.80604L203.923 9.64162C204.171 9.57623 204.426 9.54764 204.682 9.55675C204.875 9.56016 205.061 9.62729 205.212 9.74769C205.355 9.87724 205.455 10.0475 205.499 10.2357C205.559 10.4947 205.587 10.7601 205.584 11.0259C205.58 11.3248 205.541 11.6221 205.467 11.9117C205.39 12.2197 205.279 12.5184 205.138 12.8028C204.992 13.0954 204.814 13.3711 204.608 13.6249C204.403 13.8806 204.17 14.1119 203.913 14.3144V15.0941C203.911 15.181 203.889 15.2663 203.849 15.3434C203.822 15.4144 203.774 15.4755 203.711 15.5184L203.101 15.8684C203.082 15.8863 203.056 15.8963 203.03 15.8963C203.003 15.8963 202.978 15.8863 202.958 15.8684C202.937 15.8438 202.921 15.8151 202.911 15.7842C202.901 15.7532 202.897 15.7205 202.9 15.6881V14.9031C202.697 14.9742 202.483 15.0066 202.269 14.9986C202.08 14.9903 201.897 14.9317 201.738 14.8289C201.584 14.7175 201.461 14.5675 201.383 14.3939C201.286 14.1676 201.235 13.9241 201.234 13.6779C201.229 13.5893 201.25 13.501 201.293 13.4233C201.323 13.3527 201.373 13.292 201.436 13.2483L201.966 12.946C202.051 12.8982 202.115 12.8823 202.163 12.9035C202.215 12.937 202.254 12.9876 202.274 13.0467C202.311 13.1256 202.354 13.2018 202.401 13.2748C202.451 13.3439 202.522 13.3958 202.603 13.4233C202.707 13.4478 202.816 13.4478 202.921 13.4233C203.091 13.384 203.252 13.3158 203.398 13.2218C203.551 13.1331 203.697 13.032 203.833 12.9195C203.969 12.8056 204.091 12.6775 204.199 12.5376C204.303 12.3989 204.389 12.2474 204.454 12.0867C204.519 11.9286 204.551 11.7591 204.549 11.5882C204.557 11.5248 204.551 11.4606 204.533 11.3995C204.515 11.3384 204.484 11.2816 204.443 11.2328C204.399 11.1975 204.348 11.1713 204.293 11.1559C204.239 11.1404 204.181 11.1359 204.125 11.1426C203.946 11.1524 203.768 11.1809 203.595 11.2275C203.382 11.2805 203.144 11.3283 202.868 11.3813C202.653 11.4321 202.431 11.4482 202.21 11.429C202.039 11.4174 201.876 11.3483 201.749 11.2328C201.616 11.0951 201.521 10.9251 201.473 10.7395C201.407 10.4634 201.377 10.18 201.383 9.8962C201.382 9.5936 201.422 9.29226 201.5 8.99984C201.573 8.70225 201.676 8.41267 201.807 8.13529C201.937 7.8586 202.097 7.59713 202.285 7.35562C202.464 7.12017 202.666 6.90338 202.889 6.70854V5.92885C202.891 5.84265 202.911 5.75781 202.948 5.67957C202.978 5.60891 203.027 5.54824 203.091 5.50454L203.701 5.15448C203.719 5.13695 203.744 5.1272 203.77 5.1272C203.795 5.1272 203.82 5.13695 203.839 5.15448C203.862 5.17814 203.879 5.20652 203.89 5.23765C203.901 5.26879 203.905 5.30194 203.902 5.33481L203.923 6.15692Z" fill="#FAFAFA"/>
<path d="M208.479 53.9827L205.626 52.3491H205.599C204.342 51.6384 202.618 51.7445 200.709 52.8477C196.863 55.0647 193.75 60.4642 193.75 64.9036C193.75 67.1206 194.524 68.6747 195.781 69.4066L198.359 70.8758L198.974 69.8468C199.676 69.6904 200.35 69.4293 200.974 69.0725C204.814 66.8501 207.933 61.4507 207.933 57.0113C207.93 56.4125 207.857 55.8161 207.715 55.2345L208.479 53.9827Z" fill="white"/>
<path d="M208.479 53.9827L205.626 52.3491H205.599C204.342 51.6384 202.618 51.7445 200.709 52.8477C196.863 55.0647 193.75 60.4642 193.75 64.9036C193.75 67.1206 194.524 68.6747 195.781 69.4066L198.359 70.8758L198.974 69.8468C199.676 69.6904 200.35 69.4293 200.974 69.0725C204.814 66.8501 207.933 61.4507 207.933 57.0113C207.93 56.4125 207.857 55.8161 207.715 55.2345L208.479 53.9827Z" fill="url(#paint8_linear_1_3002)"/>
<path d="M193.766 64.8929C193.766 67.1099 194.54 68.664 195.797 69.3959L198.375 70.8651L198.99 69.8361C199.692 69.6777 200.366 69.4149 200.99 69.0565C203.189 67.671 204.974 65.7177 206.156 63.4025L196.078 57.5681C194.661 59.7567 193.862 62.2875 193.766 64.8929Z" fill="#263238"/>
<path d="M208.484 53.9827L205.652 52.3491H205.626C204.369 51.6384 202.645 51.7445 200.735 52.8477C198.827 54.0283 197.233 55.6534 196.089 57.5841L206.167 63.4184C207.273 61.4534 207.886 59.2494 207.954 56.9954C207.952 56.3966 207.879 55.8002 207.737 55.2185L208.484 53.9827Z" fill="#455A64"/>
<path d="M203.414 54.3805C199.574 56.5976 196.455 61.997 196.455 66.4364C196.455 70.8758 199.574 72.6738 203.414 70.4568C207.254 68.2397 210.399 62.8297 210.399 58.4009C210.399 53.9721 207.259 52.1635 203.414 54.3805Z" fill="#37474F"/>
<path d="M206.957 64.0019L199.876 68.0912C199.791 68.139 199.727 68.0912 199.727 67.948V61.6682C199.726 61.6072 199.738 61.5467 199.764 61.4915C199.79 61.4363 199.828 61.3878 199.876 61.3499L206.957 57.2606C207.036 57.2128 207.105 57.2606 207.105 57.4038V63.689C207.106 63.749 207.093 63.8084 207.067 63.8627C207.042 63.9169 207.004 63.9646 206.957 64.0019Z" fill="#FAFAFA"/>
<path d="M204.809 58.9153C204.729 58.9631 204.661 58.9153 204.661 58.7721V57.8174L202.173 59.2548V60.2095C202.174 60.2709 202.161 60.3316 202.134 60.3869C202.107 60.4422 202.068 60.4904 202.019 60.5277C201.94 60.5755 201.871 60.5277 201.871 60.3845V59.1964C201.87 59.1364 201.883 59.0769 201.909 59.0227C201.934 58.9684 201.972 58.9208 202.019 58.8835L204.809 57.2923C204.894 57.2446 204.958 57.2923 204.958 57.4355V58.5865C204.962 58.6493 204.95 58.7122 204.925 58.7695C204.899 58.8269 204.859 58.877 204.809 58.9153Z" fill="#FAFAFA"/>
<path d="M204.809 57.7326L202.019 59.3238C201.94 59.3716 201.871 59.3238 201.871 59.1806V58.6502C201.87 58.5895 201.883 58.5294 201.909 58.4743C201.935 58.4193 201.972 58.3706 202.019 58.332L204.809 56.7408C204.894 56.6931 204.958 56.7408 204.958 56.884V57.4144C204.959 57.4753 204.947 57.5358 204.921 57.5911C204.895 57.6463 204.857 57.6948 204.809 57.7326Z" fill="#FAFAFA"/>
<path d="M204.427 61.6522L202.401 62.8191C202.342 62.8562 202.295 62.8191 202.295 62.713V62.3312C202.294 62.2876 202.303 62.2444 202.321 62.2048C202.34 62.1653 202.367 62.1305 202.401 62.1031L204.427 60.9362C204.491 60.8991 204.538 60.9362 204.538 61.037V61.4189C204.539 61.4638 204.53 61.5083 204.51 61.5488C204.491 61.5894 204.462 61.6248 204.427 61.6522Z" fill="#37474F"/>
<path d="M208.479 28.0356L205.626 26.3967H205.599C204.342 25.686 202.618 25.7921 200.709 26.8953C196.863 29.1176 193.75 34.5118 193.75 38.9512C193.75 41.1682 194.524 42.7276 195.781 43.4542L198.359 44.9234L198.974 43.8944C199.677 43.7404 200.351 43.4793 200.974 43.1201C204.814 40.8977 207.933 35.5036 207.933 31.0642C207.931 30.4637 207.858 29.8655 207.715 29.2821L208.479 28.0356Z" fill="white"/>
<path d="M208.479 28.0356L205.626 26.3967H205.599C204.342 25.686 202.618 25.7921 200.709 26.8953C196.863 29.1176 193.75 34.5118 193.75 38.9512C193.75 41.1682 194.524 42.7276 195.781 43.4542L198.359 44.9234L198.974 43.8944C199.677 43.7404 200.351 43.4793 200.974 43.1201C204.814 40.8977 207.933 35.5036 207.933 31.0642C207.931 30.4637 207.858 29.8655 207.715 29.2821L208.479 28.0356Z" fill="url(#paint9_linear_1_3002)"/>
<path d="M193.766 38.9619C193.766 41.179 194.54 42.7383 195.797 43.465L198.375 44.9342L198.99 43.9052C199.692 43.7512 200.367 43.49 200.99 43.1308C203.192 41.7375 204.977 39.7748 206.156 37.4503L196.078 31.616C194.658 33.8106 193.858 36.3493 193.766 38.9619Z" fill="#263238"/>
<path d="M208.484 28.0358L205.652 26.3969H205.626C204.369 25.6915 202.645 25.7923 200.735 26.8955C198.827 28.0761 197.233 29.7012 196.089 31.6319L206.167 37.4662C207.266 35.5102 207.878 33.3178 207.949 31.075C207.947 30.4745 207.874 29.8763 207.731 29.2929L208.484 28.0358Z" fill="#455A64"/>
<path d="M203.414 28.4283C199.574 30.6507 196.455 36.0448 196.455 40.4842C196.455 44.9236 199.574 46.7269 203.414 44.5046C207.254 42.2822 210.399 36.8881 210.399 32.4487C210.399 28.0093 207.259 26.2325 203.414 28.4283Z" fill="#37474F"/>
<path d="M200.852 35.4929C200.852 34.4852 201.382 33.3714 202.04 32.9789C202.698 32.5864 203.228 33.1115 203.228 34.1245C203.228 35.1376 202.698 36.2461 202.04 36.6386C201.382 37.0311 200.852 36.506 200.852 35.4929Z" fill="white"/>
<path d="M204.161 40.5848L199.791 43.1095L200.024 40.203C200.125 38.9671 200.778 37.6995 201.552 37.254L202.395 36.766C203.17 36.3205 203.822 36.8297 203.923 37.9541L204.161 40.5848Z" fill="white"/>
<path d="M203.737 32.4646C203.737 31.4569 204.268 30.343 204.925 29.9505C205.583 29.558 206.113 30.0831 206.113 31.0962C206.113 32.1092 205.583 33.2178 204.925 33.6103C204.268 34.0028 203.737 33.4777 203.737 32.4646Z" fill="white"/>
<path d="M207.037 37.5564L204.358 39.1052L204.236 37.7155C204.146 36.7396 203.706 36.1243 203.123 36.1243C203.328 35.3639 203.791 34.6984 204.433 34.2414L205.276 33.7588C206.05 33.3079 206.703 33.8171 206.803 34.9416L207.037 37.5564Z" fill="white"/>
<path d="M135.88 136.459C135.88 133.171 133.705 129.882 129.356 127.373C120.663 122.351 106.549 122.351 97.872 127.373C93.5228 129.882 91.3481 133.171 91.3481 136.459V142.522C91.3481 145.81 93.5228 149.098 97.872 151.612C106.565 156.63 120.679 156.63 129.356 151.612C133.705 149.098 135.88 145.81 135.88 142.522V136.459ZM98.9487 129.235C102.831 126.992 108.04 125.761 113.614 125.761C119.189 125.761 124.397 126.992 128.28 129.235C131.791 131.261 133.727 133.828 133.727 136.459C133.727 139.09 131.791 141.657 128.28 143.683C124.397 145.927 119.173 147.162 113.614 147.162C108.056 147.162 102.831 145.927 98.9487 143.683C95.4375 141.657 93.5016 139.09 93.5016 136.459C93.5016 133.828 95.4375 131.251 98.9487 129.235Z" fill="white"/>
<path d="M135.88 136.459C135.88 133.171 133.705 129.882 129.356 127.373C120.663 122.351 106.549 122.351 97.872 127.373C93.5228 129.882 91.3481 133.171 91.3481 136.459V142.522C91.3481 145.81 93.5228 149.098 97.872 151.612C106.565 156.63 120.679 156.63 129.356 151.612C133.705 149.098 135.88 145.81 135.88 142.522V136.459ZM98.9487 129.235C102.831 126.992 108.04 125.761 113.614 125.761C119.189 125.761 124.397 126.992 128.28 129.235C131.791 131.261 133.727 133.828 133.727 136.459C133.727 139.09 131.791 141.657 128.28 143.683C124.397 145.927 119.173 147.162 113.614 147.162C108.056 147.162 102.831 145.927 98.9487 143.683C95.4375 141.657 93.5016 139.09 93.5016 136.459C93.5016 133.828 95.4375 131.251 98.9487 129.235Z" fill="url(#paint10_linear_1_3002)"/>
<path opacity="0.3" d="M97.8672 145.571C106.566 150.589 120.674 150.589 129.357 145.571C138.039 140.554 138.05 132.412 129.357 127.395C120.664 122.377 106.55 122.372 97.8672 127.395C89.1847 132.418 89.174 140.533 97.8672 145.571ZM93.5021 136.48C93.5021 133.828 95.4327 131.283 98.9439 129.256C102.826 127.013 108.04 125.782 113.615 125.782C119.189 125.782 124.398 127.013 128.28 129.256C131.791 131.283 133.722 133.85 133.722 136.48C133.722 139.111 131.791 141.678 128.28 143.704C124.398 145.927 119.173 147.163 113.615 147.163C108.056 147.163 102.826 145.927 98.9439 143.683C95.4327 141.657 93.5021 139.09 93.5021 136.459V136.48Z" fill="white"/>
<path d="M93.502 136.459C93.5149 137.53 93.8153 138.578 94.3718 139.493C95.2523 137.965 96.8063 136.528 98.9491 135.297C102.826 133.054 108.04 131.818 113.615 131.818C119.189 131.818 124.397 133.054 128.28 135.297C130.143 136.279 131.721 137.724 132.863 139.493C133.415 138.576 133.714 137.529 133.727 136.459C133.727 133.807 131.791 131.261 128.28 129.235C124.397 126.997 119.189 125.761 113.615 125.761C108.04 125.761 102.826 126.997 98.9491 129.235C95.4326 131.251 93.502 133.828 93.502 136.459Z" fill="white"/>
<path d="M93.502 136.459C93.5149 137.53 93.8153 138.578 94.3718 139.493C95.2523 137.965 96.8063 136.528 98.9491 135.297C102.826 133.054 108.04 131.818 113.615 131.818C119.189 131.818 124.397 133.054 128.28 135.297C130.143 136.279 131.721 137.724 132.863 139.493C133.415 138.576 133.714 137.529 133.727 136.459C133.727 133.807 131.791 131.261 128.28 129.235C124.397 126.997 119.189 125.761 113.615 125.761C108.04 125.761 102.826 126.997 98.9491 129.235C95.4326 131.251 93.502 133.828 93.502 136.459Z" fill="url(#paint11_linear_1_3002)"/>
<path opacity="0.1" d="M93.502 136.459C93.5149 137.53 93.8153 138.578 94.3718 139.493C95.2523 137.965 96.8063 136.528 98.9491 135.297C102.826 133.054 108.04 131.818 113.615 131.818C119.189 131.818 124.397 133.054 128.28 135.297C130.143 136.279 131.721 137.724 132.863 139.493C133.415 138.576 133.714 137.529 133.727 136.459C133.727 133.807 131.791 131.261 128.28 129.235C124.397 126.997 119.189 125.761 113.615 125.761C108.04 125.761 102.826 126.997 98.9491 129.235C95.4326 131.251 93.502 133.828 93.502 136.459Z" fill="black"/>
<path opacity="0.4" d="M98.9436 131.977C102.826 129.739 108.04 128.503 113.614 128.503C119.189 128.503 124.397 129.739 128.28 131.977C131.176 133.653 132.995 135.69 133.547 137.812C133.016 139.933 131.176 141.991 128.28 143.646C124.397 145.927 119.173 147.162 113.614 147.162C108.056 147.162 102.826 145.927 98.9436 143.683C96.0477 142.012 94.2284 139.97 93.6821 137.849C94.2443 135.69 96.0477 133.653 98.9436 131.977Z" fill="white"/>
<path opacity="0.1" d="M108.369 148.955V155.012C104.686 154.556 101.123 153.402 97.8721 151.613C93.5228 149.098 91.3482 145.81 91.3482 142.522V136.459C91.3499 135.789 91.439 135.122 91.6134 134.475C90.5526 138.39 92.6424 142.532 97.8668 145.55C101.119 147.342 104.683 148.498 108.369 148.955Z" fill="black"/>
<path d="M98.5293 149.406C98.5022 148.865 98.3478 148.338 98.0787 147.868C97.8096 147.398 97.4333 146.998 96.9806 146.701C96.8242 146.586 96.6402 146.515 96.4474 146.495C96.2545 146.474 96.0597 146.505 95.8827 146.584L88.4094 150.875C88.2489 150.985 88.1215 151.136 88.0411 151.313C87.9606 151.489 87.9303 151.685 87.9533 151.878C87.9765 152.417 88.1258 152.943 88.3892 153.413C88.6527 153.884 89.0229 154.286 89.4702 154.588C89.6274 154.703 89.8126 154.774 90.0066 154.794C90.2006 154.814 90.3963 154.781 90.5734 154.699L98.0679 150.424C98.2286 150.311 98.3561 150.157 98.4372 149.978C98.5183 149.799 98.5501 149.602 98.5293 149.406Z" fill="#37474F"/>
<path d="M98.0681 150.419C98.228 150.306 98.3549 150.153 98.436 149.975C98.5171 149.797 98.5494 149.601 98.5296 149.406C98.5231 149.004 98.4346 148.607 98.2697 148.239L88.6006 153.766C88.8326 154.095 89.1284 154.375 89.4704 154.588C89.6277 154.703 89.8129 154.775 90.0069 154.794C90.2009 154.814 90.3966 154.781 90.5737 154.699L98.0681 150.424V150.419Z" fill="#263238"/>
<path d="M90.7332 154.588C90.6988 153.883 90.4983 153.196 90.148 152.583C89.7978 151.97 89.3077 151.449 88.7177 151.061C88.5164 150.915 88.2803 150.823 88.0328 150.796C87.7853 150.769 87.535 150.808 87.3069 150.907L62.4473 164.167L66.16 170.723L90.1551 155.872C90.355 155.727 90.5135 155.532 90.6149 155.307C90.7163 155.082 90.7571 154.834 90.7332 154.588Z" fill="white"/>
<path d="M90.7332 154.588C90.6988 153.883 90.4983 153.196 90.148 152.583C89.7978 151.97 89.3077 151.449 88.7177 151.061C88.5164 150.915 88.2803 150.823 88.0328 150.796C87.7853 150.769 87.535 150.808 87.3069 150.907L62.4473 164.167L66.16 170.723L90.1551 155.872C90.355 155.727 90.5135 155.532 90.6149 155.307C90.7163 155.082 90.7571 154.834 90.7332 154.588Z" fill="url(#paint12_linear_1_3002)"/>
<path opacity="0.1" d="M66.1331 170.717L90.1281 155.866C90.3361 155.722 90.5014 155.524 90.6068 155.293C90.7122 155.063 90.7539 154.808 90.7274 154.556C90.6973 153.801 90.4646 153.069 90.0538 152.435L64.2236 167.318L66.1331 170.717Z" fill="black"/>
<path d="M64.2611 170.5C63.4864 169.992 62.8424 169.308 62.3816 168.505C61.9208 167.701 61.6561 166.8 61.6091 165.875C61.6091 164.178 62.8078 163.493 64.2611 164.347C65.0357 164.854 65.6797 165.537 66.1406 166.339C66.6014 167.142 66.8661 168.043 66.9131 168.967C66.9237 170.691 65.7303 171.375 64.2611 170.5Z" fill="white"/>
<path d="M64.2611 170.5C63.4864 169.992 62.8424 169.308 62.3816 168.505C61.9208 167.701 61.6561 166.8 61.6091 165.875C61.6091 164.178 62.8078 163.493 64.2611 164.347C65.0357 164.854 65.6797 165.537 66.1406 166.339C66.6014 167.142 66.8661 168.043 66.9131 168.967C66.9237 170.691 65.7303 171.375 64.2611 170.5Z" fill="url(#paint13_linear_1_3002)"/>
<g opacity="0.2">
<path d="M64.2616 170.5C63.4868 169.992 62.8429 169.309 62.3821 168.505C61.9213 167.701 61.6566 166.8 61.6096 165.875C61.6096 164.178 62.8083 163.494 64.2616 164.348C65.0362 164.854 65.6802 165.537 66.1411 166.34C66.6019 167.142 66.8666 168.043 66.9136 168.967C66.9242 170.691 65.7308 171.375 64.2616 170.5Z" fill="black"/>
</g>
<path d="M210.787 111.923C211.058 101.846 210.257 99.4216 207.568 97.5706L206.507 103.405C206.507 103.405 207.732 110.3 207.599 112.586C207.488 114.602 207.292 117.126 206.814 118.755C206.727 119.041 206.539 119.286 206.284 119.444C205.728 119.84 205.232 120.313 204.81 120.85C204.406 121.274 204.062 121.38 204.115 121.513C204.192 121.661 204.323 121.774 204.48 121.83C204.637 121.886 204.81 121.881 204.963 121.815C205.307 121.678 205.633 121.5 205.934 121.284C205.696 121.903 205.362 122.479 204.942 122.992C203.982 124.165 203.94 124.886 205.876 124.907C207.09 124.907 208.061 124.17 208.973 121.497C209.326 120.517 209.611 119.514 209.827 118.495C210.281 116.326 210.602 114.131 210.787 111.923Z" fill="#FFA8A7"/>
<path d="M205.308 96.8067C206.133 96.6592 206.984 96.7838 207.732 97.1616C208.48 97.5395 209.085 98.1502 209.456 98.9017C210.58 100.912 210.856 104.375 210.983 107.818C210.983 107.818 208.75 109.69 206.067 108.772L205.308 96.8067Z" fill="white"/>
<path d="M205.308 96.8067C206.133 96.6592 206.984 96.7838 207.732 97.1616C208.48 97.5395 209.085 98.1502 209.456 98.9017C210.58 100.912 210.856 104.375 210.983 107.818C210.983 107.818 208.75 109.69 206.067 108.772L205.308 96.8067Z" fill="url(#paint14_linear_1_3002)"/>
<path d="M209.08 152.286C209.281 152.365 209.334 152.753 209.366 153.522C209.366 154.105 209.509 155.113 208.836 155.33C208.162 155.548 207.149 155.426 206.714 154.88C206.184 154.19 205.796 153.591 205.017 152.758C204.338 152.031 203.606 151.352 203.335 150.334C203.086 149.411 203.293 149.013 203.919 148.743C204.783 148.377 206.141 149.581 206.82 149.767C207.393 149.926 208.873 152.212 209.08 152.286Z" fill="#263238"/>
<path d="M209.079 151.575V152.519C208.724 152.747 208.314 152.873 207.892 152.885C207.471 152.896 207.054 152.792 206.687 152.583C206.645 152.493 206.438 151.23 206.438 151.23L209.079 151.575Z" fill="#FFA8A7"/>
<path d="M201.41 157.77C201.577 158.277 201.717 158.792 201.829 159.314C201.945 159.887 202.115 160.841 201.914 161.271C201.712 161.7 200.932 161.982 199.718 161.971C198.71 162.094 197.741 162.433 196.875 162.963C195.746 163.442 194.517 163.637 193.295 163.53C192.234 163.408 191.099 162.782 190.924 162.337C190.749 161.891 190.982 161.425 193.523 160.343C193.523 160.343 197.055 159.192 198.296 157.834L201.41 157.77Z" fill="#263238"/>
<path d="M201.41 156.709V157.813C201.41 158.216 200.943 158.815 199.712 158.767C198.853 158.736 198.248 158.508 198.286 157.797V156.773L201.41 156.709Z" fill="#FFA8A7"/>
<path d="M209.695 139.015C209.484 137.339 209.11 135.686 208.576 134.083C208.576 134.083 208.915 129.84 209.074 125.798C209.249 121.443 209.074 115.965 209.148 114.877C209.148 114.877 195.093 112.034 194.828 117.073C194.563 122.112 195.358 134.926 195.549 137.138C195.74 139.35 196.079 141.301 196.552 144.887C197.024 148.472 198.27 156.784 198.27 156.784C198.756 157.031 199.295 157.155 199.84 157.144C200.385 157.133 200.919 156.987 201.394 156.72C201.394 156.72 202.386 146.643 202.28 144.102C202.2 142.21 201.876 140.336 201.314 138.527C201.314 138.527 201.58 134.375 201.813 130.763C202.046 127.151 202.301 125.416 202.343 123.867L202.646 123.719C202.646 123.719 202.953 129.951 203.123 132.163C203.293 134.375 203.654 136.496 204.279 140.601C204.836 144.166 206.486 151.708 206.486 151.708C208.077 152.578 209.053 151.596 209.053 151.596C209.053 151.596 210.124 142.108 209.695 139.015Z" fill="#37474F"/>
<path d="M202.37 123.825C202.37 123.825 205.78 122.144 207.488 120.643C207.488 120.643 205.897 122.876 203.823 123.862C203.823 123.862 203.081 131.606 203.086 131.452L202.656 123.825H202.37Z" fill="#263238"/>
<path d="M199.336 95.2104L200.169 99.7877L204.3 99.4854L203.436 94.2981L199.336 95.2104Z" fill="#FFA8A7"/>
<path d="M208.671 99.1511C208.257 97.9046 206.682 96.5521 205.102 96.8438C202.761 97.2452 200.454 97.8232 198.201 98.5729C196.753 99.1033 195.438 100.339 195.316 105.097C195.316 105.097 194.833 116.193 194.823 118.357C197.841 119.541 201.129 119.866 204.322 119.295C208.671 118.346 209.196 116.543 209.196 116.543C209.196 116.543 209.249 108.587 209.122 105.118C208.989 102.174 208.952 100.005 208.671 99.1511Z" fill="#F5F5F5"/>
<path d="M196.143 89.6411C196.143 89.6411 195.082 91.3119 195.225 91.471C195.368 91.6301 196.153 91.7574 196.153 91.7574L196.143 89.6411Z" fill="#FFA8A7"/>
<path d="M199.055 85.0161C196.87 85.5465 196.26 86.5118 196.127 90.0018C195.995 93.6562 196.392 94.7754 196.886 95.2739C197.214 95.5975 199.007 95.6187 199.914 95.3482C201.044 95.0087 203.584 94.0434 204.746 92.1658C206.109 89.9753 206.417 87.0422 204.873 85.8753C202.709 84.2523 199.946 84.8092 199.055 85.0161Z" fill="#FFA8A7"/>
<path d="M196.153 85.9283C196.656 86.6599 197.365 87.225 198.19 87.5513C198.609 88.0287 198.376 89.8904 199.113 90.2033C199.113 90.2033 199.431 88.8455 200.571 88.9887C201.712 89.1319 201.903 90.5799 201.203 91.4922C200.502 92.4044 199.824 92.0703 199.824 92.0703C199.824 92.0703 199.903 93.9956 200.784 95.067C201.698 95.245 202.642 95.2013 203.536 94.9397C204.629 94.6798 206.151 93.269 206.772 91.7998C208.087 88.697 208.119 85.9283 206.135 85.1433C205.891 83.7272 204.762 83.1172 203.483 82.8573C200.731 82.2898 198.959 84.0083 196.843 83.8545C195.628 83.7537 195.4 84.6395 196.153 85.9283Z" fill="#263238"/>
<path d="M206.183 85.5994L207.478 84.7932C207.428 84.7016 207.36 84.6211 207.278 84.5567C207.196 84.4923 207.102 84.4453 207.001 84.4187C206.901 84.3921 206.795 84.3863 206.692 84.4018C206.589 84.4173 206.491 84.4537 206.402 84.5088C206.314 84.5639 206.238 84.6365 206.178 84.7222C206.119 84.8078 206.078 84.9047 206.057 85.0068C206.037 85.109 206.037 85.2143 206.059 85.3162C206.081 85.4181 206.123 85.5145 206.183 85.5994Z" fill="#263238"/>
<path d="M180.698 106.815C181.377 107.118 189.386 113.037 190.637 112.347C191.889 111.658 198.291 104.169 198.291 104.169C198.832 103.332 199.12 102.357 199.12 101.36C199.12 100.364 198.832 99.3885 198.291 98.5518C197.039 98.8221 195.928 99.5361 195.162 100.562C194.101 102.185 189.444 107.987 189.444 107.987C188.298 107.415 187.153 106.831 186.018 106.242C185.079 105.755 184.135 105.272 183.217 104.747C182.958 104.63 182.716 104.48 182.496 104.301C182.04 103.856 182.119 102.768 182.13 102.18C182.126 101.905 182.139 101.631 182.167 101.358C182.209 101.018 182.273 100.196 181.663 100.456C181.549 100.513 181.451 100.597 181.377 100.7C181.281 100.824 181.207 100.964 181.159 101.114C181.043 101.469 181.08 101.861 180.979 102.217C180.966 102.271 180.939 102.321 180.899 102.36C180.873 102.383 180.843 102.4 180.81 102.41C180.777 102.42 180.743 102.423 180.708 102.418C179.828 102.392 178.99 101.156 178.587 100.498C178.44 100.186 178.208 99.9215 177.919 99.7345C177.663 99.6575 177.389 99.6679 177.141 99.7639C176.892 99.86 176.682 100.036 176.545 100.265C176.164 100.838 176.007 101.531 176.105 102.211C176.183 103.136 176.592 104.002 177.256 104.651C178.269 105.566 179.434 106.298 180.698 106.815Z" fill="#FFA8A7"/>
<path d="M199.007 98.313C198.126 98.4138 196.885 98.2493 195.156 100.111C193.76 101.704 192.459 103.378 191.258 105.123C191.486 106.039 191.973 106.87 192.66 107.517C193.348 108.164 194.207 108.6 195.135 108.772C195.135 108.772 198.164 105.664 199.007 103.956C199.85 102.249 200.052 99.4692 199.007 98.313Z" fill="white"/>
<path d="M199.007 98.313C198.126 98.4138 196.885 98.2493 195.156 100.111C193.76 101.704 192.459 103.378 191.258 105.123C191.486 106.039 191.973 106.87 192.66 107.517C193.348 108.164 194.207 108.6 195.135 108.772C195.135 108.772 198.164 105.664 199.007 103.956C199.85 102.249 200.052 99.4692 199.007 98.313Z" fill="url(#paint15_linear_1_3002)"/>
<defs>
<linearGradient id="paint0_linear_1_3002" x1="224.582" y1="134.578" x2="207.955" y2="136.049" gradientUnits="userSpaceOnUse">
<stop stop-color="#0A8241"/>
<stop offset="0.416667" stop-color="#3EBB6C" stop-opacity="0.87"/>
<stop offset="0.692708" stop-color="#A5E06A" stop-opacity="0.79"/>
<stop offset="1" stop-color="#FCFF68" stop-opacity="0.31"/>
</linearGradient>
<linearGradient id="paint1_linear_1_3002" x1="222.259" y1="143.729" x2="208.155" y2="145.384" gradientUnits="userSpaceOnUse">
<stop stop-color="#0A8241"/>
<stop offset="0.416667" stop-color="#3EBB6C" stop-opacity="0.87"/>
<stop offset="0.692708" stop-color="#A5E06A" stop-opacity="0.79"/>
<stop offset="1" stop-color="#FCFF68" stop-opacity="0.31"/>
</linearGradient>
<linearGradient id="paint2_linear_1_3002" x1="15.9524" y1="119.918" x2="-0.496542" y2="121.658" gradientUnits="userSpaceOnUse">
<stop stop-color="#0A8241"/>
<stop offset="0.416667" stop-color="#3EBB6C" stop-opacity="0.87"/>
<stop offset="0.692708" stop-color="#A5E06A" stop-opacity="0.79"/>
<stop offset="1" stop-color="#FCFF68" stop-opacity="0.31"/>
</linearGradient>
<linearGradient id="paint3_linear_1_3002" x1="17.5009" y1="129.442" x2="-0.815144" y2="131.389" gradientUnits="userSpaceOnUse">
<stop stop-color="#0A8241"/>
<stop offset="0.416667" stop-color="#3EBB6C" stop-opacity="0.87"/>
<stop offset="0.692708" stop-color="#A5E06A" stop-opacity="0.79"/>
<stop offset="1" stop-color="#FCFF68" stop-opacity="0.31"/>
</linearGradient>
<linearGradient id="paint4_linear_1_3002" x1="96.816" y1="64.8939" x2="37.0275" y2="75.2179" gradientUnits="userSpaceOnUse">
<stop stop-color="#0A8241"/>
<stop offset="0.416667" stop-color="#3EBB6C" stop-opacity="0.87"/>
<stop offset="0.692708" stop-color="#A5E06A" stop-opacity="0.79"/>
<stop offset="1" stop-color="#FCFF68" stop-opacity="0.31"/>
</linearGradient>
<linearGradient id="paint5_linear_1_3002" x1="154.917" y1="17.244" x2="120.847" y2="18.7198" gradientUnits="userSpaceOnUse">
<stop stop-color="#0A8241"/>
<stop offset="0.416667" stop-color="#3EBB6C" stop-opacity="0.87"/>
<stop offset="0.692708" stop-color="#A5E06A" stop-opacity="0.79"/>
<stop offset="1" stop-color="#FCFF68" stop-opacity="0.31"/>
</linearGradient>
<linearGradient id="paint6_linear_1_3002" x1="180.841" y1="32.1364" x2="146.727" y2="33.6162" gradientUnits="userSpaceOnUse">
<stop stop-color="#0A8241"/>
<stop offset="0.416667" stop-color="#3EBB6C" stop-opacity="0.87"/>
<stop offset="0.692708" stop-color="#A5E06A" stop-opacity="0.79"/>
<stop offset="1" stop-color="#FCFF68" stop-opacity="0.31"/>
</linearGradient>
<linearGradient id="paint7_linear_1_3002" x1="208.479" y1="2.26486" x2="192.997" y2="3.55143" gradientUnits="userSpaceOnUse">
<stop stop-color="#0A8241"/>
<stop offset="0.416667" stop-color="#3EBB6C" stop-opacity="0.87"/>
<stop offset="0.692708" stop-color="#A5E06A" stop-opacity="0.79"/>
<stop offset="1" stop-color="#FCFF68" stop-opacity="0.31"/>
</linearGradient>
<linearGradient id="paint8_linear_1_3002" x1="208.479" y1="54.1597" x2="192.997" y2="55.4464" gradientUnits="userSpaceOnUse">
<stop stop-color="#0A8241"/>
<stop offset="0.416667" stop-color="#3EBB6C" stop-opacity="0.87"/>
<stop offset="0.692708" stop-color="#A5E06A" stop-opacity="0.79"/>
<stop offset="1" stop-color="#FCFF68" stop-opacity="0.31"/>
</linearGradient>
<linearGradient id="paint9_linear_1_3002" x1="208.479" y1="28.2073" x2="192.997" y2="29.494" gradientUnits="userSpaceOnUse">
<stop stop-color="#0A8241"/>
<stop offset="0.416667" stop-color="#3EBB6C" stop-opacity="0.87"/>
<stop offset="0.692708" stop-color="#A5E06A" stop-opacity="0.79"/>
<stop offset="1" stop-color="#FCFF68" stop-opacity="0.31"/>
</linearGradient>
<linearGradient id="paint10_linear_1_3002" x1="135.88" y1="127.391" x2="89.7857" y2="134.309" gradientUnits="userSpaceOnUse">
<stop stop-color="#0A8241"/>
<stop offset="0.416667" stop-color="#3EBB6C" stop-opacity="0.87"/>
<stop offset="0.692708" stop-color="#A5E06A" stop-opacity="0.79"/>
<stop offset="1" stop-color="#FCFF68" stop-opacity="0.31"/>
</linearGradient>
<linearGradient id="paint11_linear_1_3002" x1="133.727" y1="127.397" x2="94.9658" y2="139.554" gradientUnits="userSpaceOnUse">
<stop stop-color="#0A8241"/>
<stop offset="0.416667" stop-color="#3EBB6C" stop-opacity="0.87"/>
<stop offset="0.692708" stop-color="#A5E06A" stop-opacity="0.79"/>
<stop offset="1" stop-color="#FCFF68" stop-opacity="0.31"/>
</linearGradient>
<linearGradient id="paint12_linear_1_3002" x1="90.7399" y1="153.163" x2="61.4708" y2="157.61" gradientUnits="userSpaceOnUse">
<stop stop-color="#0A8241"/>
<stop offset="0.416667" stop-color="#3EBB6C" stop-opacity="0.87"/>
<stop offset="0.692708" stop-color="#A5E06A" stop-opacity="0.79"/>
<stop offset="1" stop-color="#FCFF68" stop-opacity="0.31"/>
</linearGradient>
<linearGradient id="paint13_linear_1_3002" x1="66.9131" y1="164.802" x2="61.3371" y2="165.261" gradientUnits="userSpaceOnUse">
<stop stop-color="#0A8241"/>
<stop offset="0.416667" stop-color="#3EBB6C" stop-opacity="0.87"/>
<stop offset="0.692708" stop-color="#A5E06A" stop-opacity="0.79"/>
<stop offset="1" stop-color="#FCFF68" stop-opacity="0.31"/>
</linearGradient>
<linearGradient id="paint14_linear_1_3002" x1="210.983" y1="98.2091" x2="204.991" y2="98.5056" gradientUnits="userSpaceOnUse">
<stop stop-color="#0A8241"/>
<stop offset="0.416667" stop-color="#3EBB6C" stop-opacity="0.87"/>
<stop offset="0.692708" stop-color="#A5E06A" stop-opacity="0.79"/>
<stop offset="1" stop-color="#FCFF68" stop-opacity="0.31"/>
</linearGradient>
<linearGradient id="paint15_linear_1_3002" x1="199.717" y1="99.5589" x2="190.83" y2="100.328" gradientUnits="userSpaceOnUse">
<stop stop-color="#0A8241"/>
<stop offset="0.416667" stop-color="#3EBB6C" stop-opacity="0.87"/>
<stop offset="0.692708" stop-color="#A5E06A" stop-opacity="0.79"/>
<stop offset="1" stop-color="#FCFF68" stop-opacity="0.31"/>
</linearGradient>
</defs>
</svg>
