<svg width="20" height="21" viewBox="0 0 20 21" fill="none" xmlns="http://www.w3.org/2000/svg">
<path d="M5.43088 9.04143C6.55615 11.4046 8.3691 13.3336 10.5806 14.5444L12.2998 12.7073C12.5108 12.4818 12.8233 12.4067 13.0968 12.5069C13.9721 12.8159 14.9176 12.9829 15.8866 12.9829C16.3164 12.9829 16.668 13.3586 16.668 13.8179V16.7323C16.668 17.1915 16.3164 17.5673 15.8866 17.5673C8.54883 17.5673 2.60205 11.2126 2.60205 3.37143C2.60205 2.91215 2.9537 2.53638 3.38349 2.53638H6.11855C6.54834 2.53638 6.89999 2.91215 6.89999 3.37143C6.89999 4.41524 7.05628 5.4173 7.34541 6.35256C7.43137 6.64483 7.36885 6.9705 7.15005 7.20432L5.43088 9.04143Z" fill="#AAAAAA"/>
</svg>
