<svg width="256" height="218" viewBox="0 0 256 218" fill="none" xmlns="http://www.w3.org/2000/svg">
<path d="M17.9737 156.674L0 146.299V107.747L17.9737 118.128V156.674Z" fill="#E0E0E0"/>
<path d="M17.9727 118.128L43.6529 103.303V141.848L17.9727 156.674V118.128Z" fill="#EBEBEB"/>
<path d="M43.6539 103.303L17.9737 118.128L0 107.747L25.6803 92.9219L43.6539 103.303Z" fill="#F5F5F5"/>
<path d="M20.5473 119.607L41.0878 107.747L41.5619 108.019V122.3L21.0152 134.161L20.541 133.889L20.5473 119.607Z" fill="#E0E0E0"/>
<path d="M21.0137 119.886L41.5604 108.019V122.301L21.0137 134.161V119.886Z" fill="#F5F5F5"/>
<path d="M29.0699 117.654L32.566 115.637C33.0149 115.371 33.3816 115.491 33.3816 115.902C33.349 116.154 33.2584 116.395 33.1168 116.605C32.9753 116.816 32.7867 116.991 32.566 117.116L29.0699 119.133C28.6147 119.398 28.248 119.278 28.248 118.867C28.2808 118.615 28.3722 118.374 28.5149 118.163C28.6576 117.952 28.8477 117.778 29.0699 117.654Z" fill="#E0E0E0"/>
<path d="M20.0723 137.676L40.6127 125.816V140.097L41.0868 140.369L20.5401 152.23L20.0723 151.958V137.676Z" fill="#E0E0E0"/>
<path d="M20.541 137.948L41.0878 126.088V140.369L20.541 152.229V137.948Z" fill="#F5F5F5"/>
<path d="M28.5949 135.722L32.1227 133.712C32.5779 133.447 32.9445 133.567 32.9445 133.978C32.9118 134.23 32.8204 134.471 32.6776 134.682C32.5349 134.893 32.3449 135.067 32.1227 135.191L28.6266 137.208C28.1714 137.474 27.8047 137.354 27.8047 136.943C27.8331 136.692 27.9192 136.451 28.0564 136.24C28.1935 136.028 28.3778 135.851 28.5949 135.722Z" fill="#E0E0E0"/>
<path d="M17.9737 115.903L0 105.522V66.9761L17.9737 77.3506V115.903Z" fill="#E0E0E0"/>
<path d="M17.9727 77.3507L43.6529 62.5254V101.077L17.9727 115.903V77.3507Z" fill="#EBEBEB"/>
<path d="M43.6539 62.5254L17.9737 77.3507L0 66.9761L25.6803 52.1509L43.6539 62.5254Z" fill="#F5F5F5"/>
<path d="M20.541 78.8363L41.0878 66.9761L41.5619 67.2479V81.5295L21.0152 93.3897L20.541 93.1115V78.8363Z" fill="#E0E0E0"/>
<path d="M29.0699 76.8765L32.5597 74.8597C33.0149 74.6005 33.3816 74.7207 33.3816 75.1316C33.3478 75.3837 33.2561 75.6246 33.1134 75.8352C32.9708 76.0458 32.7813 76.2205 32.5597 76.3454L29.0699 78.3622C28.6147 78.6214 28.248 78.5076 28.248 78.0966C28.2813 77.8436 28.3729 77.6016 28.5155 77.3899C28.6581 77.1782 28.8479 77.0024 29.0699 76.8765Z" fill="#E0E0E0"/>
<path d="M20.0723 96.9051L40.6127 85.0449V99.3202L41.0868 99.592L20.5401 111.452L20.0723 111.18V96.9051Z" fill="#E0E0E0"/>
<path d="M20.541 97.1769L41.0878 85.3167V99.5919L20.541 111.452V97.1769Z" fill="#F5F5F5"/>
<path d="M28.5953 94.9451L32.123 92.9284C32.5719 92.6691 32.9449 92.7893 32.9449 93.2002C32.9093 93.4517 32.8168 93.6918 32.6744 93.9022C32.5319 94.1125 32.3434 94.2876 32.123 94.414L28.5953 96.4118C28.1401 96.671 27.7734 96.5509 27.7734 96.1463C27.8095 95.8966 27.9023 95.6584 28.0448 95.4502C28.1873 95.2419 28.3756 95.0691 28.5953 94.9451Z" fill="#E0E0E0"/>
<path d="M20.541 78.8363L41.0878 66.9761V81.2513L20.541 93.1115V78.8363Z" fill="#E0E0E0"/>
<path d="M51.3603 74.0318L40.1133 67.5391V80.12L51.3603 86.6064V74.0318Z" fill="#E0E0E0"/>
<path d="M28.248 95.1471V77.3505L32.6545 74.7964L33.3816 75.8711L46.2217 68.4553V84.7663L28.248 95.1471Z" fill="#EBEBEB"/>
<path d="M28.248 95.1472L29.5314 79.5759L47.5051 69.2014L46.2217 84.7664L28.248 95.1472Z" fill="#F5F5F5"/>
<path d="M30.8129 85.8917L21.0137 80.2334V92.8143L30.8129 98.4663V85.8917Z" fill="#EBEBEB"/>
<path d="M30.8145 84.7665L51.3612 72.9062V87.1815L30.8145 99.0417V84.7665Z" fill="#F5F5F5"/>
<path d="M38.8687 82.5347L42.3585 80.518C42.8137 80.2587 43.1804 80.3789 43.1804 80.7898C43.1462 81.0418 43.0542 81.2824 42.9117 81.493C42.7691 81.7036 42.5798 81.8783 42.3585 82.0036L38.8687 84.0204C38.4136 84.2796 38.0469 84.1595 38.0469 83.7548C38.0801 83.5018 38.1717 83.2598 38.3143 83.0481C38.4569 82.8364 38.6467 82.6606 38.8687 82.5347Z" fill="#E0E0E0"/>
<path d="M30.8136 84.7665L30.1309 84.3745V98.6497L30.8136 99.0417V84.7665Z" fill="#E0E0E0"/>
<path d="M30.1309 84.3743L50.6713 72.5078L51.3604 72.9061L30.8136 84.7663L30.1309 84.3743Z" fill="#EBEBEB"/>
<path d="M230.32 133.32L212.34 122.939V84.3933L230.32 94.7678V133.32Z" fill="#E0E0E0"/>
<path d="M230.32 94.7681L256.001 79.9429V118.495L230.32 133.32V94.7681Z" fill="#EBEBEB"/>
<path d="M256 79.9429L230.32 94.7681L212.34 84.3936L238.026 69.562L256 79.9429Z" fill="#F5F5F5"/>
<path d="M232.887 96.2538L253.433 84.3936L253.908 84.6654L253.901 98.9406L233.361 110.801L232.887 110.529V96.2538Z" fill="#E0E0E0"/>
<path d="M233.359 96.5252L253.906 84.665L253.9 98.9403L233.359 110.8V96.5252Z" fill="#F5F5F5"/>
<path d="M241.414 94.2938L244.903 92.277C245.359 92.0178 245.725 92.1379 245.725 92.5426C245.692 92.7956 245.601 93.0376 245.458 93.2493C245.315 93.461 245.125 93.6368 244.903 93.7627L241.414 95.7795C240.958 96.0387 240.592 95.9185 240.592 95.5139C240.625 95.2608 240.717 95.0189 240.859 94.8072C241.002 94.5955 241.192 94.4197 241.414 94.2938Z" fill="#E0E0E0"/>
<path d="M232.412 114.323L252.959 102.456V116.738L253.433 117.009L232.886 128.87L232.412 128.598V114.323Z" fill="#E0E0E0"/>
<path d="M232.887 114.594L253.433 102.733V117.009L232.887 128.869V114.594Z" fill="#F5F5F5"/>
<path d="M240.939 112.362L244.435 110.345C244.884 110.086 245.251 110.206 245.251 110.611C245.217 110.863 245.126 111.104 244.985 111.316C244.843 111.527 244.655 111.704 244.435 111.831L240.939 113.848C240.484 114.107 240.117 113.987 240.117 113.576C240.151 113.324 240.243 113.083 240.386 112.873C240.528 112.662 240.718 112.487 240.939 112.362Z" fill="#E0E0E0"/>
<path d="M59.3084 173.611C59.3084 173.611 59.3779 163.584 53.0558 156.067C47.4608 149.41 44.4831 145.187 46.247 143.24C48.0108 141.292 51.8041 140.825 56.9186 146.211C62.0332 151.597 62.4315 166.517 61.7234 169.893L59.3084 173.611Z" fill="white"/>
<path d="M59.3084 173.611C59.3084 173.611 59.3779 163.584 53.0558 156.067C47.4608 149.41 44.4831 145.187 46.247 143.24C48.0108 141.292 51.8041 140.825 56.9186 146.211C62.0332 151.597 62.4315 166.517 61.7234 169.893L59.3084 173.611Z" fill="url(#paint0_linear_1_4074)"/>
<path opacity="0.2" d="M59.3084 173.611C59.3084 173.611 59.3779 163.584 53.0558 156.067C47.4608 149.41 44.4831 145.187 46.247 143.24C48.0108 141.292 51.8041 140.825 56.9186 146.211C62.0332 151.597 62.4315 166.517 61.7234 169.893L59.3084 173.611Z" fill="black"/>
<path d="M60.3703 162.832C60.2983 162.832 60.2283 162.808 60.172 162.763C60.1157 162.718 60.0763 162.655 60.0605 162.585C57.8478 152.236 52.1706 146.514 48.9779 144.024C48.9118 143.972 48.8687 143.897 48.8581 143.814C48.8474 143.731 48.87 143.647 48.921 143.581C48.9734 143.514 49.0498 143.471 49.1338 143.461C49.2178 143.45 49.3026 143.473 49.3699 143.524C52.6257 146.053 58.4231 151.907 60.6801 162.452C60.6893 162.493 60.6904 162.534 60.6833 162.575C60.6762 162.616 60.661 162.655 60.6386 162.69C60.6162 162.724 60.5871 162.754 60.553 162.778C60.5188 162.801 60.4803 162.817 60.4398 162.825L60.3703 162.832Z" fill="white"/>
<path d="M59.0683 177.334L56.4953 178.82C56.2208 178.07 55.7579 177.403 55.1511 176.884C54.5444 176.365 53.8142 176.01 53.0308 175.855C50.2175 175.223 47.2966 175.33 45.3242 172.89C43.3517 170.45 45.7541 167.794 45.3242 165.999C44.8943 164.203 44.6161 163.685 41.0884 161.889C37.5607 160.094 36.1698 157.116 38.8251 155.1C41.4803 153.083 45.7794 154.562 48.384 156.364C50.6979 157.944 52.898 158.362 55.4837 158.684C58.0695 159.007 62.28 160.442 61.6351 166.448C61.2129 170.165 60.3513 173.82 59.0683 177.334Z" fill="white"/>
<path d="M59.0683 177.334L56.4953 178.82C56.2208 178.07 55.7579 177.403 55.1511 176.884C54.5444 176.365 53.8142 176.01 53.0308 175.855C50.2175 175.223 47.2966 175.33 45.3242 172.89C43.3517 170.45 45.7541 167.794 45.3242 165.999C44.8943 164.203 44.6161 163.685 41.0884 161.889C37.5607 160.094 36.1698 157.116 38.8251 155.1C41.4803 153.083 45.7794 154.562 48.384 156.364C50.6979 157.944 52.898 158.362 55.4837 158.684C58.0695 159.007 62.28 160.442 61.6351 166.448C61.2129 170.165 60.3513 173.82 59.0683 177.334Z" fill="url(#paint1_linear_1_4074)"/>
<path d="M49.1918 169.444C49.1245 169.444 49.059 169.422 49.0046 169.382C48.9501 169.343 48.9095 169.287 48.8884 169.223C48.8644 169.143 48.8729 169.056 48.9118 168.982C48.9508 168.907 49.0172 168.851 49.097 168.825C49.3246 168.755 54.7869 167.023 57.1071 168.882C57.1647 168.936 57.1998 169.01 57.2054 169.089C57.211 169.168 57.1868 169.246 57.1376 169.308C57.0883 169.37 57.0175 169.411 56.9393 169.424C56.8611 169.436 56.7811 169.419 56.7151 169.375C54.6667 167.731 49.3436 169.413 49.2867 169.432L49.1918 169.444Z" fill="white"/>
<path d="M59.3522 176.854C59.2753 176.854 59.2009 176.826 59.1436 176.774C59.0864 176.723 59.0503 176.652 59.0424 176.575C57.6326 163.261 41.5935 156.945 41.4355 156.882C41.3963 156.867 41.3604 156.845 41.3299 156.816C41.2994 156.788 41.275 156.753 41.2579 156.715C41.2408 156.677 41.2315 156.636 41.2306 156.594C41.2296 156.552 41.2369 156.51 41.2521 156.471C41.2832 156.395 41.3425 156.333 41.4178 156.299C41.4931 156.265 41.5787 156.261 41.6567 156.288C41.8274 156.357 58.2206 162.806 59.6683 176.519C59.6772 176.601 59.653 176.685 59.6009 176.75C59.5488 176.815 59.473 176.857 59.3902 176.866L59.3522 176.854Z" fill="white"/>
<path d="M216.602 168.591C216.672 168.37 219.384 154.411 216.602 144.51C214.073 135.432 210.773 132.081 206.07 131.341C201.366 130.602 199.324 133.99 201.821 138.58C204.318 143.17 210.331 149.258 211.804 159.513C212.436 163.736 212.916 167.402 212.916 167.402L216.602 168.591Z" fill="white"/>
<path d="M216.602 168.591C216.672 168.37 219.384 154.411 216.602 144.51C214.073 135.432 210.773 132.081 206.07 131.341C201.366 130.602 199.324 133.99 201.821 138.58C204.318 143.17 210.331 149.258 211.804 159.513C212.436 163.736 212.916 167.402 212.916 167.402L216.602 168.591Z" fill="url(#paint2_linear_1_4074)"/>
<path opacity="0.2" d="M216.602 168.591C216.672 168.37 219.384 154.411 216.602 144.51C214.073 135.432 210.773 132.081 206.07 131.341C201.366 130.602 199.324 133.99 201.821 138.58C204.318 143.17 210.331 149.258 211.804 159.513C212.436 163.736 212.916 167.402 212.916 167.402L216.602 168.591Z" fill="black"/>
<path d="M215.015 160.575C214.973 160.572 214.933 160.562 214.895 160.544C214.858 160.525 214.824 160.5 214.797 160.469C214.769 160.438 214.748 160.402 214.734 160.362C214.721 160.323 214.715 160.281 214.718 160.24C215.35 148.936 211.658 138.846 205.039 133.896C204.971 133.845 204.927 133.77 204.915 133.687C204.903 133.604 204.925 133.52 204.975 133.453C205.027 133.387 205.101 133.344 205.184 133.332C205.266 133.321 205.35 133.341 205.418 133.39C212.201 138.448 216.007 148.765 215.344 160.278C215.339 160.36 215.301 160.438 215.24 160.493C215.178 160.549 215.098 160.578 215.015 160.575Z" fill="white"/>
<path d="M223.879 175.861C223.518 173.263 225.01 169.369 228.557 168.446C232.104 167.523 233.684 165.487 232.407 163.261C231.13 161.036 231.427 158.994 234.645 158.071C237.863 157.148 240.683 155.542 238.83 152.141C237.484 149.682 237.187 148.088 240.487 143.246C243.224 139.225 240.986 136.867 237.56 137.309C234.133 137.752 232.015 141.836 229.872 142.519C227.729 143.202 227.236 139.56 224.41 141.191C221.584 142.822 221.755 147.001 221.666 149.916C221.578 152.83 221.388 153.488 218.834 153.134C216.28 152.779 213.776 153.197 213.833 159.373C213.877 164.671 216.703 171.234 216.703 171.234L223.879 175.861Z" fill="white"/>
<path d="M223.879 175.861C223.518 173.263 225.01 169.369 228.557 168.446C232.104 167.523 233.684 165.487 232.407 163.261C231.13 161.036 231.427 158.994 234.645 158.071C237.863 157.148 240.683 155.542 238.83 152.141C237.484 149.682 237.187 148.088 240.487 143.246C243.224 139.225 240.986 136.867 237.56 137.309C234.133 137.752 232.015 141.836 229.872 142.519C227.729 143.202 227.236 139.56 224.41 141.191C221.584 142.822 221.755 147.001 221.666 149.916C221.578 152.83 221.388 153.488 218.834 153.134C216.28 152.779 213.776 153.197 213.833 159.373C213.877 164.671 216.703 171.234 216.703 171.234L223.879 175.861Z" fill="url(#paint3_linear_1_4074)"/>
<path d="M219.396 171.91H219.364C219.28 171.9 219.202 171.858 219.149 171.792C219.096 171.725 219.071 171.641 219.08 171.556C220.863 155.631 234.531 142.196 238.097 139.471C238.164 139.42 238.248 139.398 238.332 139.409C238.416 139.42 238.491 139.464 238.542 139.531C238.594 139.599 238.616 139.683 238.605 139.767C238.593 139.85 238.549 139.926 238.482 139.977C234.961 142.664 221.47 155.921 219.712 171.625C219.703 171.703 219.666 171.775 219.608 171.827C219.549 171.88 219.474 171.909 219.396 171.91Z" fill="white"/>
<path d="M225.629 154.885C225.565 154.884 225.503 154.865 225.45 154.829C225.397 154.793 225.356 154.742 225.332 154.683C225.305 154.603 225.309 154.516 225.345 154.439C225.38 154.363 225.443 154.303 225.522 154.272C230.617 152.375 236.395 153.273 236.642 153.311C236.724 153.325 236.797 153.37 236.846 153.438C236.894 153.505 236.914 153.589 236.901 153.671C236.886 153.753 236.84 153.825 236.773 153.875C236.706 153.924 236.623 153.946 236.541 153.936C236.484 153.936 230.68 153.026 225.743 154.866C225.706 154.878 225.668 154.885 225.629 154.885Z" fill="white"/>
<path d="M221.091 164.457C221.047 164.456 221.003 164.446 220.963 164.428C220.923 164.409 220.887 164.382 220.857 164.349C218.738 161.881 217.302 158.902 216.691 155.707C216.685 155.666 216.687 155.624 216.697 155.583C216.707 155.543 216.724 155.505 216.749 155.471C216.774 155.438 216.805 155.41 216.84 155.388C216.876 155.367 216.916 155.353 216.957 155.346C216.998 155.34 217.04 155.342 217.08 155.352C217.12 155.362 217.158 155.38 217.192 155.404C217.225 155.429 217.254 155.46 217.275 155.496C217.297 155.531 217.311 155.571 217.317 155.612C217.921 158.681 219.304 161.544 221.332 163.925C221.371 163.972 221.397 164.029 221.405 164.089C221.414 164.15 221.405 164.211 221.38 164.267C221.354 164.323 221.314 164.37 221.263 164.404C221.212 164.437 221.152 164.455 221.091 164.457Z" fill="white"/>
<path d="M59.0684 79.4876V177.341L159.223 119.519L159.216 30.561L84.7486 73.5575L82.1755 66.1417L59.0684 79.4876Z" fill="white"/>
<path d="M59.0684 79.4876V177.341L159.223 119.519L159.216 30.561L84.7486 73.5575L82.1755 66.1417L59.0684 79.4876Z" fill="url(#paint4_linear_1_4074)"/>
<path opacity="0.7" d="M59.0684 79.4876V177.341L159.223 119.519L159.216 30.561L84.7486 73.5575L82.1755 66.1417L59.0684 79.4876Z" fill="black"/>
<path d="M59.0684 177.341L64.2019 88.3827L164.356 30.561L159.223 119.519L59.0684 177.341Z" fill="#E0E0E0"/>
<path d="M59.0684 177.341L66.7687 89.8683L166.923 32.0403L159.223 119.519L59.0684 177.341Z" fill="white"/>
<path d="M59.0684 177.341L66.7687 89.8683L166.923 32.0403L159.223 119.519L59.0684 177.341Z" fill="url(#paint5_linear_1_4074)"/>
<path opacity="0.7" d="M59.0684 177.341L66.7687 89.8683L166.923 32.0403L159.223 119.519L59.0684 177.341Z" fill="black"/>
<path d="M74.4746 88.3828V186.242L174.629 128.414V39.4563L100.155 82.4527L97.5881 75.0369L74.4746 88.3828Z" fill="white"/>
<path d="M74.4746 88.3828V186.242L174.629 128.414V39.4563L100.155 82.4527L97.5881 75.0369L74.4746 88.3828Z" fill="url(#paint6_linear_1_4074)"/>
<path opacity="0.5" d="M74.4746 88.3828V186.242L174.629 128.414V39.4563L100.155 82.4527L97.5881 75.0369L74.4746 88.3828Z" fill="black"/>
<path d="M74.4746 186.242L79.6081 97.278L179.762 39.4563L174.629 128.414L74.4746 186.242Z" fill="#E0E0E0"/>
<path d="M74.4746 186.242L82.1749 98.7638L182.329 40.9358L174.629 128.414L74.4746 186.242Z" fill="white"/>
<path d="M74.4746 186.242L82.1749 98.7638L182.329 40.9358L174.629 128.414L74.4746 186.242Z" fill="url(#paint7_linear_1_4074)"/>
<path opacity="0.5" d="M74.4746 186.242L82.1749 98.7638L182.329 40.9358L174.629 128.414L74.4746 186.242Z" fill="black"/>
<path d="M159.197 217.378C141.217 206.997 124.54 195.713 116.928 182.474L140.067 169.116L159.197 217.378Z" fill="#E0E0E0"/>
<path d="M92.4492 98.7637V196.617L192.604 138.795V49.8372L118.129 92.8336L115.563 85.4178L92.4492 98.7637Z" fill="white"/>
<path d="M92.4492 98.7637V196.617L192.604 138.795V49.8372L118.129 92.8336L115.563 85.4178L92.4492 98.7637Z" fill="url(#paint8_linear_1_4074)"/>
<path opacity="0.2" d="M92.4492 98.7637V196.617L192.604 138.795V49.8372L118.129 92.8336L115.563 85.4178L92.4492 98.7637Z" fill="black"/>
<path d="M121.303 127.693C121.05 127.693 121.012 127.402 121.012 127.232V43.7803C121.032 43.4565 121.127 43.1419 121.289 42.8611C121.452 42.5803 121.677 42.3409 121.947 42.1618L194.234 0.436116C194.333 0.374372 194.446 0.339503 194.563 0.334961C194.816 0.334961 194.854 0.625778 194.854 0.796474V84.2478C194.834 84.5725 194.739 84.8882 194.577 85.1701C194.414 85.452 194.189 85.6925 193.918 85.8726L121.631 127.598C121.531 127.657 121.418 127.69 121.303 127.693Z" fill="white"/>
<path d="M194.524 0.625985C194.529 0.672206 194.529 0.718851 194.524 0.765071V84.2164C194.503 84.4856 194.423 84.7467 194.288 84.9808C194.154 85.2148 193.969 85.4159 193.746 85.5694L121.46 127.295L121.333 127.352C121.325 127.306 121.325 127.259 121.333 127.213V43.7615C121.355 43.4934 121.436 43.2336 121.571 43.0007C121.705 42.7678 121.89 42.5677 122.111 42.4149L194.398 0.689205C194.437 0.661316 194.483 0.641949 194.53 0.632308M194.568 0.000100998C194.396 0.00522642 194.228 0.0553612 194.081 0.145511L121.795 41.8712C121.477 42.0799 121.213 42.3602 121.023 42.6896C120.833 43.019 120.723 43.3882 120.701 43.7678V127.219C120.701 127.712 120.948 127.997 121.333 127.997C121.506 127.992 121.674 127.942 121.82 127.851L194.107 86.1257C194.426 85.9184 194.691 85.6385 194.882 85.3088C195.072 84.9792 195.181 84.6091 195.201 84.2291V0.777718C195.201 0.284596 194.954 -0.00622108 194.568 0.000100998Z" fill="white"/>
<path d="M194.524 0.625985C194.529 0.672206 194.529 0.718851 194.524 0.765071V84.2164C194.503 84.4856 194.423 84.7467 194.288 84.9808C194.154 85.2148 193.969 85.4159 193.746 85.5694L121.46 127.295L121.333 127.352C121.325 127.306 121.325 127.259 121.333 127.213V43.7615C121.355 43.4934 121.436 43.2336 121.571 43.0007C121.705 42.7678 121.89 42.5677 122.111 42.4149L194.398 0.689205C194.437 0.661316 194.483 0.641949 194.53 0.632308M194.568 0.000100998C194.396 0.00522642 194.228 0.0553612 194.081 0.145511L121.795 41.8712C121.477 42.0799 121.213 42.3602 121.023 42.6896C120.833 43.019 120.723 43.3882 120.701 43.7678V127.219C120.701 127.712 120.948 127.997 121.333 127.997C121.506 127.992 121.674 127.942 121.82 127.851L194.107 86.1257C194.426 85.9184 194.691 85.6385 194.882 85.3088C195.072 84.9792 195.181 84.6091 195.201 84.2291V0.777718C195.201 0.284596 194.954 -0.00622108 194.568 0.000100998Z" fill="url(#paint9_linear_1_4074)"/>
<path opacity="0.7" d="M194.524 0.625985C194.529 0.672206 194.529 0.718851 194.524 0.765071V84.2164C194.503 84.4856 194.423 84.7467 194.288 84.9808C194.154 85.2148 193.969 85.4159 193.746 85.5694L121.46 127.295L121.333 127.352C121.325 127.306 121.325 127.259 121.333 127.213V43.7615C121.355 43.4934 121.436 43.2336 121.571 43.0007C121.705 42.7678 121.89 42.5677 122.111 42.4149L194.398 0.689205C194.437 0.661316 194.483 0.641949 194.53 0.632308M194.568 0.000100998C194.396 0.00522642 194.228 0.0553612 194.081 0.145511L121.795 41.8712C121.477 42.0799 121.213 42.3602 121.023 42.6896C120.833 43.019 120.723 43.3882 120.701 43.7678V127.219C120.701 127.712 120.948 127.997 121.333 127.997C121.506 127.992 121.674 127.942 121.82 127.851L194.107 86.1257C194.426 85.9184 194.691 85.6385 194.882 85.3088C195.072 84.9792 195.181 84.6091 195.201 84.2291V0.777718C195.201 0.284596 194.954 -0.00622108 194.568 0.000100998Z" fill="white"/>
<path d="M128.402 46.9478L154.083 32.1226V61.7731L128.402 76.5984V46.9478Z" fill="white"/>
<path d="M128.402 46.9478L154.083 32.1226V61.7731L128.402 76.5984V46.9478Z" fill="url(#paint10_linear_1_4074)"/>
<path opacity="0.8" d="M128.402 46.9478L154.083 32.1226V61.7731L128.402 76.5984V46.9478Z" fill="white"/>
<path d="M150.233 39.5132V48.4273L149.424 48.8762V46.1514C149.424 44.6467 148.204 44.1346 146.686 45.0071L135.806 51.2975C134.295 52.17 133.069 54.0982 133.069 55.6029V58.3277L132.266 58.8082V49.913L150.233 39.5132Z" fill="white"/>
<path d="M145.289 62.2094C143.974 62.9681 142.906 62.1715 142.906 60.4203V46.1514L139.599 47.9468V62.3295C139.599 64.0744 138.531 66.1228 137.216 66.8625L134.826 68.2407V69.189L147.666 61.7732V60.8312L145.289 62.2094Z" fill="white"/>
<path d="M159.197 30.662C159.197 31.4839 159.937 31.7178 160.841 31.1994L185.826 16.7534C186.269 16.5022 186.648 16.1517 186.933 15.7294C187.219 15.3071 187.402 14.8245 187.47 14.3195C187.47 13.5039 186.73 13.2637 185.826 13.7884L160.86 28.2027C160.409 28.4535 160.024 28.8068 159.735 29.234C159.446 29.6612 159.262 30.1504 159.197 30.662Z" fill="#455A64"/>
<path d="M159.197 39.5127C159.197 40.3346 159.937 40.5748 160.841 40.0501L185.807 25.6358C186.25 25.3845 186.629 25.034 186.914 24.6117C187.2 24.1894 187.383 23.7068 187.451 23.2018C187.451 22.3862 186.711 22.146 185.807 22.6707L160.841 37.085C160.398 37.3357 160.02 37.6852 159.735 38.1063C159.45 38.5274 159.266 39.0088 159.197 39.5127Z" fill="#455A64"/>
<path d="M159.197 48.427C159.197 49.2489 159.937 49.4891 160.841 48.9644L185.807 34.55C186.249 34.2994 186.628 33.9499 186.913 33.5287C187.198 33.1076 187.382 32.6263 187.451 32.1224C187.451 31.3005 186.711 31.0602 185.807 31.585L160.841 45.9993C160.398 46.2499 160.02 46.5995 159.735 47.0206C159.45 47.4417 159.266 47.923 159.197 48.427Z" fill="#455A64"/>
<path d="M159.197 57.3225C159.197 58.1444 159.937 58.3846 160.841 57.8599L185.807 43.4455C186.249 43.1949 186.628 42.8454 186.913 42.4243C187.198 42.0031 187.382 41.5218 187.451 41.0179C187.451 40.196 186.711 39.9558 185.807 40.4805L160.841 54.8948C160.398 55.1455 160.02 55.495 159.735 55.9161C159.45 56.3372 159.266 56.8185 159.197 57.3225Z" fill="#455A64"/>
<path d="M128.402 84.0142C128.402 84.836 129.136 85.0763 130.046 84.5515L185.826 52.309C186.269 52.0591 186.648 51.7098 186.933 51.2885C187.218 50.8672 187.402 50.3855 187.469 49.8813C187.469 49.0594 186.73 48.8255 185.826 49.3439L130.046 81.5865C129.603 81.836 129.223 82.1852 128.938 82.6065C128.653 83.0278 128.469 83.5098 128.402 84.0142Z" fill="#455A64"/>
<path d="M128.402 92.909C128.402 93.7309 129.136 93.9711 130.046 93.4464L185.826 61.2417C186.269 60.9905 186.648 60.64 186.933 60.2177C187.218 59.7954 187.402 59.3128 187.469 58.8077C187.469 57.9922 186.73 57.7519 185.826 58.2767L130.046 90.4813C129.603 90.7308 129.223 91.08 128.938 91.5014C128.653 91.9227 128.469 92.4046 128.402 92.909Z" fill="#455A64"/>
<path d="M128.402 101.811C128.402 102.626 129.136 102.867 130.046 102.342L185.826 70.1372C186.269 69.886 186.648 69.5355 186.933 69.1132C187.218 68.6909 187.402 68.2083 187.469 67.7032C187.469 66.8877 186.73 66.6475 185.826 67.1722L130.046 99.3768C129.602 99.6269 129.222 99.9771 128.937 100.4C128.651 100.822 128.468 101.305 128.402 101.811Z" fill="#455A64"/>
<path d="M92.4492 196.617L110.423 118.04L210.577 60.2117L192.604 138.795L92.4492 196.617Z" fill="white"/>
<path d="M92.4492 196.617L110.423 118.04L210.577 60.2117L192.604 138.795L92.4492 196.617Z" fill="url(#paint11_linear_1_4074)"/>
<path d="M116.955 124.191V182.474L140.069 169.128V110.852L116.955 124.191Z" fill="white"/>
<path d="M116.955 124.191V182.474L140.069 169.128V110.852L116.955 124.191Z" fill="url(#paint12_linear_1_4074)"/>
<path opacity="0.2" d="M116.955 124.191V182.474L140.069 169.128V110.852L116.955 124.191Z" fill="black"/>
<path d="M159.242 216.999C157.276 215.532 138.322 201.049 128.687 180.331C118.433 158.305 118.445 132.612 118.445 122.946V122.642L187.154 82.9775C187.154 92.7325 187.154 118.463 197.452 140.565C206.866 160.796 225.092 175.096 227.982 177.284L159.242 216.999Z" fill="white"/>
<path d="M186.839 83.5463C186.839 93.7122 187.035 118.95 197.17 140.723C206.267 160.258 223.564 174.306 227.414 177.271L159.262 216.62C156.601 214.616 138.362 200.372 128.98 180.223C118.738 158.261 118.738 132.618 118.738 122.964V122.844L186.814 83.54M187.446 82.4463L118.106 122.484C118.106 131.581 117.916 158.014 128.379 180.489C138.678 202.547 159.199 217.378 159.199 217.378L228.559 177.334C228.559 177.334 208.012 162.503 197.745 140.445C187.276 117.97 187.472 91.5374 187.472 82.4399L187.446 82.4463Z" fill="white"/>
<path d="M186.839 83.5463C186.839 93.7122 187.035 118.95 197.17 140.723C206.267 160.258 223.564 174.306 227.414 177.271L159.262 216.62C156.601 214.616 138.362 200.372 128.98 180.223C118.738 158.261 118.738 132.618 118.738 122.964V122.844L186.814 83.54M187.446 82.4463L118.106 122.484C118.106 131.581 117.916 158.014 128.379 180.489C138.678 202.547 159.199 217.378 159.199 217.378L228.559 177.334C228.559 177.334 208.012 162.503 197.745 140.445C187.276 117.97 187.472 91.5374 187.472 82.4399L187.446 82.4463Z" fill="url(#paint13_linear_1_4074)"/>
<path opacity="0.7" d="M186.839 83.5463C186.839 93.7122 187.035 118.95 197.17 140.723C206.267 160.258 223.564 174.306 227.414 177.271L159.262 216.62C156.601 214.616 138.362 200.372 128.98 180.223C118.738 158.261 118.738 132.618 118.738 122.964V122.844L186.814 83.54M187.446 82.4463L118.106 122.484C118.106 131.581 117.916 158.014 128.379 180.489C138.678 202.547 159.199 217.378 159.199 217.378L228.559 177.334C228.559 177.334 208.012 162.503 197.745 140.445C187.276 117.97 187.472 91.5374 187.472 82.4399L187.446 82.4463Z" fill="white"/>
<path d="M179.626 95.8743L157.701 108.518C157.262 108.76 156.888 109.104 156.61 109.521C156.333 109.938 156.16 110.416 156.107 110.914C156.139 111.717 156.904 111.945 157.808 111.42L179.739 98.7761C180.173 98.5368 180.543 98.1974 180.819 97.7861C181.095 97.3749 181.269 96.9036 181.326 96.4116C181.288 95.5771 180.536 95.3495 179.626 95.8743Z" fill="#455A64"/>
<path d="M180.092 104.504L158.167 117.148C157.733 117.381 157.365 117.721 157.098 118.134C156.83 118.547 156.672 119.022 156.637 119.513C156.706 120.29 157.503 120.499 158.407 119.974L180.338 107.33C180.77 107.098 181.135 106.759 181.399 106.347C181.664 105.934 181.818 105.461 181.849 104.972C181.786 104.188 181.002 103.998 180.092 104.504Z" fill="#455A64"/>
<path d="M180.969 112.894L159.038 125.538C158.134 126.062 157.476 127.106 157.584 127.858C157.691 128.61 158.519 128.806 159.43 128.281L181.361 115.637C182.265 115.113 182.91 114.076 182.796 113.323C182.682 112.571 181.873 112.369 180.969 112.894Z" fill="#455A64"/>
<path d="M182.287 121.03L160.356 133.674C159.452 134.198 158.826 135.223 158.978 135.956C159.129 136.689 159.989 136.854 160.874 136.329L182.799 123.685C183.71 123.16 184.317 122.142 184.165 121.409C184.013 120.676 183.223 120.505 182.287 121.03Z" fill="#455A64"/>
<path d="M184.069 128.895L162.138 141.539C161.234 142.064 160.646 143.062 160.873 143.764C161.101 144.466 161.967 144.624 162.871 144.099L184.802 131.455C185.713 130.93 186.282 129.938 186.067 129.23C185.852 128.522 184.973 128.37 184.069 128.895Z" fill="#455A64"/>
<path d="M186.383 136.475L132.936 167.333C132.032 167.858 131.482 168.831 131.729 169.508C131.975 170.184 132.917 170.311 133.822 169.786L187.268 138.928C188.179 138.403 188.703 137.436 188.457 136.753C188.21 136.07 187.256 135.95 186.383 136.475Z" fill="#455A64"/>
<path d="M189.196 143.714L135.756 174.572C134.845 175.096 134.346 176.045 134.649 176.689C134.953 177.334 135.914 177.435 136.837 176.911L190.284 146.053C191.194 145.528 191.681 144.58 191.377 143.935C191.074 143.29 190.107 143.195 189.196 143.714Z" fill="#455A64"/>
<path d="M192.705 150.611L139.258 181.469C138.348 181.994 137.899 182.917 138.259 183.53C138.62 184.143 139.65 184.207 140.56 183.682L193.969 152.824C194.873 152.305 195.31 151.389 194.949 150.775C194.589 150.162 193.59 150.086 192.705 150.611Z" fill="#455A64"/>
<path d="M196.794 157.135L143.354 187.987C142.443 188.512 142.039 189.416 142.45 189.991C142.861 190.566 143.942 190.623 144.852 190.092L198.293 159.234C199.203 158.709 199.595 157.818 199.184 157.236C198.773 156.655 197.705 156.61 196.794 157.135Z" fill="#455A64"/>
<path d="M201.461 163.337L148.014 194.189C147.11 194.714 146.75 195.593 147.205 196.143C147.66 196.693 148.779 196.718 149.689 196.193L203.136 165.323C204.04 164.798 204.401 163.932 203.933 163.382C203.465 162.832 202.371 162.794 201.461 163.337Z" fill="#455A64"/>
<path d="M206.613 169.242L153.185 200.094C152.275 200.618 151.921 201.478 152.452 201.99C152.983 202.502 154.108 202.515 155.012 201.99L208.459 171.132C209.369 170.608 209.686 169.76 209.18 169.236C208.674 168.711 207.536 168.724 206.613 169.242Z" fill="#455A64"/>
<path d="M212.303 174.888L158.856 205.739C157.952 206.264 157.655 207.105 158.224 207.604C158.793 208.104 159.956 208.085 160.867 207.56L214.269 176.702C215.173 176.177 215.458 175.355 214.901 174.85C214.345 174.344 213.188 174.363 212.303 174.888Z" fill="#455A64"/>
<path d="M149.753 113.127L124.541 127.668C124.819 136.804 125.862 149.979 129.681 163.249L154.9 148.708C151.075 135.438 150.032 122.257 149.753 113.127Z" fill="white"/>
<path d="M149.753 113.127L124.541 127.668C124.819 136.804 125.862 149.979 129.681 163.249L154.9 148.708C151.075 135.438 150.032 122.257 149.753 113.127Z" fill="url(#paint14_linear_1_4074)"/>
<path opacity="0.8" d="M149.753 113.127L124.541 127.668C124.819 136.804 125.862 149.979 129.681 163.249L154.9 148.708C151.075 135.438 150.032 122.257 149.753 113.127Z" fill="white"/>
<path d="M134.821 125.657C134.855 125.068 134.763 124.478 134.552 123.926C134.34 123.375 134.014 122.874 133.594 122.458L124.541 127.681C124.617 130.096 124.743 132.795 124.965 135.703C126.142 135.839 127.333 135.619 128.385 135.071C131.944 133.44 134.821 129.21 134.821 125.657Z" fill="white"/>
<path d="M134.821 125.657C134.855 125.068 134.763 124.478 134.552 123.926C134.34 123.375 134.014 122.874 133.594 122.458L124.541 127.681C124.617 130.096 124.743 132.795 124.965 135.703C126.142 135.839 127.333 135.619 128.385 135.071C131.944 133.44 134.821 129.21 134.821 125.657Z" fill="url(#paint15_linear_1_4074)"/>
<path opacity="0.6" d="M134.821 125.657C134.855 125.068 134.763 124.478 134.552 123.926C134.34 123.375 134.014 122.874 133.594 122.458L124.541 127.681C124.617 130.096 124.743 132.795 124.965 135.703C126.142 135.839 127.333 135.619 128.385 135.071C131.944 133.44 134.821 129.21 134.821 125.657Z" fill="white"/>
<path d="M152.756 139.983C151.074 137.865 147.654 131.322 146.193 128.471C146.136 128.358 146.046 128.265 145.935 128.204C145.824 128.143 145.698 128.117 145.572 128.128C145.446 128.14 145.326 128.189 145.229 128.269C145.131 128.349 145.06 128.457 145.024 128.578C143.444 133.979 142.527 139.552 142.293 145.174C140.187 143.502 138.377 141.489 136.938 139.218C136.876 139.13 136.791 139.062 136.692 139.021C136.593 138.979 136.484 138.967 136.379 138.986C136.273 139.005 136.175 139.053 136.096 139.126C136.017 139.198 135.96 139.292 135.933 139.395C133.176 150.01 134.561 160.454 134.561 160.454L154.899 148.708C154.052 145.774 153.35 142.854 152.756 139.983Z" fill="white"/>
<path d="M152.756 139.983C151.074 137.865 147.654 131.322 146.193 128.471C146.136 128.358 146.046 128.265 145.935 128.204C145.824 128.143 145.698 128.117 145.572 128.128C145.446 128.14 145.326 128.189 145.229 128.269C145.131 128.349 145.06 128.457 145.024 128.578C143.444 133.979 142.527 139.552 142.293 145.174C140.187 143.502 138.377 141.489 136.938 139.218C136.876 139.13 136.791 139.062 136.692 139.021C136.593 138.979 136.484 138.967 136.379 138.986C136.273 139.005 136.175 139.053 136.096 139.126C136.017 139.198 135.96 139.292 135.933 139.395C133.176 150.01 134.561 160.454 134.561 160.454L154.899 148.708C154.052 145.774 153.35 142.854 152.756 139.983Z" fill="url(#paint16_linear_1_4074)"/>
<path opacity="0.6" d="M152.756 139.983C151.074 137.865 147.654 131.322 146.193 128.471C146.136 128.358 146.046 128.265 145.935 128.204C145.824 128.143 145.698 128.117 145.572 128.128C145.446 128.14 145.326 128.189 145.229 128.269C145.131 128.349 145.06 128.457 145.024 128.578C143.444 133.979 142.527 139.552 142.293 145.174C140.187 143.502 138.377 141.489 136.938 139.218C136.876 139.13 136.791 139.062 136.692 139.021C136.593 138.979 136.484 138.967 136.379 138.986C136.273 139.005 136.175 139.053 136.096 139.126C136.017 139.198 135.96 139.292 135.933 139.395C133.176 150.01 134.561 160.454 134.561 160.454L154.899 148.708C154.052 145.774 153.35 142.854 152.756 139.983Z" fill="white"/>
<defs>
<linearGradient id="paint0_linear_1_4074" x1="61.9925" y1="145.67" x2="44.8427" y2="146.611" gradientUnits="userSpaceOnUse">
<stop stop-color="#0A8241"/>
<stop offset="0.416667" stop-color="#3EBB6C" stop-opacity="0.87"/>
<stop offset="0.692708" stop-color="#A5E06A" stop-opacity="0.79"/>
<stop offset="1" stop-color="#FCFF68" stop-opacity="0.31"/>
</linearGradient>
<linearGradient id="paint1_linear_1_4074" x1="61.7014" y1="157.071" x2="36.3057" y2="159.743" gradientUnits="userSpaceOnUse">
<stop stop-color="#0A8241"/>
<stop offset="0.416667" stop-color="#3EBB6C" stop-opacity="0.87"/>
<stop offset="0.692708" stop-color="#A5E06A" stop-opacity="0.79"/>
<stop offset="1" stop-color="#FCFF68" stop-opacity="0.31"/>
</linearGradient>
<linearGradient id="paint2_linear_1_4074" x1="217.854" y1="135.689" x2="199.792" y2="136.575" gradientUnits="userSpaceOnUse">
<stop stop-color="#0A8241"/>
<stop offset="0.416667" stop-color="#3EBB6C" stop-opacity="0.87"/>
<stop offset="0.692708" stop-color="#A5E06A" stop-opacity="0.79"/>
<stop offset="1" stop-color="#FCFF68" stop-opacity="0.31"/>
</linearGradient>
<linearGradient id="paint3_linear_1_4074" x1="241.711" y1="141.855" x2="212.379" y2="144.123" gradientUnits="userSpaceOnUse">
<stop stop-color="#0A8241"/>
<stop offset="0.416667" stop-color="#3EBB6C" stop-opacity="0.87"/>
<stop offset="0.692708" stop-color="#A5E06A" stop-opacity="0.79"/>
<stop offset="1" stop-color="#FCFF68" stop-opacity="0.31"/>
</linearGradient>
<linearGradient id="paint4_linear_1_4074" x1="159.223" y1="48.0457" x2="53.7819" y2="55.7492" gradientUnits="userSpaceOnUse">
<stop stop-color="#0A8241"/>
<stop offset="0.416667" stop-color="#3EBB6C" stop-opacity="0.87"/>
<stop offset="0.692708" stop-color="#A5E06A" stop-opacity="0.79"/>
<stop offset="1" stop-color="#FCFF68" stop-opacity="0.31"/>
</linearGradient>
<linearGradient id="paint5_linear_1_4074" x1="166.923" y1="49.3487" x2="53.4859" y2="58.3645" gradientUnits="userSpaceOnUse">
<stop stop-color="#0A8241"/>
<stop offset="0.416667" stop-color="#3EBB6C" stop-opacity="0.87"/>
<stop offset="0.692708" stop-color="#A5E06A" stop-opacity="0.79"/>
<stop offset="1" stop-color="#FCFF68" stop-opacity="0.31"/>
</linearGradient>
<linearGradient id="paint6_linear_1_4074" x1="174.629" y1="56.9417" x2="69.1881" y2="64.6449" gradientUnits="userSpaceOnUse">
<stop stop-color="#0A8241"/>
<stop offset="0.416667" stop-color="#3EBB6C" stop-opacity="0.87"/>
<stop offset="0.692708" stop-color="#A5E06A" stop-opacity="0.79"/>
<stop offset="1" stop-color="#FCFF68" stop-opacity="0.31"/>
</linearGradient>
<linearGradient id="paint7_linear_1_4074" x1="182.329" y1="58.245" x2="68.8921" y2="67.2604" gradientUnits="userSpaceOnUse">
<stop stop-color="#0A8241"/>
<stop offset="0.416667" stop-color="#3EBB6C" stop-opacity="0.87"/>
<stop offset="0.692708" stop-color="#A5E06A" stop-opacity="0.79"/>
<stop offset="1" stop-color="#FCFF68" stop-opacity="0.31"/>
</linearGradient>
<linearGradient id="paint8_linear_1_4074" x1="192.604" y1="67.3218" x2="87.1627" y2="75.0253" gradientUnits="userSpaceOnUse">
<stop stop-color="#0A8241"/>
<stop offset="0.416667" stop-color="#3EBB6C" stop-opacity="0.87"/>
<stop offset="0.692708" stop-color="#A5E06A" stop-opacity="0.79"/>
<stop offset="1" stop-color="#FCFF68" stop-opacity="0.31"/>
</linearGradient>
<linearGradient id="paint9_linear_1_4074" x1="195.2" y1="15.2472" x2="116.655" y2="20.1422" gradientUnits="userSpaceOnUse">
<stop stop-color="#0A8241"/>
<stop offset="0.416667" stop-color="#3EBB6C" stop-opacity="0.87"/>
<stop offset="0.692708" stop-color="#A5E06A" stop-opacity="0.79"/>
<stop offset="1" stop-color="#FCFF68" stop-opacity="0.31"/>
</linearGradient>
<linearGradient id="paint10_linear_1_4074" x1="154.083" y1="37.4206" x2="127.006" y2="39.0946" gradientUnits="userSpaceOnUse">
<stop stop-color="#0A8241"/>
<stop offset="0.416667" stop-color="#3EBB6C" stop-opacity="0.87"/>
<stop offset="0.692708" stop-color="#A5E06A" stop-opacity="0.79"/>
<stop offset="1" stop-color="#FCFF68" stop-opacity="0.31"/>
</linearGradient>
<linearGradient id="paint11_linear_1_4074" x1="210.577" y1="76.4605" x2="86.616" y2="87.9548" gradientUnits="userSpaceOnUse">
<stop stop-color="#0A8241"/>
<stop offset="0.416667" stop-color="#3EBB6C" stop-opacity="0.87"/>
<stop offset="0.692708" stop-color="#A5E06A" stop-opacity="0.79"/>
<stop offset="1" stop-color="#FCFF68" stop-opacity="0.31"/>
</linearGradient>
<linearGradient id="paint12_linear_1_4074" x1="140.069" y1="119.383" x2="115.634" y2="120.228" gradientUnits="userSpaceOnUse">
<stop stop-color="#0A8241"/>
<stop offset="0.416667" stop-color="#3EBB6C" stop-opacity="0.87"/>
<stop offset="0.692708" stop-color="#A5E06A" stop-opacity="0.79"/>
<stop offset="1" stop-color="#FCFF68" stop-opacity="0.31"/>
</linearGradient>
<linearGradient id="paint13_linear_1_4074" x1="228.559" y1="98.5141" x2="112.546" y2="108.682" gradientUnits="userSpaceOnUse">
<stop stop-color="#0A8241"/>
<stop offset="0.416667" stop-color="#3EBB6C" stop-opacity="0.87"/>
<stop offset="0.692708" stop-color="#A5E06A" stop-opacity="0.79"/>
<stop offset="1" stop-color="#FCFF68" stop-opacity="0.31"/>
</linearGradient>
<linearGradient id="paint14_linear_1_4074" x1="154.9" y1="119.098" x2="122.903" y2="121.173" gradientUnits="userSpaceOnUse">
<stop stop-color="#0A8241"/>
<stop offset="0.416667" stop-color="#3EBB6C" stop-opacity="0.87"/>
<stop offset="0.692708" stop-color="#A5E06A" stop-opacity="0.79"/>
<stop offset="1" stop-color="#FCFF68" stop-opacity="0.31"/>
</linearGradient>
<linearGradient id="paint15_linear_1_4074" x1="134.828" y1="124.041" x2="124.015" y2="124.937" gradientUnits="userSpaceOnUse">
<stop stop-color="#0A8241"/>
<stop offset="0.416667" stop-color="#3EBB6C" stop-opacity="0.87"/>
<stop offset="0.692708" stop-color="#A5E06A" stop-opacity="0.79"/>
<stop offset="1" stop-color="#FCFF68" stop-opacity="0.31"/>
</linearGradient>
<linearGradient id="paint16_linear_1_4074" x1="154.899" y1="131.977" x2="133.107" y2="133.47" gradientUnits="userSpaceOnUse">
<stop stop-color="#0A8241"/>
<stop offset="0.416667" stop-color="#3EBB6C" stop-opacity="0.87"/>
<stop offset="0.692708" stop-color="#A5E06A" stop-opacity="0.79"/>
<stop offset="1" stop-color="#FCFF68" stop-opacity="0.31"/>
</linearGradient>
</defs>
</svg>
