<svg width="255" height="297" viewBox="0 0 255 297" fill="none" xmlns="http://www.w3.org/2000/svg">
<path d="M127.5 296.318C197.916 296.318 255 263.89 255 223.888C255 183.886 197.916 151.458 127.5 151.458C57.0837 151.458 0 183.886 0 223.888C0 263.89 57.0837 296.318 127.5 296.318Z" fill="#F6F8DD"/>
<path d="M180.553 269.557L85.3797 214.604C84.5424 214.121 83.8471 213.427 83.3636 212.59C82.88 211.754 82.6255 210.804 82.6255 209.838C82.6255 208.872 82.88 207.923 83.3636 207.086C83.8471 206.25 84.5424 205.555 85.3797 205.073L94.7683 199.152C96.3889 198.219 98.2264 197.728 100.097 197.728C101.967 197.728 103.804 198.219 105.425 199.152L200.612 254.112C201.449 254.595 202.144 255.289 202.628 256.126C203.111 256.962 203.366 257.911 203.366 258.878C203.366 259.844 203.111 260.793 202.628 261.63C202.144 262.466 201.449 263.161 200.612 263.643L191.223 269.557C189.602 270.495 187.762 270.99 185.888 270.99C184.015 270.99 182.175 270.495 180.553 269.557Z" fill="#E0E0E0"/>
<path d="M28.0521 194.855C37.0368 199.737 45.0399 202.371 45.9276 200.737C46.8152 199.104 40.2513 193.821 31.2667 188.939C22.282 184.057 14.2789 181.423 13.3912 183.057C12.5036 184.691 19.0675 189.973 28.0521 194.855Z" fill="#E6E6E6"/>
<path d="M214.311 222.173L223.37 227.382C223.37 227.382 218.744 212.843 221.209 198.187C222.141 192.649 224.14 189.899 224.839 188.417C225.538 186.935 230.953 177.78 226.133 173.587C221.312 169.394 210.099 177.825 210.707 200.387C210.984 207.772 212.195 215.093 214.311 222.173Z" fill="white"/>
<path d="M214.311 222.173L223.37 227.382C223.37 227.382 218.744 212.843 221.209 198.187C222.141 192.649 224.14 189.899 224.839 188.417C225.538 186.935 230.953 177.78 226.133 173.587C221.312 169.394 210.099 177.825 210.707 200.387C210.984 207.772 212.195 215.093 214.311 222.173Z" fill="url(#paint0_linear_1_3952)"/>
<path opacity="0.5" d="M214.311 222.173L223.37 227.382C223.37 227.382 218.744 212.843 221.209 198.187C222.141 192.649 224.14 189.899 224.839 188.417C225.538 186.935 230.953 177.78 226.133 173.587C221.312 169.394 210.099 177.825 210.707 200.387C210.984 207.772 212.195 215.093 214.311 222.173Z" fill="black"/>
<path d="M218.525 224.917C218.459 224.918 218.394 224.899 218.34 224.862C218.285 224.825 218.243 224.772 218.221 224.71C218.188 224.613 214.727 215.153 214.837 199.948C214.947 184.742 222.938 176.486 223.015 176.408C223.045 176.378 223.081 176.354 223.12 176.337C223.16 176.321 223.202 176.312 223.245 176.312C223.288 176.312 223.33 176.321 223.369 176.337C223.409 176.354 223.445 176.378 223.475 176.408C223.505 176.438 223.529 176.474 223.545 176.513C223.562 176.553 223.57 176.595 223.57 176.638C223.57 176.681 223.562 176.723 223.545 176.762C223.529 176.802 223.505 176.838 223.475 176.868C223.397 176.945 215.594 184.956 215.484 199.954C215.374 214.953 218.79 224.399 218.829 224.49C218.858 224.571 218.854 224.66 218.817 224.737C218.781 224.815 218.715 224.875 218.635 224.904C218.599 224.915 218.562 224.92 218.525 224.917Z" fill="white"/>
<path d="M218.093 224.4L230.477 231.517C231.767 232.28 233.298 232.528 234.763 232.213C236.229 231.898 237.521 231.041 238.384 229.815C239.204 228.54 239.549 227.017 239.361 225.512C238.766 219.081 235.97 217.599 239.393 214.733C242.816 211.866 243.709 211.666 243.515 208.909C243.321 206.153 241.438 204.949 240.545 203.862C239.652 202.775 237.18 200.498 238.863 197.133C240.545 193.768 242.842 190.514 239.361 189.026C237.284 188.133 233.822 189.323 231.545 191.795C229.267 194.267 227.391 196.046 225.21 196.641C223.03 197.237 218.487 197.334 218.681 201.093C218.875 204.852 219.872 206.14 218.979 207.816C217.297 210.948 209.979 212.727 218.093 224.4Z" fill="white"/>
<path d="M218.093 224.4L230.477 231.517C231.767 232.28 233.298 232.528 234.763 232.213C236.229 231.898 237.521 231.041 238.384 229.815C239.204 228.54 239.549 227.017 239.361 225.512C238.766 219.081 235.97 217.599 239.393 214.733C242.816 211.866 243.709 211.666 243.515 208.909C243.321 206.153 241.438 204.949 240.545 203.862C239.652 202.775 237.18 200.498 238.863 197.133C240.545 193.768 242.842 190.514 239.361 189.026C237.284 188.133 233.822 189.323 231.545 191.795C229.267 194.267 227.391 196.046 225.21 196.641C223.03 197.237 218.487 197.334 218.681 201.093C218.875 204.852 219.872 206.14 218.979 207.816C217.297 210.948 209.979 212.727 218.093 224.4Z" fill="url(#paint1_linear_1_3952)"/>
<path d="M224.21 228.229C224.13 228.226 224.053 228.195 223.993 228.14C223.934 228.085 223.896 228.011 223.887 227.931C223.887 227.711 221.984 205.505 237.255 190.726C237.318 190.674 237.398 190.648 237.479 190.653C237.561 190.657 237.638 190.693 237.694 190.752C237.751 190.811 237.783 190.889 237.784 190.97C237.785 191.052 237.756 191.131 237.701 191.192C222.651 205.757 224.514 227.653 224.534 227.873C224.541 227.958 224.514 228.042 224.46 228.107C224.405 228.173 224.327 228.214 224.243 228.222L224.21 228.229Z" fill="white"/>
<path d="M226.662 209.116C226.581 209.116 226.502 209.086 226.442 209.03C226.382 208.975 226.345 208.899 226.339 208.818C226.203 207.097 225.719 205.422 224.914 203.895C224.11 202.367 223.003 201.02 221.661 199.934C221.626 199.91 221.596 199.879 221.573 199.842C221.55 199.806 221.535 199.766 221.528 199.724C221.52 199.682 221.522 199.639 221.531 199.597C221.541 199.555 221.558 199.516 221.583 199.481C221.607 199.447 221.638 199.417 221.673 199.394C221.709 199.371 221.748 199.356 221.79 199.349C221.832 199.341 221.874 199.343 221.915 199.352C221.957 199.361 221.995 199.379 222.03 199.404C223.46 200.538 224.639 201.957 225.492 203.571C226.346 205.185 226.854 206.959 226.986 208.779C226.993 208.866 226.966 208.952 226.91 209.018C226.855 209.085 226.775 209.127 226.688 209.135L226.662 209.116Z" fill="white"/>
<path d="M225.608 212.927C225.529 212.927 225.454 212.9 225.394 212.849C225.33 212.792 225.291 212.712 225.285 212.626C225.278 212.54 225.306 212.455 225.362 212.39C225.517 212.208 229.341 207.99 238.303 209.109C238.387 209.12 238.464 209.165 238.517 209.233C238.569 209.301 238.592 209.387 238.581 209.471C238.57 209.557 238.525 209.634 238.458 209.688C238.39 209.741 238.304 209.765 238.218 209.756C229.613 208.676 225.879 212.778 225.841 212.817C225.811 212.85 225.775 212.876 225.735 212.895C225.695 212.914 225.652 212.925 225.608 212.927Z" fill="white"/>
<path d="M177.659 262.988L93.9574 214.661C88.0498 211.251 83.2617 202.102 83.2617 194.227V14.9959C83.2617 7.12141 88.0498 3.50444 93.9574 6.91436L177.659 55.2421C183.566 58.652 188.355 67.8012 188.355 75.6757V254.907C188.355 262.775 183.566 266.398 177.659 262.988Z" fill="#455A64"/>
<path d="M187.301 49.6066L103.593 1.27886C101.07 -0.176992 98.7534 -0.345224 96.9222 0.547697C96.6981 0.659963 96.4819 0.787516 96.2752 0.929453L86.8931 6.38403C88.7824 5.25171 91.2541 5.33582 93.9653 6.90167L177.667 55.2294C183.574 58.6393 188.362 67.7885 188.362 75.663V254.894C188.362 259.061 187.023 262.012 184.888 263.409L194.147 258.019C196.509 256.764 198.029 253.691 198.029 249.284V70.0531C198.029 62.1657 193.209 53.0165 187.301 49.6066Z" fill="#37474F"/>
<path d="M188.355 75.6626V254.894C188.355 259.061 187.015 262.011 184.88 263.409L194.146 258.019C196.507 256.764 198.028 253.69 198.028 249.284V70.0527L188.387 75.6497L188.355 75.6626Z" fill="#263238"/>
<path d="M197.997 83.9583L188.356 89.5228V93.871L197.997 88.2999V83.9583Z" fill="#37474F"/>
<path d="M193.77 112.875C192.909 113.373 192.21 112.842 192.21 111.697V102.347C192.219 101.763 192.365 101.188 192.636 100.67C192.906 100.152 193.295 99.705 193.77 99.3642C194.63 98.866 195.329 99.3642 195.329 100.542V109.892C195.32 110.476 195.175 111.05 194.904 111.568C194.633 112.086 194.245 112.534 193.77 112.875Z" fill="#37474F"/>
<path d="M192.206 111.722V102.346C192.215 101.762 192.36 101.188 192.631 100.67C192.902 100.152 193.29 99.7042 193.765 99.3635C193.907 99.2642 194.073 99.2036 194.245 99.1878C194.418 99.1719 194.591 99.2012 194.749 99.2729L193.578 98.6711C193.418 98.594 193.24 98.5606 193.063 98.5743C192.885 98.5879 192.715 98.6481 192.568 98.7488C192.093 99.0896 191.704 99.5367 191.432 100.055C191.16 100.573 191.013 101.147 191.002 101.732V111.075C190.978 111.311 191.014 111.549 191.107 111.768C191.2 111.986 191.346 112.177 191.533 112.324L192.756 112.971C192.561 112.831 192.408 112.641 192.311 112.421C192.214 112.202 192.178 111.96 192.206 111.722Z" fill="#455A64"/>
<path d="M193.77 135.502C192.909 136 192.21 135.502 192.21 134.324V124.974C192.22 124.39 192.366 123.816 192.636 123.298C192.907 122.78 193.295 122.333 193.77 121.992C194.63 121.493 195.329 121.992 195.329 123.176V132.519C195.321 133.104 195.176 133.678 194.905 134.196C194.635 134.715 194.246 135.162 193.77 135.502Z" fill="#37474F"/>
<path d="M192.206 134.324V124.975C192.216 124.39 192.361 123.816 192.632 123.298C192.903 122.78 193.291 122.333 193.766 121.992C193.908 121.894 194.074 121.835 194.246 121.819C194.418 121.803 194.591 121.831 194.749 121.901L193.578 121.293C193.419 121.212 193.24 121.177 193.063 121.191C192.885 121.205 192.714 121.267 192.569 121.371C192.092 121.71 191.702 122.157 191.43 122.675C191.158 123.194 191.012 123.768 191.003 124.353V133.723C190.978 133.959 191.014 134.197 191.106 134.416C191.199 134.634 191.346 134.826 191.533 134.971L192.756 135.619C192.554 135.475 192.395 135.278 192.298 135.049C192.201 134.821 192.169 134.57 192.206 134.324Z" fill="#455A64"/>
<path d="M174.734 60.2699L92.4816 12.7639C92.1383 12.5664 91.7493 12.4622 91.3533 12.4614C90.9573 12.4607 90.5679 12.5635 90.2239 12.7597C89.8799 12.9559 89.5932 13.2387 89.3922 13.5799C89.1912 13.9212 89.0829 14.3091 89.0781 14.7051V194.227C89.0781 200.219 93.3292 207.576 98.5185 210.572L178.752 256.919C179.132 257.138 179.564 257.253 180.003 257.253C180.442 257.253 180.873 257.137 181.253 256.917C181.633 256.698 181.949 256.382 182.169 256.002C182.388 255.622 182.504 255.191 182.505 254.752V73.7478C182.537 68.8044 179.03 62.7416 174.734 60.2699Z" fill="white"/>
<path d="M174.734 60.2699L92.4816 12.7639C92.1383 12.5664 91.7493 12.4622 91.3533 12.4614C90.9573 12.4607 90.5679 12.5635 90.2239 12.7597C89.8799 12.9559 89.5932 13.2387 89.3922 13.5799C89.1912 13.9212 89.0829 14.3091 89.0781 14.7051V194.227C89.0781 200.219 93.3292 207.576 98.5185 210.572L178.752 256.919C179.132 257.138 179.564 257.253 180.003 257.253C180.442 257.253 180.873 257.137 181.253 256.917C181.633 256.698 181.949 256.382 182.169 256.002C182.388 255.622 182.504 255.191 182.505 254.752V73.7478C182.537 68.8044 179.03 62.7416 174.734 60.2699Z" fill="url(#paint2_linear_1_3952)"/>
<path opacity="0.9" d="M174.734 60.2699L92.4816 12.7639C92.1383 12.5664 91.7493 12.4622 91.3533 12.4614C90.9573 12.4607 90.5679 12.5635 90.2239 12.7597C89.8799 12.9559 89.5932 13.2387 89.3922 13.5799C89.1912 13.9212 89.0829 14.3091 89.0781 14.7051V194.227C89.0781 200.219 93.3292 207.576 98.5185 210.572L178.752 256.919C179.132 257.138 179.564 257.253 180.003 257.253C180.442 257.253 180.873 257.137 181.253 256.917C181.633 256.698 181.949 256.382 182.169 256.002C182.388 255.622 182.504 255.191 182.505 254.752V73.7478C182.537 68.8044 179.03 62.7416 174.734 60.2699Z" fill="white"/>
<path d="M117.083 25.1672L118.358 30.5312L145.625 46.2544L150.335 43.7439L117.083 25.1672Z" fill="#455A64"/>
<path d="M125.101 30.3514C125.101 31.2443 124.453 31.6002 123.703 31.1602C123.3 30.8926 122.965 30.5344 122.726 30.1141C122.487 29.6938 122.349 29.2233 122.325 28.7402C122.325 27.8538 122.972 27.4914 123.722 27.9379C124.125 28.204 124.46 28.5611 124.699 28.9803C124.939 29.3996 125.076 29.8692 125.101 30.3514Z" fill="#263238"/>
<path d="M143.47 41.7063C143.32 41.7051 143.174 41.6674 143.043 41.5963L129.118 33.8318C128.922 33.7163 128.778 33.5286 128.718 33.3086C128.658 33.0887 128.686 32.854 128.797 32.6546C128.907 32.4553 129.092 32.3071 129.31 32.2418C129.528 32.1764 129.764 32.199 129.966 32.3048L143.897 40.0693C144.066 40.1634 144.199 40.3112 144.275 40.4893C144.352 40.6674 144.366 40.8658 144.318 41.0533C144.269 41.2408 144.159 41.4067 144.005 41.5249C143.852 41.6431 143.663 41.7069 143.47 41.7063Z" fill="#263238"/>
<path d="M106.33 50.1242C105.482 49.6324 104.867 50.0595 104.867 51.1401C104.867 51.6804 105.001 52.2124 105.256 52.6888C105.511 53.1651 105.88 53.5711 106.33 53.8706C106.571 54.0168 106.847 54.0941 107.129 54.0941C107.411 54.0941 107.687 54.0168 107.928 53.8706L109.28 56.3164C108.804 56.5789 108.265 56.704 107.722 56.6777C107.18 56.6514 106.655 56.4748 106.207 56.1676C105.108 55.4954 104.192 54.5628 103.54 53.4523C102.887 52.3418 102.519 51.0876 102.467 49.8007C102.467 47.4001 104.078 46.5655 106.297 47.8595C107.551 48.6666 108.577 49.7801 109.28 51.0948L107.928 52.1688C107.594 51.3527 107.041 50.6449 106.33 50.1242Z" fill="white"/>
<path d="M106.33 50.1242C105.482 49.6324 104.867 50.0595 104.867 51.1401C104.867 51.6804 105.001 52.2124 105.256 52.6888C105.511 53.1651 105.88 53.5711 106.33 53.8706C106.571 54.0168 106.847 54.0941 107.129 54.0941C107.411 54.0941 107.687 54.0168 107.928 53.8706L109.28 56.3164C108.804 56.5789 108.265 56.704 107.722 56.6777C107.18 56.6514 106.655 56.4748 106.207 56.1676C105.108 55.4954 104.192 54.5628 103.54 53.4523C102.887 52.3418 102.519 51.0876 102.467 49.8007C102.467 47.4001 104.078 46.5655 106.297 47.8595C107.551 48.6666 108.577 49.7801 109.28 51.0948L107.928 52.1688C107.594 51.3527 107.041 50.6449 106.33 50.1242Z" fill="url(#paint3_linear_1_3952)"/>
<path d="M117.065 58.2322C117.065 60.6521 115.428 61.4674 113.183 60.1733C112.053 59.498 111.107 58.554 110.43 57.4252C109.752 56.2964 109.364 55.0177 109.3 53.7029C109.3 51.2829 110.937 50.4677 113.183 51.7618C114.315 52.434 115.263 53.3773 115.941 54.5067C116.618 55.6362 117.005 56.9164 117.065 58.2322ZM111.701 55.1458C111.712 55.7013 111.855 56.2463 112.119 56.7356C112.382 57.225 112.758 57.6448 113.215 57.9604C114.017 58.4263 114.664 57.9604 114.664 56.8605C114.662 56.3174 114.529 55.7829 114.277 55.302C114.025 54.8211 113.66 54.408 113.215 54.0976C112.4 53.6252 111.701 54.0264 111.701 55.1458Z" fill="white"/>
<path d="M117.065 58.2322C117.065 60.6521 115.428 61.4674 113.183 60.1733C112.053 59.498 111.107 58.554 110.43 57.4252C109.752 56.2964 109.364 55.0177 109.3 53.7029C109.3 51.2829 110.937 50.4677 113.183 51.7618C114.315 52.434 115.263 53.3773 115.941 54.5067C116.618 55.6362 117.005 56.9164 117.065 58.2322ZM111.701 55.1458C111.712 55.7013 111.855 56.2463 112.119 56.7356C112.382 57.225 112.758 57.6448 113.215 57.9604C114.017 58.4263 114.664 57.9604 114.664 56.8605C114.662 56.3174 114.529 55.7829 114.277 55.302C114.025 54.8211 113.66 54.408 113.215 54.0976C112.4 53.6252 111.701 54.0264 111.701 55.1458Z" fill="url(#paint4_linear_1_3952)"/>
<path d="M119.672 55.6627L122.467 61.4861V57.2933L124.583 58.5162V66.6754L122.642 65.5495L119.86 59.7779V63.9449L117.731 62.7155V54.5369L119.672 55.6627Z" fill="white"/>
<path d="M119.672 55.6627L122.467 61.4861V57.2933L124.583 58.5162V66.6754L122.642 65.5495L119.86 59.7779V63.9449L117.731 62.7155V54.5369L119.672 55.6627Z" fill="url(#paint5_linear_1_3952)"/>
<path d="M131.498 62.4893V64.6245L129.479 63.4599V69.4903L127.143 68.138V62.1075L125.137 60.9493V58.8206L131.498 62.4893Z" fill="white"/>
<path d="M131.498 62.4893V64.6245L129.479 63.4599V69.4903L127.143 68.138V62.1075L125.137 60.9493V58.8206L131.498 62.4893Z" fill="url(#paint6_linear_1_3952)"/>
<path d="M136.054 72.1308L133.401 70.5973L133.039 71.542L130.645 70.1573L133.628 63.7192L136.028 65.1039L138.901 74.926L136.41 73.4896L136.054 72.1308ZM135.478 69.8662L134.754 67.0774L134.01 69.0185L135.478 69.8662Z" fill="white"/>
<path d="M136.054 72.1308L133.401 70.5973L133.039 71.542L130.645 70.1573L133.628 63.7192L136.028 65.1039L138.901 74.926L136.41 73.4896L136.054 72.1308ZM135.478 69.8662L134.754 67.0774L134.01 69.0185L135.478 69.8662Z" fill="url(#paint7_linear_1_3952)"/>
<path d="M142.609 71.069C141.761 70.5837 141.147 71.0043 141.147 72.0913C141.148 72.6315 141.282 73.1631 141.537 73.6392C141.792 74.1154 142.16 74.5216 142.609 74.8219C142.852 74.9666 143.129 75.0431 143.411 75.0431C143.694 75.0431 143.971 74.9666 144.214 74.8219L145.566 77.2677C145.088 77.5272 144.548 77.6506 144.005 77.6243C143.462 77.5981 142.937 77.4232 142.486 77.1189C141.386 76.4461 140.47 75.5125 139.818 74.4007C139.165 73.289 138.797 72.0335 138.746 70.7455C138.746 68.345 140.364 67.5103 142.577 68.8044C143.828 69.6154 144.856 70.7278 145.566 72.0396L144.214 73.1072C143.873 72.2953 143.318 71.5909 142.609 71.069Z" fill="white"/>
<path d="M142.609 71.069C141.761 70.5837 141.147 71.0043 141.147 72.0913C141.148 72.6315 141.282 73.1631 141.537 73.6392C141.792 74.1154 142.16 74.5216 142.609 74.8219C142.852 74.9666 143.129 75.0431 143.411 75.0431C143.694 75.0431 143.971 74.9666 144.214 74.8219L145.566 77.2677C145.088 77.5272 144.548 77.6506 144.005 77.6243C143.462 77.5981 142.937 77.4232 142.486 77.1189C141.386 76.4461 140.47 75.5125 139.818 74.4007C139.165 73.289 138.797 72.0335 138.746 70.7455C138.746 68.345 140.364 67.5103 142.577 68.8044C143.828 69.6154 144.856 70.7278 145.566 72.0396L144.214 73.1072C143.873 72.2953 143.318 71.5909 142.609 71.069Z" fill="url(#paint8_linear_1_3952)"/>
<path d="M151.947 74.2981V76.4269L149.928 75.2622V81.3121L147.592 79.9598V73.9293L145.586 72.7711V70.6423L151.947 74.2981Z" fill="white"/>
<path d="M151.947 74.2981V76.4269L149.928 75.2622V81.3121L147.592 79.9598V73.9293L145.586 72.7711V70.6423L151.947 74.2981Z" fill="url(#paint9_linear_1_3952)"/>
<path d="M158.853 84.3139C159.429 84.6439 159.869 84.385 159.869 83.5762V78.8722L162.211 80.2181V84.9221C162.211 87.0897 160.917 87.7367 158.846 86.5526C157.849 85.9987 157.01 85.1979 156.411 84.2269C155.811 83.256 155.471 82.1475 155.423 81.0075V76.3035L157.766 77.6558V82.3598C157.775 82.7493 157.878 83.1307 158.068 83.4711C158.257 83.8116 158.527 84.1008 158.853 84.3139Z" fill="white"/>
<path d="M158.853 84.3139C159.429 84.6439 159.869 84.385 159.869 83.5762V78.8722L162.211 80.2181V84.9221C162.211 87.0897 160.917 87.7367 158.846 86.5526C157.849 85.9987 157.01 85.1979 156.411 84.2269C155.811 83.256 155.471 82.1475 155.423 81.0075V76.3035L157.766 77.6558V82.3598C157.775 82.7493 157.878 83.1307 158.068 83.4711C158.257 83.8116 158.527 84.1008 158.853 84.3139Z" fill="url(#paint10_linear_1_3952)"/>
<path d="M165.978 84.3402C165.713 84.1914 165.544 84.1849 165.544 84.4308C165.544 85.4531 169.2 86.9284 169.2 89.8853C169.2 91.6971 167.822 91.7035 166.23 90.7847C164.831 89.9274 163.626 88.7882 162.691 87.4395L163.558 85.9125C164.269 87.0141 165.183 87.9713 166.25 88.7336C166.593 88.9342 166.813 88.9342 166.813 88.643C166.813 87.5819 163.15 86.1713 163.15 83.3049C163.15 81.6744 164.341 81.3638 166.178 82.399C167.362 83.115 168.404 84.0428 169.252 85.136L168.404 86.7019C167.704 85.8102 166.888 85.0159 165.978 84.3402Z" fill="white"/>
<path d="M165.978 84.3402C165.713 84.1914 165.544 84.1849 165.544 84.4308C165.544 85.4531 169.2 86.9284 169.2 89.8853C169.2 91.6971 167.822 91.7035 166.23 90.7847C164.831 89.9274 163.626 88.7882 162.691 87.4395L163.558 85.9125C164.269 87.0141 165.183 87.9713 166.25 88.7336C166.593 88.9342 166.813 88.9342 166.813 88.643C166.813 87.5819 163.15 86.1713 163.15 83.3049C163.15 81.6744 164.341 81.3638 166.178 82.399C167.362 83.115 168.404 84.0428 169.252 85.136L168.404 86.7019C167.704 85.8102 166.888 85.0159 165.978 84.3402Z" fill="url(#paint11_linear_1_3952)"/>
<path d="M94.5597 90.3312C97.1851 87.1068 98.5066 83.0154 98.2636 78.8645C98.0206 74.7135 96.2307 70.8043 93.247 67.9083C90.2634 65.0122 86.3026 63.3395 82.1463 63.2202C77.9899 63.101 73.9398 64.5438 70.7949 67.264C67.6501 69.9842 65.639 73.7843 65.1583 77.9145C64.6777 82.0447 65.7625 86.2051 68.1986 89.5748C70.6347 92.9445 74.2453 95.2788 78.318 96.1171C82.3907 96.9555 86.6297 96.237 90.1987 94.1035L98.2996 97.6234L94.5597 90.3312Z" fill="white"/>
<path d="M94.5597 90.3312C97.1851 87.1068 98.5066 83.0154 98.2636 78.8645C98.0206 74.7135 96.2307 70.8043 93.247 67.9083C90.2634 65.0122 86.3026 63.3395 82.1463 63.2202C77.9899 63.101 73.9398 64.5438 70.7949 67.264C67.6501 69.9842 65.639 73.7843 65.1583 77.9145C64.6777 82.0447 65.7625 86.2051 68.1986 89.5748C70.6347 92.9445 74.2453 95.2788 78.318 96.1171C82.3907 96.9555 86.6297 96.237 90.1987 94.1035L98.2996 97.6234L94.5597 90.3312Z" fill="url(#paint12_linear_1_3952)"/>
<path opacity="0.4" d="M94.5597 90.3312C97.1851 87.1068 98.5066 83.0154 98.2636 78.8645C98.0206 74.7135 96.2307 70.8043 93.247 67.9083C90.2634 65.0122 86.3026 63.3395 82.1463 63.2202C77.9899 63.101 73.9398 64.5438 70.7949 67.264C67.6501 69.9842 65.639 73.7843 65.1583 77.9145C64.6777 82.0447 65.7625 86.2051 68.1986 89.5748C70.6347 92.9445 74.2453 95.2788 78.318 96.1171C82.3907 96.9555 86.6297 96.237 90.1987 94.1035L98.2996 97.6234L94.5597 90.3312Z" fill="black"/>
<path d="M75.5112 78.9439C75.5112 78.6915 75.3301 78.5492 75.0001 78.5492C74.2347 78.6494 73.5198 78.9865 72.9554 79.5133L72.0366 77.7274C73.0038 76.9997 74.1721 76.5884 75.3818 76.5498C76.9347 76.5498 78.1124 77.3651 78.1124 78.5815C78.1124 79.4486 77.4653 80.2832 76.6371 81.1179L75.4789 82.2632H78.2159V84.1655H72.3343V82.6061L74.9548 79.895C75.2369 79.6454 75.4319 79.3121 75.5112 78.9439Z" fill="white"/>
<path d="M83.0032 76.6599L81.2173 80.9433H81.9485V79.5004H84.2002V80.9433H85.0543V82.7098H84.2002V84.1656H81.9485V82.7098H78.7456V81.1051L80.6867 76.6599H83.0032Z" fill="white"/>
<path d="M92.0048 80.4315V84.1649H89.5978V81.1238C89.6117 81.0248 89.6042 80.924 89.5758 80.8281C89.5473 80.7322 89.4987 80.6436 89.433 80.5681C89.3674 80.4927 89.2863 80.4322 89.1953 80.3908C89.1043 80.3493 89.0055 80.3279 88.9055 80.328C88.4332 80.328 88.1355 80.6968 88.1355 81.2662V84.1649H85.7285V76.2322H88.1355V79.1504C88.3238 78.8527 88.5862 78.6092 88.897 78.4436C89.2079 78.2779 89.5564 78.196 89.9084 78.2057C90.1969 78.1982 90.4837 78.2518 90.7501 78.3628C91.0165 78.4738 91.2565 78.6397 91.4543 78.8498C91.6522 79.0599 91.8035 79.3094 91.8984 79.5819C91.9932 79.8545 92.0295 80.144 92.0048 80.4315Z" fill="white"/>
<path d="M170.492 140.554V220.949C170.493 221.858 170.255 222.752 169.801 223.54C169.347 224.328 168.694 224.982 167.907 225.438C167.12 225.893 166.227 226.133 165.317 226.133C164.408 226.133 163.515 225.894 162.727 225.44L119.427 200.438L111.753 196.012C109.111 194.484 106.916 192.289 105.387 189.647C103.859 187.005 103.051 184.008 103.044 180.955V100.554C103.043 99.6443 103.281 98.7507 103.735 97.9628C104.188 97.1748 104.842 96.5203 105.629 96.065C106.416 95.6098 107.309 95.37 108.218 95.3696C109.128 95.3693 110.021 95.6085 110.808 96.0631L161.796 125.497C164.439 127.023 166.635 129.217 168.161 131.86C169.688 134.503 170.491 137.502 170.492 140.554Z" fill="white"/>
<path d="M170.492 140.554V220.949C170.493 221.858 170.255 222.752 169.801 223.54C169.347 224.328 168.694 224.982 167.907 225.438C167.12 225.893 166.227 226.133 165.317 226.133C164.408 226.133 163.515 225.894 162.727 225.44L119.427 200.438L111.753 196.012C109.111 194.484 106.916 192.289 105.387 189.647C103.859 187.005 103.051 184.008 103.044 180.955V100.554C103.043 99.6443 103.281 98.7507 103.735 97.9628C104.188 97.1748 104.842 96.5203 105.629 96.065C106.416 95.6098 107.309 95.37 108.218 95.3696C109.128 95.3693 110.021 95.6085 110.808 96.0631L161.796 125.497C164.439 127.023 166.635 129.217 168.161 131.86C169.688 134.503 170.491 137.502 170.492 140.554Z" fill="url(#paint13_linear_1_3952)"/>
<path opacity="0.5" d="M170.492 140.554V220.949C170.493 221.858 170.255 222.752 169.801 223.54C169.347 224.328 168.694 224.982 167.907 225.438C167.12 225.893 166.227 226.133 165.317 226.133C164.408 226.133 163.515 225.894 162.727 225.44L119.427 200.438L111.753 196.012C109.111 194.484 106.916 192.289 105.387 189.647C103.859 187.005 103.051 184.008 103.044 180.955V100.554C103.043 99.6443 103.281 98.7507 103.735 97.9628C104.188 97.1748 104.842 96.5203 105.629 96.065C106.416 95.6098 107.309 95.37 108.218 95.3696C109.128 95.3693 110.021 95.6085 110.808 96.0631L161.796 125.497C164.439 127.023 166.635 129.217 168.161 131.86C169.688 134.503 170.491 137.502 170.492 140.554Z" fill="white"/>
<path d="M145.55 188.125C145.55 188.125 153.657 201.571 147.801 216.731L119.409 200.438L145.55 188.125Z" fill="#263238"/>
<path d="M158.477 127.716C159.091 122.733 155.549 118.196 150.566 117.582C145.583 116.968 141.045 120.511 140.432 125.494C139.818 130.477 143.36 135.014 148.344 135.628C153.327 136.241 157.864 132.699 158.477 127.716Z" fill="#263238"/>
<path d="M149.5 101.104C149.5 101.104 152.289 96.5744 153.143 96.9044C153.997 97.2344 152.587 101.55 152.587 101.55C152.587 101.55 156.806 102.43 156.023 103.491C155.24 104.552 150.083 104.3 150.083 104.3L149.5 101.104Z" fill="#263238"/>
<path d="M151.444 112.776C149.502 127.361 137.209 127.361 137.209 127.361L111.456 116.025C111.456 116.025 109.515 114.323 108.92 110.415C108.691 108.814 108.691 107.189 108.92 105.588C108.92 105.588 108.92 105.555 108.92 105.542C109.742 99.4085 114.329 92.8151 124.319 90.7898C126.509 90.3478 128.738 90.131 130.971 90.1428C132.052 90.139 133.132 90.193 134.206 90.3046C141.971 91.0681 147.412 94.6915 150.007 100.327C150.591 101.599 151.025 102.935 151.301 104.307C151.828 107.101 151.876 109.965 151.444 112.776Z" fill="#263238"/>
<path d="M89.6216 140.989C89.6216 140.989 80.4789 140.672 76.959 149.581C76.959 149.581 80.8412 152.202 85.9335 149.581C91.0257 146.961 89.6216 140.989 89.6216 140.989Z" fill="white"/>
<path d="M89.6216 140.989C89.6216 140.989 80.4789 140.672 76.959 149.581C76.959 149.581 80.8412 152.202 85.9335 149.581C91.0257 146.961 89.6216 140.989 89.6216 140.989Z" fill="url(#paint14_linear_1_3952)"/>
<path opacity="0.5" d="M89.6216 140.989C89.6216 140.989 80.4789 140.672 76.959 149.581C76.959 149.581 80.8412 152.202 85.9335 149.581C91.0257 146.961 89.6216 140.989 89.6216 140.989Z" fill="black"/>
<path d="M89.3595 145.278C89.3595 145.278 86.7713 134.032 85.4061 133.896C84.0408 133.76 83.7755 137.325 83.8855 139.338L80.6503 132.375C80.5477 132.159 80.4018 131.966 80.2217 131.808C80.0416 131.65 79.8311 131.531 79.6032 131.458C79.3752 131.384 79.1347 131.359 78.8963 131.382C78.658 131.405 78.4269 131.477 78.2174 131.593C74.9822 133.372 69.3076 138.781 81.2714 152.156L89.3595 145.278Z" fill="#F7D3B9"/>
<path d="M122.488 137.501L120.547 137.249C118.59 136.989 116.6 137.255 114.781 138.02C112.961 138.784 111.378 140.018 110.194 141.597L98.6441 156.971L89.5855 140.989C89.5855 140.989 88.4985 151.859 76.9229 149.581L89.3526 170.5C90.1392 171.825 91.2341 172.939 92.5441 173.75C93.854 174.56 95.3404 175.042 96.8766 175.154C98.4128 175.267 99.9534 175.006 101.367 174.396C102.781 173.785 104.027 172.841 104.998 171.646L115.635 158.569L122.488 137.501Z" fill="white"/>
<path d="M122.488 137.501L120.547 137.249C118.59 136.989 116.6 137.255 114.781 138.02C112.961 138.784 111.378 140.018 110.194 141.597L98.6441 156.971L89.5855 140.989C89.5855 140.989 88.4985 151.859 76.9229 149.581L89.3526 170.5C90.1392 171.825 91.2341 172.939 92.5441 173.75C93.854 174.56 95.3404 175.042 96.8766 175.154C98.4128 175.267 99.9534 175.006 101.367 174.396C102.781 173.785 104.027 172.841 104.998 171.646L115.635 158.569L122.488 137.501Z" fill="url(#paint15_linear_1_3952)"/>
<path d="M147.141 173.379C144.553 179.94 144.268 181.222 145.847 184.502C146.947 186.925 147.813 189.447 148.435 192.034C148.435 192.034 136.439 205.479 119.364 200.445L111.69 196.019C110.094 195.099 108.656 193.928 107.432 192.551L109.768 175.133C109.886 174.216 109.793 173.284 109.496 172.409L107.044 165.22C105.847 161.709 105.669 157.931 106.53 154.323C107.391 150.715 109.256 147.424 111.91 144.832L120.153 136.776L141.803 139.545L145.038 140.471C147.156 141.083 148.982 142.44 150.18 144.29C151.379 146.141 151.869 148.362 151.561 150.545C150.499 158.18 148.765 169.258 147.141 173.379Z" fill="white"/>
<path d="M147.141 173.379C144.553 179.94 144.268 181.222 145.847 184.502C146.947 186.925 147.813 189.447 148.435 192.034C148.435 192.034 136.439 205.479 119.364 200.445L111.69 196.019C110.094 195.099 108.656 193.928 107.432 192.551L109.768 175.133C109.886 174.216 109.793 173.284 109.496 172.409L107.044 165.22C105.847 161.709 105.669 157.931 106.53 154.323C107.391 150.715 109.256 147.424 111.91 144.832L120.153 136.776L141.803 139.545L145.038 140.471C147.156 141.083 148.982 142.44 150.18 144.29C151.379 146.141 151.869 148.362 151.561 150.545C150.499 158.18 148.765 169.258 147.141 173.379Z" fill="url(#paint16_linear_1_3952)"/>
<path opacity="0.5" d="M147.141 173.379C144.553 179.94 144.268 181.222 145.847 184.502C146.947 186.925 147.813 189.447 148.435 192.034C148.435 192.034 136.439 205.479 119.364 200.445L111.69 196.019C110.094 195.099 108.656 193.928 107.432 192.551L109.768 175.133C109.886 174.216 109.793 173.284 109.496 172.409L107.044 165.22C105.847 161.709 105.669 157.931 106.53 154.323C107.391 150.715 109.256 147.424 111.91 144.832L120.153 136.776L141.803 139.545L145.038 140.471C147.156 141.083 148.982 142.44 150.18 144.29C151.379 146.141 151.869 148.362 151.561 150.545C150.499 158.18 148.765 169.258 147.141 173.379Z" fill="black"/>
<path d="M134.085 153.78L129.75 150.085C129.291 149.692 128.737 149.426 128.144 149.312C127.55 149.199 126.938 149.242 126.366 149.438L121.125 151.243L120.42 148.306C120.309 147.849 120.108 147.419 119.827 147.041C119.546 146.664 119.192 146.348 118.786 146.112C118.38 145.875 117.93 145.724 117.463 145.666C116.997 145.608 116.523 145.645 116.071 145.776L113.8 146.423L117.644 139.059C118.899 136.661 120.832 134.685 123.202 133.378L124.709 132.55L137.165 133.197C137.165 133.197 141.804 135.138 141.804 139.506L134.085 153.741" fill="white"/>
<path d="M134.085 153.78L129.75 150.085C129.291 149.692 128.737 149.426 128.144 149.312C127.55 149.199 126.938 149.242 126.366 149.438L121.125 151.243L120.42 148.306C120.309 147.849 120.108 147.419 119.827 147.041C119.546 146.664 119.192 146.348 118.786 146.112C118.38 145.875 117.93 145.724 117.463 145.666C116.997 145.608 116.523 145.645 116.071 145.776L113.8 146.423L117.644 139.059C118.899 136.661 120.832 134.685 123.202 133.378L124.709 132.55L137.165 133.197C137.165 133.197 141.804 135.138 141.804 139.506L134.085 153.741" fill="url(#paint17_linear_1_3952)"/>
<path d="M137.216 138.717L124.728 148.448V117.461H137.216V138.717Z" fill="#F7D3B9"/>
<path d="M124.92 136.161L121.122 151.269L137.162 138.717L124.92 136.161Z" fill="#F7D3B9"/>
<path d="M124.727 133.916C127.504 132.885 130.042 131.3 132.188 129.258C134.334 127.216 136.042 124.759 137.209 122.036V117.462H124.721L124.727 133.916Z" fill="#DAAA87"/>
<path d="M127.419 94.4978C122.683 94.4978 112.615 97.1377 111.45 109.535C110.285 121.932 111.411 131.535 117.804 132.466C124.197 133.398 139.053 128.759 141.046 112.712C143.039 96.6654 132.032 94.4978 127.419 94.4978Z" fill="#F7D3B9"/>
<path d="M119.968 114.783V122.088L115.685 120.774L119.968 114.783Z" fill="#DAAA87"/>
<path d="M124.729 117.533C125.551 117.533 126.217 116.866 126.217 116.044C126.217 115.222 125.551 114.556 124.729 114.556C123.907 114.556 123.241 115.222 123.241 116.044C123.241 116.866 123.907 117.533 124.729 117.533Z" fill="#263238"/>
<path d="M116.418 115.009C116.417 115.303 116.328 115.59 116.164 115.834C116 116.078 115.767 116.267 115.495 116.379C115.223 116.491 114.924 116.519 114.635 116.461C114.347 116.403 114.082 116.261 113.875 116.052C113.668 115.844 113.526 115.579 113.47 115.29C113.413 115.002 113.442 114.703 113.555 114.431C113.668 114.16 113.859 113.928 114.103 113.765C114.348 113.601 114.636 113.514 114.93 113.514C115.126 113.514 115.32 113.553 115.501 113.628C115.682 113.703 115.846 113.813 115.984 113.952C116.122 114.091 116.232 114.256 116.306 114.437C116.381 114.619 116.419 114.813 116.418 115.009Z" fill="#263238"/>
<path d="M113.111 111.904L116.022 110.176C116.022 110.176 114.91 109.018 113.797 109.71C112.684 110.402 113.111 111.904 113.111 111.904Z" fill="#263238"/>
<path d="M117.954 125.052C119.372 125.155 120.783 124.777 121.959 123.978C121.959 123.978 122.238 126.094 120.465 126.495C118.692 126.896 117.954 125.052 117.954 125.052Z" fill="#DAAA87"/>
<path d="M115.409 98.7168C115.409 98.7168 117.188 115.831 140.462 116.368C140.462 116.368 147.496 99.3574 133.597 93.8317C119.699 88.3059 115.409 98.7168 115.409 98.7168Z" fill="#263238"/>
<path d="M147.314 113.806L144.454 112.149C143.367 111.502 141.866 111.593 140.203 112.551C136.903 114.453 134.224 119.092 134.224 122.903C134.224 124.812 134.871 126.139 135.984 126.786L138.792 128.403L138.954 128.494L139.051 128.552C140.112 129.07 141.529 128.947 143.089 128.047C146.389 126.106 149.067 121.506 149.067 117.695C149.048 115.766 148.381 114.434 147.314 113.806Z" fill="white"/>
<path d="M147.314 113.806L144.454 112.149C143.367 111.502 141.866 111.593 140.203 112.551C136.903 114.453 134.224 119.092 134.224 122.903C134.224 124.812 134.871 126.139 135.984 126.786L138.792 128.403L138.954 128.494L139.051 128.552C140.112 129.07 141.529 128.947 143.089 128.047C146.389 126.106 149.067 121.506 149.067 117.695C149.048 115.766 148.381 114.434 147.314 113.806Z" fill="url(#paint18_linear_1_3952)"/>
<path d="M147.293 123.552C149.626 119.51 149.626 115.141 147.293 113.794C144.959 112.447 141.176 114.631 138.842 118.673C136.509 122.715 136.509 127.083 138.842 128.431C141.176 129.778 144.959 127.593 147.293 123.552Z" fill="white"/>
<path d="M147.293 123.552C149.626 119.51 149.626 115.141 147.293 113.794C144.959 112.447 141.176 114.631 138.842 118.673C136.509 122.715 136.509 127.083 138.842 128.431C141.176 129.778 144.959 127.593 147.293 123.552Z" fill="url(#paint19_linear_1_3952)"/>
<path opacity="0.5" d="M147.293 123.552C149.626 119.51 149.626 115.141 147.293 113.794C144.959 112.447 141.176 114.631 138.842 118.673C136.509 122.715 136.509 127.083 138.842 128.431C141.176 129.778 144.959 127.593 147.293 123.552Z" fill="black"/>
<path d="M148.459 117.397L146.518 116.265C145.78 115.825 144.751 115.883 143.612 116.537C142.423 117.314 141.433 118.36 140.722 119.591C140.012 120.822 139.601 122.203 139.523 123.622C139.523 124.916 139.982 125.841 140.726 126.268L142.668 127.375C142.702 127.4 142.739 127.421 142.778 127.439L142.842 127.478C143.297 127.651 143.788 127.709 144.27 127.648C144.753 127.587 145.214 127.409 145.612 127.129C146.8 126.352 147.79 125.306 148.5 124.077C149.211 122.847 149.622 121.468 149.701 120.05C149.649 118.736 149.196 117.824 148.459 117.397Z" fill="white"/>
<path d="M148.459 117.397L146.518 116.265C145.78 115.825 144.751 115.883 143.612 116.537C142.423 117.314 141.433 118.36 140.722 119.591C140.012 120.822 139.601 122.203 139.523 123.622C139.523 124.916 139.982 125.841 140.726 126.268L142.668 127.375C142.702 127.4 142.739 127.421 142.778 127.439L142.842 127.478C143.297 127.651 143.788 127.709 144.27 127.648C144.753 127.587 145.214 127.409 145.612 127.129C146.8 126.352 147.79 125.306 148.5 124.077C149.211 122.847 149.622 121.468 149.701 120.05C149.649 118.736 149.196 117.824 148.459 117.397Z" fill="url(#paint20_linear_1_3952)"/>
<path d="M149.65 120.038C149.571 121.455 149.16 122.835 148.449 124.064C147.739 125.294 146.749 126.339 145.561 127.116C143.296 128.41 141.465 127.362 141.465 124.754C141.542 123.335 141.953 121.954 142.664 120.724C143.376 119.494 144.369 118.45 145.561 117.676C147.819 116.369 149.65 117.423 149.65 120.038Z" fill="white"/>
<path d="M149.65 120.038C149.571 121.455 149.16 122.835 148.449 124.064C147.739 125.294 146.749 126.339 145.561 127.116C143.296 128.41 141.465 127.362 141.465 124.754C141.542 123.335 141.953 121.954 142.664 120.724C143.376 119.494 144.369 118.45 145.561 117.676C147.819 116.369 149.65 117.423 149.65 120.038Z" fill="url(#paint21_linear_1_3952)"/>
<path opacity="0.3" d="M149.65 120.038C149.571 121.455 149.16 122.835 148.449 124.064C147.739 125.294 146.749 126.339 145.561 127.116C143.296 128.41 141.465 127.362 141.465 124.754C141.542 123.335 141.953 121.954 142.664 120.724C143.376 119.494 144.369 118.45 145.561 117.676C147.819 116.369 149.65 117.423 149.65 120.038Z" fill="black"/>
<path d="M138.432 91.1591C136.577 89.7264 134.305 88.9381 131.962 88.9139H131.386C129.012 88.8883 126.643 89.1051 124.313 89.5609C124.741 89.5609 125.168 89.5609 125.608 89.5609H124.313V90.7644H125.517C129.665 90.9055 133.595 92.6539 136.477 95.6399C139.359 98.6259 140.968 102.616 140.962 106.766V111.858C140.962 112.059 141.004 112.258 141.086 112.442C141.167 112.626 141.287 112.791 141.436 112.926C141.586 113.061 141.762 113.163 141.953 113.225C142.145 113.287 142.347 113.309 142.547 113.288H142.696L143.99 112.887C143.904 112.914 143.815 112.931 143.725 112.939C144.111 112.886 144.464 112.694 144.717 112.398C144.97 112.102 145.105 111.723 145.097 111.334V106.611C145.084 98.0631 141.389 93.4691 138.432 91.1591Z" fill="white"/>
<path d="M138.432 91.1591C136.577 89.7264 134.305 88.9381 131.962 88.9139H131.386C129.012 88.8883 126.643 89.1051 124.313 89.5609C124.741 89.5609 125.168 89.5609 125.608 89.5609H124.313V90.7644H125.517C129.665 90.9055 133.595 92.6539 136.477 95.6399C139.359 98.6259 140.968 102.616 140.962 106.766V111.858C140.962 112.059 141.004 112.258 141.086 112.442C141.167 112.626 141.287 112.791 141.436 112.926C141.586 113.061 141.762 113.163 141.953 113.225C142.145 113.287 142.347 113.309 142.547 113.288H142.696L143.99 112.887C143.904 112.914 143.815 112.931 143.725 112.939C144.111 112.886 144.464 112.694 144.717 112.398C144.97 112.102 145.105 111.723 145.097 111.334V106.611C145.084 98.0631 141.389 93.4691 138.432 91.1591Z" fill="url(#paint22_linear_1_3952)"/>
<path d="M130.283 132.111C129.75 132.111 129.222 131.996 128.737 131.774L124.693 129.904C124.63 129.882 124.572 129.846 124.523 129.8C124.474 129.754 124.436 129.698 124.409 129.636C124.383 129.574 124.37 129.508 124.371 129.441C124.372 129.374 124.387 129.307 124.415 129.246C124.443 129.185 124.483 129.13 124.533 129.086C124.583 129.041 124.642 129.007 124.706 128.986C124.77 128.965 124.837 128.958 124.904 128.965C124.971 128.971 125.036 128.992 125.094 129.024L129.138 130.894C129.654 131.134 130.232 131.207 130.791 131.103C131.35 130.998 131.863 130.722 132.257 130.312L136.139 126.3C136.23 126.209 136.354 126.158 136.482 126.158C136.611 126.158 136.734 126.209 136.825 126.3C136.914 126.392 136.964 126.515 136.964 126.643C136.964 126.771 136.914 126.894 136.825 126.986L132.943 130.998C132.597 131.353 132.184 131.634 131.727 131.825C131.27 132.017 130.779 132.114 130.283 132.111Z" fill="white"/>
<path d="M130.283 132.111C129.75 132.111 129.222 131.996 128.737 131.774L124.693 129.904C124.63 129.882 124.572 129.846 124.523 129.8C124.474 129.754 124.436 129.698 124.409 129.636C124.383 129.574 124.37 129.508 124.371 129.441C124.372 129.374 124.387 129.307 124.415 129.246C124.443 129.185 124.483 129.13 124.533 129.086C124.583 129.041 124.642 129.007 124.706 128.986C124.77 128.965 124.837 128.958 124.904 128.965C124.971 128.971 125.036 128.992 125.094 129.024L129.138 130.894C129.654 131.134 130.232 131.207 130.791 131.103C131.35 130.998 131.863 130.722 132.257 130.312L136.139 126.3C136.23 126.209 136.354 126.158 136.482 126.158C136.611 126.158 136.734 126.209 136.825 126.3C136.914 126.392 136.964 126.515 136.964 126.643C136.964 126.771 136.914 126.894 136.825 126.986L132.943 130.998C132.597 131.353 132.184 131.634 131.727 131.825C131.27 132.017 130.779 132.114 130.283 132.111Z" fill="url(#paint23_linear_1_3952)"/>
<path opacity="0.5" d="M130.283 132.111C129.75 132.111 129.222 131.996 128.737 131.774L124.693 129.904C124.63 129.882 124.572 129.846 124.523 129.8C124.474 129.754 124.436 129.698 124.409 129.636C124.383 129.574 124.37 129.508 124.371 129.441C124.372 129.374 124.387 129.307 124.415 129.246C124.443 129.185 124.483 129.13 124.533 129.086C124.583 129.041 124.642 129.007 124.706 128.986C124.77 128.965 124.837 128.958 124.904 128.965C124.971 128.971 125.036 128.992 125.094 129.024L129.138 130.894C129.654 131.134 130.232 131.207 130.791 131.103C131.35 130.998 131.863 130.722 132.257 130.312L136.139 126.3C136.23 126.209 136.354 126.158 136.482 126.158C136.611 126.158 136.734 126.209 136.825 126.3C136.914 126.392 136.964 126.515 136.964 126.643C136.964 126.771 136.914 126.894 136.825 126.986L132.943 130.998C132.597 131.353 132.184 131.634 131.727 131.825C131.27 132.017 130.779 132.114 130.283 132.111Z" fill="black"/>
<path d="M125.754 128.546C125.754 128.919 125.643 129.285 125.435 129.595C125.228 129.906 124.933 130.148 124.587 130.291C124.242 130.434 123.862 130.472 123.496 130.399C123.129 130.326 122.793 130.146 122.528 129.882C122.264 129.617 122.084 129.281 122.011 128.914C121.939 128.548 121.976 128.168 122.119 127.823C122.262 127.477 122.504 127.182 122.815 126.975C123.125 126.767 123.491 126.656 123.864 126.656C124.366 126.656 124.846 126.855 125.2 127.21C125.555 127.564 125.754 128.045 125.754 128.546Z" fill="white"/>
<path d="M125.754 128.546C125.754 128.919 125.643 129.285 125.435 129.595C125.228 129.906 124.933 130.148 124.587 130.291C124.242 130.434 123.862 130.472 123.496 130.399C123.129 130.326 122.793 130.146 122.528 129.882C122.264 129.617 122.084 129.281 122.011 128.914C121.939 128.548 121.976 128.168 122.119 127.823C122.262 127.477 122.504 127.182 122.815 126.975C123.125 126.767 123.491 126.656 123.864 126.656C124.366 126.656 124.846 126.855 125.2 127.21C125.555 127.564 125.754 128.045 125.754 128.546Z" fill="url(#paint24_linear_1_3952)"/>
<path opacity="0.5" d="M125.754 128.546C125.754 128.919 125.643 129.285 125.435 129.595C125.228 129.906 124.933 130.148 124.587 130.291C124.242 130.434 123.862 130.472 123.496 130.399C123.129 130.326 122.793 130.146 122.528 129.882C122.264 129.617 122.084 129.281 122.011 128.914C121.939 128.548 121.976 128.168 122.119 127.823C122.262 127.477 122.504 127.182 122.815 126.975C123.125 126.767 123.491 126.656 123.864 126.656C124.366 126.656 124.846 126.855 125.2 127.21C125.555 127.564 125.754 128.045 125.754 128.546Z" fill="black"/>
<path d="M145.084 106.61V111.334C145.092 111.723 144.957 112.102 144.704 112.398C144.451 112.694 144.098 112.886 143.712 112.938C143.499 112.961 143.284 112.939 143.08 112.873C142.876 112.806 142.688 112.698 142.529 112.555C142.369 112.411 142.242 112.236 142.155 112.04C142.068 111.844 142.023 111.632 142.023 111.418V106.61C142.027 104.316 141.567 102.044 140.669 99.9326C139.772 97.8207 138.457 95.9122 136.804 94.3218C135.15 92.7315 133.191 91.4921 131.046 90.6783C128.901 89.8646 126.613 89.4932 124.32 89.5866C126.65 89.1308 129.019 88.914 131.393 88.9395H131.955C134.299 88.9637 136.571 89.752 138.426 91.1848C141.389 93.4688 145.084 98.0628 145.084 106.61Z" fill="white"/>
<path d="M145.084 106.61V111.334C145.092 111.723 144.957 112.102 144.704 112.398C144.451 112.694 144.098 112.886 143.712 112.938C143.499 112.961 143.284 112.939 143.08 112.873C142.876 112.806 142.688 112.698 142.529 112.555C142.369 112.411 142.242 112.236 142.155 112.04C142.068 111.844 142.023 111.632 142.023 111.418V106.61C142.027 104.316 141.567 102.044 140.669 99.9326C139.772 97.8207 138.457 95.9122 136.804 94.3218C135.15 92.7315 133.191 91.4921 131.046 90.6783C128.901 89.8646 126.613 89.4932 124.32 89.5866C126.65 89.1308 129.019 88.914 131.393 88.9395H131.955C134.299 88.9637 136.571 89.752 138.426 91.1848C141.389 93.4688 145.084 98.0628 145.084 106.61Z" fill="url(#paint25_linear_1_3952)"/>
<path opacity="0.5" d="M145.084 106.61V111.334C145.092 111.723 144.957 112.102 144.704 112.398C144.451 112.694 144.098 112.886 143.712 112.938C143.499 112.961 143.284 112.939 143.08 112.873C142.876 112.806 142.688 112.698 142.529 112.555C142.369 112.411 142.242 112.236 142.155 112.04C142.068 111.844 142.023 111.632 142.023 111.418V106.61C142.027 104.316 141.567 102.044 140.669 99.9326C139.772 97.8207 138.457 95.9122 136.804 94.3218C135.15 92.7315 133.191 91.4921 131.046 90.6783C128.901 89.8646 126.613 89.4932 124.32 89.5866C126.65 89.1308 129.019 88.914 131.393 88.9395H131.955C134.299 88.9637 136.571 89.752 138.426 91.1848C141.389 93.4688 145.084 98.0628 145.084 106.61Z" fill="black"/>
<path d="M137.807 195.625C137.807 195.625 134.676 204.25 145.87 208.132C145.87 208.132 149.525 202.761 145.87 198.368C142.214 193.975 137.807 195.625 137.807 195.625Z" fill="white"/>
<path d="M137.807 195.625C137.807 195.625 134.676 204.25 145.87 208.132C145.87 208.132 149.525 202.761 145.87 198.368C142.214 193.975 137.807 195.625 137.807 195.625Z" fill="url(#paint26_linear_1_3952)"/>
<path opacity="0.7" d="M137.807 195.625C137.807 195.625 134.676 204.25 145.87 208.132C145.87 208.132 149.525 202.761 145.87 198.368C142.214 193.975 137.807 195.625 137.807 195.625Z" fill="black"/>
<path d="M141.736 196.019C141.736 196.019 130.801 200.024 130.859 201.577C130.917 203.13 135.505 202.069 135.505 202.069L133.829 203.169C132.064 204.32 130.697 205.988 129.914 207.944C129.744 208.375 129.738 208.855 129.897 209.29C130.057 209.726 130.372 210.087 130.781 210.306L134.935 212.506C135.17 212.63 135.427 212.706 135.692 212.73C135.956 212.753 136.223 212.723 136.475 212.642C136.728 212.56 136.962 212.429 137.163 212.256C137.364 212.082 137.529 211.87 137.646 211.632C137.878 211.175 138.198 210.768 138.588 210.434C138.978 210.101 139.43 209.849 139.918 209.691C142.176 208.941 146.388 206.779 148.077 200.865L141.736 196.019Z" fill="#F7D3B9"/>
<path d="M145.018 140.457C145.018 140.457 139.195 143.692 142.288 153.515C145.38 163.337 151.184 178.575 151.184 178.575L137.81 195.624C139.239 195.797 140.615 196.268 141.85 197.009C143.084 197.749 144.148 198.741 144.973 199.921C145.763 201.12 146.257 202.49 146.413 203.918C146.569 205.345 146.384 206.79 145.872 208.132L162.475 186.779C164.011 184.806 165.03 182.481 165.441 180.015C165.853 177.549 165.643 175.019 164.831 172.654L157.713 151.871C156.843 149.332 155.397 147.029 153.489 145.142C151.581 143.256 149.262 141.836 146.713 140.994L145.018 140.457Z" fill="white"/>
<path d="M145.018 140.457C145.018 140.457 139.195 143.692 142.288 153.515C145.38 163.337 151.184 178.575 151.184 178.575L137.81 195.624C139.239 195.797 140.615 196.268 141.85 197.009C143.084 197.749 144.148 198.741 144.973 199.921C145.763 201.12 146.257 202.49 146.413 203.918C146.569 205.345 146.384 206.79 145.872 208.132L162.475 186.779C164.011 184.806 165.03 182.481 165.441 180.015C165.853 177.549 165.643 175.019 164.831 172.654L157.713 151.871C156.843 149.332 155.397 147.029 153.489 145.142C151.581 143.256 149.262 141.836 146.713 140.994L145.018 140.457Z" fill="url(#paint27_linear_1_3952)"/>
<path d="M46.7218 82.4368L20.9889 67.5548C20.6928 67.3495 20.3501 67.2213 19.992 67.1818C19.6339 67.1423 19.2715 67.1926 18.9378 67.3283C18.8674 67.3608 18.8003 67.3998 18.7372 67.4448L13.1403 70.7253H13.1791C12.4738 71.1265 12.0273 72.0582 12.0273 73.3911V102.016C12.0273 104.436 13.4961 107.251 15.3143 108.299L41.0473 123.181C41.3738 123.417 41.7624 123.552 42.165 123.57C42.5676 123.587 42.9664 123.486 43.3119 123.278C43.2944 123.285 43.2789 123.296 43.2666 123.311L48.8247 120.075C49.5494 119.687 50.0088 118.742 50.0088 117.39V88.7196C50.0088 86.2996 48.5659 83.485 46.7218 82.4368Z" fill="white"/>
<path d="M46.7218 82.4368L20.9889 67.5548C20.6928 67.3495 20.3501 67.2213 19.992 67.1818C19.6339 67.1423 19.2715 67.1926 18.9378 67.3283C18.8674 67.3608 18.8003 67.3998 18.7372 67.4448L13.1403 70.7253H13.1791C12.4738 71.1265 12.0273 72.0582 12.0273 73.3911V102.016C12.0273 104.436 13.4961 107.251 15.3143 108.299L41.0473 123.181C41.3738 123.417 41.7624 123.552 42.165 123.57C42.5676 123.587 42.9664 123.486 43.3119 123.278C43.2944 123.285 43.2789 123.296 43.2666 123.311L48.8247 120.075C49.5494 119.687 50.0088 118.742 50.0088 117.39V88.7196C50.0088 86.2996 48.5659 83.485 46.7218 82.4368Z" fill="url(#paint28_linear_1_3952)"/>
<path d="M49.0879 85.1476C48.5673 84.0404 47.7469 83.1013 46.7198 82.4365L20.9868 67.5545C20.6907 67.3493 20.3481 67.2211 19.9899 67.1815C19.6318 67.142 19.2695 67.1924 18.9357 67.3281C18.8653 67.3605 18.7982 67.3995 18.7351 67.4445L13.1382 70.725C13.4806 70.55 13.8645 70.4726 14.2479 70.5011C14.6313 70.5296 14.9996 70.6631 15.3123 70.8868L41.0452 85.7688C42.1073 86.4632 42.9491 87.4464 43.4716 88.6029L49.0879 85.1476Z" fill="white"/>
<path d="M49.0879 85.1476C48.5673 84.0404 47.7469 83.1013 46.7198 82.4365L20.9868 67.5545C20.6907 67.3493 20.3481 67.2211 19.9899 67.1815C19.6318 67.142 19.2695 67.1924 18.9357 67.3281C18.8653 67.3605 18.7982 67.3995 18.7351 67.4445L13.1382 70.725C13.4806 70.55 13.8645 70.4726 14.2479 70.5011C14.6313 70.5296 14.9996 70.6631 15.3123 70.8868L41.0452 85.7688C42.1073 86.4632 42.9491 87.4464 43.4716 88.6029L49.0879 85.1476Z" fill="url(#paint29_linear_1_3952)"/>
<path d="M44.3347 120.665C44.3347 121.959 43.9206 122.858 43.2671 123.253L48.8252 120.018C49.5499 119.629 50.0093 118.685 50.0093 117.332V88.7201C49.9819 87.4747 49.6675 86.2524 49.0905 85.1484L43.4741 88.6037C44.0134 89.6751 44.3074 90.8532 44.3347 92.0524V120.665Z" fill="white"/>
<path d="M44.3347 120.665C44.3347 121.959 43.9206 122.858 43.2671 123.253L48.8252 120.018C49.5499 119.629 50.0093 118.685 50.0093 117.332V88.7201C49.9819 87.4747 49.6675 86.2524 49.0905 85.1484L43.4741 88.6037C44.0134 89.6751 44.3074 90.8532 44.3347 92.0524V120.665Z" fill="url(#paint30_linear_1_3952)"/>
<path opacity="0.3" d="M49.0879 85.1476C48.5673 84.0404 47.7469 83.1013 46.7198 82.4365L20.9868 67.5545C20.6907 67.3493 20.3481 67.2211 19.9899 67.1815C19.6318 67.142 19.2695 67.1924 18.9357 67.3281C18.8653 67.3605 18.7982 67.3995 18.7351 67.4445L13.1382 70.725C13.4806 70.55 13.8645 70.4726 14.2479 70.5011C14.6313 70.5296 14.9996 70.6631 15.3123 70.8868L41.0452 85.7688C42.1073 86.4632 42.9491 87.4464 43.4716 88.6029L49.0879 85.1476Z" fill="black"/>
<path opacity="0.6" d="M44.3347 120.665C44.3347 121.959 43.9206 122.858 43.2671 123.253L48.8252 120.018C49.5499 119.629 50.0093 118.685 50.0093 117.332V88.7201C49.9819 87.4747 49.6675 86.2524 49.0905 85.1484L43.4741 88.6037C44.0134 89.6751 44.3074 90.8532 44.3347 92.0524V120.665Z" fill="black"/>
<path d="M36.7863 100.25C36.7863 103.958 35.3175 105.22 33.1176 103.945C32.5107 103.599 31.98 103.135 31.5575 102.579C31.1349 102.023 30.8292 101.387 30.6588 100.71C30.0118 101.505 29.0088 101.557 27.5983 100.742C25.2819 99.4026 23.4572 96.2127 23.4572 93.1133C23.4572 90.014 25.2625 88.9464 27.5983 90.2922C28.7836 90.9908 29.741 92.0179 30.3547 93.2492V92.0263L32.794 93.4369V100.14C32.7577 100.493 32.8187 100.849 32.9704 101.169C33.1222 101.49 33.3588 101.763 33.6546 101.958C34.4764 102.437 34.9811 101.628 34.9811 99.2279C34.9811 95.0286 32.2894 90.5769 28.31 88.2799C24.3307 85.9829 21.6455 87.5811 21.6455 91.9034C21.6976 94.1969 22.3296 96.4398 23.4825 98.4232C24.6354 100.407 26.2717 102.066 28.2389 103.246C29.307 103.904 30.5199 104.291 31.7717 104.372L32.3476 106.604C30.89 106.487 29.4814 106.023 28.2389 105.252C23.0625 102.256 19.6396 96.2256 19.6396 90.7646C19.6396 85.3035 23.0949 83.3236 28.31 86.3388C33.3505 89.244 36.7863 95.0609 36.7863 100.25ZM30.3935 97.1379C30.4061 96.3175 30.2059 95.5077 29.8124 94.7877C29.4189 94.0676 28.8456 93.4618 28.1483 93.0292C26.8542 92.2722 25.9289 92.8027 25.9289 94.5627C25.9123 95.3845 26.1078 96.1967 26.4965 96.921C26.8853 97.6452 27.4542 98.257 28.1483 98.6973C29.4424 99.4285 30.3935 98.9561 30.3935 97.1379Z" fill="white"/>
<path d="M36.7863 100.25C36.7863 103.958 35.3175 105.22 33.1176 103.945C32.5107 103.599 31.98 103.135 31.5575 102.579C31.1349 102.023 30.8292 101.387 30.6588 100.71C30.0118 101.505 29.0088 101.557 27.5983 100.742C25.2819 99.4026 23.4572 96.2127 23.4572 93.1133C23.4572 90.014 25.2625 88.9464 27.5983 90.2922C28.7836 90.9908 29.741 92.0179 30.3547 93.2492V92.0263L32.794 93.4369V100.14C32.7577 100.493 32.8187 100.849 32.9704 101.169C33.1222 101.49 33.3588 101.763 33.6546 101.958C34.4764 102.437 34.9811 101.628 34.9811 99.2279C34.9811 95.0286 32.2894 90.5769 28.31 88.2799C24.3307 85.9829 21.6455 87.5811 21.6455 91.9034C21.6976 94.1969 22.3296 96.4398 23.4825 98.4232C24.6354 100.407 26.2717 102.066 28.2389 103.246C29.307 103.904 30.5199 104.291 31.7717 104.372L32.3476 106.604C30.89 106.487 29.4814 106.023 28.2389 105.252C23.0625 102.256 19.6396 96.2256 19.6396 90.7646C19.6396 85.3035 23.0949 83.3236 28.31 86.3388C33.3505 89.244 36.7863 95.0609 36.7863 100.25ZM30.3935 97.1379C30.4061 96.3175 30.2059 95.5077 29.8124 94.7877C29.4189 94.0676 28.8456 93.4618 28.1483 93.0292C26.8542 92.2722 25.9289 92.8027 25.9289 94.5627C25.9123 95.3845 26.1078 96.1967 26.4965 96.921C26.8853 97.6452 27.4542 98.257 28.1483 98.6973C29.4424 99.4285 30.3935 98.9561 30.3935 97.1379Z" fill="url(#paint31_linear_1_3952)"/>
<g opacity="0.9">
<path d="M36.7892 100.25C36.7892 103.958 35.3204 105.22 33.1205 103.945C32.5136 103.599 31.9829 103.135 31.5604 102.579C31.1378 102.023 30.8321 101.387 30.6617 100.71C30.0147 101.505 29.0118 101.557 27.6012 100.742C25.2848 99.4026 23.4601 96.2127 23.4601 93.1133C23.4601 90.014 25.2654 88.9464 27.6012 90.2922C28.7865 90.9908 29.7439 92.0179 30.3576 93.2492V92.0263L32.797 93.4369V100.14C32.7607 100.493 32.8217 100.849 32.9734 101.169C33.1251 101.49 33.3617 101.763 33.6575 101.958C34.4793 102.437 34.984 101.628 34.984 99.2279C34.984 95.0286 32.2923 90.5769 28.313 88.2799C24.3336 85.9829 21.6484 87.5811 21.6484 91.9034C21.7005 94.1969 22.3325 96.4398 23.4854 98.4232C24.6383 100.407 26.2746 102.066 28.2418 103.246C29.3099 103.904 30.5228 104.291 31.7746 104.372L32.3505 106.604C30.8929 106.487 29.4843 106.023 28.2418 105.252C23.0654 102.256 19.6426 96.2256 19.6426 90.7646C19.6426 85.3035 23.0978 83.3236 28.313 86.3388C33.3534 89.244 36.7892 95.0609 36.7892 100.25ZM30.3964 97.1379C30.409 96.3175 30.2088 95.5077 29.8153 94.7877C29.4219 94.0676 28.8485 93.4618 28.1512 93.0292C26.8571 92.2722 25.9318 92.8027 25.9318 94.5627C25.9152 95.3845 26.1107 96.1967 26.4994 96.921C26.8882 97.6452 27.4571 98.257 28.1512 98.6973C29.4453 99.4285 30.3964 98.9561 30.3964 97.1379Z" fill="white"/>
</g>
<path d="M46.7218 133.411L20.9889 118.529C20.6932 118.322 20.3501 118.194 19.9916 118.156C19.633 118.117 19.2705 118.17 18.9378 118.309C18.8674 118.341 18.8003 118.38 18.7372 118.425L13.1403 121.706H13.1791C12.4738 122.107 12.0273 123.039 12.0273 124.365V152.977C12.0273 155.404 13.4961 158.212 15.3143 159.26L41.0473 174.142C41.3731 174.38 41.7619 174.516 42.1649 174.533C42.5679 174.55 42.9669 174.448 43.3119 174.239L43.2666 174.278L48.8247 171.01C49.5494 170.629 50.0088 169.716 50.0088 168.325V139.687C50.0088 137.267 48.5659 134.459 46.7218 133.411Z" fill="white"/>
<path d="M46.7218 133.411L20.9889 118.529C20.6932 118.322 20.3501 118.194 19.9916 118.156C19.633 118.117 19.2705 118.17 18.9378 118.309C18.8674 118.341 18.8003 118.38 18.7372 118.425L13.1403 121.706H13.1791C12.4738 122.107 12.0273 123.039 12.0273 124.365V152.977C12.0273 155.404 13.4961 158.212 15.3143 159.26L41.0473 174.142C41.3731 174.38 41.7619 174.516 42.1649 174.533C42.5679 174.55 42.9669 174.448 43.3119 174.239L43.2666 174.278L48.8247 171.01C49.5494 170.629 50.0088 169.716 50.0088 168.325V139.687C50.0088 137.267 48.5659 134.459 46.7218 133.411Z" fill="url(#paint32_linear_1_3952)"/>
<path d="M49.0879 136.122C48.5691 135.014 47.7483 134.074 46.7198 133.411L20.9868 118.529C20.6911 118.322 20.3481 118.194 19.9895 118.156C19.6309 118.117 19.2685 118.17 18.9357 118.309C18.8653 118.341 18.7982 118.38 18.7351 118.425L13.1382 121.706C13.4798 121.529 13.8635 121.45 14.2471 121.478C14.6306 121.505 14.9992 121.638 15.3123 121.861L41.0452 136.743C42.109 137.438 42.9511 138.424 43.4716 139.584L49.0879 136.122Z" fill="white"/>
<path d="M49.0879 136.122C48.5691 135.014 47.7483 134.074 46.7198 133.411L20.9868 118.529C20.6911 118.322 20.3481 118.194 19.9895 118.156C19.6309 118.117 19.2685 118.17 18.9357 118.309C18.8653 118.341 18.7982 118.38 18.7351 118.425L13.1382 121.706C13.4798 121.529 13.8635 121.45 14.2471 121.478C14.6306 121.505 14.9992 121.638 15.3123 121.861L41.0452 136.743C42.109 137.438 42.9511 138.424 43.4716 139.584L49.0879 136.122Z" fill="url(#paint33_linear_1_3952)"/>
<path d="M44.3347 171.632C44.3347 172.926 43.9206 173.826 43.2671 174.253L48.8252 170.985C49.5499 170.603 50.0093 169.691 50.0093 168.3V139.688C49.9819 138.444 49.6674 137.224 49.0905 136.122L43.4741 139.578C44.0133 140.647 44.3073 141.823 44.3347 143.02V171.632Z" fill="white"/>
<path d="M44.3347 171.632C44.3347 172.926 43.9206 173.826 43.2671 174.253L48.8252 170.985C49.5499 170.603 50.0093 169.691 50.0093 168.3V139.688C49.9819 138.444 49.6674 137.224 49.0905 136.122L43.4741 139.578C44.0133 140.647 44.3073 141.823 44.3347 143.02V171.632Z" fill="url(#paint34_linear_1_3952)"/>
<path opacity="0.3" d="M49.0879 136.122C48.5691 135.014 47.7483 134.074 46.7198 133.411L20.9868 118.529C20.6911 118.322 20.3481 118.194 19.9895 118.156C19.6309 118.117 19.2685 118.17 18.9357 118.309C18.8653 118.341 18.7982 118.38 18.7351 118.425L13.1382 121.706C13.4798 121.529 13.8635 121.45 14.2471 121.478C14.6306 121.505 14.9992 121.638 15.3123 121.861L41.0452 136.743C42.109 137.438 42.9511 138.424 43.4716 139.584L49.0879 136.122Z" fill="black"/>
<path opacity="0.6" d="M44.3347 171.632C44.3347 172.926 43.9206 173.826 43.2671 174.253L48.8252 170.985C49.5499 170.603 50.0093 169.691 50.0093 168.3V139.688C49.9819 138.444 49.6674 137.224 49.0905 136.122L43.4741 139.578C44.0133 140.647 44.3073 141.823 44.3347 143.02V171.632Z" fill="black"/>
<path d="M25.3072 146.203L19.1021 136.122V149.781L25.3072 146.203Z" fill="white"/>
<path d="M25.3072 146.203L19.1021 136.122V149.781L25.3072 146.203Z" fill="url(#paint35_linear_1_3952)"/>
<path d="M31.0703 149.109L37.2625 159.83V146.19L31.0703 149.109Z" fill="white"/>
<path d="M31.0703 149.109L37.2625 159.83V146.19L31.0703 149.109Z" fill="url(#paint36_linear_1_3952)"/>
<path d="M20.0396 135.663L26.4129 146.016C26.4399 146.039 26.4638 146.065 26.4841 146.094C26.4897 146.119 26.4897 146.146 26.4841 146.171L28.3799 149.251L29.9846 148.494C30.0096 148.467 30.0379 148.443 30.0687 148.423C30.132 148.386 30.2028 148.364 30.2758 148.358L36.7462 145.324L20.0396 135.663Z" fill="white"/>
<path d="M20.0396 135.663L26.4129 146.016C26.4399 146.039 26.4638 146.065 26.4841 146.094C26.4897 146.119 26.4897 146.146 26.4841 146.171L28.3799 149.251L29.9846 148.494C30.0096 148.467 30.0379 148.443 30.0687 148.423C30.132 148.386 30.2028 148.364 30.2758 148.358L36.7462 145.324L20.0396 135.663Z" fill="url(#paint37_linear_1_3952)"/>
<path d="M30.1287 149.548L28.3946 150.363C28.3278 150.394 28.2548 150.41 28.1811 150.409C28.0918 150.41 28.0038 150.387 27.9255 150.344C27.8473 150.301 27.7815 150.239 27.7347 150.163L25.8388 147.083L19.6143 150.68L36.3662 160.347L30.1287 149.548Z" fill="white"/>
<path d="M30.1287 149.548L28.3946 150.363C28.3278 150.394 28.2548 150.41 28.1811 150.409C28.0918 150.41 28.0038 150.387 27.9255 150.344C27.8473 150.301 27.7815 150.239 27.7347 150.163L25.8388 147.083L19.6143 150.68L36.3662 160.347L30.1287 149.548Z" fill="url(#paint38_linear_1_3952)"/>
<g opacity="0.9">
<path d="M25.3057 146.204L19.1006 136.123V149.782L25.3057 146.204Z" fill="white"/>
<path d="M31.0718 149.109L37.264 159.83V146.191L31.0718 149.109Z" fill="white"/>
<path d="M20.0396 135.663L26.4129 146.016C26.4399 146.039 26.4638 146.065 26.4841 146.094C26.4897 146.119 26.4897 146.146 26.4841 146.171L28.3799 149.251L29.9846 148.494C30.0096 148.467 30.0379 148.443 30.0687 148.423C30.132 148.386 30.2028 148.364 30.2758 148.358L36.7462 145.324L20.0396 135.663Z" fill="white"/>
<path d="M30.1321 149.549L28.3981 150.364C28.3312 150.395 28.2582 150.411 28.1845 150.41C28.0952 150.411 28.0072 150.388 27.9289 150.345C27.8507 150.302 27.785 150.24 27.7381 150.164L25.8422 147.084L19.6177 150.681L36.3696 160.348L30.1321 149.549Z" fill="white"/>
</g>
<path d="M46.7218 31.4886L20.9889 16.6066C20.6932 16.4002 20.3501 16.2719 19.9916 16.2334C19.633 16.1949 19.2705 16.2477 18.9378 16.3866C18.8674 16.4191 18.8003 16.4581 18.7372 16.5031L13.1403 19.7836H13.1791C12.4738 20.1783 12.0273 21.1165 12.0273 22.443V51.0552C12.0273 53.4752 13.4961 56.2898 15.3143 57.338L41.0473 72.22C41.3731 72.4578 41.7619 72.5938 42.1649 72.6111C42.5679 72.6284 42.9669 72.5261 43.3119 72.3171L43.2666 72.3494L48.8247 69.1142C49.5494 68.7325 50.0088 67.8201 50.0088 66.429V37.7455C50.0088 35.3256 48.5659 32.511 46.7218 31.4886Z" fill="white"/>
<path d="M46.7218 31.4886L20.9889 16.6066C20.6932 16.4002 20.3501 16.2719 19.9916 16.2334C19.633 16.1949 19.2705 16.2477 18.9378 16.3866C18.8674 16.4191 18.8003 16.4581 18.7372 16.5031L13.1403 19.7836H13.1791C12.4738 20.1783 12.0273 21.1165 12.0273 22.443V51.0552C12.0273 53.4752 13.4961 56.2898 15.3143 57.338L41.0473 72.22C41.3731 72.4578 41.7619 72.5938 42.1649 72.6111C42.5679 72.6284 42.9669 72.5261 43.3119 72.3171L43.2666 72.3494L48.8247 69.1142C49.5494 68.7325 50.0088 67.8201 50.0088 66.429V37.7455C50.0088 35.3256 48.5659 32.511 46.7218 31.4886Z" fill="url(#paint39_linear_1_3952)"/>
<path d="M49.0879 34.1803C48.5692 33.0702 47.7485 32.1284 46.7198 31.4628L20.9868 16.6066C20.6911 16.4002 20.3481 16.2719 19.9895 16.2334C19.6309 16.1949 19.2685 16.2477 18.9357 16.3866C18.8653 16.4191 18.7982 16.4581 18.7351 16.5031L13.1382 19.7836C13.4798 19.607 13.8635 19.528 14.2471 19.5554C14.6306 19.5828 14.9992 19.7155 15.3123 19.9389L41.0452 34.8209C42.109 35.5162 42.9511 36.502 43.4716 37.6614L49.0879 34.1803Z" fill="white"/>
<path d="M49.0879 34.1803C48.5692 33.0702 47.7485 32.1284 46.7198 31.4628L20.9868 16.6066C20.6911 16.4002 20.3481 16.2719 19.9895 16.2334C19.6309 16.1949 19.2685 16.2477 18.9357 16.3866C18.8653 16.4191 18.7982 16.4581 18.7351 16.5031L13.1382 19.7836C13.4798 19.607 13.8635 19.528 14.2471 19.5554C14.6306 19.5828 14.9992 19.7155 15.3123 19.9389L41.0452 34.8209C42.109 35.5162 42.9511 36.502 43.4716 37.6614L49.0879 34.1803Z" fill="url(#paint40_linear_1_3952)"/>
<path d="M44.3347 69.6638C44.3347 70.9579 43.9206 71.8573 43.2671 72.252L48.8252 69.0168C49.5499 68.635 50.0093 67.7227 50.0093 66.3315V37.7451C49.9819 36.5018 49.6674 35.2816 49.0905 34.1799L43.4741 37.6351C44.0133 38.7043 44.3073 39.8803 44.3347 41.0774V69.6638Z" fill="white"/>
<path d="M44.3347 69.6638C44.3347 70.9579 43.9206 71.8573 43.2671 72.252L48.8252 69.0168C49.5499 68.635 50.0093 67.7227 50.0093 66.3315V37.7451C49.9819 36.5018 49.6674 35.2816 49.0905 34.1799L43.4741 37.6351C44.0133 38.7043 44.3073 39.8803 44.3347 41.0774V69.6638Z" fill="url(#paint41_linear_1_3952)"/>
<path opacity="0.3" d="M49.0879 34.1803C48.5692 33.0702 47.7485 32.1284 46.7198 31.4628L20.9868 16.6066C20.6911 16.4002 20.3481 16.2719 19.9895 16.2334C19.6309 16.1949 19.2685 16.2477 18.9357 16.3866C18.8653 16.4191 18.7982 16.4581 18.7351 16.5031L13.1382 19.7836C13.4798 19.607 13.8635 19.528 14.2471 19.5554C14.6306 19.5828 14.9992 19.7155 15.3123 19.9389L41.0452 34.8209C42.109 35.5162 42.9511 36.502 43.4716 37.6614L49.0879 34.1803Z" fill="black"/>
<path opacity="0.6" d="M44.3347 69.6638C44.3347 70.9579 43.9206 71.8573 43.2671 72.252L48.8252 69.0168C49.5499 68.635 50.0093 67.7227 50.0093 66.3315V37.7451C49.9819 36.5018 49.6674 35.2816 49.0905 34.1799L43.4741 37.6351C44.0133 38.7043 44.3073 39.8803 44.3347 41.0774V69.6638Z" fill="black"/>
<path d="M35.9151 57.3706C34.9251 55.7401 33.9287 54.1354 32.9387 52.4919C32.7817 52.1806 32.5622 51.9051 32.2939 51.6824C32.0256 51.4597 31.7142 51.2948 31.3793 51.1979C30.9005 51.1008 30.4217 50.9908 29.9299 50.8484C29.7548 50.7754 29.6075 50.6485 29.5094 50.4861C27.8894 47.7136 26.6016 44.76 25.6724 41.6863C25.6526 41.6206 25.647 41.5514 25.6559 41.4834C25.6649 41.4154 25.6881 41.35 25.7242 41.2916C26.0283 40.9875 26.3712 40.7093 26.6818 40.4375C26.9924 40.1658 27.1541 39.5381 26.9277 38.7228C26.4488 36.9952 25.9894 35.2676 25.5106 33.5465C25.418 33.0575 25.1982 32.6015 24.8733 32.2243C24.5485 31.8472 24.13 31.5623 23.6601 31.3983C22.6166 31.1082 21.5089 31.1489 20.4896 31.5148C20.0949 31.6636 19.8878 32.0195 19.8813 32.6342C20.0496 33.8183 20.1596 34.9894 20.386 36.1929C21.9821 44.8719 25.8212 52.8521 31.9034 60.1335C32.0622 60.375 32.2755 60.5757 32.5262 60.7196C32.7768 60.8635 33.0577 60.9464 33.3463 60.9617C34.3533 60.9378 35.3207 60.565 36.0833 59.9071C36.6592 59.3894 36.601 58.4706 35.9151 57.3706Z" fill="white"/>
<path d="M35.9151 57.3706C34.9251 55.7401 33.9287 54.1354 32.9387 52.4919C32.7817 52.1806 32.5622 51.9051 32.2939 51.6824C32.0256 51.4597 31.7142 51.2948 31.3793 51.1979C30.9005 51.1008 30.4217 50.9908 29.9299 50.8484C29.7548 50.7754 29.6075 50.6485 29.5094 50.4861C27.8894 47.7136 26.6016 44.76 25.6724 41.6863C25.6526 41.6206 25.647 41.5514 25.6559 41.4834C25.6649 41.4154 25.6881 41.35 25.7242 41.2916C26.0283 40.9875 26.3712 40.7093 26.6818 40.4375C26.9924 40.1658 27.1541 39.5381 26.9277 38.7228C26.4488 36.9952 25.9894 35.2676 25.5106 33.5465C25.418 33.0575 25.1982 32.6015 24.8733 32.2243C24.5485 31.8472 24.13 31.5623 23.6601 31.3983C22.6166 31.1082 21.5089 31.1489 20.4896 31.5148C20.0949 31.6636 19.8878 32.0195 19.8813 32.6342C20.0496 33.8183 20.1596 34.9894 20.386 36.1929C21.9821 44.8719 25.8212 52.8521 31.9034 60.1335C32.0622 60.375 32.2755 60.5757 32.5262 60.7196C32.7768 60.8635 33.0577 60.9464 33.3463 60.9617C34.3533 60.9378 35.3207 60.565 36.0833 59.9071C36.6592 59.3894 36.601 58.4706 35.9151 57.3706Z" fill="url(#paint42_linear_1_3952)"/>
<path d="M35.8381 48.5513C35.7028 46.6902 35.1898 44.8761 34.3305 43.2197C33.689 41.9257 32.8725 40.7261 31.9041 39.6545C31.6518 39.3698 31.4382 39.2792 31.3088 39.4927C31.1794 39.7062 31.3088 40.0104 31.5547 40.2886L31.8071 40.5798C33.5955 42.6442 34.7226 45.1982 35.0423 47.9108C35.0391 48.1086 35.0587 48.3062 35.1005 48.4996C35.1818 48.7221 35.3123 48.9234 35.4823 49.0884C35.6181 49.1854 35.7734 49.0884 35.8834 49.0884C35.8446 48.8231 35.8511 48.6872 35.8381 48.5513Z" fill="white"/>
<path d="M35.8381 48.5513C35.7028 46.6902 35.1898 44.8761 34.3305 43.2197C33.689 41.9257 32.8725 40.7261 31.9041 39.6545C31.6518 39.3698 31.4382 39.2792 31.3088 39.4927C31.1794 39.7062 31.3088 40.0104 31.5547 40.2886L31.8071 40.5798C33.5955 42.6442 34.7226 45.1982 35.0423 47.9108C35.0391 48.1086 35.0587 48.3062 35.1005 48.4996C35.1818 48.7221 35.3123 48.9234 35.4823 49.0884C35.6181 49.1854 35.7734 49.0884 35.8834 49.0884C35.8446 48.8231 35.8511 48.6872 35.8381 48.5513Z" fill="url(#paint43_linear_1_3952)"/>
<path d="M29.9767 43.2385C30.7892 44.1322 31.2829 45.2698 31.3808 46.4737C31.4234 46.6568 31.4909 46.8331 31.5813 46.9978C31.976 47.3213 32.1702 47.2113 32.1702 46.8037C32.0318 45.2601 31.3934 43.8039 30.352 42.6562C30.1061 42.4038 29.9055 42.3262 29.789 42.5397C29.7471 42.6616 29.7426 42.7933 29.776 42.9178C29.8095 43.0423 29.8793 43.154 29.9767 43.2385Z" fill="white"/>
<path d="M29.9767 43.2385C30.7892 44.1322 31.2829 45.2698 31.3808 46.4737C31.4234 46.6568 31.4909 46.8331 31.5813 46.9978C31.976 47.3213 32.1702 47.2113 32.1702 46.8037C32.0318 45.2601 31.3934 43.8039 30.352 42.6562C30.1061 42.4038 29.9055 42.3262 29.789 42.5397C29.7471 42.6616 29.7426 42.7933 29.776 42.9178C29.8095 43.0423 29.8793 43.154 29.9767 43.2385Z" fill="url(#paint44_linear_1_3952)"/>
<g opacity="0.9">
<path d="M35.9166 57.3709C34.9266 55.7403 33.9301 54.1357 32.9402 52.4922C32.7831 52.1809 32.5636 51.9053 32.2953 51.6826C32.027 51.46 31.7157 51.295 31.3808 51.1981C30.902 51.101 30.4232 50.991 29.9314 50.8487C29.7563 50.7757 29.609 50.6487 29.5108 50.4863C27.8909 47.7138 26.603 44.7603 25.6739 41.6866C25.6541 41.6208 25.6485 41.5517 25.6574 41.4837C25.6663 41.4156 25.6896 41.3502 25.7256 41.2919C26.0297 40.9877 26.3727 40.7095 26.6832 40.4378C26.9938 40.166 27.1556 39.5384 26.9291 38.7231C26.4503 36.9955 25.9909 35.2679 25.5121 33.5467C25.4194 33.0577 25.1996 32.6017 24.8748 32.2246C24.5499 31.8475 24.1315 31.5626 23.6616 31.3986C22.6181 31.1085 21.5104 31.1492 20.491 31.515C20.0963 31.6638 19.8893 32.0197 19.8828 32.6344C20.051 33.8185 20.161 34.9896 20.3875 36.1931C21.9835 44.8722 25.8227 52.8524 31.9049 60.1338C32.0637 60.3752 32.277 60.576 32.5276 60.7198C32.7783 60.8637 33.0592 60.9467 33.3478 60.962C34.3547 60.938 35.3222 60.5653 36.0848 59.9073C36.6607 59.3897 36.6024 58.4709 35.9166 57.3709Z" fill="white"/>
<path d="M35.8396 48.5518C35.7042 46.6907 35.1913 44.8766 34.332 43.2202C33.6904 41.9262 32.874 40.7265 31.9056 39.655C31.6532 39.3703 31.4397 39.2797 31.3103 39.4932C31.1809 39.7067 31.3103 40.0108 31.5562 40.2891L31.8085 40.5802C33.5969 42.6447 34.724 45.1987 35.0437 47.9112C35.0406 48.1091 35.0601 48.3067 35.102 48.5001C35.1832 48.7226 35.3137 48.9239 35.4837 49.0889C35.6196 49.1859 35.7749 49.0889 35.8849 49.0889C35.8461 48.8236 35.8525 48.6877 35.8396 48.5518Z" fill="white"/>
<path d="M29.9767 43.2395C30.7892 44.1332 31.2829 45.2708 31.3808 46.4747C31.4234 46.6577 31.4909 46.8341 31.5813 46.9988C31.976 47.3223 32.1702 47.2123 32.1702 46.8047C32.0318 45.2611 31.3934 43.8048 30.352 42.6571C30.1061 42.4048 29.9055 42.3271 29.789 42.5407C29.7471 42.6626 29.7426 42.7942 29.776 42.9188C29.8095 43.0433 29.8793 43.1549 29.9767 43.2395Z" fill="white"/>
</g>
<path d="M178.742 14.3292L184.805 17.778V15.6298C184.805 15.481 184.805 15.3257 184.805 15.1768C184.805 15.028 184.805 14.8857 184.805 14.7433V14.6657C185.025 11.8252 187.179 10.7317 189.806 12.2522C190.996 12.9837 192.015 13.961 192.796 15.1186C193.384 11.2364 196.535 9.86462 200.347 12.0581C204.578 14.5039 208.008 20.4697 208.008 25.3354V29.9294C208.002 30.2969 208.092 30.6595 208.27 30.9809C208.449 31.3023 208.708 31.5712 209.023 31.7606L212.595 33.8505C213.366 34.3076 214.005 34.9569 214.45 35.7349C214.894 36.513 215.129 37.3931 215.132 38.2893C215.132 38.661 215.034 39.0263 214.848 39.3482C214.662 39.6701 214.394 39.9374 214.072 40.123C213.75 40.3087 213.385 40.4062 213.013 40.4057C212.641 40.4053 212.276 40.3068 211.955 40.1204L178.832 20.9744C177.954 20.4641 177.224 19.7327 176.715 18.853C176.207 17.9733 175.937 16.9759 175.934 15.9598C175.933 15.6309 176.019 15.3077 176.183 15.0225C176.347 14.7374 176.583 14.5004 176.868 14.3353C177.152 14.1701 177.475 14.0826 177.804 14.0816C178.133 14.0805 178.456 14.1659 178.742 14.3292Z" fill="white"/>
<path d="M224.958 13.4299L229.364 15.9598V14.381C229.364 14.271 229.364 14.161 229.364 14.051C229.364 13.941 229.364 13.8375 229.364 13.734V13.6952C229.526 11.6311 231.092 10.8352 233.001 11.9417C233.865 12.4713 234.606 13.1794 235.175 14.0187C235.608 11.2105 237.899 10.1947 240.668 11.7929C243.748 13.5722 246.239 17.8945 246.239 21.4467V24.792C246.242 25.0542 246.312 25.3113 246.444 25.5382C246.575 25.765 246.763 25.9538 246.99 26.0861L249.578 27.6066C250.141 27.9378 250.608 28.4108 250.931 28.9784C251.255 29.546 251.424 30.1885 251.422 30.8418C251.422 31.1094 251.352 31.3723 251.219 31.6045C251.086 31.8368 250.895 32.0303 250.664 32.1662C250.433 32.302 250.172 32.3755 249.904 32.3792C249.636 32.383 249.372 32.317 249.138 32.1877L225.023 18.2633C224.384 17.8936 223.853 17.3625 223.484 16.7231C223.115 16.0838 222.92 15.3587 222.92 14.6204C222.919 14.3815 222.982 14.1466 223.1 13.9393C223.219 13.732 223.39 13.5594 223.597 13.4389C223.803 13.3184 224.037 13.2541 224.276 13.2525C224.515 13.251 224.75 13.3121 224.958 13.4299Z" fill="white"/>
<defs>
<linearGradient id="paint0_linear_1_3952" x1="228.111" y1="179.081" x2="209.687" y2="179.708" gradientUnits="userSpaceOnUse">
<stop stop-color="#0A8241"/>
<stop offset="0.416667" stop-color="#3EBB6C" stop-opacity="0.87"/>
<stop offset="0.692708" stop-color="#A5E06A" stop-opacity="0.79"/>
<stop offset="1" stop-color="#FCFF68" stop-opacity="0.31"/>
</linearGradient>
<linearGradient id="paint1_linear_1_3952" x1="243.54" y1="193.926" x2="212.792" y2="196.13" gradientUnits="userSpaceOnUse">
<stop stop-color="#0A8241"/>
<stop offset="0.416667" stop-color="#3EBB6C" stop-opacity="0.87"/>
<stop offset="0.692708" stop-color="#A5E06A" stop-opacity="0.79"/>
<stop offset="1" stop-color="#FCFF68" stop-opacity="0.31"/>
</linearGradient>
<linearGradient id="paint2_linear_1_3952" x1="182.505" y1="41.6215" x2="83.7866" y2="45.6556" gradientUnits="userSpaceOnUse">
<stop stop-color="#0A8241"/>
<stop offset="0.416667" stop-color="#3EBB6C" stop-opacity="0.87"/>
<stop offset="0.692708" stop-color="#A5E06A" stop-opacity="0.79"/>
<stop offset="1" stop-color="#FCFF68" stop-opacity="0.31"/>
</linearGradient>
<linearGradient id="paint3_linear_1_3952" x1="109.28" y1="48.3758" x2="102.112" y2="48.9305" gradientUnits="userSpaceOnUse">
<stop stop-color="#0A8241"/>
<stop offset="0.416667" stop-color="#3EBB6C" stop-opacity="0.87"/>
<stop offset="0.692708" stop-color="#A5E06A" stop-opacity="0.79"/>
<stop offset="1" stop-color="#FCFF68" stop-opacity="0.31"/>
</linearGradient>
<linearGradient id="paint4_linear_1_3952" x1="117.065" y1="52.2984" x2="108.908" y2="53.0024" gradientUnits="userSpaceOnUse">
<stop stop-color="#0A8241"/>
<stop offset="0.416667" stop-color="#3EBB6C" stop-opacity="0.87"/>
<stop offset="0.692708" stop-color="#A5E06A" stop-opacity="0.79"/>
<stop offset="1" stop-color="#FCFF68" stop-opacity="0.31"/>
</linearGradient>
<linearGradient id="paint5_linear_1_3952" x1="124.583" y1="55.9828" x2="117.357" y2="56.4196" gradientUnits="userSpaceOnUse">
<stop stop-color="#0A8241"/>
<stop offset="0.416667" stop-color="#3EBB6C" stop-opacity="0.87"/>
<stop offset="0.692708" stop-color="#A5E06A" stop-opacity="0.79"/>
<stop offset="1" stop-color="#FCFF68" stop-opacity="0.31"/>
</linearGradient>
<linearGradient id="paint6_linear_1_3952" x1="131.498" y1="60.0916" x2="124.793" y2="60.5195" gradientUnits="userSpaceOnUse">
<stop stop-color="#0A8241"/>
<stop offset="0.416667" stop-color="#3EBB6C" stop-opacity="0.87"/>
<stop offset="0.692708" stop-color="#A5E06A" stop-opacity="0.79"/>
<stop offset="1" stop-color="#FCFF68" stop-opacity="0.31"/>
</linearGradient>
<linearGradient id="paint7_linear_1_3952" x1="138.901" y1="65.0542" x2="130.217" y2="65.7393" gradientUnits="userSpaceOnUse">
<stop stop-color="#0A8241"/>
<stop offset="0.416667" stop-color="#3EBB6C" stop-opacity="0.87"/>
<stop offset="0.692708" stop-color="#A5E06A" stop-opacity="0.79"/>
<stop offset="1" stop-color="#FCFF68" stop-opacity="0.31"/>
</linearGradient>
<linearGradient id="paint8_linear_1_3952" x1="145.566" y1="69.3209" x2="138.391" y2="69.8765" gradientUnits="userSpaceOnUse">
<stop stop-color="#0A8241"/>
<stop offset="0.416667" stop-color="#3EBB6C" stop-opacity="0.87"/>
<stop offset="0.692708" stop-color="#A5E06A" stop-opacity="0.79"/>
<stop offset="1" stop-color="#FCFF68" stop-opacity="0.31"/>
</linearGradient>
<linearGradient id="paint9_linear_1_3952" x1="151.947" y1="71.9133" x2="145.242" y2="72.3413" gradientUnits="userSpaceOnUse">
<stop stop-color="#0A8241"/>
<stop offset="0.416667" stop-color="#3EBB6C" stop-opacity="0.87"/>
<stop offset="0.692708" stop-color="#A5E06A" stop-opacity="0.79"/>
<stop offset="1" stop-color="#FCFF68" stop-opacity="0.31"/>
</linearGradient>
<linearGradient id="paint10_linear_1_3952" x1="162.211" y1="77.5941" x2="155.059" y2="78.0738" gradientUnits="userSpaceOnUse">
<stop stop-color="#0A8241"/>
<stop offset="0.416667" stop-color="#3EBB6C" stop-opacity="0.87"/>
<stop offset="0.692708" stop-color="#A5E06A" stop-opacity="0.79"/>
<stop offset="1" stop-color="#FCFF68" stop-opacity="0.31"/>
</linearGradient>
<linearGradient id="paint11_linear_1_3952" x1="169.252" y1="82.9424" x2="162.345" y2="83.4485" gradientUnits="userSpaceOnUse">
<stop stop-color="#0A8241"/>
<stop offset="0.416667" stop-color="#3EBB6C" stop-opacity="0.87"/>
<stop offset="0.692708" stop-color="#A5E06A" stop-opacity="0.79"/>
<stop offset="1" stop-color="#FCFF68" stop-opacity="0.31"/>
</linearGradient>
<linearGradient id="paint12_linear_1_3952" x1="98.2996" y1="67.3124" x2="63.4776" y2="70.9154" gradientUnits="userSpaceOnUse">
<stop stop-color="#0A8241"/>
<stop offset="0.416667" stop-color="#3EBB6C" stop-opacity="0.87"/>
<stop offset="0.692708" stop-color="#A5E06A" stop-opacity="0.79"/>
<stop offset="1" stop-color="#FCFF68" stop-opacity="0.31"/>
</linearGradient>
<linearGradient id="paint13_linear_1_3952" x1="170.492" y1="110.946" x2="99.3219" y2="114.877" gradientUnits="userSpaceOnUse">
<stop stop-color="#0A8241"/>
<stop offset="0.416667" stop-color="#3EBB6C" stop-opacity="0.87"/>
<stop offset="0.692708" stop-color="#A5E06A" stop-opacity="0.79"/>
<stop offset="1" stop-color="#FCFF68" stop-opacity="0.31"/>
</linearGradient>
<linearGradient id="paint14_linear_1_3952" x1="89.799" y1="142.15" x2="76.4736" y2="144.027" gradientUnits="userSpaceOnUse">
<stop stop-color="#0A8241"/>
<stop offset="0.416667" stop-color="#3EBB6C" stop-opacity="0.87"/>
<stop offset="0.692708" stop-color="#A5E06A" stop-opacity="0.79"/>
<stop offset="1" stop-color="#FCFF68" stop-opacity="0.31"/>
</linearGradient>
<linearGradient id="paint15_linear_1_3952" x1="122.488" y1="141.682" x2="75.0427" y2="147.769" gradientUnits="userSpaceOnUse">
<stop stop-color="#0A8241"/>
<stop offset="0.416667" stop-color="#3EBB6C" stop-opacity="0.87"/>
<stop offset="0.692708" stop-color="#A5E06A" stop-opacity="0.79"/>
<stop offset="1" stop-color="#FCFF68" stop-opacity="0.31"/>
</linearGradient>
<linearGradient id="paint16_linear_1_3952" x1="151.65" y1="144.495" x2="103.601" y2="148.12" gradientUnits="userSpaceOnUse">
<stop stop-color="#0A8241"/>
<stop offset="0.416667" stop-color="#3EBB6C" stop-opacity="0.87"/>
<stop offset="0.692708" stop-color="#A5E06A" stop-opacity="0.79"/>
<stop offset="1" stop-color="#FCFF68" stop-opacity="0.31"/>
</linearGradient>
<linearGradient id="paint17_linear_1_3952" x1="141.804" y1="135.079" x2="112.744" y2="139.183" gradientUnits="userSpaceOnUse">
<stop stop-color="#0A8241"/>
<stop offset="0.416667" stop-color="#3EBB6C" stop-opacity="0.87"/>
<stop offset="0.692708" stop-color="#A5E06A" stop-opacity="0.79"/>
<stop offset="1" stop-color="#FCFF68" stop-opacity="0.31"/>
</linearGradient>
<linearGradient id="paint18_linear_1_3952" x1="149.067" y1="113.774" x2="133.491" y2="115.22" gradientUnits="userSpaceOnUse">
<stop stop-color="#0A8241"/>
<stop offset="0.416667" stop-color="#3EBB6C" stop-opacity="0.87"/>
<stop offset="0.692708" stop-color="#A5E06A" stop-opacity="0.79"/>
<stop offset="1" stop-color="#FCFF68" stop-opacity="0.31"/>
</linearGradient>
<linearGradient id="paint19_linear_1_3952" x1="144.074" y1="111.936" x2="138.205" y2="128.516" gradientUnits="userSpaceOnUse">
<stop stop-color="#0A8241"/>
<stop offset="0.416667" stop-color="#3EBB6C" stop-opacity="0.87"/>
<stop offset="0.692708" stop-color="#A5E06A" stop-opacity="0.79"/>
<stop offset="1" stop-color="#FCFF68" stop-opacity="0.31"/>
</linearGradient>
<linearGradient id="paint20_linear_1_3952" x1="149.701" y1="117.374" x2="139.021" y2="118.369" gradientUnits="userSpaceOnUse">
<stop stop-color="#0A8241"/>
<stop offset="0.416667" stop-color="#3EBB6C" stop-opacity="0.87"/>
<stop offset="0.692708" stop-color="#A5E06A" stop-opacity="0.79"/>
<stop offset="1" stop-color="#FCFF68" stop-opacity="0.31"/>
</linearGradient>
<linearGradient id="paint21_linear_1_3952" x1="149.65" y1="118.372" x2="141.046" y2="119.087" gradientUnits="userSpaceOnUse">
<stop stop-color="#0A8241"/>
<stop offset="0.416667" stop-color="#3EBB6C" stop-opacity="0.87"/>
<stop offset="0.692708" stop-color="#A5E06A" stop-opacity="0.79"/>
<stop offset="1" stop-color="#FCFF68" stop-opacity="0.31"/>
</linearGradient>
<linearGradient id="paint22_linear_1_3952" x1="145.097" y1="91.8165" x2="123.281" y2="93.8074" gradientUnits="userSpaceOnUse">
<stop stop-color="#0A8241"/>
<stop offset="0.416667" stop-color="#3EBB6C" stop-opacity="0.87"/>
<stop offset="0.692708" stop-color="#A5E06A" stop-opacity="0.79"/>
<stop offset="1" stop-color="#FCFF68" stop-opacity="0.31"/>
</linearGradient>
<linearGradient id="paint23_linear_1_3952" x1="136.964" y1="126.868" x2="124.286" y2="129.739" gradientUnits="userSpaceOnUse">
<stop stop-color="#0A8241"/>
<stop offset="0.416667" stop-color="#3EBB6C" stop-opacity="0.87"/>
<stop offset="0.692708" stop-color="#A5E06A" stop-opacity="0.79"/>
<stop offset="1" stop-color="#FCFF68" stop-opacity="0.31"/>
</linearGradient>
<linearGradient id="paint24_linear_1_3952" x1="125.754" y1="127.106" x2="121.8" y2="127.53" gradientUnits="userSpaceOnUse">
<stop stop-color="#0A8241"/>
<stop offset="0.416667" stop-color="#3EBB6C" stop-opacity="0.87"/>
<stop offset="0.692708" stop-color="#A5E06A" stop-opacity="0.79"/>
<stop offset="1" stop-color="#FCFF68" stop-opacity="0.31"/>
</linearGradient>
<linearGradient id="paint25_linear_1_3952" x1="145.084" y1="91.7976" x2="123.294" y2="93.8153" gradientUnits="userSpaceOnUse">
<stop stop-color="#0A8241"/>
<stop offset="0.416667" stop-color="#3EBB6C" stop-opacity="0.87"/>
<stop offset="0.692708" stop-color="#A5E06A" stop-opacity="0.79"/>
<stop offset="1" stop-color="#FCFF68" stop-opacity="0.31"/>
</linearGradient>
<linearGradient id="paint26_linear_1_3952" x1="147.494" y1="196.847" x2="136.89" y2="197.741" gradientUnits="userSpaceOnUse">
<stop stop-color="#0A8241"/>
<stop offset="0.416667" stop-color="#3EBB6C" stop-opacity="0.87"/>
<stop offset="0.692708" stop-color="#A5E06A" stop-opacity="0.79"/>
<stop offset="1" stop-color="#FCFF68" stop-opacity="0.31"/>
</linearGradient>
<linearGradient id="paint27_linear_1_3952" x1="165.646" y1="148.519" x2="136.241" y2="149.814" gradientUnits="userSpaceOnUse">
<stop stop-color="#0A8241"/>
<stop offset="0.416667" stop-color="#3EBB6C" stop-opacity="0.87"/>
<stop offset="0.692708" stop-color="#A5E06A" stop-opacity="0.79"/>
<stop offset="1" stop-color="#FCFF68" stop-opacity="0.31"/>
</linearGradient>
<linearGradient id="paint28_linear_1_3952" x1="50.0088" y1="73.8875" x2="10.017" y2="76.771" gradientUnits="userSpaceOnUse">
<stop stop-color="#0A8241"/>
<stop offset="0.416667" stop-color="#3EBB6C" stop-opacity="0.87"/>
<stop offset="0.692708" stop-color="#A5E06A" stop-opacity="0.79"/>
<stop offset="1" stop-color="#FCFF68" stop-opacity="0.31"/>
</linearGradient>
<linearGradient id="paint29_linear_1_3952" x1="49.0879" y1="69.7218" x2="12.2273" y2="76.3412" gradientUnits="userSpaceOnUse">
<stop stop-color="#0A8241"/>
<stop offset="0.416667" stop-color="#3EBB6C" stop-opacity="0.87"/>
<stop offset="0.692708" stop-color="#A5E06A" stop-opacity="0.79"/>
<stop offset="1" stop-color="#FCFF68" stop-opacity="0.31"/>
</linearGradient>
<linearGradient id="paint30_linear_1_3952" x1="50.0093" y1="89.6875" x2="42.8759" y2="89.8227" gradientUnits="userSpaceOnUse">
<stop stop-color="#0A8241"/>
<stop offset="0.416667" stop-color="#3EBB6C" stop-opacity="0.87"/>
<stop offset="0.692708" stop-color="#A5E06A" stop-opacity="0.79"/>
<stop offset="1" stop-color="#FCFF68" stop-opacity="0.31"/>
</linearGradient>
<linearGradient id="paint31_linear_1_3952" x1="36.7863" y1="87.511" x2="18.7675" y2="89.0372" gradientUnits="userSpaceOnUse">
<stop stop-color="#0A8241"/>
<stop offset="0.416667" stop-color="#3EBB6C" stop-opacity="0.87"/>
<stop offset="0.692708" stop-color="#A5E06A" stop-opacity="0.79"/>
<stop offset="1" stop-color="#FCFF68" stop-opacity="0.31"/>
</linearGradient>
<linearGradient id="paint32_linear_1_3952" x1="50.0088" y1="124.861" x2="10.0171" y2="127.745" gradientUnits="userSpaceOnUse">
<stop stop-color="#0A8241"/>
<stop offset="0.416667" stop-color="#3EBB6C" stop-opacity="0.87"/>
<stop offset="0.692708" stop-color="#A5E06A" stop-opacity="0.79"/>
<stop offset="1" stop-color="#FCFF68" stop-opacity="0.31"/>
</linearGradient>
<linearGradient id="paint33_linear_1_3952" x1="49.0879" y1="120.697" x2="12.2267" y2="127.315" gradientUnits="userSpaceOnUse">
<stop stop-color="#0A8241"/>
<stop offset="0.416667" stop-color="#3EBB6C" stop-opacity="0.87"/>
<stop offset="0.692708" stop-color="#A5E06A" stop-opacity="0.79"/>
<stop offset="1" stop-color="#FCFF68" stop-opacity="0.31"/>
</linearGradient>
<linearGradient id="paint34_linear_1_3952" x1="50.0093" y1="140.664" x2="42.8759" y2="140.8" gradientUnits="userSpaceOnUse">
<stop stop-color="#0A8241"/>
<stop offset="0.416667" stop-color="#3EBB6C" stop-opacity="0.87"/>
<stop offset="0.692708" stop-color="#A5E06A" stop-opacity="0.79"/>
<stop offset="1" stop-color="#FCFF68" stop-opacity="0.31"/>
</linearGradient>
<linearGradient id="paint35_linear_1_3952" x1="25.3072" y1="137.749" x2="18.7552" y2="138.068" gradientUnits="userSpaceOnUse">
<stop stop-color="#0A8241"/>
<stop offset="0.416667" stop-color="#3EBB6C" stop-opacity="0.87"/>
<stop offset="0.692708" stop-color="#A5E06A" stop-opacity="0.79"/>
<stop offset="1" stop-color="#FCFF68" stop-opacity="0.31"/>
</linearGradient>
<linearGradient id="paint36_linear_1_3952" x1="37.2625" y1="147.815" x2="30.7241" y2="148.133" gradientUnits="userSpaceOnUse">
<stop stop-color="#0A8241"/>
<stop offset="0.416667" stop-color="#3EBB6C" stop-opacity="0.87"/>
<stop offset="0.692708" stop-color="#A5E06A" stop-opacity="0.79"/>
<stop offset="1" stop-color="#FCFF68" stop-opacity="0.31"/>
</linearGradient>
<linearGradient id="paint37_linear_1_3952" x1="36.7462" y1="137.282" x2="19.3651" y2="139.57" gradientUnits="userSpaceOnUse">
<stop stop-color="#0A8241"/>
<stop offset="0.416667" stop-color="#3EBB6C" stop-opacity="0.87"/>
<stop offset="0.692708" stop-color="#A5E06A" stop-opacity="0.79"/>
<stop offset="1" stop-color="#FCFF68" stop-opacity="0.31"/>
</linearGradient>
<linearGradient id="paint38_linear_1_3952" x1="36.3662" y1="148.663" x2="18.9543" y2="151.017" gradientUnits="userSpaceOnUse">
<stop stop-color="#0A8241"/>
<stop offset="0.416667" stop-color="#3EBB6C" stop-opacity="0.87"/>
<stop offset="0.692708" stop-color="#A5E06A" stop-opacity="0.79"/>
<stop offset="1" stop-color="#FCFF68" stop-opacity="0.31"/>
</linearGradient>
<linearGradient id="paint39_linear_1_3952" x1="50.0088" y1="22.9387" x2="10.0171" y2="25.8227" gradientUnits="userSpaceOnUse">
<stop stop-color="#0A8241"/>
<stop offset="0.416667" stop-color="#3EBB6C" stop-opacity="0.87"/>
<stop offset="0.692708" stop-color="#A5E06A" stop-opacity="0.79"/>
<stop offset="1" stop-color="#FCFF68" stop-opacity="0.31"/>
</linearGradient>
<linearGradient id="paint40_linear_1_3952" x1="49.0879" y1="18.7752" x2="12.2267" y2="25.393" gradientUnits="userSpaceOnUse">
<stop stop-color="#0A8241"/>
<stop offset="0.416667" stop-color="#3EBB6C" stop-opacity="0.87"/>
<stop offset="0.692708" stop-color="#A5E06A" stop-opacity="0.79"/>
<stop offset="1" stop-color="#FCFF68" stop-opacity="0.31"/>
</linearGradient>
<linearGradient id="paint41_linear_1_3952" x1="50.0093" y1="38.7152" x2="42.8759" y2="38.8504" gradientUnits="userSpaceOnUse">
<stop stop-color="#0A8241"/>
<stop offset="0.416667" stop-color="#3EBB6C" stop-opacity="0.87"/>
<stop offset="0.692708" stop-color="#A5E06A" stop-opacity="0.79"/>
<stop offset="1" stop-color="#FCFF68" stop-opacity="0.31"/>
</linearGradient>
<linearGradient id="paint42_linear_1_3952" x1="36.4762" y1="34.7515" x2="18.9746" y2="35.7966" gradientUnits="userSpaceOnUse">
<stop stop-color="#0A8241"/>
<stop offset="0.416667" stop-color="#3EBB6C" stop-opacity="0.87"/>
<stop offset="0.692708" stop-color="#A5E06A" stop-opacity="0.79"/>
<stop offset="1" stop-color="#FCFF68" stop-opacity="0.31"/>
</linearGradient>
<linearGradient id="paint43_linear_1_3952" x1="35.8834" y1="40.5372" x2="31.0002" y2="40.7851" gradientUnits="userSpaceOnUse">
<stop stop-color="#0A8241"/>
<stop offset="0.416667" stop-color="#3EBB6C" stop-opacity="0.87"/>
<stop offset="0.692708" stop-color="#A5E06A" stop-opacity="0.79"/>
<stop offset="1" stop-color="#FCFF68" stop-opacity="0.31"/>
</linearGradient>
<linearGradient id="paint44_linear_1_3952" x1="32.1702" y1="42.9841" x2="29.6203" y2="43.1224" gradientUnits="userSpaceOnUse">
<stop stop-color="#0A8241"/>
<stop offset="0.416667" stop-color="#3EBB6C" stop-opacity="0.87"/>
<stop offset="0.692708" stop-color="#A5E06A" stop-opacity="0.79"/>
<stop offset="1" stop-color="#FCFF68" stop-opacity="0.31"/>
</linearGradient>
</defs>
</svg>
