<svg width="140" height="55" viewBox="0 0 140 55" fill="none" xmlns="http://www.w3.org/2000/svg">
<path d="M50.961 37.2805V42.4479H50.0293V37.2805H47.9038V36.762H53.0865V37.2805H50.961Z" fill="white"/>
<path d="M59.166 39.8016C58.6775 40.1235 58.0804 40.3023 57.3477 40.3202L59.7902 42.4479H58.7046L55.7736 39.8732H56.6963C57.0763 39.8732 57.4019 39.8374 57.6191 39.7838C58.5689 39.5871 59.0303 39.1937 59.0303 38.5858C59.0303 38.0851 58.7047 37.7275 58.0804 37.4951C57.8362 37.4057 57.5648 37.352 57.2662 37.3163C57.0491 37.2984 56.7506 37.2805 56.3978 37.2805H54.9051V42.4479H54.0366V36.762H56.2349C56.4249 36.762 56.6149 36.762 56.7506 36.762C56.9406 36.762 57.1305 36.7798 57.2934 36.7977C57.7276 36.8335 58.0804 36.8871 58.3518 36.9765C59.3831 37.2984 59.8988 37.8348 59.8988 38.6036C59.8988 39.0864 59.6545 39.4798 59.166 39.8016Z" fill="white"/>
<path d="M66.9686 40.3023C66.9686 40.5169 66.9416 40.7135 66.9145 40.9102C66.8604 41.1248 66.7792 41.3215 66.671 41.4824C66.184 42.1976 65.2912 42.5374 64.0738 42.5374C62.8563 42.5374 61.9635 42.1797 61.4765 41.4824C61.3683 41.3215 61.2871 41.1248 61.233 40.9102C61.1789 40.7135 61.1519 40.5169 61.1519 40.3023V36.762H62.0176V40.3023C62.0176 40.4811 62.0447 40.6599 62.0717 40.8208C62.1258 41.0354 62.207 41.1963 62.3152 41.3215C62.694 41.7864 63.2892 42.0188 64.1008 42.0188C64.9125 42.0188 65.4806 41.7864 65.8864 41.3215C65.9947 41.1963 66.0758 41.0354 66.1299 40.8208C66.184 40.6599 66.184 40.4811 66.184 40.3023V36.762H67.0498V40.3023H66.9686Z" fill="white"/>
<path d="M68.5015 42.4479V36.762H73.6127V37.2805H69.4415V39.3189H73.4658V39.8374H69.4415V41.9294H73.6127V42.4479H68.5015Z" fill="white"/>
<path d="M84.7747 42.4479V39.7838H80.4037V42.4479H79.5508V36.762H80.4037V39.2652H84.7747V36.762H85.6275V42.4479H84.7747Z" fill="white"/>
<path d="M93.3339 42.4479L92.2137 40.5347H88.6094L87.4892 42.4479H86.6855L89.9975 36.762H90.8743L94.2106 42.4479H93.3339ZM90.4359 37.4057L88.926 40.0162H91.9214L90.4359 37.4057Z" fill="white"/>
<path d="M99.9174 39.8373C99.6155 39.9625 99.2587 40.0698 98.8469 40.1056C98.6822 40.1234 98.4901 40.1413 98.2705 40.1592C98.1058 40.1592 97.9136 40.1771 97.694 40.1771H96.1294V42.4658H95.251V36.7798H97.694C97.9136 36.7798 98.1058 36.7798 98.2705 36.7977C98.4901 36.8155 98.6822 36.8155 98.8469 36.8513C99.2587 36.905 99.6429 36.9944 99.9174 37.1195C100.631 37.4414 100.988 37.8884 100.988 38.4784C100.988 39.0506 100.631 39.5155 99.9174 39.8373ZM99.1214 37.4235C98.9018 37.352 98.6548 37.3162 98.3803 37.2983L97.996 37.2804H96.1019V39.6407H97.996L98.3803 39.6228C98.6548 39.6049 98.9018 39.5691 99.1214 39.4976C99.8077 39.283 100.137 38.9433 100.137 38.4606C100.137 37.9778 99.7802 37.638 99.1214 37.4235Z" fill="white"/>
<path d="M106.837 39.8373C106.535 39.9625 106.178 40.0698 105.767 40.1056C105.602 40.1234 105.41 40.1413 105.19 40.1592C105.025 40.1592 104.833 40.1771 104.614 40.1771H103.049V42.4658H102.171V36.7798H104.614C104.833 36.7798 105.025 36.7798 105.19 36.7977C105.41 36.8155 105.602 36.8155 105.767 36.8513C106.178 36.905 106.562 36.9944 106.837 37.1195C107.551 37.4414 107.907 37.8884 107.907 38.4784C107.935 39.0506 107.578 39.5155 106.837 39.8373ZM106.041 37.4235C105.821 37.352 105.574 37.3162 105.3 37.2983L104.916 37.2804H103.022V39.6407H104.916L105.3 39.6228C105.574 39.6049 105.821 39.5691 106.041 39.4976C106.727 39.283 107.057 38.9433 107.057 38.4606C107.057 37.9778 106.727 37.638 106.041 37.4235Z" fill="white"/>
<path d="M109.107 42.4479V36.762H111.679V42.4479H109.107Z" fill="white"/>
<path d="M118.919 42.4479L114.052 37.4414H114.026V42.4479H113.202V36.762H114.309L118.893 41.4824H118.919V36.762H119.743V42.4479H118.919Z" fill="white"/>
<path d="M121.231 42.4479V36.762H126.342V37.2805H122.171V39.3189H126.195V39.8374H122.171V41.9294H126.342V42.4479H121.231Z" fill="white"/>
<path d="M132.043 42.0723C131.508 42.3942 130.887 42.5551 130.126 42.5551C129.337 42.5551 128.66 42.3942 128.153 42.0902C127.646 41.7862 127.364 41.375 127.364 40.8565H128.266C128.322 41.6432 128.942 42.0366 130.126 42.0366C130.634 42.0366 131.057 41.9293 131.395 41.7147C131.761 41.5001 131.931 41.2319 131.931 40.9101C131.931 40.5704 131.733 40.2843 131.31 40.0876C131.141 39.9982 130.916 39.9267 130.662 39.8551C130.465 39.8015 130.239 39.7479 129.929 39.6942C129.563 39.6227 129.252 39.5512 129.027 39.4975C128.717 39.426 128.491 39.3366 128.294 39.2293C127.843 38.9969 127.617 38.6393 127.617 38.1923C127.617 37.7453 127.871 37.3876 128.35 37.0837C128.83 36.7976 129.422 36.6545 130.126 36.6545C130.831 36.6545 131.395 36.7976 131.874 37.1016C132.353 37.4055 132.607 37.7631 132.607 38.2101H131.705C131.705 37.9241 131.564 37.6916 131.254 37.477C130.944 37.2804 130.577 37.1731 130.126 37.1731C129.675 37.1731 129.281 37.2625 128.971 37.4592C128.661 37.6558 128.491 37.8883 128.491 38.1744C128.491 38.4962 128.745 38.7644 129.224 38.9254C129.393 38.979 129.619 39.0505 129.929 39.1042L130.634 39.2472C131.31 39.3724 131.846 39.5691 132.212 39.8373C132.635 40.1234 132.833 40.481 132.833 40.8922C132.833 41.3571 132.579 41.7505 132.043 42.0723Z" fill="white"/>
<path d="M138.248 42.0723C137.713 42.3942 137.093 42.5551 136.331 42.5551C135.542 42.5551 134.866 42.3942 134.358 42.0902C133.851 41.7862 133.569 41.375 133.569 40.8565H134.471C134.527 41.6432 135.147 42.0366 136.331 42.0366C136.839 42.0366 137.262 41.9293 137.6 41.7147C137.966 41.5001 138.136 41.2319 138.136 40.9101C138.136 40.5704 137.938 40.2843 137.515 40.0876C137.346 39.9982 137.121 39.9267 136.867 39.8551C136.67 39.8015 136.444 39.7479 136.134 39.6942C135.768 39.6227 135.458 39.5512 135.232 39.4975C134.922 39.426 134.696 39.3366 134.499 39.2293C134.048 38.9969 133.823 38.6393 133.823 38.1923C133.823 37.7453 134.076 37.3876 134.555 37.0837C135.035 36.7976 135.627 36.6545 136.331 36.6545C137.036 36.6545 137.6 36.7976 138.079 37.1016C138.558 37.4055 138.812 37.7631 138.812 38.2101H137.91C137.91 37.9241 137.769 37.6916 137.459 37.477C137.149 37.2804 136.782 37.1731 136.331 37.1731C135.88 37.1731 135.486 37.2625 135.176 37.4592C134.866 37.6558 134.696 37.8883 134.696 38.1744C134.696 38.4962 134.95 38.7644 135.429 38.9254C135.599 38.979 135.824 39.0505 136.134 39.1042L136.839 39.2472C137.515 39.3724 138.051 39.5691 138.417 39.8373C138.84 40.1234 139.038 40.481 139.038 40.8922C139.038 41.3571 138.784 41.7505 138.248 42.0723Z" fill="white"/>
<path d="M75.91 34.384C75.4639 33.5079 70.394 22.9942 69.4003 20.8306C69.2381 20.4909 68.9542 20.3657 68.5486 20.3657H68.5283C67.1493 20.3836 65.7703 20.3657 64.3913 20.3836C64.3102 20.3657 64.2494 20.3657 64.1683 20.3657C63.7627 20.3657 63.499 20.5803 63.3368 20.9558C61.9781 23.8703 60.5991 26.7848 59.2201 29.6993C59.0376 30.0927 59.0173 30.4503 59.2404 30.8079C59.2404 30.8079 59.2404 30.8079 59.2201 30.8079C59.9096 31.9344 60.5788 33.0609 61.2683 34.1694C61.5117 34.5807 61.9172 34.7237 62.4242 34.6343C62.992 34.4913 69.2381 31.2728 69.522 30.9867C68.4269 30.9867 65.5878 31.0582 63.134 31.0404C63.6004 29.8424 64.2291 28.7159 64.7766 27.5358C65.2836 26.4272 65.8312 25.3365 66.3787 24.2637C67.8997 27.4285 70.1912 32.1311 71.2255 34.3125C71.3674 34.5986 71.4891 34.7595 71.8947 34.7416C73.1317 34.7237 74.3891 34.7237 75.6261 34.7416C76.0114 34.7416 76.052 34.6701 75.91 34.384Z" fill="white"/>
<path d="M58.7739 33.4007C57.9856 33.955 57.1334 34.3305 56.1747 34.4735C55.7699 34.5451 55.3225 34.5808 54.7898 34.5987C54.5768 34.5987 54.3211 34.6166 54.0442 34.6166H47.8657V20.4016H53.0641C53.7246 20.4016 54.2146 20.4195 54.5555 20.4374C55.1094 20.4553 55.5781 20.5089 55.9829 20.5983C57.0055 20.795 57.8364 21.1884 58.4756 21.7963C59.136 22.4221 59.4769 23.191 59.4769 24.1386C59.4769 25.426 58.8165 26.3737 57.5169 26.9995C59.3704 27.5359 60.3078 28.6445 60.3078 30.3074C60.3291 31.6305 59.7965 32.6497 58.7739 33.4007ZM54.8537 23.7989C54.5768 23.6559 54.1933 23.5843 53.6607 23.5843H51.9989V25.8015H53.6394C54.7898 25.8015 55.3651 25.426 55.3651 24.675C55.3651 24.2638 55.1946 23.9598 54.8537 23.7989ZM55.5568 29.0736C55.2372 28.9306 54.7685 28.8412 54.172 28.8412H51.9989V31.4339H54.1507C54.7685 31.4339 55.2372 31.3445 55.5781 31.1478C55.9829 30.9153 56.196 30.5577 56.196 30.0749C56.1747 29.6101 55.9616 29.2703 55.5568 29.0736Z" fill="white"/>
<path d="M80.9617 23.5843V34.6166H76.5452V23.5843H73.1294L74.2825 20.4016H84.3557V23.5843H80.9617Z" fill="white"/>
<path d="M94.1861 23.6022V34.6165H89.8503V23.6022H85.2368L86.5183 20.4194H97.5181V23.6022H94.1861Z" fill="white"/>
<path d="M97.8052 34.6166V20.4016H107.69V23.6022H102.154V25.8194H107.511V29.0021H102.154V31.4339H107.69V34.6166H97.8052Z" fill="white"/>
<path d="M124.318 29.306C123.85 30.9689 122.855 32.3278 121.352 33.347C119.848 34.3661 118.121 34.8847 116.171 34.8847C113.814 34.8847 111.803 34.1695 110.157 32.739C108.491 31.3086 107.658 29.5563 107.658 27.4822C107.658 25.408 108.491 23.6736 110.137 22.2432C111.782 20.8306 113.773 20.1333 116.13 20.1333C119.198 20.1333 121.555 21.2419 123.241 23.4769C123.83 24.2458 124.196 25.0147 124.338 25.8014H120.011C119.3 24.1564 117.999 23.3339 116.11 23.3339C114.83 23.3339 113.794 23.7452 112.961 24.5855C112.168 25.3902 111.782 26.3557 111.782 27.4822C111.782 28.6265 112.168 29.6099 112.961 30.4146C113.794 31.2728 114.85 31.702 116.13 31.702C117.898 31.702 119.178 30.8973 120.011 29.306H124.318Z" fill="white"/>
<path d="M134.208 20.4194V25.7657H130.219C129.739 25.7657 129.258 25.7299 128.778 25.6763V20.4373H124.539V24.228V25.2293V34.6523H128.778V28.9663H133.331C133.623 28.9663 133.915 29.0021 134.208 29.0378V34.6523H138.447V30.7186V29.7173V20.4373H134.208V20.4194Z" fill="white"/>
<path d="M19.1366 35.4032C19.1366 35.4032 19.1366 27.661 19.1366 26.0875C19.1366 24.514 19.694 23.173 21.2665 22.422C22.8391 21.671 26.5417 21.5816 27.3777 25.2471C27.3777 25.2471 28.9503 24.4961 30.722 25.3365C32.4737 26.0875 32.9515 27.4107 33.1306 28.5014C33.2301 29.5921 32.7524 31.0046 30.5428 32.1669C28.3133 33.3291 25.7255 34.6701 24.2326 35.4211C22.7595 36.1721 20.9879 37.2449 19.7935 37.7456C18.5792 38.2462 17.0066 38.9078 15.0757 37.4952C13.1249 36.1721 12.7666 33.1682 15.1753 31.6662C15.1753 31.6662 13.1448 30.4146 13.6027 28.0007C13.9809 25.5869 16.5687 24.7465 18.5195 25.0862L18.42 26.5882C18.42 26.5882 17.4047 26.2484 16.29 26.8385C15.1753 27.4285 14.8966 28.6623 15.3544 29.6636C15.8122 30.6649 17.1062 30.8258 17.4844 31.3265C17.8626 31.8271 17.4844 32.1669 16.8275 32.4887C16.0909 32.8284 15.0757 33.49 15.2549 34.992C15.434 36.4939 17.4844 37.4058 19.057 36.5655C20.6295 35.7251 28.6119 31.6483 29.9854 30.8974C31.3789 30.1464 31.6576 29.3954 31.6576 28.8232C31.6576 28.251 31.4784 27.4107 30.5428 26.8206C29.6072 26.2305 28.5124 26.4094 27.8555 26.8206C27.1986 27.1603 26.8403 27.4107 26.3824 27.1603C25.9246 26.91 26.0042 26.32 26.0042 25.9087C26.0042 25.4974 26.0042 24.7465 25.0686 23.9955C24.2326 23.2445 22.66 23.2445 21.6448 24.1564C21.0874 24.6571 20.9879 25.3186 20.9879 26.32V34.5628L19.1366 35.4032Z" fill="white"/>
<path d="M20.8011 26.4272L29.4472 30.2537L27.4949 31.094L20.7778 28.0901V26.4272H20.8011Z" fill="white"/>
<path d="M31.9806 32.0774C31.9806 32.0774 33.6209 33.4005 32.8527 35.582C32.1675 37.7455 29.3645 38.8362 27.0598 37.9958C27.0598 37.9958 26.873 39.7481 25.0251 40.66C23.281 41.5719 20.1873 41.5719 18.6509 38.7468L20.1873 37.9958C20.1873 37.9958 20.6649 39.8196 22.8865 39.7481C25.1081 39.6766 25.3988 37.9958 25.295 37.4952C25.295 36.9945 25.1912 36.4045 25.6895 36.172C26.167 35.9217 26.5615 36.172 27.4336 36.5833C28.2018 36.9945 30.0497 36.9945 30.9217 35.8323C31.69 34.6701 31.2124 33.5078 30.4442 32.9178L31.9806 32.0774Z" fill="white"/>
<path d="M20.7974 29.002L27.2138 31.5767L20.7974 34.1515V29.002Z" fill="white"/>
<path fill-rule="evenodd" clip-rule="evenodd" d="M16.4163 42.8414C8.03869 38.2461 9.30289 40.3382 9.30289 31.1655C9.30289 29.1807 9.24628 27.7324 9.22741 26.606C6.58581 28.537 1.45355 32.7032 0.0195312 36.8336C0.0950057 39.0508 0.510115 41.0891 1.71771 43.0739C3.03851 45.2195 4.84989 46.6321 7.05752 47.8837C8.60475 48.7598 10.2274 49.5466 11.7747 50.387C13.3408 51.2452 14.8691 52.175 16.4352 53.0154C18.6806 54.2134 20.8693 55.0001 23.4921 55.0001C26.1148 55.0001 28.3036 54.2134 30.5489 53.0154C32.115 52.175 33.6434 51.2452 35.2095 50.387C36.2095 49.8506 37.2096 49.332 38.2096 48.7956C32.7377 50.387 23.7374 46.6678 22.0015 45.9169C21.9071 45.8811 21.8128 45.8275 21.6996 45.7917C20.5863 45.2553 19.0391 44.2719 16.4163 42.8414Z" fill="white"/>
<path fill-rule="evenodd" clip-rule="evenodd" d="M36.9162 25.301C37.0148 26.5169 36.8768 28.2871 36.8768 31.1658C36.8768 40.3385 38.198 38.2465 29.4423 42.8418C27.5491 43.8252 26.1884 44.6119 25.1235 45.1662C28.3576 46.3642 35.0033 48.492 39.6967 47.598C41.7871 46.4178 43.5027 45.0768 44.7648 43.0742C46.1452 40.9285 46.5396 38.7292 46.5594 36.2796C46.5791 34.581 46.4805 32.8645 46.4805 31.1479C46.4805 29.4314 46.5594 27.7149 46.5594 26.0162C46.5396 23.5845 46.1452 21.3852 44.7648 19.2217C43.3844 17.076 41.4913 15.6634 39.184 14.4118C37.567 13.5357 35.871 12.7489 34.254 11.9085C33.2088 11.3721 32.2031 10.8 31.1776 10.2278C35.5752 13.929 36.719 23.209 36.8965 24.9792C36.8965 25.1043 36.9162 25.1937 36.9162 25.301Z" fill="white"/>
<path fill-rule="evenodd" clip-rule="evenodd" d="M30.2308 9.04751C28.1448 7.99257 26.0777 7.33099 23.6314 7.33099C20.9954 7.33099 18.7956 8.11773 16.5389 9.31572C14.965 10.1561 13.4289 11.0859 11.8549 11.9441C11.0205 12.3912 10.1861 12.8203 9.35167 13.2673V11.1932C9.35167 4.04098 9.90162 0 0.059399 0V24.675C0.0214714 25.1221 0.00250761 25.5691 0.00250761 26.0161C-0.0164562 27.7147 0.0783628 29.4312 0.0783628 31.1478C0.0783628 32.2385 0.0404352 33.3292 0.0214714 34.402C1.31101 29.0915 9.29477 23.5665 10.8308 22.5294C10.9067 22.4757 11.0015 22.4221 11.0963 22.3685C12.1773 21.689 13.8651 20.9023 16.501 19.4718C24.921 14.8765 22.3798 14.8765 30.7997 19.4718C32.6203 20.4552 33.9856 21.1347 35.0097 21.689C34.5735 18.5778 33.3219 12.2839 30.2308 9.04751Z" fill="white"/>
</svg>
