<svg width="40" height="40" viewBox="0 0 40 40" fill="none" xmlns="http://www.w3.org/2000/svg">
<rect width="40" height="40" rx="20" fill="white"/>
<g clip-path="url(#clip0_39_545)">
<g clip-path="url(#clip1_39_545)">
<path d="M26.6937 13.3722C26.6937 13.3722 26.6937 13.3722 26.6608 13.3722C25.4139 12.7816 24.1014 12.3878 22.7562 12.1581C22.7233 12.1253 22.6906 12.1581 22.6906 12.1581C22.4937 12.4863 22.3296 12.8472 22.1983 13.1753C20.7218 12.9456 19.2452 12.9456 17.7686 13.1753C17.6374 12.8472 17.4733 12.4863 17.2765 12.1581C17.2765 12.1581 17.2436 12.1253 17.2108 12.1581C15.8655 12.3878 14.553 12.7816 13.3061 13.3722C13.2733 13.3722 13.2733 13.3722 13.2733 13.3722C10.7796 17.1128 10.0905 20.755 10.4186 24.3644C10.4186 24.3644 10.4186 24.3972 10.4515 24.3972C11.8952 25.48 13.5358 26.3003 15.2749 26.8253C15.2749 26.8582 15.3077 26.8253 15.3405 26.8253C15.7015 26.3003 16.0296 25.7753 16.3249 25.2175C16.3249 25.1847 16.3249 25.1519 16.2921 25.1191C15.7671 24.9222 15.2421 24.6925 14.7827 24.3972C14.7499 24.3972 14.7171 24.3316 14.7827 24.2988C14.8811 24.2332 14.9796 24.1675 15.078 24.0691C15.078 24.0691 15.1108 24.0691 15.1436 24.0691C18.2936 25.5128 21.7062 25.5128 24.8233 24.0691C24.8562 24.0691 24.8562 24.0691 24.8889 24.0691C24.9874 24.1675 25.0858 24.2332 25.1843 24.2988C25.2171 24.3316 25.2171 24.3972 25.1843 24.3972C24.6921 24.6925 24.1999 24.9222 23.6749 25.1191C23.6421 25.1519 23.6421 25.1847 23.6421 25.2175C23.9374 25.7753 24.2656 26.3003 24.6264 26.8253C24.6593 26.8253 24.6593 26.8582 24.6921 26.8253C26.4312 26.3003 28.0718 25.48 29.5156 24.3972C29.5483 24.3972 29.5483 24.3644 29.5483 24.3644C29.9421 20.1972 28.8593 16.5878 26.6937 13.3722ZM16.7843 22.166C15.8327 22.166 15.0452 21.28 15.0452 20.23C15.0452 19.1472 15.8327 18.2941 16.7843 18.2941C17.7686 18.2941 18.5233 19.1472 18.5233 20.23C18.5233 21.28 17.7358 22.166 16.7843 22.166ZM23.1827 22.166C22.2312 22.166 21.4764 21.28 21.4764 20.23C21.4764 19.1472 22.2312 18.2941 23.1827 18.2941C24.1671 18.2941 24.9546 19.1472 24.9218 20.23C24.9218 21.28 24.1671 22.166 23.1827 22.166Z" fill="#008345"/>
</g>
</g>
<defs>
<clipPath id="clip0_39_545">
<rect width="21" height="16" fill="white" transform="translate(9.5 12)"/>
</clipPath>
<clipPath id="clip1_39_545">
<rect width="21" height="15.75" fill="white" transform="translate(9.5 12.125)"/>
</clipPath>
</defs>
</svg>
