<svg width="19" height="20" viewBox="0 0 19 20" fill="none" xmlns="http://www.w3.org/2000/svg">
<g clip-path="url(#clip0_45_559)">
<path d="M9.70692 2.29303C9.51939 2.10556 9.26508 2.00024 8.99992 2.00024C8.73475 2.00024 8.48045 2.10556 8.29292 2.29303L1.29292 9.29303C1.11076 9.48163 1.00997 9.73423 1.01224 9.99643C1.01452 10.2586 1.11969 10.5094 1.3051 10.6948C1.49051 10.8803 1.74132 10.9854 2.00352 10.9877C2.26571 10.99 2.51832 10.8892 2.70692 10.707L2.99992 10.414V17C2.99992 17.2652 3.10528 17.5196 3.29281 17.7071C3.48035 17.8947 3.7347 18 3.99992 18H5.99992C6.26514 18 6.51949 17.8947 6.70703 17.7071C6.89456 17.5196 6.99992 17.2652 6.99992 17V15C6.99992 14.7348 7.10528 14.4805 7.29281 14.2929C7.48035 14.1054 7.7347 14 7.99992 14H9.99992C10.2651 14 10.5195 14.1054 10.707 14.2929C10.8946 14.4805 10.9999 14.7348 10.9999 15V17C10.9999 17.2652 11.1053 17.5196 11.2928 17.7071C11.4803 17.8947 11.7347 18 11.9999 18H13.9999C14.2651 18 14.5195 17.8947 14.707 17.7071C14.8946 17.5196 14.9999 17.2652 14.9999 17V10.414L15.2929 10.707C15.4815 10.8892 15.7341 10.99 15.9963 10.9877C16.2585 10.9854 16.5093 10.8803 16.6947 10.6948C16.8801 10.5094 16.9853 10.2586 16.9876 9.99643C16.9899 9.73423 16.8891 9.48163 16.7069 9.29303L9.70692 2.29303Z" fill="white"/>
</g>
<defs>
<clipPath id="clip0_45_559">
<rect width="18.3079" height="20" fill="white"/>
</clipPath>
</defs>
</svg>
