<svg width="40" height="40" viewBox="0 0 40 40" fill="none" xmlns="http://www.w3.org/2000/svg">
<rect width="40" height="40" rx="20" fill="white"/>
<g clip-path="url(#clip0_39_524)">
<g clip-path="url(#clip1_39_524)">
<path d="M26.7971 16.5178C26.7971 16.6852 26.7971 16.8191 26.7971 16.9865C26.7971 21.6405 23.2814 26.9642 16.8193 26.9642C14.8104 26.9642 12.9689 26.395 11.4287 25.3905C11.6966 25.424 11.9644 25.4575 12.2658 25.4575C13.9064 25.4575 15.4131 24.8883 16.6184 23.9508C15.0783 23.9173 13.7725 22.9128 13.3372 21.5066C13.5716 21.5401 13.7725 21.5736 14.0068 21.5736C14.3082 21.5736 14.643 21.5066 14.9109 21.4396C13.3037 21.1048 12.0984 19.6986 12.0984 17.991V17.9575C12.5671 18.2253 13.1363 18.3593 13.7055 18.3928C12.7345 17.7566 12.1318 16.6852 12.1318 15.4798C12.1318 14.8102 12.2992 14.2075 12.6006 13.7053C14.3417 15.8146 16.9533 17.2209 19.8662 17.3883C19.7992 17.1204 19.7658 16.8526 19.7658 16.5847C19.7658 14.6428 21.3394 13.0691 23.2814 13.0691C24.2859 13.0691 25.1899 13.4709 25.8596 14.174C26.6296 14.0066 27.3996 13.7053 28.0693 13.3035C27.8014 14.1405 27.2657 14.8102 26.5292 15.2454C27.2323 15.1785 27.9354 14.9776 28.5381 14.7097C28.0693 15.4128 27.4667 16.0155 26.7971 16.5178Z" fill="#008345"/>
</g>
</g>
<defs>
<clipPath id="clip0_39_524">
<rect width="18" height="15" fill="white" transform="translate(11 12.5)"/>
</clipPath>
<clipPath id="clip1_39_524">
<rect width="17.1429" height="15" fill="white" transform="translate(11.4287 12.5)"/>
</clipPath>
</defs>
</svg>
